%TF.GenerationSoftware,Altium Limited,Altium Designer,22.6.1 (34)*%
G04 Layer_Color=8388736*
%FSLAX45Y45*%
%MOMM*%
%TF.SameCoordinates,EFAF5BE3-474D-4A98-89D0-AE48FBC3E593*%
%TF.FilePolarity,Negative*%
%TF.FileFunction,Soldermask,Top*%
%TF.Part,Single*%
G01*
G75*
%TA.AperFunction,TestPad*%
G04:AMPARAMS|DCode=72|XSize=1.6524mm|YSize=1.1524mm|CornerRadius=0.2262mm|HoleSize=0mm|Usage=FLASHONLY|Rotation=270.000|XOffset=0mm|YOffset=0mm|HoleType=Round|Shape=RoundedRectangle|*
%AMROUNDEDRECTD72*
21,1,1.65240,0.70000,0,0,270.0*
21,1,1.20000,1.15240,0,0,270.0*
1,1,0.45240,-0.35000,-0.60000*
1,1,0.45240,-0.35000,0.60000*
1,1,0.45240,0.35000,0.60000*
1,1,0.45240,0.35000,-0.60000*
%
%ADD72ROUNDEDRECTD72*%
G04:AMPARAMS|DCode=74|XSize=1.6524mm|YSize=1.1524mm|CornerRadius=0.2262mm|HoleSize=0mm|Usage=FLASHONLY|Rotation=180.000|XOffset=0mm|YOffset=0mm|HoleType=Round|Shape=RoundedRectangle|*
%AMROUNDEDRECTD74*
21,1,1.65240,0.70000,0,0,180.0*
21,1,1.20000,1.15240,0,0,180.0*
1,1,0.45240,-0.60000,0.35000*
1,1,0.45240,0.60000,0.35000*
1,1,0.45240,0.60000,-0.35000*
1,1,0.45240,-0.60000,-0.35000*
%
%ADD74ROUNDEDRECTD74*%
%TA.AperFunction,SMDPad,CuDef*%
G04:AMPARAMS|DCode=75|XSize=1.92mm|YSize=1.62mm|CornerRadius=0.51mm|HoleSize=0mm|Usage=FLASHONLY|Rotation=90.000|XOffset=0mm|YOffset=0mm|HoleType=Round|Shape=RoundedRectangle|*
%AMROUNDEDRECTD75*
21,1,1.92000,0.60000,0,0,90.0*
21,1,0.90000,1.62000,0,0,90.0*
1,1,1.02000,0.30000,0.45000*
1,1,1.02000,0.30000,-0.45000*
1,1,1.02000,-0.30000,-0.45000*
1,1,1.02000,-0.30000,0.45000*
%
%ADD75ROUNDEDRECTD75*%
G04:AMPARAMS|DCode=76|XSize=1.92mm|YSize=1.62mm|CornerRadius=0.51mm|HoleSize=0mm|Usage=FLASHONLY|Rotation=180.000|XOffset=0mm|YOffset=0mm|HoleType=Round|Shape=RoundedRectangle|*
%AMROUNDEDRECTD76*
21,1,1.92000,0.60000,0,0,180.0*
21,1,0.90000,1.62000,0,0,180.0*
1,1,1.02000,-0.45000,0.30000*
1,1,1.02000,0.45000,0.30000*
1,1,1.02000,0.45000,-0.30000*
1,1,1.02000,-0.45000,-0.30000*
%
%ADD76ROUNDEDRECTD76*%
%ADD78P,1.72421X4X180.0*%
%TA.AperFunction,ComponentPad*%
%ADD79C,0.15240*%
%TA.AperFunction,TestPad*%
%ADD80R,1.93040X1.93040*%
%ADD81C,1.93040*%
%TA.AperFunction,ComponentPad*%
%ADD82C,2.15240*%
G04:AMPARAMS|DCode=83|XSize=1.3524mm|YSize=1.5524mm|CornerRadius=0mm|HoleSize=0mm|Usage=FLASHONLY|Rotation=8.887|XOffset=0mm|YOffset=0mm|HoleType=Round|Shape=Round|*
%AMOVALD83*
21,1,0.20000,1.35240,0.00000,0.00000,98.9*
1,1,1.35240,0.01545,-0.09880*
1,1,1.35240,-0.01545,0.09880*
%
%ADD83OVALD83*%

%ADD84P,0.21553X4X53.9*%
%TA.AperFunction,ViaPad*%
%ADD85C,0.15240*%
%TA.AperFunction,SMDPad,CuDef*%
G04:AMPARAMS|DCode=123|XSize=2.1524mm|YSize=3.3524mm|CornerRadius=0.7762mm|HoleSize=0mm|Usage=FLASHONLY|Rotation=188.887|XOffset=0mm|YOffset=0mm|HoleType=Round|Shape=RoundedRectangle|*
%AMROUNDEDRECTD123*
21,1,2.15240,1.80000,0,0,188.9*
21,1,0.60000,3.35240,0,0,188.9*
1,1,1.55240,-0.43543,0.84285*
1,1,1.55240,0.15736,0.93554*
1,1,1.55240,0.43543,-0.84285*
1,1,1.55240,-0.15736,-0.93554*
%
%ADD123ROUNDEDRECTD123*%
G04:AMPARAMS|DCode=124|XSize=3.3524mm|YSize=3.3524mm|CornerRadius=1.1962mm|HoleSize=0mm|Usage=FLASHONLY|Rotation=188.887|XOffset=0mm|YOffset=0mm|HoleType=Round|Shape=RoundedRectangle|*
%AMROUNDEDRECTD124*
21,1,3.35240,0.96000,0,0,188.9*
21,1,0.96000,3.35240,0,0,188.9*
1,1,2.39240,-0.54839,0.40009*
1,1,2.39240,0.40009,0.54839*
1,1,2.39240,0.54839,-0.40009*
1,1,2.39240,-0.40009,-0.54839*
%
%ADD124ROUNDEDRECTD124*%
G04:AMPARAMS|DCode=125|XSize=3.3524mm|YSize=2.7524mm|CornerRadius=0.9862mm|HoleSize=0mm|Usage=FLASHONLY|Rotation=188.887|XOffset=0mm|YOffset=0mm|HoleType=Round|Shape=RoundedRectangle|*
%AMROUNDEDRECTD125*
21,1,3.35240,0.78000,0,0,188.9*
21,1,1.38000,2.75240,0,0,188.9*
1,1,1.97240,-0.74197,0.27872*
1,1,1.97240,0.62147,0.49191*
1,1,1.97240,0.74197,-0.27872*
1,1,1.97240,-0.62147,-0.49191*
%
%ADD125ROUNDEDRECTD125*%
%TA.AperFunction,TestPad*%
G04:AMPARAMS|DCode=126|XSize=1.6524mm|YSize=1.1524mm|CornerRadius=0.2262mm|HoleSize=0mm|Usage=FLASHONLY|Rotation=285.887|XOffset=0mm|YOffset=0mm|HoleType=Round|Shape=RoundedRectangle|*
%AMROUNDEDRECTD126*
21,1,1.65240,0.70000,0,0,285.9*
21,1,1.20000,1.15240,0,0,285.9*
1,1,0.45240,-0.17239,-0.67289*
1,1,0.45240,-0.50088,0.48127*
1,1,0.45240,0.17239,0.67289*
1,1,0.45240,0.50088,-0.48127*
%
%ADD126ROUNDEDRECTD126*%
G04:AMPARAMS|DCode=127|XSize=2.1mm|YSize=3.5mm|CornerRadius=0.65mm|HoleSize=0mm|Usage=FLASHONLY|Rotation=98.887|XOffset=0mm|YOffset=0mm|HoleType=Round|Shape=RoundedRectangle|*
%AMROUNDEDRECTD127*
21,1,2.10000,2.20000,0,0,98.9*
21,1,0.80000,3.50000,0,0,98.9*
1,1,1.30000,1.02500,0.56513*
1,1,1.30000,1.14859,-0.22526*
1,1,1.30000,-1.02500,-0.56513*
1,1,1.30000,-1.14859,0.22526*
%
%ADD127ROUNDEDRECTD127*%
G04:AMPARAMS|DCode=128|XSize=0.6mm|YSize=1.1mm|CornerRadius=0.225mm|HoleSize=0mm|Usage=FLASHONLY|Rotation=278.887|XOffset=0mm|YOffset=0mm|HoleType=Round|Shape=RoundedRectangle|*
%AMROUNDEDRECTD128*
21,1,0.60000,0.65000,0,0,278.9*
21,1,0.15000,1.10000,0,0,278.9*
1,1,0.45000,-0.30951,-0.12431*
1,1,0.45000,-0.33268,0.02389*
1,1,0.45000,0.30951,0.12431*
1,1,0.45000,0.33268,-0.02389*
%
%ADD128ROUNDEDRECTD128*%
G04:AMPARAMS|DCode=129|XSize=0.37mm|YSize=1.1mm|CornerRadius=0.1445mm|HoleSize=0mm|Usage=FLASHONLY|Rotation=278.887|XOffset=0mm|YOffset=0mm|HoleType=Round|Shape=RoundedRectangle|*
%AMROUNDEDRECTD129*
21,1,0.37000,0.81100,0,0,278.9*
21,1,0.08100,1.10000,0,0,278.9*
1,1,0.28900,-0.39438,-0.10266*
1,1,0.28900,-0.40689,-0.02263*
1,1,0.28900,0.39438,0.10266*
1,1,0.28900,0.40689,0.02263*
%
%ADD129ROUNDEDRECTD129*%
G04:AMPARAMS|DCode=130|XSize=2.1mm|YSize=3.1mm|CornerRadius=0.65mm|HoleSize=0mm|Usage=FLASHONLY|Rotation=278.887|XOffset=0mm|YOffset=0mm|HoleType=Round|Shape=RoundedRectangle|*
%AMROUNDEDRECTD130*
21,1,2.10000,1.80000,0,0,278.9*
21,1,0.80000,3.10000,0,0,278.9*
1,1,1.30000,-0.82740,-0.53423*
1,1,1.30000,-0.95099,0.25616*
1,1,1.30000,0.82740,0.53423*
1,1,1.30000,0.95099,-0.25616*
%
%ADD130ROUNDEDRECTD130*%
G04:AMPARAMS|DCode=131|XSize=1.6524mm|YSize=1.1524mm|CornerRadius=0.2262mm|HoleSize=0mm|Usage=FLASHONLY|Rotation=8.887|XOffset=0mm|YOffset=0mm|HoleType=Round|Shape=RoundedRectangle|*
%AMROUNDEDRECTD131*
21,1,1.65240,0.70000,0,0,8.9*
21,1,1.20000,1.15240,0,0,8.9*
1,1,0.45240,0.64687,-0.25311*
1,1,0.45240,-0.53873,-0.43849*
1,1,0.45240,-0.64687,0.25311*
1,1,0.45240,0.53873,0.43849*
%
%ADD131ROUNDEDRECTD131*%
G04:AMPARAMS|DCode=132|XSize=1.6524mm|YSize=1.1524mm|CornerRadius=0.2262mm|HoleSize=0mm|Usage=FLASHONLY|Rotation=278.887|XOffset=0mm|YOffset=0mm|HoleType=Round|Shape=RoundedRectangle|*
%AMROUNDEDRECTD132*
21,1,1.65240,0.70000,0,0,278.9*
21,1,1.20000,1.15240,0,0,278.9*
1,1,0.45240,-0.25311,-0.64687*
1,1,0.45240,-0.43849,0.53873*
1,1,0.45240,0.25311,0.64687*
1,1,0.45240,0.43849,-0.53873*
%
%ADD132ROUNDEDRECTD132*%
G04:AMPARAMS|DCode=133|XSize=1.6524mm|YSize=1.1524mm|CornerRadius=0.2262mm|HoleSize=0mm|Usage=FLASHONLY|Rotation=15.887|XOffset=0mm|YOffset=0mm|HoleType=Round|Shape=RoundedRectangle|*
%AMROUNDEDRECTD133*
21,1,1.65240,0.70000,0,0,15.9*
21,1,1.20000,1.15240,0,0,15.9*
1,1,0.45240,0.67289,-0.17239*
1,1,0.45240,-0.48127,-0.50088*
1,1,0.45240,-0.67289,0.17239*
1,1,0.45240,0.48127,0.50088*
%
%ADD133ROUNDEDRECTD133*%
%TA.AperFunction,SMDPad,CuDef*%
G04:AMPARAMS|DCode=134|XSize=1.7524mm|YSize=1.9524mm|CornerRadius=0.5562mm|HoleSize=0mm|Usage=FLASHONLY|Rotation=278.887|XOffset=0mm|YOffset=0mm|HoleType=Round|Shape=RoundedRectangle|*
%AMROUNDEDRECTD134*
21,1,1.75240,0.84000,0,0,278.9*
21,1,0.64000,1.95240,0,0,278.9*
1,1,1.11240,-0.36552,-0.38104*
1,1,1.11240,-0.46440,0.25128*
1,1,1.11240,0.36552,0.38104*
1,1,1.11240,0.46440,-0.25128*
%
%ADD134ROUNDEDRECTD134*%
%TA.AperFunction,TestPad*%
G04:AMPARAMS|DCode=135|XSize=1.1524mm|YSize=0.7524mm|CornerRadius=0.2862mm|HoleSize=0mm|Usage=FLASHONLY|Rotation=278.887|XOffset=0mm|YOffset=0mm|HoleType=Round|Shape=RoundedRectangle|*
%AMROUNDEDRECTD135*
21,1,1.15240,0.18000,0,0,278.9*
21,1,0.58000,0.75240,0,0,278.9*
1,1,0.57240,-0.04412,-0.30042*
1,1,0.57240,-0.13372,0.27262*
1,1,0.57240,0.04412,0.30042*
1,1,0.57240,0.13372,-0.27262*
%
%ADD135ROUNDEDRECTD135*%
G04:AMPARAMS|DCode=136|XSize=1.8524mm|YSize=1.9524mm|CornerRadius=0.5862mm|HoleSize=0mm|Usage=FLASHONLY|Rotation=98.887|XOffset=0mm|YOffset=0mm|HoleType=Round|Shape=RoundedRectangle|*
%AMROUNDEDRECTD136*
21,1,1.85240,0.78000,0,0,98.9*
21,1,0.68000,1.95240,0,0,98.9*
1,1,1.17240,0.33280,0.39617*
1,1,1.17240,0.43785,-0.27567*
1,1,1.17240,-0.33280,-0.39617*
1,1,1.17240,-0.43785,0.27567*
%
%ADD136ROUNDEDRECTD136*%
%TA.AperFunction,SMDPad,CuDef*%
G04:AMPARAMS|DCode=137|XSize=1.92mm|YSize=1.62mm|CornerRadius=0.51mm|HoleSize=0mm|Usage=FLASHONLY|Rotation=105.887|XOffset=0mm|YOffset=0mm|HoleType=Round|Shape=RoundedRectangle|*
%AMROUNDEDRECTD137*
21,1,1.92000,0.60000,0,0,105.9*
21,1,0.90000,1.62000,0,0,105.9*
1,1,1.02000,0.16536,0.51494*
1,1,1.02000,0.41173,-0.35069*
1,1,1.02000,-0.16536,-0.51494*
1,1,1.02000,-0.41173,0.35069*
%
%ADD137ROUNDEDRECTD137*%
G04:AMPARAMS|DCode=138|XSize=1.92mm|YSize=1.62mm|CornerRadius=0.51mm|HoleSize=0mm|Usage=FLASHONLY|Rotation=15.887|XOffset=0mm|YOffset=0mm|HoleType=Round|Shape=RoundedRectangle|*
%AMROUNDEDRECTD138*
21,1,1.92000,0.60000,0,0,15.9*
21,1,0.90000,1.62000,0,0,15.9*
1,1,1.02000,0.51494,-0.16536*
1,1,1.02000,-0.35069,-0.41173*
1,1,1.02000,-0.51494,0.16536*
1,1,1.02000,0.35069,0.41173*
%
%ADD138ROUNDEDRECTD138*%
%TA.AperFunction,TestPad*%
G04:AMPARAMS|DCode=139|XSize=0.72mm|YSize=1.37mm|CornerRadius=0.305mm|HoleSize=0mm|Usage=FLASHONLY|Rotation=188.887|XOffset=0mm|YOffset=0mm|HoleType=Round|Shape=RoundedRectangle|*
%AMROUNDEDRECTD139*
21,1,0.72000,0.76000,0,0,188.9*
21,1,0.11000,1.37000,0,0,188.9*
1,1,0.61000,-0.11305,0.36694*
1,1,0.61000,-0.00436,0.38394*
1,1,0.61000,0.11305,-0.36694*
1,1,0.61000,0.00436,-0.38394*
%
%ADD139ROUNDEDRECTD139*%
%TA.AperFunction,SMDPad,CuDef*%
G04:AMPARAMS|DCode=140|XSize=0.7524mm|YSize=1.1524mm|CornerRadius=0.3162mm|HoleSize=0mm|Usage=FLASHONLY|Rotation=8.887|XOffset=0mm|YOffset=0mm|HoleType=Round|Shape=RoundedRectangle|*
%AMROUNDEDRECTD140*
21,1,0.75240,0.52000,0,0,8.9*
21,1,0.12000,1.15240,0,0,8.9*
1,1,0.63240,0.09945,-0.24761*
1,1,0.63240,-0.01911,-0.26615*
1,1,0.63240,-0.09945,0.24761*
1,1,0.63240,0.01911,0.26615*
%
%ADD140ROUNDEDRECTD140*%
G04:AMPARAMS|DCode=141|XSize=0.7524mm|YSize=1.1524mm|CornerRadius=0.3162mm|HoleSize=0mm|Usage=FLASHONLY|Rotation=180.000|XOffset=0mm|YOffset=0mm|HoleType=Round|Shape=RoundedRectangle|*
%AMROUNDEDRECTD141*
21,1,0.75240,0.52000,0,0,180.0*
21,1,0.12000,1.15240,0,0,180.0*
1,1,0.63240,-0.06000,0.26000*
1,1,0.63240,0.06000,0.26000*
1,1,0.63240,0.06000,-0.26000*
1,1,0.63240,-0.06000,-0.26000*
%
%ADD141ROUNDEDRECTD141*%
G04:AMPARAMS|DCode=142|XSize=0.5524mm|YSize=1.6524mm|CornerRadius=0.2762mm|HoleSize=0mm|Usage=FLASHONLY|Rotation=180.000|XOffset=0mm|YOffset=0mm|HoleType=Round|Shape=RoundedRectangle|*
%AMROUNDEDRECTD142*
21,1,0.55240,1.10000,0,0,180.0*
21,1,0.00000,1.65240,0,0,180.0*
1,1,0.55240,0.00000,0.55000*
1,1,0.55240,0.00000,0.55000*
1,1,0.55240,0.00000,-0.55000*
1,1,0.55240,0.00000,-0.55000*
%
%ADD142ROUNDEDRECTD142*%
G04:AMPARAMS|DCode=143|XSize=0.5524mm|YSize=1.6524mm|CornerRadius=0.2762mm|HoleSize=0mm|Usage=FLASHONLY|Rotation=270.000|XOffset=0mm|YOffset=0mm|HoleType=Round|Shape=RoundedRectangle|*
%AMROUNDEDRECTD143*
21,1,0.55240,1.10000,0,0,270.0*
21,1,0.00000,1.65240,0,0,270.0*
1,1,0.55240,-0.55000,0.00000*
1,1,0.55240,-0.55000,0.00000*
1,1,0.55240,0.55000,0.00000*
1,1,0.55240,0.55000,0.00000*
%
%ADD143ROUNDEDRECTD143*%
G04:AMPARAMS|DCode=144|XSize=2.5524mm|YSize=4.0524mm|CornerRadius=0.6762mm|HoleSize=0mm|Usage=FLASHONLY|Rotation=0.000|XOffset=0mm|YOffset=0mm|HoleType=Round|Shape=RoundedRectangle|*
%AMROUNDEDRECTD144*
21,1,2.55240,2.70000,0,0,0.0*
21,1,1.20000,4.05240,0,0,0.0*
1,1,1.35240,0.60000,-1.35000*
1,1,1.35240,-0.60000,-1.35000*
1,1,1.35240,-0.60000,1.35000*
1,1,1.35240,0.60000,1.35000*
%
%ADD144ROUNDEDRECTD144*%
G04:AMPARAMS|DCode=145|XSize=2.5524mm|YSize=3.9524mm|CornerRadius=1.2762mm|HoleSize=0mm|Usage=FLASHONLY|Rotation=0.000|XOffset=0mm|YOffset=0mm|HoleType=Round|Shape=RoundedRectangle|*
%AMROUNDEDRECTD145*
21,1,2.55240,1.40000,0,0,0.0*
21,1,0.00000,3.95240,0,0,0.0*
1,1,2.55240,0.00000,-0.70000*
1,1,2.55240,0.00000,-0.70000*
1,1,2.55240,0.00000,0.70000*
1,1,2.55240,0.00000,0.70000*
%
%ADD145ROUNDEDRECTD145*%
%TA.AperFunction,ConnectorPad*%
G04:AMPARAMS|DCode=146|XSize=2.5524mm|YSize=4.1524mm|CornerRadius=0.6762mm|HoleSize=0mm|Usage=FLASHONLY|Rotation=0.000|XOffset=0mm|YOffset=0mm|HoleType=Round|Shape=RoundedRectangle|*
%AMROUNDEDRECTD146*
21,1,2.55240,2.80000,0,0,0.0*
21,1,1.20000,4.15240,0,0,0.0*
1,1,1.35240,0.60000,-1.40000*
1,1,1.35240,-0.60000,-1.40000*
1,1,1.35240,-0.60000,1.40000*
1,1,1.35240,0.60000,1.40000*
%
%ADD146ROUNDEDRECTD146*%
G04:AMPARAMS|DCode=147|XSize=2.1524mm|YSize=4.1524mm|CornerRadius=0.7762mm|HoleSize=0mm|Usage=FLASHONLY|Rotation=0.000|XOffset=0mm|YOffset=0mm|HoleType=Round|Shape=RoundedRectangle|*
%AMROUNDEDRECTD147*
21,1,2.15240,2.60000,0,0,0.0*
21,1,0.60000,4.15240,0,0,0.0*
1,1,1.55240,0.30000,-1.30000*
1,1,1.55240,-0.30000,-1.30000*
1,1,1.55240,-0.30000,1.30000*
1,1,1.55240,0.30000,1.30000*
%
%ADD147ROUNDEDRECTD147*%
%TA.AperFunction,SMDPad,CuDef*%
G04:AMPARAMS|DCode=148|XSize=2.5524mm|YSize=4.3524mm|CornerRadius=0.6762mm|HoleSize=0mm|Usage=FLASHONLY|Rotation=195.887|XOffset=0mm|YOffset=0mm|HoleType=Round|Shape=RoundedRectangle|*
%AMROUNDEDRECTD148*
21,1,2.55240,3.00000,0,0,195.9*
21,1,1.20000,4.35240,0,0,195.9*
1,1,1.35240,-0.98769,1.27846*
1,1,1.35240,0.16647,1.60695*
1,1,1.35240,0.98769,-1.27846*
1,1,1.35240,-0.16647,-1.60695*
%
%ADD148ROUNDEDRECTD148*%
G04:AMPARAMS|DCode=149|XSize=2.5524mm|YSize=4.3524mm|CornerRadius=0.9162mm|HoleSize=0mm|Usage=FLASHONLY|Rotation=98.887|XOffset=0mm|YOffset=0mm|HoleType=Round|Shape=RoundedRectangle|*
%AMROUNDEDRECTD149*
21,1,2.55240,2.52000,0,0,98.9*
21,1,0.72000,4.35240,0,0,98.9*
1,1,1.83240,1.18926,0.55033*
1,1,1.83240,1.30049,-0.16103*
1,1,1.83240,-1.18926,-0.55033*
1,1,1.83240,-1.30049,0.16103*
%
%ADD149ROUNDEDRECTD149*%
G04:AMPARAMS|DCode=150|XSize=2.5524mm|YSize=4.3524mm|CornerRadius=0.6762mm|HoleSize=0mm|Usage=FLASHONLY|Rotation=98.887|XOffset=0mm|YOffset=0mm|HoleType=Round|Shape=RoundedRectangle|*
%AMROUNDEDRECTD150*
21,1,2.55240,3.00000,0,0,98.9*
21,1,1.20000,4.35240,0,0,98.9*
1,1,1.35240,1.38930,0.82453*
1,1,1.35240,1.57469,-0.36107*
1,1,1.35240,-1.38930,-0.82453*
1,1,1.35240,-1.57469,0.36107*
%
%ADD150ROUNDEDRECTD150*%
G04:AMPARAMS|DCode=151|XSize=2.5524mm|YSize=4.3524mm|CornerRadius=0.9162mm|HoleSize=0mm|Usage=FLASHONLY|Rotation=15.887|XOffset=0mm|YOffset=0mm|HoleType=Round|Shape=RoundedRectangle|*
%AMROUNDEDRECTD151*
21,1,2.55240,2.52000,0,0,15.9*
21,1,0.72000,4.35240,0,0,15.9*
1,1,1.83240,0.69116,-1.11333*
1,1,1.83240,-0.00134,-1.31042*
1,1,1.83240,-0.69116,1.11333*
1,1,1.83240,0.00134,1.31042*
%
%ADD151ROUNDEDRECTD151*%
G04:AMPARAMS|DCode=152|XSize=2.5524mm|YSize=4.3524mm|CornerRadius=0.6762mm|HoleSize=0mm|Usage=FLASHONLY|Rotation=188.887|XOffset=0mm|YOffset=0mm|HoleType=Round|Shape=RoundedRectangle|*
%AMROUNDEDRECTD152*
21,1,2.55240,3.00000,0,0,188.9*
21,1,1.20000,4.35240,0,0,188.9*
1,1,1.35240,-0.82453,1.38930*
1,1,1.35240,0.36107,1.57469*
1,1,1.35240,0.82453,-1.38930*
1,1,1.35240,-0.36107,-1.57469*
%
%ADD152ROUNDEDRECTD152*%
G04:AMPARAMS|DCode=153|XSize=2.5524mm|YSize=4.3524mm|CornerRadius=0.6762mm|HoleSize=0mm|Usage=FLASHONLY|Rotation=0.000|XOffset=0mm|YOffset=0mm|HoleType=Round|Shape=RoundedRectangle|*
%AMROUNDEDRECTD153*
21,1,2.55240,3.00000,0,0,0.0*
21,1,1.20000,4.35240,0,0,0.0*
1,1,1.35240,0.60000,-1.50000*
1,1,1.35240,-0.60000,-1.50000*
1,1,1.35240,-0.60000,1.50000*
1,1,1.35240,0.60000,1.50000*
%
%ADD153ROUNDEDRECTD153*%
G04:AMPARAMS|DCode=154|XSize=1.7524mm|YSize=1.5524mm|CornerRadius=0.3562mm|HoleSize=0mm|Usage=FLASHONLY|Rotation=0.000|XOffset=0mm|YOffset=0mm|HoleType=Round|Shape=RoundedRectangle|*
%AMROUNDEDRECTD154*
21,1,1.75240,0.84000,0,0,0.0*
21,1,1.04000,1.55240,0,0,0.0*
1,1,0.71240,0.52000,-0.42000*
1,1,0.71240,-0.52000,-0.42000*
1,1,0.71240,-0.52000,0.42000*
1,1,0.71240,0.52000,0.42000*
%
%ADD154ROUNDEDRECTD154*%
%TA.AperFunction,FiducialPad,Global*%
%ADD155C,2.54000*%
%TA.AperFunction,ComponentPad*%
G04:AMPARAMS|DCode=156|XSize=1.3mm|YSize=2.3mm|CornerRadius=0.65mm|HoleSize=0mm|Usage=FLASHONLY|Rotation=278.887|XOffset=0mm|YOffset=0mm|HoleType=Round|Shape=RoundedRectangle|*
%AMROUNDEDRECTD156*
21,1,1.30000,1.00000,0,0,278.9*
21,1,0.00000,2.30000,0,0,278.9*
1,1,1.30000,-0.49400,-0.07724*
1,1,1.30000,-0.49400,-0.07724*
1,1,1.30000,0.49400,0.07724*
1,1,1.30000,0.49400,0.07724*
%
%ADD156ROUNDEDRECTD156*%
%TA.AperFunction,TestPad*%
G04:AMPARAMS|DCode=157|XSize=1.3mm|YSize=2.3mm|CornerRadius=0.65mm|HoleSize=0mm|Usage=FLASHONLY|Rotation=278.887|XOffset=0mm|YOffset=0mm|HoleType=Round|Shape=RoundedRectangle|*
%AMROUNDEDRECTD157*
21,1,1.30000,1.00000,0,0,278.9*
21,1,0.00000,2.30000,0,0,278.9*
1,1,1.30000,-0.49400,-0.07724*
1,1,1.30000,-0.49400,-0.07724*
1,1,1.30000,0.49400,0.07724*
1,1,1.30000,0.49400,0.07724*
%
%ADD157ROUNDEDRECTD157*%
G04:AMPARAMS|DCode=158|XSize=1.3mm|YSize=2.8mm|CornerRadius=0.65mm|HoleSize=0mm|Usage=FLASHONLY|Rotation=278.887|XOffset=0mm|YOffset=0mm|HoleType=Round|Shape=RoundedRectangle|*
%AMROUNDEDRECTD158*
21,1,1.30000,1.50000,0,0,278.9*
21,1,0.00000,2.80000,0,0,278.9*
1,1,1.30000,-0.74100,-0.11587*
1,1,1.30000,-0.74100,-0.11586*
1,1,1.30000,0.74100,0.11587*
1,1,1.30000,0.74100,0.11586*
%
%ADD158ROUNDEDRECTD158*%
D72*
X10280240Y2750000D02*
D03*
X10079760D02*
D03*
X10310240Y2950000D02*
D03*
X10109760D02*
D03*
X10330240Y3150000D02*
D03*
X10129760D02*
D03*
X9040240Y1900000D02*
D03*
X8839760D02*
D03*
X9040240Y1700000D02*
D03*
X8839760D02*
D03*
X9400240Y1900000D02*
D03*
X9199760D02*
D03*
X9400240Y1700000D02*
D03*
X9199760D02*
D03*
X825253Y1254982D02*
D03*
X624773D02*
D03*
X419760Y2040000D02*
D03*
X620240D02*
D03*
X1579759Y1609999D02*
D03*
X1780239D02*
D03*
X1429759Y3709999D02*
D03*
X1630239D02*
D03*
X1429759Y3489999D02*
D03*
X1630239D02*
D03*
X1569759Y1819999D02*
D03*
X1770239D02*
D03*
X1810239Y1399999D02*
D03*
X1609759D02*
D03*
X770240Y5032500D02*
D03*
X569760D02*
D03*
D74*
X9900000Y2729760D02*
D03*
Y2930240D02*
D03*
X9960000Y5419760D02*
D03*
Y5620240D02*
D03*
X9760000Y5439760D02*
D03*
Y5640240D02*
D03*
X9920000Y1960240D02*
D03*
Y1759760D02*
D03*
X9720000Y1960240D02*
D03*
Y1759760D02*
D03*
X1210000Y1149759D02*
D03*
Y1350239D02*
D03*
X1419999Y1189759D02*
D03*
Y1390239D02*
D03*
X1095013Y1514742D02*
D03*
Y1715222D02*
D03*
X545013Y1574742D02*
D03*
Y1775222D02*
D03*
X335013Y1574742D02*
D03*
Y1775222D02*
D03*
X2000000Y3059759D02*
D03*
Y3260239D02*
D03*
X1829999Y3479759D02*
D03*
Y3680239D02*
D03*
X2039999Y3680240D02*
D03*
Y3479760D02*
D03*
X2380000Y2459760D02*
D03*
Y2660240D02*
D03*
X1870000Y910240D02*
D03*
Y709761D02*
D03*
X900000Y4599760D02*
D03*
Y4800240D02*
D03*
X960000Y709761D02*
D03*
Y910240D02*
D03*
X340000Y2859760D02*
D03*
Y3060240D02*
D03*
D75*
X650000Y4830000D02*
D03*
X330000D02*
D03*
Y4350000D02*
D03*
X650000D02*
D03*
D76*
X1175023Y885010D02*
D03*
Y565010D02*
D03*
X1655023D02*
D03*
Y885010D02*
D03*
D78*
X3900000Y5850000D02*
D03*
X150000Y5000000D02*
D03*
X1050000Y5150000D02*
D03*
X2350000Y5400000D02*
D03*
X7540000Y6150000D02*
D03*
X3500000Y550000D02*
D03*
X150000Y2050000D02*
D03*
X4200000Y750000D02*
D03*
X6050000Y1170000D02*
D03*
X5070000Y960000D02*
D03*
X6400000Y6400000D02*
D03*
X7200000D02*
D03*
X150000Y3350000D02*
D03*
X1450000Y250000D02*
D03*
X800000Y550000D02*
D03*
X2800000Y350000D02*
D03*
X7410000Y1370000D02*
D03*
X8430000Y1350000D02*
D03*
X3050000Y5600000D02*
D03*
X4600000Y6050000D02*
D03*
X10010000Y1540000D02*
D03*
X5500000Y6300000D02*
D03*
X150000Y2700000D02*
D03*
Y4000000D02*
D03*
X200000Y1250000D02*
D03*
X2150000Y150000D02*
D03*
X8000000Y6150000D02*
D03*
X9600000Y6450000D02*
D03*
D79*
X9719096Y4713139D02*
D03*
X9027500Y4604999D02*
D03*
X9869145Y4032394D02*
D03*
X9961836Y3439597D02*
D03*
D80*
X450000Y3480000D02*
D03*
X2620000Y2849999D02*
D03*
D81*
X450000Y3734000D02*
D03*
X2366000Y2849999D02*
D03*
X2620000Y3103999D02*
D03*
X2366000D02*
D03*
X2620000Y3357999D02*
D03*
X2366000D02*
D03*
D82*
X9108893Y1259701D02*
D03*
X9508894D02*
D03*
X9007500Y6285000D02*
D03*
X8607500D02*
D03*
X7384861Y5512248D02*
D03*
X7000139Y5402752D02*
D03*
X5524103Y3252599D02*
D03*
X5585897Y2857401D02*
D03*
X3570139Y4342752D02*
D03*
X3954861Y4452248D02*
D03*
X7432400Y4804103D02*
D03*
X7827598Y4865898D02*
D03*
X8807500Y5555000D02*
D03*
X9207500D02*
D03*
X9807500Y2340000D02*
D03*
X9407500D02*
D03*
D83*
X4366869Y3405921D02*
D03*
X3312876Y3241117D02*
D03*
X3488541Y3268584D02*
D03*
X3664207Y3296051D02*
D03*
X3839873Y3323519D02*
D03*
X4015538Y3350986D02*
D03*
X4191203Y3378453D02*
D03*
X4542534Y3433388D02*
D03*
X3390342Y2170228D02*
D03*
X3566007Y2197696D02*
D03*
X3741673Y2225163D02*
D03*
X3917338Y2252630D02*
D03*
X4093004Y2280098D02*
D03*
X4268669Y2307565D02*
D03*
X4444335Y2335033D02*
D03*
X4620000Y2362500D02*
D03*
D84*
X4052146Y2815210D02*
D03*
D85*
X6700388Y1694156D02*
D03*
X2613200Y4856200D02*
D03*
D123*
X10047254Y5138946D02*
D03*
X9770616Y5095690D02*
D03*
D124*
X8841901Y4950474D02*
D03*
D125*
X9690000Y4380000D02*
D03*
D126*
X5354135Y5028041D02*
D03*
X5161313Y4973161D02*
D03*
X5414135Y4828041D02*
D03*
X5221313Y4773161D02*
D03*
X5694375Y5128041D02*
D03*
X5501553Y5073161D02*
D03*
X5754136Y4928040D02*
D03*
X5561313Y4873161D02*
D03*
X5073589Y6162560D02*
D03*
X5266411Y6217440D02*
D03*
D127*
X10160000Y3930000D02*
D03*
D128*
X9758920Y4025280D02*
D03*
X9770507Y3951181D02*
D03*
X9843115Y3486823D02*
D03*
X9854701Y3412723D02*
D03*
D129*
X9779776Y3891901D02*
D03*
X9787500Y3842501D02*
D03*
X9795224Y3793101D02*
D03*
X9802949Y3743701D02*
D03*
X9810673Y3694302D02*
D03*
X9818397Y3644901D02*
D03*
X9826121Y3595502D02*
D03*
X9833845Y3546103D02*
D03*
D130*
X10230000Y3640000D02*
D03*
D131*
X8564514Y2159037D02*
D03*
X8595486Y1960964D02*
D03*
X3184514Y3709037D02*
D03*
X3215486Y3510964D02*
D03*
X3384514Y3739037D02*
D03*
X3415486Y3540964D02*
D03*
X4502238Y2049637D02*
D03*
X4533209Y1851564D02*
D03*
X4333210Y1821564D02*
D03*
X4302239Y2019637D02*
D03*
X4194514Y3869037D02*
D03*
X4225486Y3670964D02*
D03*
X3994514Y3839037D02*
D03*
X4025485Y3640964D02*
D03*
D132*
X7789037Y2025486D02*
D03*
X7590964Y1994514D02*
D03*
X2880963Y3904515D02*
D03*
X3079036Y3935486D02*
D03*
D133*
X5672560Y1596411D02*
D03*
X5727440Y1403589D02*
D03*
D134*
X7625696Y2516301D02*
D03*
X7289303Y2463702D02*
D03*
X8104304Y2591201D02*
D03*
X8440696Y2643800D02*
D03*
D135*
X7460826Y2470279D02*
D03*
X8275827Y2597777D02*
D03*
D136*
X7363075Y4327843D02*
D03*
X7006924Y4272154D02*
D03*
X7821923Y4399659D02*
D03*
X8178075Y4455348D02*
D03*
D137*
X5323181Y6029652D02*
D03*
X5015404Y5942055D02*
D03*
X5146800Y5480388D02*
D03*
X5454576Y5567985D02*
D03*
D138*
X5529610Y1326799D02*
D03*
X5442013Y1634576D02*
D03*
X4980347Y1503181D02*
D03*
X5067944Y1195404D02*
D03*
D139*
X9312281Y3970648D02*
D03*
X9406141Y3985324D02*
D03*
X9500000Y4000000D02*
D03*
X9544801Y3713482D02*
D03*
X9450941Y3698806D02*
D03*
X9357082Y3684130D02*
D03*
D140*
X3024715Y3471297D02*
D03*
X2836996Y3441945D02*
D03*
X2795285Y3708704D02*
D03*
X2889145Y3723379D02*
D03*
X2983004Y3738056D02*
D03*
D141*
X725000Y1435000D02*
D03*
X820000D02*
D03*
X914999D02*
D03*
Y1705000D02*
D03*
X725000D02*
D03*
D142*
X1620000Y2034999D02*
D03*
X1540000D02*
D03*
X1460000D02*
D03*
X1380000D02*
D03*
X1300000D02*
D03*
X1220000D02*
D03*
X1140000D02*
D03*
X1060000D02*
D03*
X980000D02*
D03*
X900000D02*
D03*
X820000D02*
D03*
Y3184999D02*
D03*
X900000D02*
D03*
X980000D02*
D03*
X1060000D02*
D03*
X1140000D02*
D03*
X1220000D02*
D03*
X1300000D02*
D03*
X1380000D02*
D03*
X1460000D02*
D03*
X1540000D02*
D03*
X1620000D02*
D03*
D143*
X645000Y2209999D02*
D03*
Y2289999D02*
D03*
Y2370000D02*
D03*
Y2449999D02*
D03*
Y2530000D02*
D03*
Y2610000D02*
D03*
Y2689999D02*
D03*
Y2770000D02*
D03*
Y2849999D02*
D03*
Y2929999D02*
D03*
Y3010000D02*
D03*
X1795000D02*
D03*
Y2929999D02*
D03*
Y2849999D02*
D03*
Y2770000D02*
D03*
Y2689999D02*
D03*
Y2610000D02*
D03*
Y2530000D02*
D03*
Y2449999D02*
D03*
Y2370000D02*
D03*
Y2289999D02*
D03*
Y2209999D02*
D03*
D144*
X8778894Y1259701D02*
D03*
D145*
X9838893D02*
D03*
D146*
X9337499Y6285000D02*
D03*
D147*
X8277500D02*
D03*
D148*
X7702256Y5602583D02*
D03*
X6682745Y5312418D02*
D03*
X3252744Y4252417D02*
D03*
D149*
X5473124Y3578637D02*
D03*
D150*
X5636877Y2531363D02*
D03*
D151*
X4272255Y4542582D02*
D03*
D152*
X7106362Y4753124D02*
D03*
X8153636Y4916878D02*
D03*
D153*
X8477500Y5555000D02*
D03*
X9537499D02*
D03*
X10137499Y2340000D02*
D03*
X9077500D02*
D03*
D154*
X1250000Y3690000D02*
D03*
X829999D02*
D03*
Y3970000D02*
D03*
X1250000D02*
D03*
D155*
X9800000Y6000000D02*
D03*
X650000Y850000D02*
D03*
D156*
X9910598Y3297981D02*
D03*
D157*
X9777123Y4151609D02*
D03*
D158*
X10288506Y3357072D02*
D03*
X10155031Y4210699D02*
D03*
%TF.MD5,9a83e9d28d118806709aa68e2f2e4076*%
M02*
