%TF.GenerationSoftware,Altium Limited,Altium Designer,22.6.1 (34)*%
G04 Layer_Physical_Order=1*
G04 Layer_Color=255*
%FSLAX45Y45*%
%MOMM*%
%TF.SameCoordinates,EFAF5BE3-474D-4A98-89D0-AE48FBC3E593*%
%TF.FilePolarity,Positive*%
%TF.FileFunction,Copper,L1,Top,Signal*%
%TF.Part,Single*%
G01*
G75*
%TA.AperFunction,Conductor*%
%ADD10C,0.27000*%
%ADD11C,0.50000*%
%ADD12C,0.40000*%
%ADD13C,0.80000*%
%ADD14C,0.60000*%
%ADD15C,1.00000*%
%ADD16C,0.26000*%
%ADD17C,0.30000*%
%TA.AperFunction,SMDPad,CuDef*%
G04:AMPARAMS|DCode=18|XSize=2mm|YSize=3.2mm|CornerRadius=0.7mm|HoleSize=0mm|Usage=FLASHONLY|Rotation=188.887|XOffset=0mm|YOffset=0mm|HoleType=Round|Shape=RoundedRectangle|*
%AMROUNDEDRECTD18*
21,1,2.00000,1.80000,0,0,188.9*
21,1,0.60000,3.20000,0,0,188.9*
1,1,1.40000,-0.43543,0.84285*
1,1,1.40000,0.15736,0.93554*
1,1,1.40000,0.43543,-0.84285*
1,1,1.40000,-0.15736,-0.93554*
%
%ADD18ROUNDEDRECTD18*%
G04:AMPARAMS|DCode=19|XSize=3.2mm|YSize=3.2mm|CornerRadius=1.12mm|HoleSize=0mm|Usage=FLASHONLY|Rotation=188.887|XOffset=0mm|YOffset=0mm|HoleType=Round|Shape=RoundedRectangle|*
%AMROUNDEDRECTD19*
21,1,3.20000,0.96000,0,0,188.9*
21,1,0.96000,3.20000,0,0,188.9*
1,1,2.24000,-0.54839,0.40009*
1,1,2.24000,0.40009,0.54839*
1,1,2.24000,0.54839,-0.40009*
1,1,2.24000,-0.40009,-0.54839*
%
%ADD19ROUNDEDRECTD19*%
G04:AMPARAMS|DCode=20|XSize=3.2mm|YSize=2.6mm|CornerRadius=0.91mm|HoleSize=0mm|Usage=FLASHONLY|Rotation=188.887|XOffset=0mm|YOffset=0mm|HoleType=Round|Shape=RoundedRectangle|*
%AMROUNDEDRECTD20*
21,1,3.20000,0.78000,0,0,188.9*
21,1,1.38000,2.60000,0,0,188.9*
1,1,1.82000,-0.74197,0.27872*
1,1,1.82000,0.62147,0.49191*
1,1,1.82000,0.74197,-0.27872*
1,1,1.82000,-0.62147,-0.49191*
%
%ADD20ROUNDEDRECTD20*%
%TA.AperFunction,TestPad*%
G04:AMPARAMS|DCode=21|XSize=1.5mm|YSize=1mm|CornerRadius=0.15mm|HoleSize=0mm|Usage=FLASHONLY|Rotation=180.000|XOffset=0mm|YOffset=0mm|HoleType=Round|Shape=RoundedRectangle|*
%AMROUNDEDRECTD21*
21,1,1.50000,0.70000,0,0,180.0*
21,1,1.20000,1.00000,0,0,180.0*
1,1,0.30000,-0.60000,0.35000*
1,1,0.30000,0.60000,0.35000*
1,1,0.30000,0.60000,-0.35000*
1,1,0.30000,-0.60000,-0.35000*
%
%ADD21ROUNDEDRECTD21*%
G04:AMPARAMS|DCode=22|XSize=1.5mm|YSize=1mm|CornerRadius=0.15mm|HoleSize=0mm|Usage=FLASHONLY|Rotation=270.000|XOffset=0mm|YOffset=0mm|HoleType=Round|Shape=RoundedRectangle|*
%AMROUNDEDRECTD22*
21,1,1.50000,0.70000,0,0,270.0*
21,1,1.20000,1.00000,0,0,270.0*
1,1,0.30000,-0.35000,-0.60000*
1,1,0.30000,-0.35000,0.60000*
1,1,0.30000,0.35000,0.60000*
1,1,0.30000,0.35000,-0.60000*
%
%ADD22ROUNDEDRECTD22*%
G04:AMPARAMS|DCode=23|XSize=1.5mm|YSize=1mm|CornerRadius=0.15mm|HoleSize=0mm|Usage=FLASHONLY|Rotation=285.887|XOffset=0mm|YOffset=0mm|HoleType=Round|Shape=RoundedRectangle|*
%AMROUNDEDRECTD23*
21,1,1.50000,0.70000,0,0,285.9*
21,1,1.20000,1.00000,0,0,285.9*
1,1,0.30000,-0.17239,-0.67289*
1,1,0.30000,-0.50088,0.48127*
1,1,0.30000,0.17239,0.67289*
1,1,0.30000,0.50088,-0.48127*
%
%ADD23ROUNDEDRECTD23*%
G04:AMPARAMS|DCode=24|XSize=2mm|YSize=3.4mm|CornerRadius=0.6mm|HoleSize=0mm|Usage=FLASHONLY|Rotation=98.887|XOffset=0mm|YOffset=0mm|HoleType=Round|Shape=RoundedRectangle|*
%AMROUNDEDRECTD24*
21,1,2.00000,2.20000,0,0,98.9*
21,1,0.80000,3.40000,0,0,98.9*
1,1,1.20000,1.02500,0.56513*
1,1,1.20000,1.14859,-0.22526*
1,1,1.20000,-1.02500,-0.56513*
1,1,1.20000,-1.14859,0.22526*
%
%ADD24ROUNDEDRECTD24*%
G04:AMPARAMS|DCode=25|XSize=0.5mm|YSize=1mm|CornerRadius=0.175mm|HoleSize=0mm|Usage=FLASHONLY|Rotation=278.887|XOffset=0mm|YOffset=0mm|HoleType=Round|Shape=RoundedRectangle|*
%AMROUNDEDRECTD25*
21,1,0.50000,0.65000,0,0,278.9*
21,1,0.15000,1.00000,0,0,278.9*
1,1,0.35000,-0.30951,-0.12431*
1,1,0.35000,-0.33268,0.02389*
1,1,0.35000,0.30951,0.12431*
1,1,0.35000,0.33268,-0.02389*
%
%ADD25ROUNDEDRECTD25*%
G04:AMPARAMS|DCode=26|XSize=0.27mm|YSize=1mm|CornerRadius=0.0945mm|HoleSize=0mm|Usage=FLASHONLY|Rotation=278.887|XOffset=0mm|YOffset=0mm|HoleType=Round|Shape=RoundedRectangle|*
%AMROUNDEDRECTD26*
21,1,0.27000,0.81100,0,0,278.9*
21,1,0.08100,1.00000,0,0,278.9*
1,1,0.18900,-0.39438,-0.10266*
1,1,0.18900,-0.40689,-0.02263*
1,1,0.18900,0.39438,0.10266*
1,1,0.18900,0.40689,0.02263*
%
%ADD26ROUNDEDRECTD26*%
G04:AMPARAMS|DCode=27|XSize=2mm|YSize=3mm|CornerRadius=0.6mm|HoleSize=0mm|Usage=FLASHONLY|Rotation=278.887|XOffset=0mm|YOffset=0mm|HoleType=Round|Shape=RoundedRectangle|*
%AMROUNDEDRECTD27*
21,1,2.00000,1.80000,0,0,278.9*
21,1,0.80000,3.00000,0,0,278.9*
1,1,1.20000,-0.82740,-0.53423*
1,1,1.20000,-0.95099,0.25616*
1,1,1.20000,0.82740,0.53423*
1,1,1.20000,0.95099,-0.25616*
%
%ADD27ROUNDEDRECTD27*%
G04:AMPARAMS|DCode=28|XSize=1.5mm|YSize=1mm|CornerRadius=0.15mm|HoleSize=0mm|Usage=FLASHONLY|Rotation=8.887|XOffset=0mm|YOffset=0mm|HoleType=Round|Shape=RoundedRectangle|*
%AMROUNDEDRECTD28*
21,1,1.50000,0.70000,0,0,8.9*
21,1,1.20000,1.00000,0,0,8.9*
1,1,0.30000,0.64687,-0.25311*
1,1,0.30000,-0.53873,-0.43849*
1,1,0.30000,-0.64687,0.25311*
1,1,0.30000,0.53873,0.43849*
%
%ADD28ROUNDEDRECTD28*%
G04:AMPARAMS|DCode=29|XSize=1.5mm|YSize=1mm|CornerRadius=0.15mm|HoleSize=0mm|Usage=FLASHONLY|Rotation=278.887|XOffset=0mm|YOffset=0mm|HoleType=Round|Shape=RoundedRectangle|*
%AMROUNDEDRECTD29*
21,1,1.50000,0.70000,0,0,278.9*
21,1,1.20000,1.00000,0,0,278.9*
1,1,0.30000,-0.25311,-0.64687*
1,1,0.30000,-0.43849,0.53873*
1,1,0.30000,0.25311,0.64687*
1,1,0.30000,0.43849,-0.53873*
%
%ADD29ROUNDEDRECTD29*%
G04:AMPARAMS|DCode=30|XSize=1.5mm|YSize=1mm|CornerRadius=0.15mm|HoleSize=0mm|Usage=FLASHONLY|Rotation=15.887|XOffset=0mm|YOffset=0mm|HoleType=Round|Shape=RoundedRectangle|*
%AMROUNDEDRECTD30*
21,1,1.50000,0.70000,0,0,15.9*
21,1,1.20000,1.00000,0,0,15.9*
1,1,0.30000,0.67289,-0.17239*
1,1,0.30000,-0.48127,-0.50088*
1,1,0.30000,-0.67289,0.17239*
1,1,0.30000,0.48127,0.50088*
%
%ADD30ROUNDEDRECTD30*%
%TA.AperFunction,SMDPad,CuDef*%
G04:AMPARAMS|DCode=31|XSize=1.6mm|YSize=1.8mm|CornerRadius=0.48mm|HoleSize=0mm|Usage=FLASHONLY|Rotation=278.887|XOffset=0mm|YOffset=0mm|HoleType=Round|Shape=RoundedRectangle|*
%AMROUNDEDRECTD31*
21,1,1.60000,0.84000,0,0,278.9*
21,1,0.64000,1.80000,0,0,278.9*
1,1,0.96000,-0.36552,-0.38104*
1,1,0.96000,-0.46440,0.25128*
1,1,0.96000,0.36552,0.38104*
1,1,0.96000,0.46440,-0.25128*
%
%ADD31ROUNDEDRECTD31*%
%TA.AperFunction,TestPad*%
G04:AMPARAMS|DCode=32|XSize=1mm|YSize=0.6mm|CornerRadius=0.21mm|HoleSize=0mm|Usage=FLASHONLY|Rotation=278.887|XOffset=0mm|YOffset=0mm|HoleType=Round|Shape=RoundedRectangle|*
%AMROUNDEDRECTD32*
21,1,1.00000,0.18000,0,0,278.9*
21,1,0.58000,0.60000,0,0,278.9*
1,1,0.42000,-0.04412,-0.30042*
1,1,0.42000,-0.13372,0.27262*
1,1,0.42000,0.04412,0.30042*
1,1,0.42000,0.13372,-0.27262*
%
%ADD32ROUNDEDRECTD32*%
G04:AMPARAMS|DCode=33|XSize=1.7mm|YSize=1.8mm|CornerRadius=0.51mm|HoleSize=0mm|Usage=FLASHONLY|Rotation=98.887|XOffset=0mm|YOffset=0mm|HoleType=Round|Shape=RoundedRectangle|*
%AMROUNDEDRECTD33*
21,1,1.70000,0.78000,0,0,98.9*
21,1,0.68000,1.80000,0,0,98.9*
1,1,1.02000,0.33280,0.39617*
1,1,1.02000,0.43785,-0.27567*
1,1,1.02000,-0.33280,-0.39617*
1,1,1.02000,-0.43785,0.27567*
%
%ADD33ROUNDEDRECTD33*%
%TA.AperFunction,SMDPad,CuDef*%
G04:AMPARAMS|DCode=34|XSize=1.8mm|YSize=1.5mm|CornerRadius=0.45mm|HoleSize=0mm|Usage=FLASHONLY|Rotation=90.000|XOffset=0mm|YOffset=0mm|HoleType=Round|Shape=RoundedRectangle|*
%AMROUNDEDRECTD34*
21,1,1.80000,0.60000,0,0,90.0*
21,1,0.90000,1.50000,0,0,90.0*
1,1,0.90000,0.30000,0.45000*
1,1,0.90000,0.30000,-0.45000*
1,1,0.90000,-0.30000,-0.45000*
1,1,0.90000,-0.30000,0.45000*
%
%ADD34ROUNDEDRECTD34*%
G04:AMPARAMS|DCode=35|XSize=1.8mm|YSize=1.5mm|CornerRadius=0.45mm|HoleSize=0mm|Usage=FLASHONLY|Rotation=105.887|XOffset=0mm|YOffset=0mm|HoleType=Round|Shape=RoundedRectangle|*
%AMROUNDEDRECTD35*
21,1,1.80000,0.60000,0,0,105.9*
21,1,0.90000,1.50000,0,0,105.9*
1,1,0.90000,0.16536,0.51494*
1,1,0.90000,0.41173,-0.35069*
1,1,0.90000,-0.16536,-0.51494*
1,1,0.90000,-0.41173,0.35069*
%
%ADD35ROUNDEDRECTD35*%
G04:AMPARAMS|DCode=36|XSize=1.8mm|YSize=1.5mm|CornerRadius=0.45mm|HoleSize=0mm|Usage=FLASHONLY|Rotation=15.887|XOffset=0mm|YOffset=0mm|HoleType=Round|Shape=RoundedRectangle|*
%AMROUNDEDRECTD36*
21,1,1.80000,0.60000,0,0,15.9*
21,1,0.90000,1.50000,0,0,15.9*
1,1,0.90000,0.51494,-0.16536*
1,1,0.90000,-0.35069,-0.41173*
1,1,0.90000,-0.51494,0.16536*
1,1,0.90000,0.35069,0.41173*
%
%ADD36ROUNDEDRECTD36*%
G04:AMPARAMS|DCode=37|XSize=1.8mm|YSize=1.5mm|CornerRadius=0.45mm|HoleSize=0mm|Usage=FLASHONLY|Rotation=180.000|XOffset=0mm|YOffset=0mm|HoleType=Round|Shape=RoundedRectangle|*
%AMROUNDEDRECTD37*
21,1,1.80000,0.60000,0,0,180.0*
21,1,0.90000,1.50000,0,0,180.0*
1,1,0.90000,-0.45000,0.30000*
1,1,0.90000,0.45000,0.30000*
1,1,0.90000,0.45000,-0.30000*
1,1,0.90000,-0.45000,-0.30000*
%
%ADD37ROUNDEDRECTD37*%
%TA.AperFunction,TestPad*%
G04:AMPARAMS|DCode=38|XSize=0.55mm|YSize=1.2mm|CornerRadius=0.22mm|HoleSize=0mm|Usage=FLASHONLY|Rotation=188.887|XOffset=0mm|YOffset=0mm|HoleType=Round|Shape=RoundedRectangle|*
%AMROUNDEDRECTD38*
21,1,0.55000,0.76000,0,0,188.9*
21,1,0.11000,1.20000,0,0,188.9*
1,1,0.44000,-0.11305,0.36694*
1,1,0.44000,-0.00436,0.38394*
1,1,0.44000,0.11305,-0.36694*
1,1,0.44000,0.00436,-0.38394*
%
%ADD38ROUNDEDRECTD38*%
%TA.AperFunction,SMDPad,CuDef*%
G04:AMPARAMS|DCode=39|XSize=0.6mm|YSize=1mm|CornerRadius=0.24mm|HoleSize=0mm|Usage=FLASHONLY|Rotation=8.887|XOffset=0mm|YOffset=0mm|HoleType=Round|Shape=RoundedRectangle|*
%AMROUNDEDRECTD39*
21,1,0.60000,0.52000,0,0,8.9*
21,1,0.12000,1.00000,0,0,8.9*
1,1,0.48000,0.09945,-0.24761*
1,1,0.48000,-0.01911,-0.26615*
1,1,0.48000,-0.09945,0.24761*
1,1,0.48000,0.01911,0.26615*
%
%ADD39ROUNDEDRECTD39*%
G04:AMPARAMS|DCode=40|XSize=0.6mm|YSize=1mm|CornerRadius=0.24mm|HoleSize=0mm|Usage=FLASHONLY|Rotation=180.000|XOffset=0mm|YOffset=0mm|HoleType=Round|Shape=RoundedRectangle|*
%AMROUNDEDRECTD40*
21,1,0.60000,0.52000,0,0,180.0*
21,1,0.12000,1.00000,0,0,180.0*
1,1,0.48000,-0.06000,0.26000*
1,1,0.48000,0.06000,0.26000*
1,1,0.48000,0.06000,-0.26000*
1,1,0.48000,-0.06000,-0.26000*
%
%ADD40ROUNDEDRECTD40*%
G04:AMPARAMS|DCode=41|XSize=0.4mm|YSize=1.5mm|CornerRadius=0.2mm|HoleSize=0mm|Usage=FLASHONLY|Rotation=180.000|XOffset=0mm|YOffset=0mm|HoleType=Round|Shape=RoundedRectangle|*
%AMROUNDEDRECTD41*
21,1,0.40000,1.10000,0,0,180.0*
21,1,0.00000,1.50000,0,0,180.0*
1,1,0.40000,0.00000,0.55000*
1,1,0.40000,0.00000,0.55000*
1,1,0.40000,0.00000,-0.55000*
1,1,0.40000,0.00000,-0.55000*
%
%ADD41ROUNDEDRECTD41*%
G04:AMPARAMS|DCode=42|XSize=0.4mm|YSize=1.5mm|CornerRadius=0.2mm|HoleSize=0mm|Usage=FLASHONLY|Rotation=270.000|XOffset=0mm|YOffset=0mm|HoleType=Round|Shape=RoundedRectangle|*
%AMROUNDEDRECTD42*
21,1,0.40000,1.10000,0,0,270.0*
21,1,0.00000,1.50000,0,0,270.0*
1,1,0.40000,-0.55000,0.00000*
1,1,0.40000,-0.55000,0.00000*
1,1,0.40000,0.55000,0.00000*
1,1,0.40000,0.55000,0.00000*
%
%ADD42ROUNDEDRECTD42*%
G04:AMPARAMS|DCode=43|XSize=2.4mm|YSize=3.9mm|CornerRadius=0.6mm|HoleSize=0mm|Usage=FLASHONLY|Rotation=0.000|XOffset=0mm|YOffset=0mm|HoleType=Round|Shape=RoundedRectangle|*
%AMROUNDEDRECTD43*
21,1,2.40000,2.70000,0,0,0.0*
21,1,1.20000,3.90000,0,0,0.0*
1,1,1.20000,0.60000,-1.35000*
1,1,1.20000,-0.60000,-1.35000*
1,1,1.20000,-0.60000,1.35000*
1,1,1.20000,0.60000,1.35000*
%
%ADD43ROUNDEDRECTD43*%
G04:AMPARAMS|DCode=44|XSize=2.4mm|YSize=3.8mm|CornerRadius=1.2mm|HoleSize=0mm|Usage=FLASHONLY|Rotation=0.000|XOffset=0mm|YOffset=0mm|HoleType=Round|Shape=RoundedRectangle|*
%AMROUNDEDRECTD44*
21,1,2.40000,1.40000,0,0,0.0*
21,1,0.00000,3.80000,0,0,0.0*
1,1,2.40000,0.00000,-0.70000*
1,1,2.40000,0.00000,-0.70000*
1,1,2.40000,0.00000,0.70000*
1,1,2.40000,0.00000,0.70000*
%
%ADD44ROUNDEDRECTD44*%
%TA.AperFunction,ConnectorPad*%
G04:AMPARAMS|DCode=45|XSize=2.4mm|YSize=4mm|CornerRadius=0.6mm|HoleSize=0mm|Usage=FLASHONLY|Rotation=0.000|XOffset=0mm|YOffset=0mm|HoleType=Round|Shape=RoundedRectangle|*
%AMROUNDEDRECTD45*
21,1,2.40000,2.80000,0,0,0.0*
21,1,1.20000,4.00000,0,0,0.0*
1,1,1.20000,0.60000,-1.40000*
1,1,1.20000,-0.60000,-1.40000*
1,1,1.20000,-0.60000,1.40000*
1,1,1.20000,0.60000,1.40000*
%
%ADD45ROUNDEDRECTD45*%
G04:AMPARAMS|DCode=46|XSize=2mm|YSize=4mm|CornerRadius=0.7mm|HoleSize=0mm|Usage=FLASHONLY|Rotation=0.000|XOffset=0mm|YOffset=0mm|HoleType=Round|Shape=RoundedRectangle|*
%AMROUNDEDRECTD46*
21,1,2.00000,2.60000,0,0,0.0*
21,1,0.60000,4.00000,0,0,0.0*
1,1,1.40000,0.30000,-1.30000*
1,1,1.40000,-0.30000,-1.30000*
1,1,1.40000,-0.30000,1.30000*
1,1,1.40000,0.30000,1.30000*
%
%ADD46ROUNDEDRECTD46*%
%TA.AperFunction,SMDPad,CuDef*%
G04:AMPARAMS|DCode=47|XSize=2.4mm|YSize=4.2mm|CornerRadius=0.6mm|HoleSize=0mm|Usage=FLASHONLY|Rotation=195.887|XOffset=0mm|YOffset=0mm|HoleType=Round|Shape=RoundedRectangle|*
%AMROUNDEDRECTD47*
21,1,2.40000,3.00000,0,0,195.9*
21,1,1.20000,4.20000,0,0,195.9*
1,1,1.20000,-0.98769,1.27846*
1,1,1.20000,0.16647,1.60695*
1,1,1.20000,0.98769,-1.27846*
1,1,1.20000,-0.16647,-1.60695*
%
%ADD47ROUNDEDRECTD47*%
G04:AMPARAMS|DCode=48|XSize=2.4mm|YSize=4.2mm|CornerRadius=0.84mm|HoleSize=0mm|Usage=FLASHONLY|Rotation=98.887|XOffset=0mm|YOffset=0mm|HoleType=Round|Shape=RoundedRectangle|*
%AMROUNDEDRECTD48*
21,1,2.40000,2.52000,0,0,98.9*
21,1,0.72000,4.20000,0,0,98.9*
1,1,1.68000,1.18926,0.55033*
1,1,1.68000,1.30049,-0.16103*
1,1,1.68000,-1.18926,-0.55033*
1,1,1.68000,-1.30049,0.16103*
%
%ADD48ROUNDEDRECTD48*%
G04:AMPARAMS|DCode=49|XSize=2.4mm|YSize=4.2mm|CornerRadius=0.6mm|HoleSize=0mm|Usage=FLASHONLY|Rotation=98.887|XOffset=0mm|YOffset=0mm|HoleType=Round|Shape=RoundedRectangle|*
%AMROUNDEDRECTD49*
21,1,2.40000,3.00000,0,0,98.9*
21,1,1.20000,4.20000,0,0,98.9*
1,1,1.20000,1.38930,0.82453*
1,1,1.20000,1.57469,-0.36107*
1,1,1.20000,-1.38930,-0.82453*
1,1,1.20000,-1.57469,0.36107*
%
%ADD49ROUNDEDRECTD49*%
G04:AMPARAMS|DCode=50|XSize=2.4mm|YSize=4.2mm|CornerRadius=0.84mm|HoleSize=0mm|Usage=FLASHONLY|Rotation=15.887|XOffset=0mm|YOffset=0mm|HoleType=Round|Shape=RoundedRectangle|*
%AMROUNDEDRECTD50*
21,1,2.40000,2.52000,0,0,15.9*
21,1,0.72000,4.20000,0,0,15.9*
1,1,1.68000,0.69116,-1.11333*
1,1,1.68000,-0.00134,-1.31042*
1,1,1.68000,-0.69116,1.11333*
1,1,1.68000,0.00134,1.31042*
%
%ADD50ROUNDEDRECTD50*%
G04:AMPARAMS|DCode=51|XSize=2.4mm|YSize=4.2mm|CornerRadius=0.6mm|HoleSize=0mm|Usage=FLASHONLY|Rotation=188.887|XOffset=0mm|YOffset=0mm|HoleType=Round|Shape=RoundedRectangle|*
%AMROUNDEDRECTD51*
21,1,2.40000,3.00000,0,0,188.9*
21,1,1.20000,4.20000,0,0,188.9*
1,1,1.20000,-0.82453,1.38930*
1,1,1.20000,0.36107,1.57469*
1,1,1.20000,0.82453,-1.38930*
1,1,1.20000,-0.36107,-1.57469*
%
%ADD51ROUNDEDRECTD51*%
G04:AMPARAMS|DCode=52|XSize=2.4mm|YSize=4.2mm|CornerRadius=0.6mm|HoleSize=0mm|Usage=FLASHONLY|Rotation=0.000|XOffset=0mm|YOffset=0mm|HoleType=Round|Shape=RoundedRectangle|*
%AMROUNDEDRECTD52*
21,1,2.40000,3.00000,0,0,0.0*
21,1,1.20000,4.20000,0,0,0.0*
1,1,1.20000,0.60000,-1.50000*
1,1,1.20000,-0.60000,-1.50000*
1,1,1.20000,-0.60000,1.50000*
1,1,1.20000,0.60000,1.50000*
%
%ADD52ROUNDEDRECTD52*%
G04:AMPARAMS|DCode=53|XSize=1.6mm|YSize=1.4mm|CornerRadius=0.28mm|HoleSize=0mm|Usage=FLASHONLY|Rotation=0.000|XOffset=0mm|YOffset=0mm|HoleType=Round|Shape=RoundedRectangle|*
%AMROUNDEDRECTD53*
21,1,1.60000,0.84000,0,0,0.0*
21,1,1.04000,1.40000,0,0,0.0*
1,1,0.56000,0.52000,-0.42000*
1,1,0.56000,-0.52000,-0.42000*
1,1,0.56000,-0.52000,0.42000*
1,1,0.56000,0.52000,0.42000*
%
%ADD53ROUNDEDRECTD53*%
%TA.AperFunction,FiducialPad,Global*%
%ADD54C,1.01600*%
%TA.AperFunction,SMDPad,CuDef*%
%ADD55P,1.43684X4X180.0*%
%TA.AperFunction,Conductor*%
%ADD56C,0.48000*%
%TA.AperFunction,ComponentPad*%
G04:AMPARAMS|DCode=57|XSize=1.1mm|YSize=2.1mm|CornerRadius=0.55mm|HoleSize=0mm|Usage=FLASHONLY|Rotation=278.887|XOffset=0mm|YOffset=0mm|HoleType=Round|Shape=RoundedRectangle|*
%AMROUNDEDRECTD57*
21,1,1.10000,1.00000,0,0,278.9*
21,1,0.00000,2.10000,0,0,278.9*
1,1,1.10000,-0.49400,-0.07724*
1,1,1.10000,-0.49400,-0.07724*
1,1,1.10000,0.49400,0.07724*
1,1,1.10000,0.49400,0.07724*
%
%ADD57ROUNDEDRECTD57*%
%TA.AperFunction,TestPad*%
G04:AMPARAMS|DCode=58|XSize=1.1mm|YSize=2.1mm|CornerRadius=0.55mm|HoleSize=0mm|Usage=FLASHONLY|Rotation=278.887|XOffset=0mm|YOffset=0mm|HoleType=Round|Shape=RoundedRectangle|*
%AMROUNDEDRECTD58*
21,1,1.10000,1.00000,0,0,278.9*
21,1,0.00000,2.10000,0,0,278.9*
1,1,1.10000,-0.49400,-0.07724*
1,1,1.10000,-0.49400,-0.07724*
1,1,1.10000,0.49400,0.07724*
1,1,1.10000,0.49400,0.07724*
%
%ADD58ROUNDEDRECTD58*%
G04:AMPARAMS|DCode=59|XSize=1.1mm|YSize=2.6mm|CornerRadius=0.55mm|HoleSize=0mm|Usage=FLASHONLY|Rotation=278.887|XOffset=0mm|YOffset=0mm|HoleType=Round|Shape=RoundedRectangle|*
%AMROUNDEDRECTD59*
21,1,1.10000,1.50000,0,0,278.9*
21,1,0.00000,2.60000,0,0,278.9*
1,1,1.10000,-0.74100,-0.11587*
1,1,1.10000,-0.74100,-0.11586*
1,1,1.10000,0.74100,0.11587*
1,1,1.10000,0.74100,0.11586*
%
%ADD59ROUNDEDRECTD59*%
%ADD60R,1.77800X1.77800*%
%ADD61C,1.77800*%
%TA.AperFunction,ComponentPad*%
%ADD62C,2.00000*%
G04:AMPARAMS|DCode=63|XSize=1.2mm|YSize=1.4mm|CornerRadius=0mm|HoleSize=0mm|Usage=FLASHONLY|Rotation=8.887|XOffset=0mm|YOffset=0mm|HoleType=Round|Shape=Round|*
%AMOVALD63*
21,1,0.20000,1.20000,0.00000,0.00000,98.9*
1,1,1.20000,0.01545,-0.09880*
1,1,1.20000,-0.01545,0.09880*
%
%ADD63OVALD63*%

%TA.AperFunction,ViaPad*%
%ADD64C,0.60000*%
%ADD65C,1.00000*%
%ADD66C,0.80000*%
%ADD67C,1.01600*%
G36*
X7275922Y6534230D02*
X7287364Y6531954D01*
X7298140Y6527491D01*
X7307839Y6521010D01*
X7316087Y6512762D01*
X7322568Y6503062D01*
X7327032Y6492285D01*
X7329308Y6480844D01*
Y6455012D01*
X7329506Y6454016D01*
X7329357Y6453011D01*
X7330031Y6439289D01*
X7330766Y6436357D01*
Y6433334D01*
X7336120Y6406416D01*
X7337657Y6402705D01*
X7338440Y6398765D01*
X7348943Y6373410D01*
X7351175Y6370070D01*
X7352712Y6366359D01*
X7367960Y6343540D01*
X7370799Y6340700D01*
X7373031Y6337359D01*
X7392438Y6317953D01*
X7395777Y6315722D01*
X7398617Y6312882D01*
X7421436Y6297634D01*
X7425148Y6296096D01*
X7428488Y6293865D01*
X7453843Y6283363D01*
X7457783Y6282579D01*
X7461494Y6281042D01*
X7488411Y6275688D01*
X7491434D01*
X7494367Y6274953D01*
X7508089Y6274279D01*
X7509094Y6274428D01*
X7510090Y6274230D01*
X7990090Y6274230D01*
X7991086Y6274428D01*
X7992091Y6274279D01*
X8005813Y6274953D01*
X8008746Y6275688D01*
X8011769D01*
X8038686Y6281042D01*
X8042397Y6282579D01*
X8046337Y6283363D01*
X8071692Y6293865D01*
X8075032Y6296097D01*
X8078743Y6297634D01*
X8101563Y6312882D01*
X8104402Y6315722D01*
X8107743Y6317954D01*
X8127149Y6337360D01*
X8129380Y6340700D01*
X8132220Y6343540D01*
X8147468Y6366359D01*
X8149005Y6370070D01*
X8151237Y6373410D01*
X8161740Y6398766D01*
X8162523Y6402705D01*
X8164060Y6406416D01*
X8169414Y6433334D01*
Y6436357D01*
X8170149Y6439288D01*
X8170823Y6453011D01*
X8170674Y6454016D01*
X8170872Y6455012D01*
Y6480845D01*
X8173148Y6492285D01*
X8177612Y6503061D01*
X8184093Y6512761D01*
X8192340Y6521009D01*
X8202041Y6527490D01*
X8212817Y6531954D01*
X8224258Y6534230D01*
X8230090D01*
X9568893Y6534230D01*
X9587507Y6534230D01*
X9624355Y6528911D01*
X9660062Y6518382D01*
X9693900Y6502858D01*
X9725173Y6482659D01*
X9753238Y6458199D01*
X9777521Y6429979D01*
X9797522Y6398580D01*
X9842032Y6299925D01*
X9911508Y6134705D01*
X9913031Y6130805D01*
X9896035Y6118466D01*
X9885134Y6127412D01*
X9858641Y6141573D01*
X9829895Y6150293D01*
X9800000Y6153238D01*
X9770105Y6150293D01*
X9741358Y6141573D01*
X9714866Y6127412D01*
X9691645Y6108355D01*
X9672587Y6085134D01*
X9658427Y6058641D01*
X9649707Y6029895D01*
X9646762Y6000000D01*
X9649707Y5970105D01*
X9658427Y5941358D01*
X9672587Y5914866D01*
X9691645Y5891645D01*
X9714866Y5872587D01*
X9741358Y5858427D01*
X9770105Y5849707D01*
X9800000Y5846762D01*
X9829895Y5849707D01*
X9858641Y5858427D01*
X9885134Y5872587D01*
X9908355Y5891645D01*
X9927412Y5914866D01*
X9941573Y5941358D01*
X9950293Y5970105D01*
X9951034Y5977630D01*
X9971734Y5980485D01*
X9976711Y5967741D01*
X10037589Y5799162D01*
X10065847Y5714120D01*
X10072113Y5695260D01*
X10083070Y5657068D01*
X10092438Y5618443D01*
X10100198Y5579467D01*
X10105147Y5547819D01*
X10085698Y5540666D01*
X10075194Y5557807D01*
X10054945Y5581516D01*
X10055686Y5585240D01*
Y5655240D01*
X10052969Y5668896D01*
X10045234Y5680473D01*
X10033656Y5688209D01*
X10020000Y5690925D01*
X9900000D01*
X9886344Y5688209D01*
X9875590Y5681023D01*
X9854535D01*
X9852969Y5688896D01*
X9845234Y5700473D01*
X9833656Y5708209D01*
X9820000Y5710925D01*
X9700000D01*
X9697959Y5710519D01*
X9676948Y5722972D01*
X9675530Y5725199D01*
X9675440Y5725884D01*
X9667379Y5745345D01*
X9654556Y5762056D01*
X9637845Y5774879D01*
X9618384Y5782940D01*
X9597499Y5785690D01*
X9477499D01*
X9456615Y5782940D01*
X9437154Y5774879D01*
X9420443Y5762056D01*
X9407619Y5745345D01*
X9406581Y5742838D01*
X9381283Y5734862D01*
X9315535Y5776748D01*
X9221730Y5825580D01*
X9124026Y5866050D01*
X9023167Y5897851D01*
X8919919Y5920740D01*
X8815070Y5934544D01*
X8728584Y5938320D01*
X8726798Y5958737D01*
X8789518Y5972642D01*
X8896632Y6006415D01*
X9000396Y6049395D01*
X9100018Y6101255D01*
X9176489Y6149972D01*
X9184671Y6147970D01*
X9197559Y6139302D01*
X9199558Y6124116D01*
X9207619Y6104655D01*
X9220443Y6087944D01*
X9237154Y6075120D01*
X9256615Y6067059D01*
X9277499Y6064310D01*
X9397499D01*
X9418384Y6067059D01*
X9437844Y6075120D01*
X9454556Y6087944D01*
X9467379Y6104655D01*
X9475440Y6124116D01*
X9478190Y6145000D01*
Y6425000D01*
X9475440Y6445884D01*
X9467379Y6465345D01*
X9454556Y6482057D01*
X9437844Y6494880D01*
X9418384Y6502941D01*
X9397499Y6505690D01*
X9277499D01*
X9256615Y6502941D01*
X9237154Y6494880D01*
X9220443Y6482057D01*
X9207619Y6465345D01*
X9199558Y6445884D01*
X9196809Y6425000D01*
Y6265626D01*
X9148082Y6228236D01*
X9131491Y6217667D01*
X9115169Y6231362D01*
X9124411Y6253674D01*
X9128535Y6285000D01*
X9124411Y6316327D01*
X9112320Y6345518D01*
X9093085Y6370585D01*
X9068018Y6389820D01*
X9038826Y6401912D01*
X9007500Y6406036D01*
X8976174Y6401912D01*
X8946982Y6389820D01*
X8921915Y6370585D01*
X8902680Y6345518D01*
X8890589Y6316327D01*
X8886464Y6285000D01*
X8890589Y6253674D01*
X8902680Y6224483D01*
X8921915Y6199415D01*
X8946982Y6180180D01*
X8976174Y6168089D01*
X9001889Y6164703D01*
X9006762Y6144332D01*
X8966017Y6123121D01*
X8868810Y6082857D01*
X8768464Y6051218D01*
X8665742Y6028445D01*
X8561427Y6014711D01*
X8459064Y6010242D01*
X8456361Y6010783D01*
X8456160Y6010784D01*
X8456134Y6010778D01*
X8456108Y6010784D01*
X6008901D01*
Y6011193D01*
X5875259Y6006420D01*
X5742297Y5992125D01*
X5610694Y5968382D01*
X5524860Y5946474D01*
X5518427Y5965803D01*
X5524954Y5968507D01*
X5539576Y5979727D01*
X5539924Y5980075D01*
X5551145Y5994698D01*
X5558198Y6011726D01*
X5560604Y6030000D01*
X5558198Y6048273D01*
X5551145Y6065302D01*
X5539924Y6079924D01*
X5525302Y6091145D01*
X5508273Y6098198D01*
X5490000Y6100604D01*
X5487355Y6100256D01*
X5402270D01*
X5395980Y6114800D01*
X5390771Y6121375D01*
X5390739Y6121784D01*
X5381044Y6162164D01*
X5365153Y6200530D01*
X5343455Y6235937D01*
X5330233Y6251417D01*
X5317972Y6294498D01*
X5311621Y6306889D01*
X5301012Y6315906D01*
X5287759Y6320177D01*
X5273881Y6319052D01*
X5206555Y6299890D01*
X5194164Y6293539D01*
X5185146Y6282930D01*
X5180875Y6269677D01*
X5182001Y6255799D01*
X5214850Y6140382D01*
X5221201Y6127991D01*
X5222781Y6126648D01*
X5230959Y6115689D01*
X5226702Y6099271D01*
X5224731Y6096618D01*
X5218427Y6080706D01*
X5216456Y6063706D01*
X5218952Y6046774D01*
X5243589Y5960212D01*
X5250382Y5944503D01*
X5261010Y5931088D01*
X5274748Y5920881D01*
X5290659Y5914577D01*
X5307660Y5912605D01*
X5324592Y5915102D01*
X5382300Y5931526D01*
X5398009Y5938320D01*
X5411424Y5948948D01*
X5418928Y5959048D01*
X5489652D01*
X5494415Y5959675D01*
X5498268Y5939687D01*
X5481120Y5935310D01*
X5354235Y5893079D01*
X5230687Y5841903D01*
X5111104Y5782044D01*
X4996096Y5713807D01*
X4886249Y5637539D01*
X4782123Y5553628D01*
X4698803Y5476055D01*
X4684247Y5462504D01*
X4684030Y5462271D01*
X4670058Y5447734D01*
X4652036Y5429713D01*
X4650414Y5427285D01*
X4580668Y5364071D01*
X4502886Y5306384D01*
X4419825Y5256599D01*
X4332284Y5215196D01*
X4241107Y5182572D01*
X4147170Y5159042D01*
X4051380Y5144832D01*
X3957515Y5140221D01*
X3954708Y5140783D01*
X3954507Y5140783D01*
X3954481Y5140778D01*
X3954455Y5140783D01*
X3488961D01*
X3479509Y5147099D01*
X3460000Y5150980D01*
X3440491Y5147099D01*
X3423952Y5136048D01*
X3412901Y5119509D01*
X3409020Y5100000D01*
X3412901Y5080491D01*
X3413022Y5080310D01*
X3403670Y5057731D01*
X3400491Y5057099D01*
X3383952Y5046048D01*
X3372901Y5029509D01*
X3369020Y5010000D01*
X3372901Y4990491D01*
X3381266Y4977972D01*
X3380810Y4965684D01*
X3376545Y4954462D01*
X3363952Y4946048D01*
X3352901Y4929509D01*
X3349020Y4910000D01*
X3352901Y4890491D01*
X3359592Y4880477D01*
X3354248Y4857857D01*
X3344629Y4855144D01*
X3245451Y4818556D01*
X3149449Y4774298D01*
X3057216Y4722645D01*
X2969319Y4663915D01*
X2886302Y4598469D01*
X2823320Y4540249D01*
X2808675Y4526712D01*
X2808672Y4526708D01*
X2801977Y4520192D01*
X2798544Y4516858D01*
X2798537Y4516852D01*
X2785026Y4502106D01*
X2722118Y4433454D01*
X2653257Y4343713D01*
X2592480Y4248312D01*
X2540249Y4147977D01*
X2496961Y4043472D01*
X2462947Y3935591D01*
X2438464Y3825157D01*
X2423699Y3713009D01*
X2419645Y3620142D01*
X2418765Y3600001D01*
X2418766Y3600000D01*
X2412901Y3584509D01*
X2409242Y3566115D01*
X2408903Y3564897D01*
X2391397Y3549441D01*
X2341450Y3559376D01*
X2277900Y3563542D01*
Y3563542D01*
X2277675Y3563381D01*
X2101112D01*
X2100710Y3563301D01*
X2067031Y3559984D01*
X2035586Y3550445D01*
X1980000D01*
X1966343Y3547729D01*
X1954766Y3539993D01*
X1947030Y3528416D01*
X1946478Y3525641D01*
X1923520D01*
X1922968Y3528416D01*
X1915233Y3539993D01*
X1903656Y3547728D01*
X1889999Y3550445D01*
X1770000D01*
X1756343Y3547728D01*
X1744766Y3539993D01*
X1737030Y3528416D01*
X1734314Y3514759D01*
Y3474491D01*
X1719698Y3459875D01*
X1700925Y3467651D01*
Y3549999D01*
X1700843Y3550410D01*
Y3609635D01*
X1769588D01*
X1770000Y3609554D01*
X1889999D01*
X1903656Y3612270D01*
X1915233Y3620006D01*
X1922968Y3631583D01*
X1925685Y3645239D01*
Y3715239D01*
X1922968Y3728896D01*
X1915233Y3740473D01*
X1903656Y3748208D01*
X1889999Y3750925D01*
X1813639D01*
X1799451Y3771245D01*
X1800603Y3780000D01*
X1798198Y3798273D01*
X1791144Y3815301D01*
X1779924Y3829924D01*
X1765302Y3841144D01*
X1748273Y3848198D01*
X1730000Y3850603D01*
X1711726Y3848198D01*
X1694698Y3841144D01*
X1680075Y3829924D01*
X1655836Y3805685D01*
X1595239D01*
X1581583Y3802969D01*
X1570006Y3795233D01*
X1562270Y3783656D01*
X1559554Y3769999D01*
Y3650000D01*
X1559635Y3649588D01*
Y3550410D01*
X1559554Y3549999D01*
Y3457230D01*
X1451161Y3348838D01*
X1451055Y3348945D01*
X1433698Y3326325D01*
X1422787Y3299983D01*
X1419065Y3271715D01*
X1419216D01*
Y3130000D01*
Y3048960D01*
X1412901Y3039509D01*
X1409020Y3020000D01*
X1412901Y3000491D01*
X1423952Y2983952D01*
X1440491Y2972901D01*
X1460000Y2969020D01*
X1479509Y2972901D01*
X1496048Y2983952D01*
X1507099Y3000491D01*
X1510979Y3020000D01*
X1507099Y3039509D01*
X1500783Y3048960D01*
Y3083657D01*
X1521103Y3094518D01*
X1524392Y3092320D01*
X1540000Y3089216D01*
X1555607Y3092320D01*
X1558896Y3094518D01*
X1579216Y3083657D01*
Y2925210D01*
X1579579Y2923385D01*
X1575652Y2883508D01*
X1563488Y2843408D01*
X1543734Y2806452D01*
X1529734Y2789392D01*
X1516767Y2774444D01*
X1505467Y2763322D01*
X1502617Y2759984D01*
X1475414Y2728133D01*
X1451234Y2688676D01*
X1445738Y2675406D01*
X1442505Y2674383D01*
X1423520Y2674866D01*
X1416048Y2686048D01*
X1399509Y2697099D01*
X1380000Y2700980D01*
X1360491Y2697099D01*
X1351039Y2690784D01*
X1259516D01*
X1259490Y2690778D01*
X1259465Y2690784D01*
X1259263Y2690783D01*
X1256993Y2690329D01*
X1202294Y2694634D01*
X1146678Y2707986D01*
X1093836Y2729874D01*
X1045068Y2759759D01*
X1016667Y2784015D01*
X1001919Y2797458D01*
X1001913Y2797466D01*
X1001909Y2797473D01*
X1001899Y2797480D01*
X998955Y2800887D01*
X1009838Y2819046D01*
X1009998Y2819015D01*
X1029507Y2822895D01*
X1046046Y2833946D01*
X1057097Y2850485D01*
X1060978Y2869994D01*
X1057097Y2889503D01*
X1057586Y2892791D01*
X1067498Y2910512D01*
X1079509Y2912901D01*
X1096048Y2923952D01*
X1107099Y2940491D01*
X1110979Y2960000D01*
X1107580Y2977089D01*
X1114471Y2985528D01*
X1122911Y2992420D01*
X1140000Y2989020D01*
X1159509Y2992901D01*
X1176048Y3003952D01*
X1187099Y3020491D01*
X1190980Y3040000D01*
X1187099Y3059509D01*
X1183397Y3065050D01*
X1186517Y3082557D01*
X1199285Y3089531D01*
X1205472Y3092106D01*
X1220000Y3089216D01*
X1235607Y3092320D01*
X1248838Y3101161D01*
X1271162D01*
X1284392Y3092320D01*
X1300000Y3089216D01*
X1315607Y3092320D01*
X1328838Y3101161D01*
X1337679Y3114392D01*
X1340783Y3130000D01*
Y3239999D01*
Y3283431D01*
X1340854D01*
X1337445Y3318044D01*
X1327348Y3351328D01*
X1310953Y3382002D01*
X1288888Y3408888D01*
X1288838Y3408838D01*
X1203636Y3494040D01*
X1189549Y3508127D01*
X1176640Y3523100D01*
X1164196Y3538263D01*
X1145610Y3573034D01*
X1134165Y3610763D01*
X1130461Y3648379D01*
X1130783Y3650000D01*
Y3704789D01*
X1130420Y3706615D01*
X1134348Y3746492D01*
X1146512Y3786592D01*
X1166265Y3823548D01*
X1191686Y3854522D01*
X1193233Y3855556D01*
X1216736Y3879060D01*
X1301999D01*
X1320728Y3882785D01*
X1336605Y3893394D01*
X1347214Y3909271D01*
X1350940Y3928000D01*
Y4012000D01*
X1347214Y4030728D01*
X1336605Y4046606D01*
X1320728Y4057214D01*
X1301999Y4060940D01*
X1198000D01*
X1179271Y4057214D01*
X1163394Y4046606D01*
X1152785Y4030728D01*
X1149059Y4012000D01*
Y3928012D01*
X1135467Y3913322D01*
X1135467Y3913321D01*
X1105413Y3878132D01*
X1081234Y3838675D01*
X1063524Y3795921D01*
X1052722Y3750923D01*
X1049091Y3704789D01*
X1049216D01*
Y3650000D01*
X1049129D01*
X1052605Y3605840D01*
X1033561Y3602729D01*
X1029647Y3611620D01*
X1020341Y3629030D01*
X1008755Y3650706D01*
X980639Y3684966D01*
X980423Y3684750D01*
X980196Y3684902D01*
X956592Y3704274D01*
X930939Y3717985D01*
Y3732000D01*
X927213Y3750728D01*
X916604Y3766606D01*
X900727Y3777214D01*
X881998Y3780940D01*
X777999D01*
X759270Y3777214D01*
X743393Y3766606D01*
X732784Y3750728D01*
X729058Y3732000D01*
Y3648000D01*
X732784Y3629271D01*
X743393Y3613394D01*
X759270Y3602785D01*
X777999Y3599060D01*
X881998D01*
X900727Y3602785D01*
X916604Y3613394D01*
X933755Y3613955D01*
X945532Y3598608D01*
X952797Y3581939D01*
X953558Y3580103D01*
X953592Y3580117D01*
X986924Y3512526D01*
X1028794Y3449863D01*
X1065467Y3408046D01*
X1078485Y3393201D01*
X1078684Y3393026D01*
X1093359Y3378964D01*
X1156793Y3315529D01*
X1168936Y3303386D01*
X1170108Y3292428D01*
X1167055Y3288775D01*
X1155607Y3277678D01*
X1140000Y3280783D01*
X1124392Y3277678D01*
X1111161Y3268838D01*
X1088838D01*
X1075607Y3277678D01*
X1060000Y3280783D01*
X1044392Y3277678D01*
X1031161Y3268838D01*
X1008838D01*
X995607Y3277678D01*
X980000Y3280783D01*
X964393Y3277678D01*
X951161Y3268838D01*
X928838D01*
X915607Y3277678D01*
X900000Y3280783D01*
X884392Y3277678D01*
X871161Y3268838D01*
X848838D01*
X835607Y3277678D01*
X820000Y3280783D01*
X804392Y3277678D01*
X791161Y3268838D01*
X782321Y3255607D01*
X779216Y3239999D01*
Y3130000D01*
X782321Y3114392D01*
X791161Y3101161D01*
X804392Y3092320D01*
X820000Y3089216D01*
X835607Y3092320D01*
X838896Y3094518D01*
X859216Y3083657D01*
Y2958370D01*
X839509Y2947099D01*
X820000Y2950980D01*
X800491Y2947099D01*
X783952Y2936048D01*
X772901Y2919509D01*
X771617Y2913053D01*
X764567Y2907644D01*
X754661Y2903541D01*
X747912Y2907853D01*
X738569Y2918870D01*
X740783Y2929999D01*
X737679Y2945607D01*
X728838Y2958838D01*
X715607Y2967679D01*
X700000Y2970783D01*
X518961D01*
X509509Y2977099D01*
X498360Y2979317D01*
X435686Y3041991D01*
Y3095240D01*
X432969Y3108896D01*
X425234Y3120473D01*
X413656Y3128209D01*
X400000Y3130925D01*
X280000D01*
X269316Y3128800D01*
X259623Y3135593D01*
X252512Y3143406D01*
X256512Y3156592D01*
X276266Y3193548D01*
X301686Y3224523D01*
X303233Y3225557D01*
X429620Y3351944D01*
X443483Y3365806D01*
X461611Y3371100D01*
X558900D01*
Y3588900D01*
X341100D01*
Y3378777D01*
X245557Y3283233D01*
X245468Y3283322D01*
X215414Y3248133D01*
X191234Y3208676D01*
X173525Y3165922D01*
X162722Y3120924D01*
X159513Y3080150D01*
X159091Y3074790D01*
X159103Y3059999D01*
D01*
X159626Y3054692D01*
X162683Y3023649D01*
X173287Y2988695D01*
X190505Y2956481D01*
X213678Y2928245D01*
X213758Y2928325D01*
X213758Y2928325D01*
X244814Y2897270D01*
X244314Y2894760D01*
Y2824760D01*
X247031Y2811104D01*
X254767Y2799526D01*
X266344Y2791791D01*
X280000Y2789074D01*
X299217D01*
Y2428995D01*
X299138D01*
X302583Y2385215D01*
X312835Y2342514D01*
X329640Y2301942D01*
X352586Y2264499D01*
X381106Y2231106D01*
X380995Y2230995D01*
X413080Y2204663D01*
X449686Y2185097D01*
X489405Y2173048D01*
X530712Y2168980D01*
X533809Y2166176D01*
X533426Y2141711D01*
X532006Y2140291D01*
X530337Y2139175D01*
X525581Y2134420D01*
X520825Y2129663D01*
X519709Y2127994D01*
X518289Y2126574D01*
X510816Y2115390D01*
X510047Y2113534D01*
X508932Y2111864D01*
X503784Y2099437D01*
X503393Y2097468D01*
X502624Y2095612D01*
X500000Y2082419D01*
Y2080411D01*
X499608Y2078441D01*
Y2030500D01*
X499358Y2025404D01*
X497273Y2014924D01*
X493377Y2005517D01*
X487440Y1996633D01*
X484016Y1992855D01*
X475936Y1984775D01*
X474422Y1983403D01*
X472931Y1981392D01*
X471162Y1979623D01*
X470584Y1978226D01*
X469683Y1977012D01*
X469293Y1975457D01*
X465292Y1969468D01*
X460460Y1966240D01*
X452752Y1964706D01*
X386768D01*
X379060Y1966239D01*
X377989Y1966955D01*
X376134Y1967724D01*
X374464Y1968840D01*
X372494Y1969231D01*
X370638Y1970000D01*
X368629D01*
X366660Y1970392D01*
X333117D01*
X331147Y1970000D01*
X329139D01*
X302754Y1964751D01*
X300899Y1963983D01*
X298929Y1963591D01*
X274075Y1953296D01*
X272405Y1952181D01*
X270550Y1951412D01*
X248182Y1936466D01*
X246762Y1935046D01*
X245092Y1933930D01*
X235581Y1924419D01*
X230825Y1919663D01*
X229709Y1917994D01*
X228289Y1916574D01*
X220816Y1905390D01*
X220048Y1903534D01*
X218932Y1901864D01*
X213784Y1889437D01*
X213393Y1887468D01*
X212624Y1885612D01*
X210000Y1872419D01*
Y1870411D01*
X209608Y1868441D01*
Y1741559D01*
X210000Y1739588D01*
Y1737580D01*
X212624Y1724388D01*
X213393Y1722533D01*
X213784Y1720563D01*
X218932Y1708136D01*
X220047Y1706466D01*
X220816Y1704610D01*
X228289Y1693426D01*
X229709Y1692006D01*
X230825Y1690336D01*
X235580Y1685581D01*
X240337Y1680825D01*
X242006Y1679709D01*
X243426Y1678289D01*
X254610Y1670816D01*
X256466Y1670047D01*
X258136Y1668932D01*
X270563Y1663784D01*
X272532Y1663393D01*
X274388Y1662624D01*
X287581Y1660000D01*
X289588D01*
X291559Y1659608D01*
X601216D01*
X605906Y1659378D01*
X615588Y1657452D01*
X624246Y1653866D01*
X632454Y1648382D01*
X636306Y1644891D01*
X637011Y1644468D01*
X637552Y1643848D01*
X652956Y1631978D01*
X653580Y1631668D01*
X654073Y1631175D01*
X654609Y1630817D01*
X656465Y1630048D01*
X658136Y1628932D01*
X670563Y1623784D01*
X672532Y1623393D01*
X674388Y1622624D01*
X687581Y1620000D01*
X689588D01*
X691559Y1619608D01*
X778441D01*
X780411Y1620000D01*
X782419D01*
X795612Y1622624D01*
X797467Y1623392D01*
X799437Y1623784D01*
X811864Y1628932D01*
X813533Y1630047D01*
X815390Y1630816D01*
X826573Y1638289D01*
X827994Y1639709D01*
X829664Y1640825D01*
X839175Y1650337D01*
X840290Y1652006D01*
X841710Y1653426D01*
X846948Y1661264D01*
X861838Y1661675D01*
X867328Y1660401D01*
X869059Y1659578D01*
X877277Y1647278D01*
X891832Y1637553D01*
X908999Y1634138D01*
X920999D01*
X938167Y1637553D01*
X952722Y1647278D01*
X962446Y1661832D01*
X962926Y1664243D01*
X1003596D01*
X1009780Y1654989D01*
X1021357Y1647253D01*
X1035013Y1644536D01*
X1155013D01*
X1158896Y1645309D01*
X1179216Y1631722D01*
Y1420925D01*
X1150000D01*
X1136343Y1418208D01*
X1124766Y1410473D01*
X1117031Y1398896D01*
X1114314Y1385239D01*
Y1315239D01*
X1117031Y1301583D01*
X1124766Y1290006D01*
X1136343Y1282270D01*
X1150000Y1279554D01*
X1269999D01*
X1283656Y1282270D01*
X1295233Y1290006D01*
X1302969Y1301583D01*
X1305685Y1315239D01*
Y1344734D01*
X1326005Y1346735D01*
X1327030Y1341583D01*
X1334766Y1330006D01*
X1346343Y1322270D01*
X1359999Y1319554D01*
X1479999D01*
X1493655Y1322270D01*
X1505233Y1330006D01*
X1512968Y1341583D01*
X1515685Y1355239D01*
Y1368731D01*
X1536005Y1379592D01*
X1539074Y1377542D01*
Y1340000D01*
X1541790Y1326343D01*
X1549526Y1314766D01*
X1561103Y1307030D01*
X1574759Y1304314D01*
X1644759D01*
X1658416Y1307030D01*
X1669993Y1314766D01*
X1677728Y1326343D01*
X1680445Y1340000D01*
Y1459999D01*
X1677728Y1473656D01*
X1669993Y1485233D01*
X1658416Y1492969D01*
X1644759Y1495685D01*
X1574759D01*
X1561103Y1492969D01*
X1557381Y1490482D01*
X1536265Y1516211D01*
X1516512Y1553167D01*
X1504348Y1593267D01*
X1500420Y1633144D01*
X1500783Y1634970D01*
Y2034999D01*
Y2089999D01*
X1497679Y2105607D01*
X1488838Y2118838D01*
X1475607Y2127678D01*
X1460000Y2130783D01*
X1444392Y2127678D01*
X1441103Y2125481D01*
X1420783Y2136342D01*
Y2181039D01*
X1427099Y2190491D01*
X1430980Y2210000D01*
X1427099Y2229509D01*
X1416048Y2246048D01*
X1399509Y2257099D01*
X1380000Y2260979D01*
X1360491Y2257099D01*
X1343952Y2246048D01*
X1332901Y2229509D01*
X1329020Y2210000D01*
X1332901Y2190491D01*
X1339216Y2181040D01*
Y2089999D01*
Y1980000D01*
Y1462664D01*
X1338771D01*
X1339922Y1453918D01*
X1334766Y1450473D01*
X1327030Y1438896D01*
X1324314Y1425239D01*
Y1395745D01*
X1303994Y1393743D01*
X1302969Y1398896D01*
X1295233Y1410473D01*
X1283656Y1418208D01*
X1269999Y1420925D01*
X1260783D01*
Y2034999D01*
Y2089999D01*
Y2181039D01*
X1267099Y2190491D01*
X1270980Y2210000D01*
X1267099Y2229509D01*
X1256048Y2246048D01*
X1239509Y2257099D01*
X1220000Y2260979D01*
X1200491Y2257099D01*
X1183952Y2246048D01*
X1172901Y2229509D01*
X1169021Y2210000D01*
X1172901Y2190491D01*
X1179216Y2181040D01*
Y2089999D01*
Y1980000D01*
Y1798723D01*
X1158896Y1785135D01*
X1155013Y1785908D01*
X1035013D01*
X1021357Y1783191D01*
X1009780Y1775456D01*
X1003596Y1766202D01*
X947514D01*
X938167Y1772447D01*
X920999Y1775862D01*
X908999D01*
X891832Y1772447D01*
X880712Y1765018D01*
X868046Y1768898D01*
X860392Y1774019D01*
Y1978033D01*
X860783Y1980000D01*
Y2089999D01*
X860392Y2091966D01*
Y2102378D01*
X860000Y2104348D01*
Y2106357D01*
X859072Y2111021D01*
X858303Y2112877D01*
X857912Y2114846D01*
X856092Y2119239D01*
X854976Y2120908D01*
X854208Y2122764D01*
X851566Y2126718D01*
X850145Y2128139D01*
X849029Y2129809D01*
X834419Y2144418D01*
X834419Y2144419D01*
X831980Y2146048D01*
X829727Y2147922D01*
X812664Y2157183D01*
X809742Y2158090D01*
X806916Y2159261D01*
X803200Y2160000D01*
X801190D01*
X799220Y2160392D01*
X734330D01*
X728166Y2180712D01*
X728838Y2181161D01*
X737679Y2194392D01*
X740783Y2209999D01*
X737679Y2225607D01*
X735481Y2228896D01*
X746342Y2249216D01*
X781040D01*
X790491Y2242901D01*
X810000Y2239020D01*
X829509Y2242901D01*
X846048Y2253952D01*
X857099Y2270491D01*
X860979Y2290000D01*
X857099Y2309509D01*
X846048Y2326048D01*
X829509Y2337099D01*
X810000Y2340980D01*
X790491Y2337099D01*
X781039Y2330783D01*
X746342D01*
X735481Y2351103D01*
X737679Y2354392D01*
X740783Y2370000D01*
X737679Y2385607D01*
X735481Y2388896D01*
X746342Y2409216D01*
X781039D01*
X790491Y2402901D01*
X810000Y2399020D01*
X829509Y2402901D01*
X846048Y2413952D01*
X857099Y2430491D01*
X860979Y2450000D01*
X857099Y2469509D01*
X846048Y2486048D01*
X829509Y2497099D01*
X810000Y2500980D01*
X790491Y2497099D01*
X781039Y2490783D01*
X746343D01*
X735481Y2511103D01*
X737679Y2514392D01*
X740783Y2530000D01*
X737679Y2545607D01*
X728838Y2558838D01*
X715607Y2567679D01*
X700000Y2570783D01*
X645003D01*
X644999Y2570784D01*
X644998Y2570784D01*
X458960D01*
X449509Y2577099D01*
X430000Y2580980D01*
X410491Y2577099D01*
X401104Y2570827D01*
X380784Y2580131D01*
Y2789074D01*
X400000D01*
X413656Y2791791D01*
X425234Y2799526D01*
X432969Y2811104D01*
X435686Y2824760D01*
Y2884715D01*
X446576Y2890222D01*
X456006Y2892580D01*
X470491Y2882901D01*
X490000Y2879020D01*
X509509Y2882901D01*
X518960Y2889216D01*
X543657D01*
X554519Y2868896D01*
X552321Y2865607D01*
X549216Y2849999D01*
X552321Y2834392D01*
X561161Y2821161D01*
X574393Y2812320D01*
X590000Y2809216D01*
X699288D01*
Y2808980D01*
X740595Y2813048D01*
X780314Y2825097D01*
X816920Y2844663D01*
X822942Y2849606D01*
X839509Y2852901D01*
X851158Y2860685D01*
X868952Y2856787D01*
X873873Y2854055D01*
X890796Y2813199D01*
X914637Y2774295D01*
X928547Y2758008D01*
X917672Y2739453D01*
X910000Y2740980D01*
X890491Y2737099D01*
X881039Y2730783D01*
X645002D01*
X645000Y2730784D01*
X644996Y2730783D01*
X590000D01*
X574393Y2727679D01*
X561161Y2718838D01*
X552321Y2705607D01*
X549216Y2689999D01*
X552321Y2674392D01*
X561161Y2661161D01*
X574393Y2652320D01*
X590000Y2649216D01*
X644998D01*
X645000Y2649216D01*
X645001Y2649216D01*
X700000D01*
X700002Y2649216D01*
X881039D01*
X890491Y2642901D01*
X910000Y2639020D01*
X929509Y2642901D01*
X946048Y2653952D01*
X957099Y2670491D01*
X960980Y2690000D01*
X959090Y2699498D01*
X977674Y2710227D01*
X988051Y2701127D01*
X1036515Y2668744D01*
X1088791Y2642965D01*
X1143985Y2624229D01*
X1201152Y2612858D01*
X1239397Y2610351D01*
X1239463Y2610347D01*
X1259314Y2609045D01*
X1259315Y2609045D01*
Y2609046D01*
X1279564Y2609217D01*
X1351039D01*
X1360491Y2602901D01*
X1380000Y2599020D01*
X1399509Y2602901D01*
X1403029Y2605253D01*
X1406610Y2604466D01*
X1422144Y2593587D01*
X1419091Y2554790D01*
X1419216D01*
Y2497529D01*
X1419091D01*
X1422722Y2451395D01*
X1433525Y2406397D01*
X1451234Y2363643D01*
X1475414Y2324186D01*
X1505468Y2288997D01*
X1505556Y2289086D01*
X1624716Y2169925D01*
X1638996Y2155468D01*
X1653013Y2142633D01*
X1653827Y2142090D01*
X1657655Y2139532D01*
X1674185Y2125414D01*
X1713642Y2101234D01*
X1756397Y2083525D01*
X1801394Y2072722D01*
X1847528Y2069091D01*
Y2069217D01*
X2634789D01*
X2636615Y2069580D01*
X2676492Y2065652D01*
X2716592Y2053488D01*
X2753548Y2033735D01*
X2770522Y2019805D01*
X2785360Y2006570D01*
X2785360Y2006570D01*
X2841780Y1956149D01*
X2903492Y1912362D01*
X2969718Y1875761D01*
X3039627Y1846804D01*
X3112337Y1825856D01*
X3186936Y1813181D01*
X3262486Y1808938D01*
Y1808939D01*
X3262537Y1809216D01*
X3262738Y1809217D01*
X4137574D01*
Y1808771D01*
X4174754Y1813666D01*
X4209401Y1828017D01*
X4214208Y1831706D01*
X4236148Y1822928D01*
X4244080Y1772202D01*
X4248873Y1759129D01*
X4258305Y1748886D01*
X4270938Y1743032D01*
X4284850Y1742458D01*
X4339226Y1750960D01*
X4460783D01*
Y1750730D01*
X4494584Y1754059D01*
X4527087Y1763918D01*
X4557041Y1779929D01*
X4562786Y1784644D01*
X4603409Y1790996D01*
X4616481Y1795790D01*
X4626725Y1805221D01*
X4632579Y1817854D01*
X4633153Y1831766D01*
X4622339Y1900926D01*
X4617546Y1913998D01*
X4616480Y1915156D01*
X4616147Y1916041D01*
X4615619Y1918669D01*
X4615372Y1933575D01*
X4619415Y1939696D01*
X4622928Y1942043D01*
X4628575Y1947691D01*
X4634532Y1949822D01*
X4717761Y1989187D01*
X4796732Y2036520D01*
X4870682Y2091365D01*
X4924340Y2139998D01*
X4939135Y2153337D01*
X4939135D01*
X5004785Y2225771D01*
X5063096Y2304395D01*
X5113421Y2388356D01*
X5155273Y2476845D01*
X5188250Y2569011D01*
X5212035Y2663965D01*
X5226398Y2760793D01*
X5231201Y2858562D01*
X5230784D01*
Y2894914D01*
X5230778Y2894939D01*
X5230784Y2894965D01*
X5230783Y2895167D01*
X5230280Y2897682D01*
X5234615Y2985928D01*
X5247956Y3075866D01*
X5270048Y3164062D01*
X5300679Y3249669D01*
X5339552Y3331861D01*
X5386296Y3409847D01*
X5396870Y3424105D01*
X5619377Y3458896D01*
X5645649Y3466622D01*
X5669025Y3480884D01*
X5687914Y3500710D01*
X5701028Y3524749D01*
X5707473Y3551364D01*
X5706811Y3578740D01*
X5695688Y3649875D01*
X5687962Y3676147D01*
X5673700Y3699523D01*
X5653874Y3718412D01*
X5629835Y3731526D01*
X5603220Y3737971D01*
X5575844Y3737308D01*
X5326870Y3698378D01*
X5300598Y3690653D01*
X5277222Y3676391D01*
X5258333Y3656564D01*
X5245219Y3632525D01*
X5238774Y3605911D01*
X5239437Y3578535D01*
X5250560Y3507399D01*
X5258285Y3481128D01*
X5272547Y3457751D01*
X5292373Y3438863D01*
X5297546Y3419858D01*
X5267792Y3370218D01*
X5225504Y3280807D01*
X5192184Y3187682D01*
X5168151Y3091740D01*
X5153639Y2993904D01*
X5149773Y2915205D01*
X5148785Y2895116D01*
X5148786Y2895115D01*
X5149217Y2874972D01*
Y2858562D01*
X5149711Y2856075D01*
X5145422Y2768768D01*
X5132231Y2679839D01*
X5110386Y2592630D01*
X5080099Y2507983D01*
X5041661Y2426712D01*
X4995441Y2349600D01*
X4941886Y2277390D01*
X4883252Y2212696D01*
X4881164Y2211301D01*
X4880962Y2211099D01*
X4879719Y2209238D01*
X4819063Y2154263D01*
X4751526Y2104175D01*
X4679405Y2060947D01*
X4622121Y2033854D01*
X4599698Y2045726D01*
X4591368Y2098999D01*
X4586575Y2112071D01*
X4577143Y2122315D01*
X4564510Y2128169D01*
X4550598Y2128743D01*
X4531558Y2125766D01*
X4518859Y2156425D01*
X4514726Y2187814D01*
X4514939Y2189428D01*
Y2284695D01*
X4521153Y2296088D01*
X4526111Y2316560D01*
X4525979Y2322011D01*
X4546228Y2325177D01*
X4547767Y2319946D01*
X4558737Y2301964D01*
X4573988Y2287434D01*
X4592480Y2277346D01*
X4612952Y2272389D01*
X4634011Y2272898D01*
X4654219Y2278841D01*
X4672201Y2289812D01*
X4686731Y2305063D01*
X4696819Y2323555D01*
X4701776Y2344027D01*
X4701267Y2365085D01*
X4698177Y2384845D01*
X4692234Y2405054D01*
X4681264Y2423036D01*
X4668182Y2435499D01*
X4668865Y2445304D01*
X4673116Y2456838D01*
X5015800Y2510421D01*
X4876764Y3399616D01*
X4621912Y3359767D01*
X4614343Y3369453D01*
X4610700Y3378581D01*
X4619353Y3394443D01*
X4624311Y3414916D01*
X4623801Y3435974D01*
X4620711Y3455734D01*
X4614768Y3475942D01*
X4603798Y3493924D01*
X4588547Y3508454D01*
X4570055Y3518542D01*
X4549582Y3523500D01*
X4528524Y3522990D01*
X4508316Y3517047D01*
X4490333Y3506076D01*
X4475804Y3490825D01*
X4465716Y3472334D01*
X4460758Y3451861D01*
X4460890Y3446410D01*
X4440641Y3443244D01*
X4439103Y3448475D01*
X4428132Y3466457D01*
X4412881Y3480987D01*
X4394389Y3491075D01*
X4373917Y3496032D01*
X4352859Y3495523D01*
X4332650Y3489580D01*
X4314668Y3478609D01*
X4300138Y3463358D01*
X4290050Y3444866D01*
X4288422Y3438142D01*
X4265965Y3431741D01*
X4261807Y3435836D01*
Y3588199D01*
X4261715Y3588898D01*
X4265038Y3605604D01*
X4295685Y3610396D01*
X4308758Y3615189D01*
X4319001Y3624621D01*
X4324855Y3637254D01*
X4325429Y3651166D01*
X4314615Y3720326D01*
X4309822Y3733398D01*
X4300391Y3743641D01*
X4287757Y3749496D01*
X4273845Y3750070D01*
X4155286Y3731532D01*
X4142213Y3726738D01*
X4131970Y3717307D01*
X4128811Y3710490D01*
X4121584Y3707791D01*
X4110906Y3706479D01*
X4106504Y3707002D01*
X4100391Y3713641D01*
X4087757Y3719495D01*
X4073845Y3720070D01*
X3955286Y3701532D01*
X3942213Y3696738D01*
X3931970Y3687307D01*
X3926116Y3674673D01*
X3925542Y3660761D01*
X3930253Y3630629D01*
X3912337Y3613676D01*
X3905486Y3614525D01*
X3882880Y3633077D01*
X3857089Y3646863D01*
X3829104Y3655352D01*
X3800000Y3658218D01*
Y3658104D01*
X3527834D01*
Y3658607D01*
X3482965Y3654188D01*
X3439820Y3641100D01*
X3400057Y3619847D01*
X3385380Y3607801D01*
X3345286Y3601532D01*
X3332214Y3596738D01*
X3321970Y3587307D01*
X3318811Y3580490D01*
X3311584Y3577791D01*
X3300906Y3576479D01*
X3296504Y3577002D01*
X3290391Y3583641D01*
X3277757Y3589495D01*
X3263845Y3590070D01*
X3145286Y3571532D01*
X3132213Y3566738D01*
X3121970Y3557307D01*
X3116116Y3544673D01*
X3116001Y3541901D01*
X3027795D01*
X3019696Y3542235D01*
X3007840Y3540381D01*
X2991406Y3534355D01*
X2988900Y3532048D01*
X2974791Y3521221D01*
X2963570Y3506599D01*
X2956517Y3489570D01*
X2954111Y3471297D01*
X2956517Y3453023D01*
X2963570Y3435995D01*
X2974791Y3421372D01*
X2985788Y3412933D01*
X2986406Y3399462D01*
X2983872Y3390453D01*
X2955206Y3375131D01*
X2927581Y3352459D01*
X2927557Y3352443D01*
X2927495Y3352351D01*
X2920305Y3347547D01*
X2911824Y3345860D01*
X2911716Y3345882D01*
X2760022D01*
X2758859Y3345650D01*
X2748839Y3346637D01*
X2729839Y3358000D01*
X2726097Y3386428D01*
X2715124Y3412919D01*
X2697668Y3435668D01*
X2674919Y3453123D01*
X2648428Y3464096D01*
X2620000Y3467839D01*
X2591571Y3464096D01*
X2578932Y3458861D01*
X2574291Y3462931D01*
X2521338Y3498313D01*
X2499356Y3509153D01*
X2498304Y3532328D01*
X2506133Y3544045D01*
X2509962Y3546174D01*
X2528849Y3550680D01*
X2540491Y3542901D01*
X2560000Y3539020D01*
X2579509Y3542901D01*
X2596048Y3553952D01*
X2607099Y3570491D01*
X2610148Y3585817D01*
X2613651Y3591604D01*
X2629488Y3601112D01*
X2640000Y3599020D01*
X2659509Y3602901D01*
X2671742Y3611075D01*
X2687478Y3604192D01*
X2690882Y3601285D01*
X2689396Y3590000D01*
X2691802Y3571726D01*
X2698855Y3554698D01*
X2710076Y3540075D01*
X2724698Y3528855D01*
X2741727Y3521802D01*
X2760000Y3519396D01*
X2778274Y3521802D01*
X2795302Y3528855D01*
X2809925Y3540075D01*
X2821145Y3554698D01*
X2828198Y3571726D01*
X2830604Y3590000D01*
X2829017Y3602050D01*
X2833071Y3609634D01*
X2842819Y3641768D01*
X2845150Y3665439D01*
X2848831Y3673384D01*
X2849553Y3690873D01*
X2841520Y3742249D01*
X2835494Y3758683D01*
X2823637Y3771560D01*
X2812961Y3776508D01*
X2810795Y3792962D01*
X2810979Y3793890D01*
Y4012845D01*
X2810607Y4014717D01*
X2814335Y4033459D01*
X2815216Y4034777D01*
X2826538Y4050407D01*
X2838065Y4061934D01*
X2838508Y4062598D01*
X2842750Y4065432D01*
X2860662Y4071200D01*
X2861738Y4071002D01*
X2880957Y4071002D01*
X2962790D01*
X2964913Y4071424D01*
X2972557Y4069903D01*
X2978855Y4054698D01*
X2990076Y4040075D01*
X2991404Y4039056D01*
X3004169Y4019953D01*
X3006157Y4009956D01*
X3000504Y3997758D01*
X2999930Y3983846D01*
X3017350Y3872439D01*
X3013900Y3861068D01*
X2995930Y3827448D01*
X2980693Y3808882D01*
X2977985Y3808994D01*
X2966129Y3807140D01*
X2949695Y3801114D01*
X2936818Y3789257D01*
X2929458Y3773375D01*
X2928736Y3755886D01*
X2936769Y3704510D01*
X2942795Y3688076D01*
X2954652Y3675199D01*
X2970534Y3667839D01*
X2988023Y3667117D01*
X2999879Y3668971D01*
X3016313Y3674997D01*
X3029191Y3686854D01*
X3036550Y3702736D01*
X3037272Y3720225D01*
X3037272Y3720227D01*
X3043384Y3726339D01*
X3043385Y3726339D01*
X3043386Y3726340D01*
X3043385Y3726341D01*
X3043706Y3726820D01*
X3073472Y3761673D01*
X3097717Y3801237D01*
X3115475Y3844107D01*
X3115532Y3844344D01*
X3128398Y3846356D01*
X3141471Y3851150D01*
X3151714Y3860581D01*
X3153707Y3864882D01*
X3566676D01*
Y3864577D01*
X3603499Y3868204D01*
X3638906Y3878945D01*
X3671538Y3896387D01*
X3700140Y3919860D01*
X3699925Y3920075D01*
X3725530Y3945681D01*
X3726111Y3946439D01*
X3753200Y3968670D01*
X3784944Y3985637D01*
X3819389Y3996086D01*
X3854263Y3999521D01*
X3855210Y3999396D01*
X4624790D01*
X4625738Y3999521D01*
X4660611Y3996086D01*
X4695056Y3985637D01*
X4726800Y3968670D01*
X4753889Y3946439D01*
X4754470Y3945681D01*
X4810075Y3890076D01*
X4809902Y3889902D01*
X4842799Y3861805D01*
X4879686Y3839200D01*
X4919656Y3822644D01*
X4961723Y3812545D01*
X5004853Y3809150D01*
Y3809396D01*
X5564790D01*
X5565738Y3809521D01*
X5600611Y3806086D01*
X5635056Y3795638D01*
X5666800Y3778670D01*
X5693889Y3756439D01*
X5694470Y3755681D01*
X6000076Y3450076D01*
X6014698Y3438855D01*
X6031727Y3431802D01*
X6050000Y3429396D01*
X6068274Y3431802D01*
X6085302Y3438855D01*
X6099925Y3450076D01*
X6111145Y3464698D01*
X6118198Y3481727D01*
X6120604Y3500000D01*
X6118198Y3518274D01*
X6111145Y3535302D01*
X6099925Y3549925D01*
X5794319Y3855530D01*
X5794601Y3855811D01*
X5755821Y3888932D01*
X5712337Y3915579D01*
X5665221Y3935095D01*
X5615631Y3947000D01*
X5564790Y3951002D01*
Y3950604D01*
X5004853D01*
X5003004Y3950361D01*
X4969980Y3954708D01*
X4937485Y3968168D01*
X4911060Y3988445D01*
X4909924Y3989924D01*
X4854319Y4045530D01*
X4854600Y4045811D01*
X4815821Y4078932D01*
X4772337Y4105579D01*
X4725221Y4125095D01*
X4675631Y4137000D01*
X4624790Y4141002D01*
Y4140604D01*
X3855210D01*
Y4141002D01*
X3804369Y4137000D01*
X3754779Y4125095D01*
X3707663Y4105579D01*
X3664179Y4078932D01*
X3625400Y4045811D01*
X3625681Y4045530D01*
X3600076Y4019924D01*
X3599618Y4019328D01*
X3584846Y4009458D01*
X3567421Y4005992D01*
X3566676Y4006090D01*
X3149002D01*
X3146095Y4035608D01*
X3134471Y4073926D01*
X3115595Y4109240D01*
X3090193Y4140193D01*
X3089924Y4139924D01*
X3075302Y4151145D01*
X3058274Y4158198D01*
X3040000Y4160604D01*
X3027123Y4158908D01*
X3024005Y4160575D01*
X2993997Y4169678D01*
X2964874Y4172546D01*
X2962790Y4172961D01*
X2861738D01*
X2861584Y4172930D01*
X2860000Y4173139D01*
X2825541Y4168602D01*
X2809870Y4162111D01*
X2795525Y4178163D01*
X2803516Y4192622D01*
X2855808Y4266321D01*
X2902548Y4318623D01*
X2916564Y4333137D01*
X2918087Y4335417D01*
X2984889Y4395964D01*
X3059168Y4451052D01*
X3138488Y4498595D01*
X3222086Y4538134D01*
X3309157Y4569288D01*
X3398863Y4591758D01*
X3490339Y4605328D01*
X3562526Y4608874D01*
X3582704Y4609216D01*
X3582756Y4609216D01*
X3582957Y4609217D01*
X4059627D01*
X4061452Y4609580D01*
X4101330Y4605652D01*
X4108425Y4603500D01*
X4171231Y4382826D01*
X4182101Y4357692D01*
X4199105Y4336228D01*
X4221086Y4319896D01*
X4246544Y4309809D01*
X4273746Y4306656D01*
X4300836Y4310650D01*
X4370086Y4330359D01*
X4395220Y4341229D01*
X4416685Y4358233D01*
X4433016Y4380214D01*
X4443103Y4405672D01*
X4446256Y4432874D01*
X4442262Y4459965D01*
X4373280Y4702339D01*
X4362410Y4727473D01*
X4345406Y4748937D01*
X4341619Y4751750D01*
X4349044Y4771549D01*
X4354234Y4771140D01*
X4398023Y4760628D01*
X4439628Y4743394D01*
X4478025Y4719865D01*
X4497137Y4703542D01*
X4511987Y4690336D01*
Y4690336D01*
X4511988Y4690335D01*
X4526356Y4675967D01*
X5084399Y4117925D01*
X5098678Y4103468D01*
X5098678Y4103468D01*
X5133867Y4073414D01*
X5173324Y4049234D01*
X5216078Y4031525D01*
X5261076Y4020722D01*
X5307210Y4017091D01*
Y4017217D01*
X7050022D01*
Y4016899D01*
X7070724Y4018529D01*
X7071498Y4018534D01*
X7074987Y4018090D01*
X7075305Y4018101D01*
X7091005Y4018625D01*
X7091104Y4018666D01*
X7091068Y4019142D01*
X7110715Y4020689D01*
X7134784Y4022583D01*
X7177486Y4032835D01*
X7218057Y4049640D01*
X7255501Y4072586D01*
X7288894Y4101106D01*
X7288894Y4101106D01*
X7304150Y4113331D01*
X7308508Y4116675D01*
X7331690Y4126277D01*
X7355552Y4129418D01*
X7356568Y4129217D01*
X7499673D01*
X7519850Y4128866D01*
Y4128866D01*
X7612118Y4133399D01*
X7703496Y4146954D01*
X7793107Y4169400D01*
X7880085Y4200521D01*
X7963594Y4240018D01*
X8042830Y4287510D01*
X8117029Y4342540D01*
X8123005Y4347956D01*
X8137170Y4344526D01*
X8155859Y4344978D01*
X8232923Y4357028D01*
X8250858Y4362302D01*
X8266817Y4372039D01*
X8279712Y4385574D01*
X8288665Y4401985D01*
X8293065Y4420155D01*
X8292612Y4438844D01*
X8282107Y4506027D01*
X8276833Y4523963D01*
X8267097Y4539922D01*
X8253562Y4552817D01*
X8237150Y4561770D01*
X8218981Y4566170D01*
X8200291Y4565717D01*
X8123228Y4553667D01*
X8105293Y4548393D01*
X8089334Y4538657D01*
X8076439Y4525122D01*
X8067486Y4508710D01*
X8063086Y4490541D01*
X8063538Y4471852D01*
X8072866Y4412196D01*
X8065410Y4405438D01*
X7997625Y4355165D01*
X7942461Y4322101D01*
X7927271Y4336687D01*
X7932513Y4346297D01*
X7936913Y4364466D01*
X7936460Y4383155D01*
X7925955Y4450339D01*
X7920681Y4468274D01*
X7910945Y4484233D01*
X7897410Y4497128D01*
X7880998Y4506081D01*
X7862829Y4510481D01*
X7844140Y4510029D01*
X7767076Y4497979D01*
X7749141Y4492705D01*
X7733182Y4482968D01*
X7720287Y4469433D01*
X7711334Y4453022D01*
X7706934Y4434852D01*
X7703345Y4431175D01*
X7660000D01*
X7658499Y4430877D01*
X7646227Y4433318D01*
X7635824Y4440269D01*
X7634974Y4441542D01*
X7561542Y4514973D01*
X7558014Y4517330D01*
X7537406Y4534243D01*
X7510206Y4548782D01*
X7480693Y4557735D01*
X7464172Y4559362D01*
X7463468Y4559675D01*
X7460125Y4559760D01*
X7450001Y4560757D01*
Y4561176D01*
X7439606Y4560287D01*
X7430524Y4558720D01*
X7235352Y4525070D01*
X7228079Y4544435D01*
X7239471Y4551386D01*
X7254001Y4566637D01*
X7264088Y4585128D01*
X7269046Y4605601D01*
X7268536Y4626659D01*
X7222191Y4923057D01*
X7216248Y4943266D01*
X7205277Y4961248D01*
X7190027Y4975778D01*
X7171535Y4985866D01*
X7151062Y4990823D01*
X7130004Y4990314D01*
X7011444Y4971775D01*
X6991236Y4965833D01*
X6985095Y4962086D01*
X6972934Y4978470D01*
X7020497Y5020975D01*
X7076553Y5060749D01*
X7136710Y5093997D01*
X7200211Y5120300D01*
X7266257Y5139327D01*
X7334019Y5150840D01*
X7382553Y5153566D01*
X7402644Y5154118D01*
Y5154118D01*
X8152388D01*
X8152614Y5154118D01*
X8152665Y5154118D01*
X8172765Y5153585D01*
X8224145Y5150218D01*
X8294402Y5136242D01*
X8362234Y5113217D01*
X8426480Y5081534D01*
X8486041Y5041736D01*
X8537644Y4996482D01*
X8539307Y4993987D01*
X8539416Y4993878D01*
X8541011Y4992810D01*
X8558761Y4969677D01*
X8570684Y4940891D01*
X8574499Y4911914D01*
X8574118Y4910000D01*
Y4885210D01*
X8574076D01*
X8577768Y4838292D01*
X8588755Y4792529D01*
X8606765Y4749048D01*
X8631356Y4708919D01*
X8661921Y4673132D01*
X8661952Y4673162D01*
X8903162Y4431952D01*
X8903132Y4431922D01*
X8938919Y4401356D01*
X8979048Y4376765D01*
X9022529Y4358755D01*
X9068292Y4347768D01*
X9115210Y4344076D01*
Y4344119D01*
X9168669D01*
X9170491Y4342901D01*
X9190000Y4339021D01*
X9209509Y4342901D01*
X9226048Y4353952D01*
X9237099Y4370491D01*
X9240979Y4390000D01*
X9237099Y4409509D01*
X9226048Y4426048D01*
X9209509Y4437099D01*
X9190000Y4440980D01*
X9170491Y4437099D01*
X9168669Y4435882D01*
X9115210D01*
X9113137Y4435469D01*
X9074488Y4439276D01*
X9035331Y4451154D01*
X8999243Y4470443D01*
X8973016Y4491967D01*
X8984427Y4508889D01*
X8989352Y4506203D01*
X9016222Y4499696D01*
X9043861Y4500365D01*
X9070384Y4508165D01*
X9093986Y4522564D01*
X9113056Y4542580D01*
X9126296Y4566851D01*
X9132803Y4593721D01*
X9132134Y4621360D01*
X9124335Y4647884D01*
X9117828Y4658548D01*
X9133912Y4671202D01*
X9205443Y4599671D01*
X9207201Y4598496D01*
X9231838Y4568475D01*
X9251127Y4532388D01*
X9263005Y4493231D01*
X9266812Y4454582D01*
X9266400Y4452508D01*
Y4032597D01*
X9266383Y4032581D01*
X9259357Y4017421D01*
X9258668Y4000727D01*
X9270409Y3925639D01*
X9276161Y3909952D01*
X9287479Y3897660D01*
X9302639Y3890635D01*
X9319333Y3889946D01*
X9330201Y3891646D01*
X9345888Y3897398D01*
X9352642Y3903616D01*
X9359710Y3903973D01*
X9373456Y3899938D01*
X9374717Y3899213D01*
X9376529Y3896502D01*
X9377618Y3893429D01*
X9381347Y3889291D01*
X9384441Y3884659D01*
X9396764Y3872337D01*
X9396764Y3872336D01*
X9396765Y3872336D01*
X9404625Y3864476D01*
X9396208Y3844156D01*
X9338284D01*
Y3844378D01*
X9311713Y3840880D01*
X9286953Y3830624D01*
X9265691Y3814309D01*
X9249376Y3793047D01*
X9239120Y3768287D01*
X9235622Y3741716D01*
X9235844D01*
Y3715211D01*
X9235611D01*
X9239162Y3670097D01*
X9249726Y3626094D01*
X9267044Y3584285D01*
X9290689Y3545700D01*
X9320078Y3511289D01*
X9320243Y3511453D01*
X9468001Y3363695D01*
X9482208Y3349488D01*
X9494913Y3334430D01*
X9505206Y3321888D01*
X9522153Y3290181D01*
X9532590Y3255778D01*
X9536024Y3220906D01*
X9535844Y3220000D01*
Y2400093D01*
X9535844Y2400093D01*
X9535843D01*
X9517800Y2393821D01*
X9515260Y2393419D01*
X9512320Y2400518D01*
X9493085Y2425585D01*
X9468017Y2444820D01*
X9438826Y2456912D01*
X9407500Y2461036D01*
X9376173Y2456912D01*
X9346982Y2444820D01*
X9321915Y2425585D01*
X9302680Y2400518D01*
X9290588Y2371326D01*
X9286464Y2340000D01*
X9290588Y2308674D01*
X9302680Y2279482D01*
X9321915Y2254415D01*
X9346982Y2235180D01*
X9376173Y2223089D01*
X9407500Y2218965D01*
X9438826Y2223089D01*
X9460672Y2232138D01*
X9472955Y2215231D01*
X9447711Y2185674D01*
X9446683Y2184988D01*
X9349184Y2087488D01*
X9334689Y2073415D01*
X9334561Y2073310D01*
X9322215Y2058265D01*
X9309496Y2042768D01*
X9290871Y2007923D01*
X9284127Y1985690D01*
X9261892Y1982392D01*
X9259993Y1985234D01*
X9248416Y1992969D01*
X9234760Y1995686D01*
X9164760D01*
X9151104Y1992969D01*
X9139526Y1985234D01*
X9131791Y1973656D01*
X9130359Y1966458D01*
X9109641D01*
X9108209Y1973656D01*
X9100473Y1985234D01*
X9088896Y1992969D01*
X9075240Y1995686D01*
X9005240D01*
X8991583Y1992969D01*
X8980006Y1985234D01*
X8972271Y1973656D01*
X8969554Y1960000D01*
Y1840000D01*
X8972271Y1826344D01*
X8980006Y1814766D01*
X8985210Y1811289D01*
X8985725Y1809808D01*
Y1790192D01*
X8985210Y1788711D01*
X8980006Y1785234D01*
X8972271Y1773656D01*
X8969554Y1760000D01*
Y1640000D01*
X8972271Y1626344D01*
X8980006Y1614767D01*
X8991583Y1607031D01*
X8995754Y1606202D01*
X8993752Y1585882D01*
X8886247D01*
X8884246Y1606202D01*
X8888416Y1607031D01*
X8899993Y1614767D01*
X8907729Y1626344D01*
X8910445Y1640000D01*
Y1760000D01*
X8907729Y1773656D01*
X8899993Y1785234D01*
X8894789Y1788711D01*
X8894274Y1790192D01*
Y1809808D01*
X8894789Y1811289D01*
X8899993Y1814766D01*
X8907729Y1826344D01*
X8910445Y1840000D01*
Y1960000D01*
X8907729Y1973656D01*
X8899993Y1985234D01*
X8888416Y1992969D01*
X8874760Y1995686D01*
X8804760D01*
X8791104Y1992969D01*
X8779526Y1985234D01*
X8771791Y1973656D01*
X8769074Y1960000D01*
Y1888828D01*
X8754121Y1877354D01*
X8723191Y1864543D01*
X8714957Y1863459D01*
X8709509Y1867099D01*
X8690000Y1870979D01*
X8670491Y1867099D01*
X8653952Y1856048D01*
X8642901Y1839509D01*
X8639020Y1820000D01*
X8642901Y1800491D01*
X8653952Y1783952D01*
X8670491Y1772901D01*
X8683270Y1770359D01*
Y1749641D01*
X8670491Y1747099D01*
X8653952Y1736048D01*
X8642901Y1719509D01*
X8639020Y1700000D01*
X8642901Y1680491D01*
X8653952Y1663952D01*
X8670491Y1652901D01*
X8690000Y1649020D01*
X8709509Y1652901D01*
X8718960Y1659216D01*
X8769074D01*
Y1640000D01*
X8771791Y1626344D01*
X8779526Y1614767D01*
X8791104Y1607031D01*
X8795274Y1606202D01*
X8793272Y1585882D01*
X7483848D01*
Y1586049D01*
X7419903Y1581858D01*
X7357053Y1569356D01*
X7296372Y1548758D01*
X7238899Y1520415D01*
X7185617Y1484813D01*
X7152218Y1455523D01*
X7137438Y1442562D01*
X7137278Y1442379D01*
X7122314Y1429446D01*
X7113677Y1422358D01*
X7086128Y1407632D01*
X7056235Y1398565D01*
X7026422Y1395628D01*
X7025147Y1395882D01*
X6465210D01*
X6463136Y1395469D01*
X6424488Y1399276D01*
X6385331Y1411154D01*
X6349243Y1430443D01*
X6332966Y1443802D01*
X6318195Y1457201D01*
X6318195Y1457200D01*
X6269769Y1498560D01*
X6215340Y1531914D01*
X6156363Y1556343D01*
X6094291Y1571245D01*
X6030652Y1576254D01*
Y1576254D01*
X6030426Y1575882D01*
X5820000D01*
X5814245Y1574737D01*
X5808388Y1574388D01*
X5602858Y1520622D01*
X5590203D01*
X5587558Y1522389D01*
X5570000Y1525882D01*
X5550000D01*
X5543698Y1524628D01*
X5537297Y1524088D01*
X4884109Y1335881D01*
X4630792D01*
X4626054Y1356201D01*
X4674293Y1379990D01*
X4723784Y1413059D01*
X4767635Y1451515D01*
X4768826Y1452311D01*
X4781444Y1464929D01*
X4783920Y1468634D01*
X4851354Y1529753D01*
X4927801Y1586450D01*
X5009436Y1635380D01*
X5095474Y1676073D01*
X5185087Y1708137D01*
X5277411Y1731263D01*
X5371557Y1745228D01*
X5414966Y1747361D01*
X5418289Y1727179D01*
X5372573Y1714168D01*
X5356865Y1707375D01*
X5343450Y1696747D01*
X5333243Y1683009D01*
X5328265Y1670445D01*
X5311789Y1665447D01*
X5277532Y1647136D01*
X5266841Y1638362D01*
X5260491Y1637099D01*
X5243952Y1626048D01*
X5232901Y1609509D01*
X5229021Y1590000D01*
X5232901Y1570491D01*
X5243952Y1553952D01*
X5260491Y1542901D01*
X5280000Y1539021D01*
X5299509Y1542901D01*
X5316048Y1553952D01*
X5325233Y1567698D01*
X5327089Y1568068D01*
X5349158Y1563271D01*
X5350682Y1559748D01*
X5361310Y1546333D01*
X5375047Y1536126D01*
X5390958Y1529822D01*
X5407959Y1527851D01*
X5424891Y1530347D01*
X5511454Y1554984D01*
X5527162Y1561777D01*
X5540577Y1572405D01*
X5550784Y1586143D01*
X5557088Y1602054D01*
X5559060Y1619055D01*
X5556563Y1635987D01*
X5540139Y1693695D01*
X5533345Y1709404D01*
X5522717Y1722819D01*
X5515066Y1728505D01*
X5521788Y1748825D01*
X5908224D01*
X5908425Y1748824D01*
X5908502Y1748758D01*
Y1748758D01*
X5971521Y1753718D01*
X6032989Y1768475D01*
X6091391Y1792666D01*
X6145289Y1825695D01*
X6178510Y1854068D01*
X6193358Y1866749D01*
X6193519Y1866938D01*
X6195023Y1868508D01*
X6203377Y1876862D01*
X6204198Y1878090D01*
X6207464Y1881501D01*
X6240326Y1909568D01*
X6282453Y1935383D01*
X6328098Y1954290D01*
X6376140Y1965824D01*
X6405364Y1968124D01*
X6425394Y1968824D01*
Y1968825D01*
X7523436D01*
X7530396Y1924315D01*
X7535189Y1911242D01*
X7544621Y1900999D01*
X7557254Y1895145D01*
X7571166Y1894571D01*
X7612369Y1901013D01*
X7637948Y1875434D01*
X7639787Y1874205D01*
X7662082Y1855908D01*
X7689441Y1841284D01*
X7719128Y1832279D01*
X7747832Y1829452D01*
X7750000Y1829020D01*
X7847574D01*
X7849984Y1829500D01*
X7877454Y1832206D01*
X7906187Y1840921D01*
X7932667Y1855075D01*
X7954004Y1872586D01*
X7956048Y1873952D01*
X7957855Y1876656D01*
X7994360Y1906615D01*
X8038834Y1930387D01*
X8087092Y1945026D01*
X8134090Y1949655D01*
X8137279Y1949020D01*
X8500505D01*
X8506356Y1911602D01*
X8511149Y1898529D01*
X8520581Y1888286D01*
X8533214Y1882432D01*
X8547126Y1881857D01*
X8665685Y1900395D01*
X8678758Y1905189D01*
X8689001Y1914621D01*
X8694855Y1927254D01*
X8695430Y1941166D01*
X8684616Y2010325D01*
X8679822Y2023398D01*
X8670391Y2033641D01*
X8657757Y2039496D01*
X8643846Y2040070D01*
X8569509Y2028447D01*
X8561908Y2036048D01*
X8545369Y2047099D01*
X8525860Y2050980D01*
X8137279D01*
Y2051105D01*
X8081215Y2046693D01*
X8026532Y2033564D01*
X7974576Y2012043D01*
X7926626Y1982660D01*
X7883864Y1946137D01*
X7883863Y1946137D01*
X7880084Y1943372D01*
X7864539Y1956676D01*
X7867569Y1963214D01*
X7868143Y1977126D01*
X7849605Y2095685D01*
X7844811Y2108758D01*
X7835380Y2119001D01*
X7834918Y2119215D01*
Y2259175D01*
X7834961D01*
X7831269Y2306093D01*
X7820282Y2351856D01*
X7802271Y2395337D01*
X7777681Y2435466D01*
X7747116Y2471253D01*
Y2471253D01*
X7740214Y2488715D01*
X7739898Y2501769D01*
X7730011Y2565001D01*
X7724960Y2582178D01*
X7715635Y2597463D01*
X7702671Y2609813D01*
X7686953Y2618388D01*
X7669552Y2622602D01*
X7651652Y2622169D01*
X7568661Y2609192D01*
X7551483Y2604141D01*
X7536199Y2594815D01*
X7523849Y2581852D01*
X7515274Y2566134D01*
X7511060Y2548733D01*
X7511250Y2540877D01*
X7491121Y2532740D01*
X7489876Y2534092D01*
X7475077Y2540950D01*
X7458780Y2541622D01*
X7440996Y2538842D01*
X7425683Y2533226D01*
X7413683Y2522178D01*
X7406826Y2507379D01*
X7406153Y2491082D01*
X7415113Y2433779D01*
X7420728Y2418465D01*
X7431777Y2406466D01*
X7446575Y2399608D01*
X7462872Y2398936D01*
X7480656Y2401716D01*
X7495970Y2407331D01*
X7507969Y2418379D01*
X7514103Y2431616D01*
X7521262Y2434042D01*
X7535278Y2435924D01*
X7535757Y2435139D01*
X7548720Y2422789D01*
X7564438Y2414215D01*
X7581840Y2410001D01*
X7599739Y2410434D01*
X7667505Y2421030D01*
X7682199Y2406337D01*
X7683957Y2405162D01*
X7708594Y2375142D01*
X7727883Y2339054D01*
X7739761Y2299897D01*
X7743568Y2261248D01*
X7743155Y2259175D01*
Y2115160D01*
X7739675Y2114616D01*
X7726602Y2109822D01*
X7716359Y2100391D01*
X7710505Y2087757D01*
X7709930Y2073845D01*
X7727873Y1959099D01*
X7727194Y1958439D01*
X7710044Y1947530D01*
X7662406Y1995168D01*
X7651532Y2064714D01*
X7646738Y2077787D01*
X7637307Y2088030D01*
X7624674Y2093884D01*
X7610762Y2094458D01*
X7579883Y2089630D01*
X7572115Y2091175D01*
X6425394D01*
X6423581Y2090815D01*
X6368473Y2087203D01*
X6312526Y2076074D01*
X6258510Y2057738D01*
X6207350Y2032509D01*
X6159920Y2000817D01*
X6118398Y1964404D01*
X6116862Y1963377D01*
X6106944Y1953459D01*
X6105334Y1951050D01*
X6073789Y1924107D01*
X6036165Y1901052D01*
X5995398Y1884166D01*
X5952492Y1873865D01*
X5911327Y1870625D01*
X5908579Y1871175D01*
X5908378Y1871175D01*
X5908339Y1871168D01*
X5908301Y1871175D01*
X5466618D01*
X5465735Y1871000D01*
X5371533Y1866887D01*
X5277171Y1854464D01*
X5184250Y1833864D01*
X5093479Y1805244D01*
X5005548Y1768821D01*
X4921125Y1724874D01*
X4840854Y1673736D01*
X4765346Y1615796D01*
X4695627Y1551910D01*
X4694929Y1551444D01*
X4682311Y1538826D01*
X4680371Y1535921D01*
X4642991Y1503996D01*
X4598326Y1476626D01*
X4549930Y1456579D01*
X4498993Y1444350D01*
X4450165Y1440508D01*
X4446824Y1441175D01*
X4446539Y1441175D01*
X4446512Y1441170D01*
X4446485Y1441175D01*
X2335210D01*
X2332393Y1440615D01*
X2297429Y1444059D01*
X2261099Y1455079D01*
X2227617Y1472975D01*
X2200458Y1495264D01*
X2198863Y1497652D01*
X2102755Y1593760D01*
X2102185Y1594141D01*
X2067838Y1622328D01*
X2028057Y1643592D01*
X1984891Y1656687D01*
X1940673Y1661042D01*
X1940000Y1661175D01*
X1850925D01*
Y1669999D01*
X1848208Y1683656D01*
X1840473Y1695233D01*
X1828896Y1702968D01*
X1815239Y1705685D01*
X1813741Y1726005D01*
X1818896Y1727030D01*
X1830473Y1734766D01*
X1838208Y1746343D01*
X1840925Y1760000D01*
Y1879999D01*
X1838208Y1893656D01*
X1830473Y1905233D01*
X1818896Y1912968D01*
X1805239Y1915685D01*
X1785383D01*
X1777939Y1929611D01*
X1760590Y1950750D01*
X1767099Y1960491D01*
X1770980Y1980000D01*
X1767099Y1999509D01*
X1756048Y2016048D01*
X1739509Y2027099D01*
X1720000Y2030980D01*
X1700491Y2027099D01*
X1691551Y2021125D01*
X1660783Y2051893D01*
Y2089999D01*
X1657679Y2105607D01*
X1648838Y2118838D01*
X1635607Y2127678D01*
X1620000Y2130783D01*
X1604393Y2127678D01*
X1591161Y2118838D01*
X1582321Y2105607D01*
X1579216Y2089999D01*
Y2035001D01*
X1579216Y2034999D01*
X1579216Y2034998D01*
Y1980000D01*
X1582321Y1964392D01*
X1591161Y1951161D01*
X1604393Y1942320D01*
X1620000Y1939216D01*
X1635607Y1942320D01*
X1647233Y1950089D01*
X1695608Y1901715D01*
X1702270Y1893655D01*
X1699554Y1879999D01*
Y1760000D01*
X1702270Y1746343D01*
X1710006Y1734766D01*
X1721583Y1727030D01*
X1729456Y1725464D01*
Y1701547D01*
X1720006Y1695233D01*
X1712270Y1683656D01*
X1709554Y1669999D01*
Y1622461D01*
X1709064Y1619999D01*
X1709554Y1617537D01*
Y1549999D01*
X1712270Y1536343D01*
X1720006Y1524766D01*
X1731583Y1517030D01*
X1745239Y1514314D01*
X1815239D01*
X1828896Y1517030D01*
X1840473Y1524766D01*
X1848208Y1536343D01*
X1848702Y1538825D01*
X1871369D01*
X1882766Y1519734D01*
X1882701Y1518505D01*
X1879020Y1500000D01*
X1882901Y1480491D01*
X1893952Y1463952D01*
X1910491Y1452901D01*
X1912640Y1452474D01*
X2033162Y1331952D01*
X2033132Y1331921D01*
X2068919Y1301356D01*
X2109048Y1276765D01*
X2152529Y1258755D01*
X2198292Y1247768D01*
X2245210Y1244075D01*
Y1244118D01*
X3684429D01*
X3685518Y1223798D01*
X3676649Y1222845D01*
X3547369Y1199520D01*
X3420081Y1167032D01*
X3295436Y1125546D01*
X3174068Y1075274D01*
X3056595Y1016471D01*
X2943617Y949438D01*
X2835708Y874516D01*
X2733420Y792087D01*
X2651876Y716166D01*
X2637272Y702570D01*
X2637128Y702416D01*
X2622811Y687997D01*
X2567807Y637595D01*
X2493154Y580312D01*
X2413792Y529752D01*
X2330325Y486303D01*
X2243390Y450292D01*
X2153646Y421997D01*
X2061778Y401630D01*
X1968485Y389348D01*
X1877136Y385359D01*
X1874527Y385881D01*
X1874301Y385882D01*
X1874275Y385877D01*
X1874249Y385882D01*
X1799198D01*
X1799172Y385877D01*
X1799147Y385882D01*
X1798921Y385881D01*
X1796694Y385436D01*
X1739032Y389215D01*
X1680118Y400934D01*
X1623237Y420242D01*
X1569363Y446810D01*
X1519418Y480182D01*
X1489343Y506557D01*
X1480839Y514473D01*
X1471858Y523089D01*
X1459812Y533377D01*
X1436071Y553654D01*
X1395942Y578245D01*
X1352461Y596255D01*
X1306698Y607242D01*
X1283735Y609049D01*
X1283349Y611979D01*
X1276800Y627790D01*
X1266381Y641369D01*
X1252803Y651787D01*
X1236991Y658337D01*
X1220023Y660571D01*
X1130023D01*
X1113054Y658337D01*
X1097242Y651787D01*
X1083665Y641369D01*
X1073246Y627790D01*
X1066696Y611979D01*
X1064462Y595010D01*
Y535010D01*
X1066696Y518042D01*
X1073246Y502230D01*
X1083665Y488652D01*
X1097242Y478233D01*
X1113054Y471684D01*
X1130023Y469450D01*
X1220023D01*
X1236991Y471684D01*
X1252803Y478233D01*
X1266381Y488652D01*
X1276800Y502230D01*
X1283104Y517448D01*
X1300502Y515735D01*
X1339659Y503856D01*
X1375746Y484567D01*
X1394938Y468817D01*
X1409581Y455111D01*
X1409581Y455111D01*
X1463737Y407617D01*
X1523631Y367598D01*
X1588235Y335739D01*
X1656445Y312585D01*
X1727093Y298532D01*
X1779070Y295125D01*
X1798972Y293820D01*
X1798974Y293820D01*
Y293822D01*
X1819171Y294119D01*
X1854250D01*
X1874475Y293886D01*
D01*
X1976447Y298338D01*
X2077642Y311661D01*
X2177291Y333753D01*
X2274636Y364445D01*
X2368934Y403505D01*
X2459470Y450635D01*
X2545554Y505477D01*
X2626530Y567612D01*
X2687142Y623153D01*
X2701783Y636568D01*
X2701927Y636725D01*
X2716112Y651269D01*
X2793227Y723065D01*
X2890439Y801404D01*
X2992992Y872608D01*
X3100364Y936314D01*
X3212007Y992199D01*
X3327352Y1039976D01*
X3445811Y1079403D01*
X3566782Y1110279D01*
X3689647Y1132447D01*
X3813780Y1145792D01*
X3935455Y1150138D01*
X3938549Y1149522D01*
X4966051D01*
X4969819Y1136285D01*
X4976612Y1120576D01*
X4987240Y1107161D01*
X5000978Y1096954D01*
X5016889Y1090650D01*
X5033890Y1088679D01*
X5050822Y1091175D01*
X5137384Y1115812D01*
X5153093Y1122605D01*
X5166508Y1133233D01*
X5176715Y1146971D01*
X5183019Y1162882D01*
X5184990Y1179883D01*
X5182494Y1196815D01*
X5166069Y1254523D01*
X5159276Y1270232D01*
X5148648Y1283647D01*
X5137190Y1292160D01*
X5136630Y1301573D01*
X5139384Y1313939D01*
X5407351Y1391150D01*
X5417684Y1378956D01*
X5420239Y1373716D01*
X5414536Y1359321D01*
X5412564Y1342321D01*
X5394205Y1333058D01*
X5368745Y1330551D01*
X5368342Y1330604D01*
X5290000D01*
X5271727Y1328198D01*
X5254698Y1321145D01*
X5240076Y1309924D01*
X5228855Y1295302D01*
X5221802Y1278274D01*
X5219396Y1260000D01*
X5221802Y1241726D01*
X5228855Y1224698D01*
X5240076Y1210076D01*
X5254698Y1198855D01*
X5271727Y1191802D01*
X5290000Y1189396D01*
X5368342D01*
Y1189078D01*
X5415115Y1192759D01*
X5460735Y1203712D01*
X5502824Y1221146D01*
X5512488Y1222571D01*
X5599051Y1247207D01*
X5614759Y1254001D01*
X5628174Y1264629D01*
X5630731Y1268070D01*
X5645871Y1271705D01*
X5692988Y1291221D01*
X5732918Y1315690D01*
X5737515Y1313233D01*
X5772327Y1302672D01*
X5808531Y1299107D01*
Y1299396D01*
X6065210D01*
X6083484Y1301802D01*
X6100512Y1308855D01*
X6115135Y1320076D01*
X6126355Y1334698D01*
X6133408Y1351727D01*
X6135814Y1370000D01*
X6133408Y1388274D01*
X6126355Y1405302D01*
X6115135Y1419925D01*
X6100512Y1431145D01*
X6083484Y1438198D01*
X6065210Y1440604D01*
X5816391D01*
X5811087Y1459239D01*
X5813303Y1468774D01*
X5822574Y1483248D01*
X5825902Y1484118D01*
X6030375D01*
X6030600Y1484118D01*
X6030652Y1484118D01*
X6050564Y1483135D01*
X6079969Y1480821D01*
X6128072Y1469272D01*
X6173776Y1450341D01*
X6215956Y1424493D01*
X6238298Y1405411D01*
X6242126Y1401947D01*
X6253428Y1391668D01*
X6288919Y1361356D01*
X6329047Y1336765D01*
X6372528Y1318755D01*
X6418291Y1307768D01*
X6465210Y1304076D01*
Y1304119D01*
X7025147D01*
Y1303791D01*
X7074127Y1308615D01*
X7121224Y1322902D01*
X7164630Y1346103D01*
X7202465Y1377153D01*
X7217015Y1391105D01*
X7249435Y1418794D01*
X7302793Y1451492D01*
X7360609Y1475440D01*
X7421460Y1490049D01*
X7480818Y1494721D01*
X7483848Y1494118D01*
X9161915D01*
X9162141Y1494118D01*
X9162193Y1494118D01*
X9182396Y1493836D01*
X9251566Y1490438D01*
X9340080Y1477308D01*
X9426881Y1455565D01*
X9511133Y1425420D01*
X9592024Y1387161D01*
X9668775Y1341158D01*
X9697685Y1319717D01*
Y1189701D01*
X9702496Y1153153D01*
X9716603Y1119097D01*
X9739044Y1089852D01*
X9750822Y1080814D01*
X9743922Y1060496D01*
X8680011Y1060782D01*
X8680005Y1060781D01*
X8680000Y1060782D01*
X8674167D01*
X8662726Y1063058D01*
X8651950Y1067521D01*
X8642251Y1074002D01*
X8634002Y1082252D01*
X8627521Y1091950D01*
X8623058Y1102727D01*
X8620782Y1114167D01*
Y1120000D01*
X8620584Y1120996D01*
X8620733Y1122002D01*
X8620251Y1131803D01*
X8619517Y1134735D01*
Y1137758D01*
X8615692Y1156985D01*
X8614155Y1160696D01*
X8613372Y1164635D01*
X8605870Y1182746D01*
X8603638Y1186086D01*
X8602101Y1189798D01*
X8591209Y1206097D01*
X8588370Y1208937D01*
X8586138Y1212277D01*
X8572277Y1226138D01*
X8568937Y1228369D01*
X8566097Y1231210D01*
X8549797Y1242101D01*
X8546086Y1243639D01*
X8542746Y1245870D01*
X8524635Y1253372D01*
X8520696Y1254155D01*
X8516984Y1255693D01*
X8497758Y1259517D01*
X8494735D01*
X8491803Y1260252D01*
X8482001Y1260733D01*
X8480996Y1260584D01*
X8480000Y1260782D01*
X6290000D01*
X6289004Y1260584D01*
X6287999Y1260733D01*
X6278197Y1260252D01*
X6275265Y1259517D01*
X6272242D01*
X6253015Y1255693D01*
X6249304Y1254155D01*
X6245365Y1253372D01*
X6227254Y1245870D01*
X6223914Y1243639D01*
X6220202Y1242101D01*
X6203903Y1231210D01*
X6201063Y1228370D01*
X6197723Y1226138D01*
X6183862Y1212277D01*
X6181631Y1208938D01*
X6178790Y1206097D01*
X6167899Y1189798D01*
X6166361Y1186086D01*
X6164130Y1182746D01*
X6156628Y1164635D01*
X6155844Y1160696D01*
X6154307Y1156985D01*
X6150483Y1137758D01*
Y1134735D01*
X6149748Y1131802D01*
X6149267Y1122000D01*
X6149416Y1120996D01*
X6149218Y1120000D01*
Y1114168D01*
X6146942Y1102727D01*
X6142478Y1091950D01*
X6135998Y1082252D01*
X6127748Y1074002D01*
X6118050Y1067522D01*
X6107273Y1063058D01*
X6095833Y1060782D01*
X6090000D01*
X6089804Y1060743D01*
X6089608Y1060780D01*
X6058493Y1060481D01*
X6058334Y1060448D01*
X6058173Y1060477D01*
X5988374Y1059258D01*
X5987315Y1059029D01*
X5986241Y1059165D01*
X5846983Y1049427D01*
X5845592Y1049048D01*
X5844152Y1049130D01*
X5705913Y1029702D01*
X5704551Y1029226D01*
X5703109Y1029207D01*
X5566562Y1000183D01*
X5565567Y999756D01*
X5564486Y999685D01*
X5497055Y981617D01*
X5496730Y981457D01*
X5496369Y981427D01*
X2480492Y116638D01*
X2421497Y99721D01*
X2301627Y73340D01*
X2180334Y54512D01*
X2058107Y43314D01*
X1935414Y39787D01*
X1812743Y43945D01*
X1690571Y55773D01*
X1569382Y75224D01*
X1449643Y102223D01*
X1331833Y136662D01*
X1216411Y178405D01*
X1103821Y227294D01*
X994515Y283133D01*
X888922Y345700D01*
X787447Y414757D01*
X690493Y490029D01*
X598445Y571218D01*
X511650Y658017D01*
X430464Y750071D01*
X355200Y847024D01*
X320674Y897764D01*
X103029Y1217616D01*
X103028Y1217617D01*
X87907Y1239839D01*
X64616Y1288287D01*
X48794Y1339664D01*
X40794Y1392822D01*
Y1419701D01*
Y4919701D01*
Y4943246D01*
X46940Y4989930D01*
X59128Y5035415D01*
X77148Y5078919D01*
X100692Y5119699D01*
X129358Y5157057D01*
X162656Y5190355D01*
X200012Y5219019D01*
X240795Y5242565D01*
X284297Y5260585D01*
X329782Y5272772D01*
X376467Y5278918D01*
X400012Y5278919D01*
X1118930D01*
X1119285Y5278989D01*
X1119642Y5278925D01*
X1189441Y5280143D01*
X1190499Y5280373D01*
X1191574Y5280236D01*
X1330832Y5289974D01*
X1332223Y5290353D01*
X1333663Y5290272D01*
X1471902Y5309700D01*
X1473264Y5310175D01*
X1474705Y5310194D01*
X1611253Y5339218D01*
X1612248Y5339646D01*
X1613329Y5339717D01*
X1680760Y5357785D01*
X1681085Y5357945D01*
X1681446Y5357975D01*
X5113562Y6342118D01*
X5196768Y6365977D01*
X5364761Y6407863D01*
X5534095Y6443856D01*
X5704602Y6473921D01*
X5876038Y6498014D01*
X6048214Y6516111D01*
X6220925Y6528188D01*
X6393943Y6534230D01*
X6480508Y6534230D01*
X7270088D01*
X7275922Y6534230D01*
D02*
G37*
G36*
X8807980Y5853506D02*
X8905793Y5840629D01*
X9002113Y5819276D01*
X9096204Y5789609D01*
X9187351Y5751854D01*
X9274862Y5706299D01*
X9358069Y5653290D01*
X9396809Y5623564D01*
Y5405000D01*
X9399559Y5384116D01*
X9407619Y5364655D01*
X9420443Y5347943D01*
X9431156Y5339722D01*
X9430764Y5328672D01*
X9427070Y5318387D01*
X9335514Y5298089D01*
X9242797Y5268856D01*
X9152981Y5231653D01*
X9066749Y5186763D01*
X8984757Y5134529D01*
X8958130Y5114097D01*
X8929867Y5129515D01*
X8896087Y5137695D01*
X8861341Y5136854D01*
X8766494Y5122024D01*
X8742341Y5114921D01*
X8699458Y5157804D01*
X8699458Y5158293D01*
X8699457Y5158293D01*
X8684447Y5171457D01*
X8643069Y5207744D01*
X8580709Y5249411D01*
X8513444Y5282583D01*
X8442425Y5306691D01*
X8368866Y5321322D01*
X8294028Y5326228D01*
Y5325882D01*
X7378347D01*
Y5326206D01*
X7292529Y5321386D01*
X7207789Y5306988D01*
X7125195Y5283193D01*
X7045784Y5250300D01*
X6970555Y5208723D01*
X6900455Y5158984D01*
X6861848Y5124483D01*
X6846768Y5138258D01*
X6852010Y5145313D01*
X6859769Y5164896D01*
X6862195Y5185821D01*
X6859122Y5206660D01*
X6777000Y5495201D01*
X6768638Y5514535D01*
X6755558Y5531046D01*
X6738650Y5543608D01*
X6719067Y5551367D01*
X6698143Y5553793D01*
X6677304Y5550721D01*
X6561887Y5517872D01*
X6542553Y5509510D01*
X6526042Y5496430D01*
X6513479Y5479522D01*
X6505721Y5459939D01*
X6503295Y5439015D01*
X6506367Y5418175D01*
X6521217Y5365999D01*
X6508972Y5349782D01*
X6110000Y5349782D01*
X5516430D01*
Y5350041D01*
X5442249Y5345875D01*
X5369002Y5333430D01*
X5297608Y5312861D01*
X5228966Y5284429D01*
X5163939Y5248490D01*
X5103345Y5205496D01*
X5062726Y5169197D01*
X5047945Y5155988D01*
X5047832Y5155861D01*
X5033708Y5141385D01*
X5027411Y5135087D01*
X5026054Y5133058D01*
X4976618Y5089703D01*
X4920014Y5051881D01*
X4858957Y5021772D01*
X4794493Y4999889D01*
X4727723Y4986608D01*
X4662204Y4982313D01*
X4659864Y4982783D01*
X4659722Y4982783D01*
X4659685Y4982776D01*
X4659649Y4982783D01*
X4165671D01*
X4163445Y5003103D01*
X4201832Y5011613D01*
X4306362Y5044572D01*
X4407623Y5086515D01*
X4504842Y5137125D01*
X4597281Y5196014D01*
X4684235Y5262737D01*
X4750319Y5323291D01*
X4765044Y5336784D01*
X4765162Y5336913D01*
X4779128Y5351451D01*
X4779384Y5351707D01*
X4779385Y5351708D01*
X4779387Y5351711D01*
X4780879Y5353945D01*
X4869247Y5436219D01*
X4965192Y5513536D01*
X5066407Y5583811D01*
X5172379Y5646686D01*
X5282565Y5701842D01*
X5396406Y5748996D01*
X5513320Y5787909D01*
X5632713Y5818382D01*
X5753975Y5840260D01*
X5876489Y5853432D01*
X5997017Y5857737D01*
X5999631Y5857217D01*
X8706474D01*
X8706499Y5857222D01*
X8706524Y5857217D01*
X8707553Y5857218D01*
X8710313Y5857771D01*
X8807980Y5853506D01*
D02*
G37*
G36*
X9863968Y5373773D02*
X9872428Y5356517D01*
X9871959Y5355640D01*
X9857526Y5308061D01*
X9852652Y5258580D01*
X9854031Y5243048D01*
X9853985Y5239979D01*
X9854181Y5238662D01*
Y5238659D01*
X9856460Y5223303D01*
X9890003Y4997269D01*
X9890472Y4995956D01*
X9892475Y4970511D01*
X9893718Y4950723D01*
X9893717Y4950715D01*
X9893718Y4950708D01*
X9893064Y4930659D01*
X9889985Y4875821D01*
X9877441Y4801995D01*
X9856711Y4730039D01*
X9843850Y4698991D01*
X9824400Y4701861D01*
X9823731Y4729500D01*
X9815931Y4756023D01*
X9801532Y4779625D01*
X9781515Y4798695D01*
X9757245Y4811935D01*
X9730374Y4818442D01*
X9702735Y4817773D01*
X9676212Y4809973D01*
X9652610Y4795574D01*
X9633540Y4775558D01*
X9620300Y4751287D01*
X9613793Y4724417D01*
X9614462Y4696778D01*
X9622262Y4670254D01*
X9636661Y4646653D01*
X9656677Y4627582D01*
X9680948Y4614342D01*
X9707818Y4607835D01*
X9735457Y4608504D01*
X9761981Y4616304D01*
X9785582Y4630703D01*
X9791750Y4637177D01*
X9808268Y4625056D01*
X9791832Y4595317D01*
X9752752Y4540238D01*
X9734851Y4539805D01*
X9598508Y4518486D01*
X9570468Y4510240D01*
X9545518Y4495019D01*
X9525358Y4473858D01*
X9513302Y4451757D01*
X9499509Y4437099D01*
X9480000Y4440980D01*
X9460491Y4437099D01*
X9443952Y4426048D01*
X9432901Y4409509D01*
X9429021Y4390000D01*
X9432901Y4370491D01*
X9443952Y4353952D01*
X9460491Y4342901D01*
X9480000Y4339021D01*
X9492506Y4341508D01*
X9514134Y4330639D01*
X9514626Y4330225D01*
X9517240Y4313513D01*
X9518452Y4309389D01*
X9511356Y4301081D01*
X9486765Y4260953D01*
X9468755Y4217472D01*
X9462095Y4189730D01*
X9462060Y4189677D01*
X9461950Y4189128D01*
X9457768Y4171708D01*
X9454076Y4124790D01*
X9454119D01*
Y4063141D01*
X9452457Y4061676D01*
X9430943Y4058312D01*
X9415783Y4065337D01*
X9399089Y4066026D01*
X9388221Y4064327D01*
X9378483Y4060756D01*
X9362335Y4068787D01*
X9358163Y4072964D01*
Y4452508D01*
X9358206D01*
X9354513Y4499427D01*
X9343526Y4545190D01*
X9325516Y4588671D01*
X9300925Y4628800D01*
X9270360Y4664587D01*
X9270329Y4664557D01*
X9028886Y4906000D01*
X9028280Y4931034D01*
X9013450Y5025881D01*
X9009710Y5038599D01*
X9055435Y5072510D01*
X9141567Y5124136D01*
X9232345Y5167071D01*
X9326894Y5200901D01*
X9424304Y5225301D01*
X9523637Y5240035D01*
X9620531Y5244796D01*
X9623935Y5244119D01*
X9647574D01*
X9649251Y5244452D01*
X9676474Y5247134D01*
X9704264Y5255563D01*
X9729876Y5269253D01*
X9751021Y5286607D01*
X9752443Y5287557D01*
X9752460Y5287581D01*
X9775131Y5315206D01*
X9791991Y5346749D01*
X9798763Y5369074D01*
X9820000D01*
X9833656Y5371791D01*
X9844193Y5378831D01*
X9863968Y5373773D01*
D02*
G37*
G36*
X5516430Y5268215D02*
X6110000D01*
X6549047Y5268215D01*
X6588489Y5129634D01*
X6596851Y5110301D01*
X6609931Y5093790D01*
X6626839Y5081227D01*
X6639523Y5076201D01*
X6635644Y5055881D01*
X6357574D01*
X6357573Y5055881D01*
X6014854D01*
X6013579Y5055628D01*
X5983766Y5058564D01*
X5953873Y5067632D01*
X5926323Y5082358D01*
X5917548Y5089559D01*
X5902652Y5102652D01*
X5902651Y5102652D01*
X5865625Y5133039D01*
X5823382Y5155618D01*
X5777546Y5169522D01*
X5755442Y5171699D01*
X5745937Y5205098D01*
X5739586Y5217489D01*
X5728976Y5226507D01*
X5715724Y5230778D01*
X5701845Y5229652D01*
X5634519Y5210490D01*
X5622128Y5204139D01*
X5613111Y5193530D01*
X5608840Y5180277D01*
X5609965Y5166399D01*
X5642814Y5050983D01*
X5649165Y5038592D01*
X5659775Y5029574D01*
X5673027Y5025303D01*
X5679684Y5025843D01*
X5685356Y5005916D01*
X5681888Y5004139D01*
X5672871Y4993530D01*
X5668600Y4980277D01*
X5669726Y4966399D01*
X5702574Y4850983D01*
X5708925Y4838592D01*
X5719535Y4829574D01*
X5732787Y4825303D01*
X5746666Y4826429D01*
X5813992Y4845591D01*
X5826383Y4851942D01*
X5835400Y4862551D01*
X5839671Y4875803D01*
X5845532Y4882159D01*
X6770416D01*
Y4881799D01*
X6820708Y4886752D01*
X6869066Y4901422D01*
X6913634Y4925244D01*
X6939173Y4946203D01*
X6955119Y4933003D01*
X6948636Y4921119D01*
X6943678Y4900647D01*
X6944188Y4879589D01*
X6971806Y4702962D01*
X6966821Y4699425D01*
X6906551Y4666115D01*
X6842932Y4639763D01*
X6776761Y4620700D01*
X6708873Y4609165D01*
X6642413Y4605432D01*
X6640171Y4605881D01*
X6639945Y4605882D01*
X6639919Y4605876D01*
X6639894Y4605882D01*
X5211331D01*
X5209509Y4607099D01*
X5190000Y4610980D01*
X5170491Y4607099D01*
X5153952Y4596048D01*
X5142901Y4579509D01*
X5139020Y4560000D01*
X5142901Y4540491D01*
X5153952Y4523952D01*
X5170491Y4512901D01*
X5190000Y4509020D01*
X5209509Y4512901D01*
X5211331Y4514118D01*
X6619892D01*
X6640119Y4513890D01*
Y4513890D01*
X6719108Y4518326D01*
X6797103Y4531578D01*
X6873124Y4553479D01*
X6946214Y4583754D01*
X6971416Y4597683D01*
X6989665Y4588745D01*
X6990534Y4583190D01*
X6996476Y4562981D01*
X7007447Y4544999D01*
X7022698Y4530469D01*
X7041190Y4520382D01*
X7061662Y4515424D01*
X7082720Y4515934D01*
X7109978Y4520196D01*
X7115513Y4500495D01*
X7105391Y4496302D01*
X7085639Y4481146D01*
X7082601Y4479116D01*
X6978015Y4374530D01*
X6952076Y4370474D01*
X6934141Y4365200D01*
X6918182Y4355463D01*
X6905287Y4341928D01*
X6896334Y4325517D01*
X6892861Y4311175D01*
X5555228D01*
X5538273Y4318198D01*
X5520000Y4320604D01*
X5501726Y4318198D01*
X5484698Y4311145D01*
X5470075Y4299924D01*
X5458855Y4285302D01*
X5451802Y4268273D01*
X5449396Y4250000D01*
X5451802Y4231726D01*
X5458855Y4214698D01*
X5470075Y4200075D01*
X5484698Y4188855D01*
X5501726Y4181802D01*
X5507031Y4181103D01*
X5505700Y4160783D01*
X5335210D01*
X5333385Y4160420D01*
X5293508Y4164348D01*
X5253408Y4176512D01*
X5216452Y4196265D01*
X5199392Y4210266D01*
X5184444Y4223233D01*
X5170226Y4237451D01*
X4660223Y4747453D01*
X4660221Y4747455D01*
X4660220Y4747456D01*
X4658681Y4748995D01*
X4657896Y4749519D01*
X4626957Y4784798D01*
X4580637Y4825420D01*
X4529411Y4859648D01*
X4486324Y4880896D01*
X4491062Y4901216D01*
X4659576D01*
X4659719Y4901216D01*
X4659792Y4901053D01*
X4727144Y4904836D01*
X4793649Y4916135D01*
X4858470Y4934810D01*
X4920793Y4960625D01*
X4979834Y4993256D01*
X5034850Y5032292D01*
X5070328Y5063997D01*
X5085150Y5077242D01*
X5085204Y5077303D01*
X5085092Y5077415D01*
X5105692Y5098015D01*
X5105693Y5098015D01*
X5105699Y5098025D01*
X5120295Y5111842D01*
X5162454Y5148815D01*
X5225695Y5191071D01*
X5293911Y5224712D01*
X5365935Y5249160D01*
X5440533Y5263999D01*
X5513562Y5268785D01*
X5516430Y5268215D01*
D02*
G37*
G36*
X3773939Y4774275D02*
X4171708D01*
X4174424Y4754805D01*
X4149290Y4743936D01*
X4127826Y4726931D01*
X4111494Y4704951D01*
X4104531Y4687375D01*
X4059627Y4690909D01*
Y4690784D01*
X3582906D01*
X3582704Y4691233D01*
X3482363Y4686304D01*
X3382989Y4671563D01*
X3285537Y4647153D01*
X3256602Y4636799D01*
X3246611Y4654806D01*
X3252859Y4659751D01*
X3350950Y4700382D01*
X3453848Y4732825D01*
X3559182Y4756177D01*
X3666150Y4770260D01*
X3771092Y4774842D01*
X3773939Y4774275D01*
D02*
G37*
G36*
X9998820Y4960709D02*
X10006471Y4958856D01*
Y4739940D01*
X10006624Y4739169D01*
X10003773Y4717509D01*
X9995115Y4696607D01*
X9993332Y4694284D01*
X9980878Y4679122D01*
X9980878Y4679122D01*
X9950280Y4641838D01*
X9927544Y4599301D01*
X9913543Y4553147D01*
X9908815Y4505147D01*
X9909216D01*
Y4200778D01*
X9905539Y4104487D01*
X9884718Y4091740D01*
X9879212Y4094291D01*
X9859338Y4095111D01*
X9840663Y4088263D01*
X9826030Y4074790D01*
X9817666Y4056742D01*
X9816846Y4036868D01*
X9819655Y4018905D01*
X9817125Y4013918D01*
X9808881Y4004702D01*
X9803133Y4001074D01*
X9795551Y4001387D01*
X9731332Y3991345D01*
X9726079Y3989419D01*
X9664120Y3979363D01*
X9653411Y3986519D01*
X9630000Y3991175D01*
X9606589Y3986519D01*
X9586743Y3973257D01*
X9577561Y3959517D01*
X9576793Y3958802D01*
X9573398Y3956533D01*
X9569635Y3957354D01*
X9553435Y3965617D01*
X9553613Y3969921D01*
X9545882Y4019366D01*
Y4124790D01*
X9545469Y4126863D01*
X9549092Y4163652D01*
X9549276Y4165512D01*
X9561154Y4204669D01*
X9569944Y4221115D01*
X9587525Y4226366D01*
X9615931Y4219487D01*
X9645149Y4220195D01*
X9781492Y4241514D01*
X9809532Y4249759D01*
X9834482Y4264981D01*
X9854642Y4286142D01*
X9868639Y4311799D01*
X9875518Y4340205D01*
X9874810Y4369423D01*
X9862760Y4446487D01*
X9854515Y4474526D01*
X9839293Y4499476D01*
X9822541Y4515436D01*
X9852273Y4557339D01*
X9892367Y4629885D01*
X9924087Y4706463D01*
X9947033Y4786111D01*
X9960918Y4867828D01*
X9964447Y4930667D01*
X9965566Y4950586D01*
X9965558Y4950722D01*
X9978676Y4965504D01*
X9984505Y4968517D01*
X9998820Y4960709D01*
D02*
G37*
G36*
X9478582Y3774243D02*
X9491011Y3761487D01*
X9491877Y3760255D01*
X9491188Y3743560D01*
X9502929Y3668473D01*
X9508681Y3652786D01*
X9519998Y3640494D01*
X9535158Y3633469D01*
X9551853Y3632780D01*
X9562720Y3634479D01*
X9578408Y3640231D01*
X9590699Y3651549D01*
X9597725Y3666709D01*
X9598413Y3683403D01*
X9593784Y3713007D01*
X9605781Y3729408D01*
X9712629Y3745841D01*
X9732593Y3736799D01*
X9733845Y3728797D01*
X9735803Y3716298D01*
X9722069Y3706381D01*
X9702519Y3695931D01*
X9673020Y3671721D01*
X9673218Y3671523D01*
X9605848Y3604152D01*
X9605449Y3603555D01*
X9580097Y3582750D01*
X9550550Y3566956D01*
X9518489Y3557231D01*
X9485851Y3554016D01*
X9485147Y3554156D01*
X9470000D01*
X9469688Y3554094D01*
X9455307Y3556955D01*
X9443381Y3564924D01*
X9442939Y3565365D01*
X9442938Y3565366D01*
X9438660Y3569645D01*
X9426053Y3584744D01*
X9418385Y3594087D01*
X9403408Y3622107D01*
X9403222Y3622719D01*
X9410006Y3637356D01*
X9410694Y3654051D01*
X9398954Y3729138D01*
X9393201Y3744826D01*
X9383351Y3755524D01*
X9384371Y3762999D01*
X9389802Y3775844D01*
X9471384D01*
X9478582Y3774243D01*
D02*
G37*
G36*
X2277623Y3471618D02*
X2277849Y3471617D01*
X2277900Y3471618D01*
X2297913Y3470874D01*
X2339814Y3467577D01*
X2400204Y3453078D01*
X2457582Y3429312D01*
X2510536Y3396862D01*
X2516215Y3392011D01*
X2513903Y3386428D01*
X2510160Y3357999D01*
X2513903Y3329571D01*
X2524876Y3303079D01*
X2537977Y3286005D01*
X2530152Y3265685D01*
X2360000D01*
Y3266220D01*
X2310544Y3261349D01*
X2262989Y3246923D01*
X2219162Y3223497D01*
X2216729Y3221501D01*
X2212233Y3222512D01*
X2198198Y3241726D01*
X2200603Y3260000D01*
X2198198Y3278273D01*
X2191144Y3295302D01*
X2179924Y3309924D01*
X2165301Y3321144D01*
X2148273Y3328198D01*
X2130000Y3330603D01*
X2061615D01*
X2059999Y3330925D01*
X1940000D01*
X1926343Y3328208D01*
X1914766Y3320473D01*
X1907030Y3308895D01*
X1904314Y3295239D01*
Y3225239D01*
X1907030Y3211583D01*
X1914766Y3200006D01*
X1926343Y3192270D01*
X1940000Y3189553D01*
X1999041D01*
X2000239Y3189396D01*
X2130000D01*
X2148273Y3191802D01*
X2155655Y3194859D01*
X2167165Y3177633D01*
X2145066Y3155533D01*
X2144294Y3154377D01*
X2114203Y3129683D01*
X2088086Y3115723D01*
X2085233Y3119993D01*
X2073656Y3127728D01*
X2059999Y3130445D01*
X1940000D01*
X1926343Y3127728D01*
X1914766Y3119993D01*
X1907030Y3108415D01*
X1904314Y3094759D01*
Y3053378D01*
X1881756Y3050408D01*
X1879869Y3050783D01*
X1740000D01*
X1724393Y3047679D01*
X1711161Y3038838D01*
X1702321Y3025607D01*
X1699216Y3010000D01*
X1702321Y2994392D01*
X1711161Y2981161D01*
Y2958838D01*
X1702321Y2945607D01*
X1699216Y2929999D01*
X1702321Y2914392D01*
X1711161Y2901161D01*
Y2878838D01*
X1702321Y2865607D01*
X1699216Y2849999D01*
X1702321Y2834392D01*
X1711161Y2821161D01*
Y2798838D01*
X1702321Y2785607D01*
X1699216Y2770000D01*
X1702321Y2754392D01*
X1705461Y2749693D01*
X1696484Y2728390D01*
X1676852Y2726457D01*
X1630698Y2712456D01*
X1588161Y2689720D01*
X1550878Y2659122D01*
X1550878Y2659122D01*
X1550868Y2659111D01*
X1535421Y2671967D01*
X1536265Y2673548D01*
X1560030Y2702505D01*
X1562979Y2705386D01*
X1563233Y2705556D01*
X1574533Y2716678D01*
X1574532Y2716679D01*
X1604586Y2751867D01*
X1628766Y2791324D01*
X1646475Y2834078D01*
X1657278Y2879076D01*
X1660909Y2925210D01*
X1660783D01*
Y3184999D01*
Y3239999D01*
X1657679Y3255607D01*
X1648838Y3268838D01*
X1635607Y3277678D01*
X1623917Y3280004D01*
X1617776Y3291453D01*
X1615853Y3300676D01*
X1635857Y3320680D01*
X1636202Y3321197D01*
X1644253Y3326576D01*
X1662500Y3331581D01*
Y3331582D01*
X1690273Y3335238D01*
X1716154Y3345958D01*
X1738378Y3363012D01*
X1738283Y3363106D01*
X1738284Y3363107D01*
X1784250Y3409074D01*
X1889999D01*
X1903656Y3411790D01*
X1915233Y3419526D01*
X1922968Y3431103D01*
X1923520Y3433878D01*
X1946478D01*
X1947030Y3431103D01*
X1954766Y3419526D01*
X1966343Y3411790D01*
X1980000Y3409074D01*
X2099999D01*
X2113656Y3411790D01*
X2125233Y3419526D01*
X2132969Y3431103D01*
X2135685Y3444760D01*
Y3471618D01*
X2277623D01*
D02*
G37*
G36*
X3332637Y3310724D02*
X3371794Y3298846D01*
X3406935Y3280063D01*
X3407275Y3265999D01*
X3410365Y3246239D01*
X3416307Y3226030D01*
X3427278Y3208048D01*
X3440360Y3195584D01*
X3439677Y3185780D01*
X3435426Y3174246D01*
X3088493Y3119999D01*
X3227529Y2230803D01*
X3310964Y2243849D01*
X3318534Y2234162D01*
X3322176Y2225035D01*
X3313523Y2209173D01*
X3308566Y2188700D01*
X3308606Y2187035D01*
X3294010Y2172898D01*
X3261381Y2174730D01*
X3182790Y2188083D01*
X3106189Y2210152D01*
X3032540Y2240658D01*
X2962769Y2279219D01*
X2897755Y2325349D01*
X2853336Y2365044D01*
X2838762Y2378915D01*
X2838636Y2379041D01*
X2838600Y2379065D01*
X2838576Y2379100D01*
X2709317Y2508360D01*
X2707099Y2519509D01*
X2696048Y2536048D01*
X2679509Y2547099D01*
X2660000Y2550980D01*
X2641103Y2547221D01*
X2640446Y2547125D01*
X2620783Y2558370D01*
Y2741099D01*
X2728900D01*
Y2908651D01*
X2751441Y2936117D01*
X2770383Y2971556D01*
X2782048Y3010009D01*
X2785987Y3049999D01*
X2785685D01*
Y3117573D01*
X2786185D01*
X2781462Y3153448D01*
X2767615Y3186879D01*
X2745587Y3215587D01*
X2745335Y3215335D01*
X2719210Y3236775D01*
X2717719Y3237572D01*
X2723733Y3257398D01*
X2760022Y3253824D01*
Y3254118D01*
X2911716D01*
Y3254022D01*
X2941289Y3257916D01*
X2968846Y3269331D01*
X2992511Y3287489D01*
X2992511Y3287489D01*
X3007739Y3299782D01*
X3011029Y3302307D01*
X3032995Y3311406D01*
X3055386Y3314354D01*
X3056568Y3314118D01*
X3291915D01*
X3293989Y3314531D01*
X3332637Y3310724D01*
D02*
G37*
G36*
X10189879Y5005924D02*
X10409030Y3604360D01*
X10412099Y3584734D01*
X10416607Y3545243D01*
X10419476Y3505611D01*
X10420701Y3465887D01*
X10420491Y3446020D01*
X10419496Y3352080D01*
X10412435Y3164307D01*
X10400309Y2976808D01*
X10383125Y2789693D01*
X10360897Y2603128D01*
X10333638Y2417207D01*
X10301373Y2232104D01*
X10298510Y2217947D01*
X10278190Y2219981D01*
Y2490000D01*
X10275440Y2510884D01*
X10267379Y2530345D01*
X10254556Y2547056D01*
X10237844Y2559880D01*
X10218383Y2567941D01*
X10197499Y2570690D01*
X10077499D01*
X10056615Y2567941D01*
X10037154Y2559880D01*
X10020442Y2547056D01*
X10007619Y2530345D01*
X9999558Y2510884D01*
X9997658Y2496449D01*
X9977304Y2491237D01*
X9977009Y2491255D01*
X9963074Y2513995D01*
X9935388Y2546411D01*
X9934803Y2547286D01*
X9934791Y2547304D01*
X9934726Y2547371D01*
X9934724Y2547371D01*
X9830443Y2651653D01*
X9828475Y2652968D01*
X9804620Y2682034D01*
X9785796Y2717253D01*
X9774203Y2755468D01*
X9770518Y2792888D01*
X9770980Y2795210D01*
Y3388661D01*
X9770510Y3391023D01*
X9767780Y3418737D01*
X9774953Y3430247D01*
X9814816Y3436751D01*
X9818070Y3436617D01*
X9882290Y3446658D01*
X9891892Y3450179D01*
X9905969Y3443404D01*
X9911743Y3438395D01*
X9911468Y3431721D01*
X9918316Y3413046D01*
X9931789Y3398413D01*
X9949837Y3390050D01*
X9969711Y3389229D01*
X9988386Y3396077D01*
X9993963Y3401212D01*
X10015486Y3393407D01*
X10016740Y3383881D01*
X10016354Y3381936D01*
Y3288161D01*
X10016530Y3287276D01*
X10012998Y3260452D01*
X10002303Y3234631D01*
X9997125Y3227883D01*
X9994300Y3224315D01*
X9981816Y3210193D01*
X9981698Y3210093D01*
X9968828Y3195023D01*
X9941365Y3162869D01*
X9908916Y3109917D01*
X9885150Y3052540D01*
X9872759Y3000925D01*
X9840000D01*
X9826344Y2998209D01*
X9814767Y2990473D01*
X9807031Y2978896D01*
X9804314Y2965240D01*
Y2895240D01*
X9807031Y2881584D01*
X9814767Y2870006D01*
X9826344Y2862271D01*
X9840000Y2859554D01*
X9923102D01*
X10009074Y2773582D01*
Y2690000D01*
X10011791Y2676344D01*
X10019527Y2664767D01*
X10031104Y2657031D01*
X10044760Y2654314D01*
X10114760D01*
X10128416Y2657031D01*
X10139994Y2664767D01*
X10147729Y2676344D01*
X10150446Y2690000D01*
Y2810000D01*
X10147729Y2823656D01*
X10140822Y2833994D01*
X10143333Y2846953D01*
X10147266Y2854813D01*
X10158416Y2857031D01*
X10169994Y2864766D01*
X10177729Y2876344D01*
X10180446Y2890000D01*
Y3010000D01*
X10177729Y3023656D01*
X10169994Y3035233D01*
X10172661Y3055886D01*
X10178417Y3057031D01*
X10189994Y3064767D01*
X10197729Y3076344D01*
X10200446Y3090000D01*
Y3210000D01*
X10197729Y3223656D01*
X10189994Y3235234D01*
X10178417Y3242969D01*
X10164760Y3245686D01*
X10154156D01*
Y3364790D01*
X10154389D01*
X10150838Y3409904D01*
X10140274Y3453907D01*
X10122956Y3495716D01*
X10099311Y3534301D01*
X10069921Y3568711D01*
X10069757Y3568547D01*
X10017125Y3621179D01*
X10010863Y3627441D01*
X10010091Y3627957D01*
X9998788Y3642687D01*
X9993653Y3649379D01*
X9984309Y3671937D01*
X9981476Y3691106D01*
X9979248Y3707925D01*
X9979243Y3707950D01*
X9979242Y3707960D01*
X9979236Y3707976D01*
X9979216Y3708128D01*
X9978203Y3714615D01*
X9967181Y3785195D01*
X9967093Y3785436D01*
X9967103Y3785692D01*
X9966097Y3792023D01*
X9965115Y3794683D01*
X9964347Y3800521D01*
X9956034Y3820591D01*
X9942810Y3837825D01*
X9942733Y3837884D01*
X9942732Y3837884D01*
X9942672D01*
X9922137Y3858418D01*
X9922168Y3858449D01*
X9922109Y3858526D01*
X9904875Y3871750D01*
X9884805Y3880063D01*
X9882185Y3880408D01*
X9880973Y3880936D01*
X9875673Y3882091D01*
X9873999Y3882456D01*
X9870413Y3882853D01*
X9868460Y3886315D01*
X9868653Y3890784D01*
X9868944Y3892737D01*
X9875736Y3907691D01*
X9900314Y3910926D01*
X9927559Y3922212D01*
X9950955Y3940164D01*
X9968908Y3963560D01*
X9980193Y3990806D01*
X9983140Y4013191D01*
X9983782Y4015880D01*
X9990754Y4198444D01*
X9990629Y4199225D01*
X9990783Y4200000D01*
Y4505147D01*
X9990579Y4506173D01*
X9993637Y4537215D01*
X10002991Y4568051D01*
X10018181Y4596469D01*
X10026093Y4606110D01*
X10038856Y4621144D01*
X10038856Y4621144D01*
X10059750Y4646603D01*
X10075275Y4675648D01*
X10084835Y4707164D01*
X10088063Y4739940D01*
X10088038D01*
Y4962349D01*
X10104822Y4964974D01*
X10127556Y4971660D01*
X10147786Y4984001D01*
X10164132Y5001159D01*
X10168737Y5009600D01*
X10189879Y5005924D01*
D02*
G37*
G36*
X2510968Y2944593D02*
X2511100Y2944288D01*
Y2741099D01*
X2539216D01*
Y2520000D01*
X2538989D01*
X2543024Y2479030D01*
X2554975Y2439634D01*
X2574381Y2403327D01*
X2600498Y2371504D01*
X2600659Y2371664D01*
X2687402Y2284921D01*
X2687353Y2284559D01*
X2687353D01*
X2709282Y2264464D01*
X2698340Y2246930D01*
X2655149Y2251184D01*
Y2250783D01*
X1896342D01*
X1885481Y2271103D01*
X1887679Y2274392D01*
X1890783Y2289999D01*
X1887679Y2305607D01*
X1885481Y2308896D01*
X1896342Y2329216D01*
X2001040D01*
X2010491Y2322901D01*
X2030000Y2319021D01*
X2049509Y2322901D01*
X2066048Y2333952D01*
X2077099Y2350491D01*
X2080980Y2370000D01*
X2099900Y2379040D01*
X2100000Y2379020D01*
X2119509Y2382901D01*
X2136048Y2393952D01*
X2147099Y2410491D01*
X2150980Y2430000D01*
X2147099Y2449509D01*
X2136048Y2466048D01*
X2119509Y2477099D01*
X2100000Y2480980D01*
X2096644Y2480312D01*
X2079985Y2487212D01*
X2051717Y2490934D01*
Y2490783D01*
X1740000D01*
X1724393Y2487679D01*
X1711161Y2478838D01*
X1702321Y2465607D01*
X1699216Y2449999D01*
X1702321Y2434392D01*
X1711161Y2421161D01*
Y2398838D01*
X1702321Y2385607D01*
X1699216Y2370000D01*
X1702321Y2354392D01*
X1703290Y2352942D01*
X1691509Y2333997D01*
X1686921Y2334601D01*
X1655432Y2347644D01*
X1644010Y2356409D01*
X1628839Y2368838D01*
X1622478Y2375199D01*
X1621437Y2375895D01*
X1600225Y2401741D01*
X1583881Y2432318D01*
X1573817Y2465496D01*
X1570539Y2498772D01*
X1570783Y2500000D01*
Y2509290D01*
X1570404Y2511197D01*
X1574602Y2543080D01*
X1587645Y2574568D01*
X1607222Y2600081D01*
X1608838Y2601162D01*
X1609420Y2602032D01*
X1633531Y2621819D01*
X1661949Y2637009D01*
X1691488Y2645969D01*
X1693773Y2644527D01*
X1703234Y2626973D01*
X1702321Y2625607D01*
X1699216Y2610000D01*
X1702321Y2594392D01*
X1711161Y2581161D01*
X1724393Y2572320D01*
X1740000Y2569216D01*
X2258709D01*
Y2568976D01*
X2300177Y2573060D01*
X2340050Y2585156D01*
X2348279Y2589554D01*
X2440000D01*
X2453656Y2592271D01*
X2465234Y2600006D01*
X2472969Y2611584D01*
X2475686Y2625240D01*
Y2695240D01*
X2472969Y2708896D01*
X2465234Y2720473D01*
X2453656Y2728209D01*
X2440000Y2730925D01*
X2416198D01*
X2412156Y2751245D01*
X2420919Y2754875D01*
X2443668Y2772331D01*
X2461124Y2795079D01*
X2472097Y2821571D01*
X2475839Y2849999D01*
X2472097Y2878428D01*
X2461124Y2904919D01*
X2444342Y2926790D01*
X2445595Y2936804D01*
X2448688Y2947636D01*
X2457562Y2948510D01*
X2490779Y2958587D01*
X2510968Y2944593D01*
D02*
G37*
G36*
X9702297Y2656770D02*
X9727299Y2615971D01*
X9758161Y2579836D01*
X9758347Y2579557D01*
X9862629Y2475274D01*
X9862807Y2473264D01*
X9863058Y2468869D01*
X9843499Y2454976D01*
X9838826Y2456912D01*
X9807500Y2461036D01*
X9776173Y2456912D01*
X9746982Y2444820D01*
X9721915Y2425585D01*
X9702680Y2400518D01*
X9690588Y2371326D01*
X9686464Y2340000D01*
X9690588Y2308674D01*
X9702680Y2279482D01*
X9721915Y2254415D01*
X9746982Y2235180D01*
X9776173Y2223089D01*
X9807500Y2218965D01*
X9838826Y2223089D01*
X9868018Y2235180D01*
X9893085Y2254415D01*
X9894200Y2255868D01*
X9914520Y2248970D01*
Y2070086D01*
X9914885Y2068247D01*
X9911551Y2042917D01*
X9906584Y2030926D01*
X9860000D01*
X9846344Y2028209D01*
X9834766Y2020474D01*
X9827031Y2008896D01*
X9824314Y1995240D01*
Y1925240D01*
X9827031Y1911584D01*
X9834766Y1900007D01*
X9846344Y1892271D01*
X9860000Y1889555D01*
X9980000D01*
X9993656Y1892271D01*
X10005233Y1900007D01*
X10012969Y1911584D01*
X10015685Y1925240D01*
Y1995240D01*
X10012969Y2008896D01*
X10008298Y2015887D01*
X10012528Y2029831D01*
X10014018Y2044960D01*
X10023662Y2047785D01*
X10034714Y2047777D01*
X10043952Y2033952D01*
X10060491Y2022901D01*
X10080000Y2019020D01*
X10099509Y2022901D01*
X10116048Y2033952D01*
X10127099Y2050491D01*
X10130979Y2070000D01*
X10127099Y2089509D01*
X10132765Y2109310D01*
X10197499D01*
X10218383Y2112059D01*
X10237844Y2120120D01*
X10254556Y2132943D01*
X10262743Y2143613D01*
X10281727Y2134974D01*
X10264121Y2047932D01*
X10221915Y1864849D01*
X10174777Y1682955D01*
X10122748Y1502405D01*
X10065864Y1323325D01*
X10035015Y1234584D01*
X10028426Y1215630D01*
X10009569Y1180198D01*
X9997169Y1163670D01*
X9977718Y1171603D01*
X9980101Y1189701D01*
Y1329700D01*
X9975289Y1366248D01*
X9961183Y1400305D01*
X9938742Y1429550D01*
X9909497Y1451990D01*
X9875440Y1466097D01*
X9838893Y1470908D01*
X9802346Y1466097D01*
X9768289Y1451990D01*
X9739044Y1429550D01*
X9725901Y1412422D01*
X9719543Y1417137D01*
X9635100Y1467751D01*
X9546102Y1509844D01*
X9453407Y1543011D01*
X9357907Y1566932D01*
X9260523Y1581378D01*
X9207253Y1583995D01*
X9207752Y1604315D01*
X9234760D01*
X9248416Y1607031D01*
X9259993Y1614767D01*
X9267729Y1626344D01*
X9270446Y1640000D01*
Y1760000D01*
X9290097Y1762564D01*
X9293695Y1753877D01*
X9315483Y1725483D01*
X9315483Y1725483D01*
X9329554Y1710991D01*
Y1640000D01*
X9332271Y1626344D01*
X9340006Y1614767D01*
X9351584Y1607031D01*
X9365240Y1604315D01*
X9435240D01*
X9448896Y1607031D01*
X9460473Y1614767D01*
X9468209Y1626344D01*
X9470925Y1640000D01*
Y1760000D01*
X9468209Y1773656D01*
X9460473Y1785234D01*
X9455269Y1788711D01*
X9454754Y1790192D01*
Y1809808D01*
X9455269Y1811289D01*
X9460473Y1814766D01*
X9468209Y1826344D01*
X9470925Y1840000D01*
Y1926699D01*
X9478596Y1935162D01*
X9526471Y1999713D01*
X9567787Y2068646D01*
X9602148Y2141297D01*
X9629223Y2216966D01*
X9648751Y2294924D01*
X9660543Y2374421D01*
X9664486Y2454691D01*
X9664156D01*
Y2696527D01*
X9683985Y2700978D01*
X9702297Y2656770D01*
D02*
G37*
G36*
X802937Y2139261D02*
X819999Y2130000D01*
Y2129999D01*
X834610Y2115389D01*
X837252Y2111435D01*
X839072Y2107042D01*
X840000Y2102378D01*
Y1701559D01*
X837376Y1688367D01*
X832228Y1675939D01*
X824755Y1664756D01*
X815244Y1655244D01*
X804060Y1647771D01*
X791633Y1642624D01*
X778441Y1640000D01*
X691559D01*
X678366Y1642624D01*
X665939Y1647771D01*
X665403Y1648130D01*
X650000Y1660000D01*
X645035Y1664500D01*
X633904Y1671937D01*
X621537Y1677060D01*
X608409Y1679671D01*
X601716Y1680000D01*
X291559D01*
X278366Y1682624D01*
X265939Y1687771D01*
X254755Y1695244D01*
X250000Y1700000D01*
X245244Y1704755D01*
X237771Y1715939D01*
X232624Y1728366D01*
X230000Y1741559D01*
Y1868441D01*
X232624Y1881634D01*
X237771Y1894060D01*
X245244Y1905244D01*
X250000Y1910000D01*
X259511Y1919511D01*
X281879Y1934457D01*
X306733Y1944752D01*
X333117Y1950000D01*
X366660D01*
X371104Y1947031D01*
X384760Y1944314D01*
X454760D01*
X468416Y1947031D01*
X479993Y1954766D01*
X487729Y1966344D01*
X488117Y1968293D01*
X490000Y1970000D01*
X490000D01*
X498787Y1978787D01*
X503560Y1984053D01*
X511448Y1995858D01*
X516881Y2008976D01*
X519651Y2022901D01*
X520000Y2030000D01*
Y2078441D01*
X522624Y2091634D01*
X527771Y2104061D01*
X535244Y2115244D01*
X540000Y2120000D01*
X544755Y2124755D01*
X555939Y2132228D01*
X568366Y2137376D01*
X581559Y2140000D01*
X799220D01*
X802937Y2139261D01*
D02*
G37*
%LPC*%
G36*
X8607500Y6406036D02*
X8576173Y6401912D01*
X8546982Y6389820D01*
X8521915Y6370585D01*
X8502680Y6345518D01*
X8490588Y6316327D01*
X8486464Y6285000D01*
X8490588Y6253674D01*
X8502680Y6224483D01*
X8521915Y6199415D01*
X8546982Y6180180D01*
X8576173Y6168089D01*
X8607500Y6163965D01*
X8638826Y6168089D01*
X8668017Y6180180D01*
X8693085Y6199415D01*
X8712320Y6224483D01*
X8724411Y6253674D01*
X8728535Y6285000D01*
X8724411Y6316327D01*
X8712320Y6345518D01*
X8693085Y6370585D01*
X8668017Y6389820D01*
X8638826Y6401912D01*
X8607500Y6406036D01*
D02*
G37*
G36*
X5030925Y6059101D02*
X5013993Y6056604D01*
X4956285Y6040180D01*
X4940576Y6033386D01*
X4927162Y6022759D01*
X4916954Y6009021D01*
X4910650Y5993110D01*
X4908679Y5976109D01*
X4911175Y5959177D01*
X4923685Y5915222D01*
X4907071Y5898608D01*
X4905310Y5895972D01*
X4809136Y5805895D01*
X4705031Y5720458D01*
X4595560Y5642013D01*
X4481193Y5570895D01*
X4362420Y5507409D01*
X4239749Y5451828D01*
X4113706Y5404388D01*
X3984829Y5365294D01*
X3853672Y5334713D01*
X3720795Y5312775D01*
X3586769Y5299574D01*
X3455273Y5295270D01*
X3452216Y5295881D01*
X3451990Y5295881D01*
X3451964Y5295876D01*
X3451938Y5295881D01*
X2580058D01*
Y5296236D01*
X2574645Y5295881D01*
X2545437D01*
Y5295924D01*
X2498519Y5292232D01*
X2455674Y5281946D01*
X2452756Y5281245D01*
X2409275Y5263235D01*
X2369146Y5238644D01*
X2333359Y5208078D01*
X2333389Y5208048D01*
X2115104Y4989764D01*
X1561319Y4435978D01*
X1543586Y4446014D01*
X1542970Y4446514D01*
X1544746Y4460000D01*
X1542340Y4478273D01*
X1535287Y4495302D01*
X1524067Y4509924D01*
X1509444Y4521145D01*
X1492416Y4528198D01*
X1474142Y4530604D01*
X1435210D01*
X1434262Y4530479D01*
X1399389Y4533914D01*
X1364944Y4544363D01*
X1333200Y4561330D01*
X1306111Y4583561D01*
X1305530Y4584319D01*
X1103155Y4786694D01*
X1103155Y4786695D01*
X1103354Y4786894D01*
X1069039Y4816202D01*
X1030561Y4839781D01*
X988869Y4857051D01*
X987263Y4857436D01*
X985233Y4860473D01*
X973656Y4868209D01*
X960000Y4870925D01*
X902550D01*
X900000Y4871126D01*
Y4871126D01*
X879680Y4871088D01*
X752173Y4872590D01*
X752174Y4872619D01*
X750000Y4872833D01*
X748153Y4872651D01*
X745561Y4875000D01*
X743327Y4891969D01*
X736777Y4907780D01*
X729524Y4917233D01*
X733091Y4929451D01*
X733199Y4929647D01*
X739113Y4936814D01*
X805240D01*
X818897Y4939531D01*
X830474Y4947266D01*
X838209Y4958844D01*
X840926Y4972500D01*
Y5092500D01*
X838209Y5106156D01*
X830474Y5117733D01*
X818897Y5125469D01*
X805240Y5128185D01*
X735240D01*
X721584Y5125469D01*
X710007Y5117733D01*
X702271Y5106156D01*
X699555Y5092500D01*
Y4972500D01*
X702271Y4958844D01*
X703436Y4957100D01*
X701937Y4952750D01*
X691017Y4939110D01*
X680000Y4940561D01*
X649952D01*
X638849Y4957169D01*
X638135Y4960881D01*
X640446Y4972500D01*
Y5092500D01*
X637729Y5106156D01*
X629994Y5117733D01*
X618417Y5125469D01*
X604760Y5128185D01*
X534760D01*
X521104Y5125469D01*
X509527Y5117733D01*
X501791Y5106156D01*
X499075Y5092500D01*
Y5058413D01*
X473509Y5038796D01*
X473709Y5038596D01*
X473709Y5038595D01*
X373851Y4938737D01*
X360000Y4940561D01*
X300000D01*
X283032Y4938327D01*
X267220Y4931777D01*
X253642Y4921358D01*
X243223Y4907780D01*
X236673Y4891969D01*
X234439Y4875000D01*
Y4785000D01*
X236673Y4768032D01*
X243223Y4752220D01*
X253642Y4738642D01*
X267220Y4728223D01*
X283032Y4721674D01*
X300000Y4719440D01*
X308648D01*
X310649Y4699120D01*
X300491Y4697099D01*
X283952Y4686048D01*
X272901Y4669509D01*
X269021Y4650000D01*
X272901Y4630491D01*
X283952Y4613952D01*
X300491Y4602901D01*
X320000Y4599021D01*
X364789D01*
X365119Y4599086D01*
X412493Y4602815D01*
X459021Y4613985D01*
X503229Y4632297D01*
X544029Y4657299D01*
X580164Y4688161D01*
X580443Y4688347D01*
X612520Y4720424D01*
X620000Y4719440D01*
X680000D01*
X696968Y4721674D01*
X703323Y4724306D01*
X721526Y4729417D01*
X721528Y4729417D01*
X721540Y4729418D01*
X737058Y4730344D01*
X737649Y4730384D01*
X747139Y4730763D01*
X750394Y4731254D01*
X750395Y4731344D01*
X750452Y4731393D01*
X835812Y4730387D01*
X840000Y4729554D01*
X905095D01*
X937965Y4725227D01*
X973342Y4710573D01*
X988117Y4699236D01*
X1003305Y4686845D01*
X1017297Y4672854D01*
X1205681Y4484470D01*
X1205399Y4484189D01*
X1244179Y4451068D01*
X1287663Y4424421D01*
X1307508Y4416201D01*
X1303466Y4395881D01*
X745445D01*
X743327Y4411968D01*
X736777Y4427780D01*
X726358Y4441358D01*
X712780Y4451777D01*
X696968Y4458326D01*
X680000Y4460560D01*
X620000D01*
X603032Y4458326D01*
X587220Y4451777D01*
X573642Y4441358D01*
X563223Y4427780D01*
X556673Y4411968D01*
X554439Y4395000D01*
Y4305000D01*
X556673Y4288031D01*
X563223Y4272220D01*
X573642Y4258641D01*
X587220Y4248223D01*
X603032Y4241673D01*
X620000Y4239439D01*
X680000D01*
X696968Y4241673D01*
X712780Y4248223D01*
X726358Y4258641D01*
X736777Y4272220D01*
X743327Y4288031D01*
X745445Y4304118D01*
X1464361D01*
X1464520Y4304118D01*
X1464593Y4303898D01*
X1509210Y4308293D01*
X1552112Y4321307D01*
X1591650Y4342441D01*
X1611145Y4358440D01*
X1626307Y4370881D01*
X1626369Y4370957D01*
X1640527Y4385413D01*
X2179991Y4924877D01*
X2398275Y5143162D01*
X2399450Y5144920D01*
X2429470Y5169557D01*
X2465558Y5188846D01*
X2480974Y5193523D01*
X2516618Y5200612D01*
X2570107Y5204118D01*
X3431955D01*
X3452164Y5203849D01*
D01*
X3472322Y5204509D01*
X3592741Y5208451D01*
X3732715Y5222237D01*
X3871488Y5245149D01*
X4008464Y5277087D01*
X4143059Y5317916D01*
X4274696Y5367460D01*
X4402810Y5425508D01*
X4526853Y5491810D01*
X4646294Y5566084D01*
X4760622Y5648010D01*
X4869347Y5737238D01*
X4970430Y5831913D01*
X4982883Y5826980D01*
X4999883Y5825008D01*
X5016815Y5827505D01*
X5074523Y5843929D01*
X5090232Y5850723D01*
X5103647Y5861351D01*
X5113854Y5875088D01*
X5120158Y5891000D01*
X5122129Y5908001D01*
X5119633Y5924933D01*
X5094996Y6011495D01*
X5088203Y6027203D01*
X5077575Y6040619D01*
X5063837Y6050826D01*
X5047926Y6057130D01*
X5030925Y6059101D01*
D02*
G37*
G36*
X7840487Y4986245D02*
X7808900Y4985480D01*
X7778587Y4976566D01*
X7751614Y4960110D01*
X7729819Y4937233D01*
X7714688Y4909496D01*
X7707251Y4878787D01*
X7708016Y4847199D01*
X7716930Y4816886D01*
X7733386Y4789913D01*
X7756262Y4768118D01*
X7784000Y4752987D01*
X7814709Y4745550D01*
X7846296Y4746315D01*
X7876610Y4755229D01*
X7903583Y4771685D01*
X7925377Y4794562D01*
X7940509Y4822299D01*
X7947945Y4853008D01*
X7947181Y4884596D01*
X7938267Y4914909D01*
X7921811Y4941882D01*
X7898934Y4963677D01*
X7871196Y4978808D01*
X7840487Y4986245D01*
D02*
G37*
G36*
X7445289Y4924451D02*
X7413702Y4923686D01*
X7383389Y4914772D01*
X7356416Y4898316D01*
X7334621Y4875439D01*
X7319490Y4847702D01*
X7312053Y4816993D01*
X7312818Y4785405D01*
X7321732Y4755092D01*
X7338188Y4728119D01*
X7361064Y4706324D01*
X7388802Y4691193D01*
X7419511Y4683756D01*
X7451098Y4684521D01*
X7481412Y4693435D01*
X7508385Y4709891D01*
X7530179Y4732768D01*
X7545311Y4760505D01*
X7552747Y4791214D01*
X7551983Y4822802D01*
X7543068Y4853115D01*
X7526613Y4880088D01*
X7503736Y4901882D01*
X7475998Y4917014D01*
X7445289Y4924451D01*
D02*
G37*
G36*
X2613200Y5052144D02*
X2574973Y5048379D01*
X2538216Y5037228D01*
X2504340Y5019121D01*
X2474647Y4994753D01*
X2450279Y4965060D01*
X2432172Y4931184D01*
X2421022Y4894427D01*
X2417257Y4856200D01*
X2421022Y4817973D01*
X2432172Y4781216D01*
X2450279Y4747340D01*
X2474647Y4717647D01*
X2504340Y4693279D01*
X2538216Y4675172D01*
X2574973Y4664022D01*
X2613200Y4660257D01*
X2651427Y4664022D01*
X2688184Y4675172D01*
X2722060Y4693279D01*
X2751753Y4717647D01*
X2776121Y4747340D01*
X2794228Y4781216D01*
X2805378Y4817973D01*
X2809143Y4856200D01*
X2805378Y4894427D01*
X2794228Y4931184D01*
X2776121Y4965060D01*
X2751753Y4994753D01*
X2722060Y5019121D01*
X2688184Y5037228D01*
X2651427Y5048379D01*
X2613200Y5052144D01*
D02*
G37*
G36*
X3952987Y4573269D02*
X3921728Y4568661D01*
X3892728Y4556119D01*
X3867961Y4536498D01*
X3849117Y4511136D01*
X3837478Y4481761D01*
X3833840Y4450374D01*
X3838448Y4419116D01*
X3850990Y4390115D01*
X3870611Y4365348D01*
X3895973Y4346504D01*
X3925348Y4334866D01*
X3956735Y4331227D01*
X3987993Y4335836D01*
X4016994Y4348378D01*
X4041761Y4367998D01*
X4060605Y4393360D01*
X4072243Y4422735D01*
X4075882Y4454122D01*
X4071273Y4485381D01*
X4058731Y4514381D01*
X4039111Y4539148D01*
X4013749Y4557992D01*
X3984374Y4569630D01*
X3952987Y4573269D01*
D02*
G37*
G36*
X3568265Y4463773D02*
X3537007Y4459164D01*
X3508006Y4446622D01*
X3483239Y4427002D01*
X3464395Y4401640D01*
X3452757Y4372265D01*
X3449118Y4340878D01*
X3453727Y4309619D01*
X3466269Y4280619D01*
X3485889Y4255852D01*
X3511251Y4237008D01*
X3540626Y4225370D01*
X3572013Y4221731D01*
X3603272Y4226339D01*
X3632272Y4238881D01*
X3657039Y4258502D01*
X3675883Y4283864D01*
X3687521Y4313239D01*
X3691160Y4344626D01*
X3686552Y4375884D01*
X3674010Y4404885D01*
X3654389Y4429652D01*
X3629027Y4448496D01*
X3599652Y4460134D01*
X3568265Y4463773D01*
D02*
G37*
G36*
X8849067Y4161009D02*
X8809752Y4160058D01*
X8807127Y4159469D01*
X8804439Y4159580D01*
X8785012Y4156543D01*
X8785011Y4156542D01*
X6512623Y3801227D01*
X6512622D01*
X6493195Y3798190D01*
X6490670Y3797263D01*
X6487990Y3797023D01*
X6450262Y3785928D01*
X6447878Y3784680D01*
X6445253Y3784091D01*
X6409296Y3768167D01*
X6407095Y3766619D01*
X6404570Y3765692D01*
X6370998Y3745211D01*
X6369018Y3743388D01*
X6366635Y3742140D01*
X6336024Y3717452D01*
X6334300Y3715387D01*
X6332100Y3713838D01*
X6304973Y3685366D01*
X6303533Y3683093D01*
X6301554Y3681271D01*
X6278376Y3649501D01*
X6277245Y3647061D01*
X6275520Y3644995D01*
X6256688Y3610472D01*
X6255885Y3607904D01*
X6254445Y3605632D01*
X6240279Y3568946D01*
X6239818Y3566295D01*
X6238687Y3563854D01*
X6229431Y3525632D01*
X6229320Y3522945D01*
X6228517Y3520377D01*
X6224329Y3481274D01*
X6224570Y3478595D01*
X6224109Y3475944D01*
X6225061Y3436630D01*
X6225650Y3434004D01*
X6225539Y3431316D01*
X6228576Y3411890D01*
X6228576Y3411889D01*
X6305819Y2917893D01*
Y2917892D01*
X6308856Y2898465D01*
X6309783Y2895939D01*
X6310023Y2893259D01*
X6321118Y2855531D01*
X6322366Y2853147D01*
X6322955Y2850522D01*
X6338879Y2814564D01*
X6340428Y2812364D01*
X6341354Y2809838D01*
X6361835Y2776267D01*
X6363658Y2774287D01*
X6364906Y2771904D01*
X6389594Y2741293D01*
X6391660Y2739569D01*
X6393208Y2737369D01*
X6421680Y2710242D01*
X6423953Y2708802D01*
X6425775Y2706823D01*
X6457545Y2683645D01*
X6459986Y2682514D01*
X6462051Y2680789D01*
X6496574Y2661956D01*
X6499142Y2661153D01*
X6501415Y2659713D01*
X6538101Y2645547D01*
X6540752Y2645087D01*
X6543193Y2643955D01*
X6581414Y2634700D01*
X6584102Y2634589D01*
X6586670Y2633786D01*
X6625772Y2629598D01*
X6628452Y2629839D01*
X6631102Y2629378D01*
X6670417Y2630330D01*
X6673043Y2630919D01*
X6675730Y2630808D01*
X6695157Y2633845D01*
X6695158Y2633845D01*
X8967545Y2989160D01*
X8967547D01*
X8986974Y2992198D01*
X8989499Y2993124D01*
X8992179Y2993365D01*
X9029907Y3004460D01*
X9032291Y3005708D01*
X9034916Y3006296D01*
X9070873Y3022221D01*
X9073074Y3023769D01*
X9075600Y3024695D01*
X9109171Y3045177D01*
X9111150Y3046999D01*
X9113533Y3048247D01*
X9144145Y3072935D01*
X9145869Y3075001D01*
X9148069Y3076549D01*
X9175196Y3105022D01*
X9176636Y3107295D01*
X9178615Y3109116D01*
X9201793Y3140886D01*
X9202924Y3143327D01*
X9204648Y3145392D01*
X9223481Y3179915D01*
X9224284Y3182483D01*
X9225725Y3184756D01*
X9239890Y3221442D01*
X9240351Y3224093D01*
X9241482Y3226534D01*
X9250738Y3264755D01*
X9250849Y3267443D01*
X9251652Y3270011D01*
X9255840Y3309113D01*
X9255599Y3311793D01*
X9256060Y3314443D01*
X9255108Y3353758D01*
X9254519Y3356384D01*
X9254630Y3359072D01*
X9251593Y3378498D01*
X9174350Y3872496D01*
X9171312Y3891923D01*
X9170386Y3894449D01*
X9170145Y3897128D01*
X9159051Y3934857D01*
X9157803Y3937241D01*
X9157214Y3939866D01*
X9141290Y3975823D01*
X9139741Y3978023D01*
X9138815Y3980550D01*
X9118333Y4014121D01*
X9116511Y4016100D01*
X9115263Y4018483D01*
X9090575Y4049094D01*
X9088509Y4050819D01*
X9086961Y4053019D01*
X9058489Y4080146D01*
X9056216Y4081586D01*
X9054394Y4083565D01*
X9022624Y4106743D01*
X9020183Y4107874D01*
X9018118Y4109598D01*
X8983595Y4128431D01*
X8981028Y4129234D01*
X8978754Y4130674D01*
X8942068Y4144840D01*
X8939417Y4145301D01*
X8936976Y4146432D01*
X8898755Y4155688D01*
X8896068Y4155799D01*
X8893500Y4156602D01*
X8854397Y4160789D01*
X8851718Y4160549D01*
X8849067Y4161009D01*
D02*
G37*
G36*
X2150000Y4240980D02*
X2130491Y4237099D01*
X2113952Y4226048D01*
X2102901Y4209509D01*
X2099020Y4190000D01*
X2102901Y4170491D01*
X2113952Y4153952D01*
X2116545Y4152219D01*
Y4127781D01*
X2113952Y4126048D01*
X2102901Y4109509D01*
X2099020Y4090000D01*
X2102901Y4070491D01*
X2113952Y4053952D01*
X2130491Y4042901D01*
X2150000Y4039020D01*
X2169509Y4042901D01*
X2186048Y4053952D01*
X2197099Y4070491D01*
X2200980Y4090000D01*
X2197099Y4109509D01*
X2186048Y4126048D01*
X2183455Y4127781D01*
Y4152219D01*
X2186048Y4153952D01*
X2197099Y4170491D01*
X2200980Y4190000D01*
X2197099Y4209509D01*
X2186048Y4226048D01*
X2169509Y4237099D01*
X2150000Y4240980D01*
D02*
G37*
G36*
X2260000Y4070980D02*
X2240491Y4067099D01*
X2223952Y4056048D01*
X2212901Y4039509D01*
X2209020Y4020000D01*
X2212901Y4000491D01*
X2223952Y3983952D01*
X2240491Y3972901D01*
X2260000Y3969021D01*
X2279509Y3972901D01*
X2296048Y3983952D01*
X2307099Y4000491D01*
X2310980Y4020000D01*
X2307099Y4039509D01*
X2296048Y4056048D01*
X2279509Y4067099D01*
X2260000Y4070980D01*
D02*
G37*
G36*
X2831977Y3512883D02*
X2820121Y3511029D01*
X2803687Y3505003D01*
X2790810Y3493147D01*
X2783450Y3477265D01*
X2782728Y3459775D01*
X2790761Y3408400D01*
X2796787Y3391966D01*
X2808644Y3379088D01*
X2824526Y3371729D01*
X2842015Y3371007D01*
X2853871Y3372860D01*
X2870305Y3378887D01*
X2883183Y3390743D01*
X2890542Y3406625D01*
X2891264Y3424114D01*
X2883231Y3475490D01*
X2877205Y3491924D01*
X2865348Y3504802D01*
X2849466Y3512161D01*
X2831977Y3512883D01*
D02*
G37*
G36*
X5536992Y3372947D02*
X5505405Y3372182D01*
X5475092Y3363268D01*
X5448119Y3346812D01*
X5426324Y3323935D01*
X5411193Y3296197D01*
X5403756Y3265489D01*
X5404521Y3233901D01*
X5413435Y3203588D01*
X5429891Y3176615D01*
X5452767Y3154820D01*
X5480505Y3139689D01*
X5511214Y3132252D01*
X5542801Y3133017D01*
X5573115Y3141931D01*
X5600088Y3158387D01*
X5621882Y3181263D01*
X5637014Y3209001D01*
X5644450Y3239710D01*
X5643686Y3271297D01*
X5634772Y3301611D01*
X5618316Y3328584D01*
X5595439Y3350378D01*
X5567701Y3365510D01*
X5536992Y3372947D01*
D02*
G37*
G36*
X5598787Y2977748D02*
X5567199Y2976984D01*
X5536886Y2968070D01*
X5509913Y2951614D01*
X5488118Y2928737D01*
X5472987Y2900999D01*
X5465550Y2870290D01*
X5466315Y2838703D01*
X5475229Y2808390D01*
X5491685Y2781417D01*
X5514561Y2759622D01*
X5542299Y2744491D01*
X5573008Y2737054D01*
X5604596Y2737819D01*
X5634909Y2746733D01*
X5661882Y2763189D01*
X5683676Y2786065D01*
X5698808Y2813803D01*
X5706245Y2844512D01*
X5705480Y2876099D01*
X5696566Y2906413D01*
X5680110Y2933386D01*
X5657233Y2955180D01*
X5629495Y2970312D01*
X5598787Y2977748D01*
D02*
G37*
G36*
X8484552Y2750100D02*
X8466653Y2749667D01*
X8383662Y2736690D01*
X8366484Y2731639D01*
X8351199Y2722314D01*
X8338849Y2709351D01*
X8330275Y2693633D01*
X8326061Y2676231D01*
X8326251Y2668376D01*
X8306122Y2660238D01*
X8304877Y2661590D01*
X8290078Y2668448D01*
X8273781Y2669120D01*
X8255997Y2666340D01*
X8240683Y2660724D01*
X8228684Y2649676D01*
X8221826Y2634878D01*
X8221154Y2618581D01*
X8230114Y2561277D01*
X8235729Y2545963D01*
X8246777Y2533964D01*
X8261576Y2527106D01*
X8277873Y2526434D01*
X8295657Y2529214D01*
X8310971Y2534830D01*
X8322970Y2545878D01*
X8329104Y2559114D01*
X8336262Y2561540D01*
X8350278Y2563423D01*
X8350757Y2562638D01*
X8363721Y2550288D01*
X8379439Y2541713D01*
X8396840Y2537499D01*
X8414740Y2537932D01*
X8479263Y2548021D01*
X8484071Y2542163D01*
X8503361Y2506075D01*
X8515239Y2466918D01*
X8519045Y2428269D01*
X8518633Y2426196D01*
Y2223407D01*
X8494315Y2219605D01*
X8481242Y2214811D01*
X8470999Y2205380D01*
X8465145Y2192746D01*
X8464571Y2178834D01*
X8475385Y2109675D01*
X8480178Y2096602D01*
X8489609Y2086359D01*
X8502243Y2080505D01*
X8516155Y2079930D01*
X8634714Y2098468D01*
X8647787Y2103262D01*
X8658030Y2112694D01*
X8663884Y2125327D01*
X8664458Y2139239D01*
X8653644Y2208398D01*
X8648851Y2221471D01*
X8639420Y2231714D01*
X8626786Y2237569D01*
X8612875Y2238143D01*
X8610396Y2240264D01*
Y2426196D01*
X8610439D01*
X8606746Y2473114D01*
X8595760Y2518878D01*
X8577749Y2562359D01*
X8553175Y2602460D01*
X8555332Y2611368D01*
X8554899Y2629268D01*
X8545012Y2692499D01*
X8539961Y2709677D01*
X8530635Y2724962D01*
X8517672Y2737312D01*
X8501954Y2745886D01*
X8484552Y2750100D01*
D02*
G37*
G36*
X6700388Y1890099D02*
X6662161Y1886334D01*
X6625404Y1875184D01*
X6591528Y1857077D01*
X6561835Y1832709D01*
X6537467Y1803016D01*
X6519360Y1769140D01*
X6508209Y1732383D01*
X6504444Y1694156D01*
X6508209Y1655929D01*
X6519360Y1619172D01*
X6537467Y1585296D01*
X6561835Y1555603D01*
X6591528Y1531235D01*
X6625404Y1513128D01*
X6662161Y1501977D01*
X6700388Y1498212D01*
X6738615Y1501977D01*
X6775372Y1513128D01*
X6809248Y1531235D01*
X6838941Y1555603D01*
X6863309Y1585296D01*
X6881416Y1619172D01*
X6892566Y1655929D01*
X6896331Y1694156D01*
X6892566Y1732383D01*
X6881416Y1769140D01*
X6863309Y1803016D01*
X6838941Y1832709D01*
X6809248Y1857077D01*
X6775372Y1875184D01*
X6738615Y1886334D01*
X6700388Y1890099D01*
D02*
G37*
G36*
X9508894Y1380736D02*
X9477567Y1376612D01*
X9448376Y1364521D01*
X9423309Y1345286D01*
X9404074Y1320219D01*
X9391982Y1291027D01*
X9387858Y1259701D01*
X9391982Y1228374D01*
X9404074Y1199183D01*
X9423309Y1174116D01*
X9448376Y1154881D01*
X9477567Y1142789D01*
X9508894Y1138665D01*
X9540220Y1142789D01*
X9569411Y1154881D01*
X9594479Y1174116D01*
X9613714Y1199183D01*
X9625805Y1228374D01*
X9629929Y1259701D01*
X9625805Y1291027D01*
X9613714Y1320219D01*
X9594479Y1345286D01*
X9569411Y1364521D01*
X9540220Y1376612D01*
X9508894Y1380736D01*
D02*
G37*
G36*
X9108893D02*
X9077567Y1376612D01*
X9048376Y1364521D01*
X9023308Y1345286D01*
X9004073Y1320219D01*
X8991982Y1291027D01*
X8987858Y1259701D01*
X8991982Y1228374D01*
X9004073Y1199183D01*
X9023308Y1174116D01*
X9048376Y1154881D01*
X9077567Y1142789D01*
X9108893Y1138665D01*
X9140220Y1142789D01*
X9169411Y1154881D01*
X9194478Y1174116D01*
X9213713Y1199183D01*
X9225805Y1228374D01*
X9229929Y1259701D01*
X9225805Y1291027D01*
X9213713Y1320219D01*
X9194478Y1345286D01*
X9169411Y1364521D01*
X9140220Y1376612D01*
X9108893Y1380736D01*
D02*
G37*
G36*
X920999Y1505862D02*
X908999D01*
X891832Y1502447D01*
X877277Y1492722D01*
X867552Y1478168D01*
X864137Y1461000D01*
Y1435591D01*
X864020Y1435000D01*
Y1392072D01*
X865205Y1386114D01*
X866726Y1374563D01*
X873484Y1358247D01*
X880576Y1349004D01*
X883952Y1343952D01*
X885095Y1343188D01*
X897940Y1326448D01*
X906535Y1305698D01*
X909289Y1284779D01*
X909021Y1283431D01*
Y1009625D01*
X890247Y1001848D01*
X717217Y1174879D01*
X714836Y1176470D01*
X695459Y1201723D01*
Y1273572D01*
X718768Y1296882D01*
X718989Y1297212D01*
X743027Y1326503D01*
X761074Y1360266D01*
X769156Y1386907D01*
X772447Y1391832D01*
X775862Y1409000D01*
Y1434206D01*
X775940Y1435000D01*
X775979D01*
X775862Y1435591D01*
Y1461000D01*
X772447Y1478168D01*
X762722Y1492722D01*
X748167Y1502447D01*
X731000Y1505862D01*
X719000D01*
X701832Y1502447D01*
X687277Y1492722D01*
X677553Y1478168D01*
X674138Y1461000D01*
Y1455272D01*
X674019Y1435000D01*
X671969Y1415529D01*
X671334Y1410702D01*
X661955Y1388059D01*
X647987Y1369856D01*
X646673Y1368977D01*
X628363Y1350668D01*
X589773D01*
X576117Y1347951D01*
X564540Y1340216D01*
X556804Y1328638D01*
X554088Y1314982D01*
Y1194982D01*
X556804Y1181326D01*
X564540Y1169749D01*
X576117Y1162013D01*
X589773Y1159297D01*
X604135D01*
X614674Y1139579D01*
X644984Y1102646D01*
X645121Y1102783D01*
X838186Y909718D01*
X839459Y908867D01*
X864315Y888469D01*
Y875241D01*
X867031Y861584D01*
X874767Y850007D01*
X886344Y842271D01*
X900000Y839555D01*
X1020000D01*
X1020411Y839637D01*
X1066486D01*
X1066696Y838042D01*
X1073246Y822230D01*
X1083665Y808652D01*
X1097242Y798233D01*
X1113054Y791683D01*
X1130023Y789450D01*
X1220023D01*
X1236925Y791675D01*
X1244128Y786148D01*
X1244540Y785612D01*
X1304190Y725961D01*
X1308855Y714698D01*
X1320076Y700076D01*
X1334698Y688855D01*
X1351727Y681802D01*
X1370000Y679396D01*
X1380000D01*
X1398274Y681802D01*
X1415302Y688855D01*
X1429924Y700076D01*
X1441145Y714698D01*
X1448198Y731727D01*
X1450604Y750000D01*
X1448406Y766698D01*
X1448343Y767173D01*
X1450324Y769625D01*
X1464079Y778367D01*
X1468025Y778443D01*
X1487005Y755316D01*
X1486918Y755228D01*
X1522107Y725174D01*
X1561564Y700995D01*
X1604318Y683285D01*
X1649316Y672483D01*
X1695450Y668852D01*
Y668977D01*
X1775465D01*
X1777031Y661104D01*
X1784767Y649527D01*
X1796344Y641791D01*
X1810000Y639075D01*
X1930000D01*
X1943656Y641791D01*
X1955234Y649527D01*
X1962969Y661104D01*
X1965686Y674761D01*
Y744761D01*
X1962969Y758417D01*
X1955234Y769994D01*
X1943656Y777730D01*
X1930000Y780446D01*
X1810000D01*
X1796344Y777730D01*
X1784767Y769994D01*
X1777031Y758417D01*
X1775465Y750544D01*
X1695450D01*
X1693625Y750181D01*
X1653747Y754109D01*
X1616682Y765352D01*
X1615467Y769129D01*
X1623626Y783685D01*
X1632437Y789450D01*
X1700023D01*
X1716992Y791683D01*
X1732804Y798233D01*
X1746382Y808652D01*
X1756800Y822230D01*
X1763350Y838042D01*
X1764168Y844259D01*
X1784767Y850007D01*
X1796344Y842271D01*
X1810000Y839555D01*
X1930000D01*
X1943656Y842271D01*
X1955234Y850007D01*
X1962969Y861584D01*
X1965686Y875241D01*
Y945240D01*
X1962969Y958897D01*
X1955234Y970474D01*
X1943656Y978210D01*
X1930000Y980926D01*
X1810000D01*
X1796344Y978210D01*
X1784767Y970474D01*
X1777031Y958897D01*
X1776479Y956122D01*
X1750407D01*
X1746382Y961368D01*
X1732804Y971787D01*
X1716992Y978337D01*
X1700023Y980571D01*
X1610023D01*
X1593055Y978337D01*
X1577243Y971787D01*
X1563665Y961368D01*
X1553246Y947790D01*
X1546697Y931979D01*
X1544735Y917077D01*
X1537218Y914626D01*
X1524143Y913933D01*
X1516048Y926048D01*
X1499509Y937099D01*
X1480000Y940980D01*
X1460491Y937099D01*
X1443952Y926048D01*
X1432901Y909509D01*
X1429021Y890000D01*
X1432901Y870491D01*
X1440329Y859374D01*
X1442350Y838860D01*
X1451193Y809709D01*
X1451635Y808251D01*
X1452123Y805501D01*
X1452122Y805500D01*
Y805501D01*
X1451898Y806768D01*
X1451984Y805097D01*
X1451855Y804724D01*
X1433269Y800657D01*
X1429023Y800826D01*
X1358757Y871092D01*
X1344779Y885851D01*
X1344779Y885851D01*
X1308399Y915707D01*
X1283758Y928878D01*
X1283349Y931979D01*
X1276800Y947790D01*
X1266381Y961368D01*
X1252803Y971787D01*
X1236991Y978337D01*
X1220023Y980571D01*
X1130023D01*
X1125060Y979918D01*
X1114111Y980996D01*
Y980844D01*
X1020411D01*
X1020000Y980926D01*
X1010980D01*
Y1283431D01*
X1010828Y1284197D01*
X1007301Y1320004D01*
X996632Y1355173D01*
X979308Y1387585D01*
X965979Y1403826D01*
Y1435000D01*
X965861Y1435591D01*
Y1461000D01*
X962446Y1478168D01*
X952722Y1492722D01*
X938167Y1502447D01*
X920999Y1505862D01*
D02*
G37*
G36*
X650000Y1003238D02*
X620105Y1000293D01*
X591358Y991573D01*
X564866Y977413D01*
X541645Y958355D01*
X522587Y935134D01*
X508427Y908642D01*
X499707Y879895D01*
X496762Y850000D01*
X499707Y820105D01*
X508427Y791359D01*
X522587Y764866D01*
X541645Y741645D01*
X564866Y722588D01*
X591358Y708427D01*
X620105Y699707D01*
X650000Y696762D01*
X679895Y699707D01*
X708641Y708427D01*
X735134Y722588D01*
X758355Y741645D01*
X777412Y764866D01*
X791573Y791359D01*
X800293Y820105D01*
X803238Y850000D01*
X800293Y879895D01*
X791573Y908642D01*
X777412Y935134D01*
X758355Y958355D01*
X735134Y977413D01*
X708641Y991573D01*
X679895Y1000293D01*
X650000Y1003238D01*
D02*
G37*
G36*
X5470097Y5685032D02*
X5453165Y5682535D01*
X5395457Y5666111D01*
X5379748Y5659317D01*
X5366334Y5648689D01*
X5356126Y5634952D01*
X5349822Y5619040D01*
X5347851Y5602039D01*
X5350347Y5585107D01*
X5374984Y5498545D01*
X5381778Y5482837D01*
X5392406Y5469421D01*
X5406143Y5459214D01*
X5422055Y5452910D01*
X5439055Y5450939D01*
X5455987Y5453436D01*
X5513695Y5469860D01*
X5529404Y5476654D01*
X5542819Y5487281D01*
X5553026Y5501019D01*
X5559331Y5516930D01*
X5560890Y5530378D01*
X5581032Y5536488D01*
X5613770Y5553986D01*
X5635956Y5572194D01*
X5639509Y5572901D01*
X5656048Y5583952D01*
X5667099Y5600491D01*
X5670980Y5620000D01*
X5667099Y5639509D01*
X5656048Y5656048D01*
X5639509Y5667099D01*
X5620000Y5670980D01*
X5600491Y5667099D01*
X5583952Y5656048D01*
X5572901Y5639509D01*
X5572619Y5638092D01*
X5557575Y5626548D01*
X5553518Y5624868D01*
X5535225Y5633714D01*
X5534169Y5637425D01*
X5527375Y5653134D01*
X5516747Y5666549D01*
X5503010Y5676756D01*
X5487098Y5683060D01*
X5470097Y5685032D01*
D02*
G37*
G36*
X9207500Y5676036D02*
X9176174Y5671911D01*
X9146982Y5659820D01*
X9121915Y5640585D01*
X9102680Y5615518D01*
X9090589Y5586326D01*
X9086464Y5555000D01*
X9090589Y5523674D01*
X9102680Y5494482D01*
X9121915Y5469415D01*
X9146982Y5450180D01*
X9176174Y5438089D01*
X9207500Y5433964D01*
X9238826Y5438089D01*
X9268018Y5450180D01*
X9293085Y5469415D01*
X9312320Y5494482D01*
X9324411Y5523674D01*
X9328536Y5555000D01*
X9324411Y5586326D01*
X9312320Y5615518D01*
X9293085Y5640585D01*
X9268018Y5659820D01*
X9238826Y5671911D01*
X9207500Y5676036D01*
D02*
G37*
G36*
X8807500D02*
X8776173Y5671911D01*
X8746982Y5659820D01*
X8721915Y5640585D01*
X8702680Y5615518D01*
X8690588Y5586326D01*
X8686464Y5555000D01*
X8690588Y5523674D01*
X8702680Y5494482D01*
X8721915Y5469415D01*
X8746982Y5450180D01*
X8776173Y5438089D01*
X8807500Y5433964D01*
X8838826Y5438089D01*
X8868018Y5450180D01*
X8893085Y5469415D01*
X8912320Y5494482D01*
X8924411Y5523674D01*
X8928535Y5555000D01*
X8924411Y5586326D01*
X8912320Y5615518D01*
X8893085Y5640585D01*
X8868018Y5659820D01*
X8838826Y5671911D01*
X8807500Y5676036D01*
D02*
G37*
G36*
X7382987Y5633269D02*
X7351728Y5628661D01*
X7322728Y5616119D01*
X7297961Y5596498D01*
X7279117Y5571136D01*
X7267478Y5541761D01*
X7263840Y5510374D01*
X7268448Y5479116D01*
X7280990Y5450115D01*
X7300611Y5425348D01*
X7325973Y5406504D01*
X7355348Y5394866D01*
X7386735Y5391227D01*
X7417993Y5395836D01*
X7446994Y5408378D01*
X7471761Y5427998D01*
X7490605Y5453360D01*
X7502243Y5482735D01*
X7505882Y5514122D01*
X7501273Y5545381D01*
X7488731Y5574381D01*
X7469111Y5599148D01*
X7443749Y5617992D01*
X7414374Y5629630D01*
X7382987Y5633269D01*
D02*
G37*
G36*
X6998265Y5523773D02*
X6967007Y5519164D01*
X6938006Y5506622D01*
X6913239Y5487002D01*
X6894395Y5461640D01*
X6882757Y5432264D01*
X6879118Y5400878D01*
X6883727Y5369619D01*
X6896269Y5340618D01*
X6915889Y5315852D01*
X6941251Y5297008D01*
X6970626Y5285369D01*
X7002013Y5281731D01*
X7033272Y5286339D01*
X7062272Y5298881D01*
X7087039Y5318502D01*
X7105883Y5343864D01*
X7117521Y5373239D01*
X7121160Y5404625D01*
X7116552Y5435884D01*
X7104010Y5464885D01*
X7084389Y5489651D01*
X7059027Y5508496D01*
X7029652Y5520134D01*
X6998265Y5523773D01*
D02*
G37*
G36*
X5522901Y5175898D02*
X5509023Y5174772D01*
X5441697Y5155611D01*
X5429306Y5149259D01*
X5420288Y5138650D01*
X5416665Y5127407D01*
X5410851Y5124078D01*
X5396044Y5120295D01*
X5388736Y5126507D01*
X5375484Y5130778D01*
X5361605Y5129652D01*
X5294279Y5110491D01*
X5281888Y5104139D01*
X5272871Y5093530D01*
X5268600Y5080278D01*
X5269725Y5066399D01*
X5302574Y4950983D01*
X5308925Y4938592D01*
X5319534Y4929574D01*
X5332787Y4925304D01*
X5339729Y4925866D01*
X5345401Y4905940D01*
X5341888Y4904139D01*
X5332871Y4893530D01*
X5328600Y4880278D01*
X5329725Y4866399D01*
X5362574Y4750983D01*
X5368925Y4738592D01*
X5379535Y4729574D01*
X5392787Y4725303D01*
X5406666Y4726429D01*
X5473992Y4745591D01*
X5486383Y4751942D01*
X5495400Y4762551D01*
X5498972Y4773634D01*
X5504782Y4777052D01*
X5519662Y4780687D01*
X5526712Y4774694D01*
X5539965Y4770424D01*
X5553843Y4771549D01*
X5621169Y4790711D01*
X5633560Y4797062D01*
X5642578Y4807671D01*
X5646849Y4820924D01*
X5645723Y4834802D01*
X5612874Y4950218D01*
X5606523Y4962609D01*
X5595914Y4971627D01*
X5582661Y4975898D01*
X5576004Y4975358D01*
X5570333Y4995285D01*
X5573800Y4997062D01*
X5582818Y5007671D01*
X5587089Y5020924D01*
X5585963Y5034802D01*
X5553114Y5150219D01*
X5546763Y5162609D01*
X5536154Y5171627D01*
X5522901Y5175898D01*
D02*
G37*
G36*
X5182661Y5075898D02*
X5168783Y5074773D01*
X5101457Y5055611D01*
X5089066Y5049260D01*
X5080048Y5038651D01*
X5075777Y5025398D01*
X5076903Y5011520D01*
X5078368Y5006371D01*
X5051731Y4992133D01*
X5047231Y4988440D01*
X5040491Y4987099D01*
X5023952Y4976048D01*
X5012901Y4959509D01*
X5009020Y4940000D01*
X5012901Y4920491D01*
X5023952Y4903952D01*
X5040491Y4892901D01*
X5060000Y4889020D01*
X5079509Y4892901D01*
X5087934Y4898530D01*
X5099196Y4897277D01*
X5109713Y4893594D01*
X5111880Y4891952D01*
X5116103Y4883712D01*
X5126712Y4874695D01*
X5139965Y4870424D01*
X5146907Y4870987D01*
X5152578Y4851060D01*
X5149066Y4849260D01*
X5140048Y4838650D01*
X5135777Y4825398D01*
X5136903Y4811519D01*
X5138368Y4806371D01*
X5111731Y4792133D01*
X5107231Y4788439D01*
X5100491Y4787099D01*
X5083952Y4776048D01*
X5072901Y4759509D01*
X5069020Y4740000D01*
X5072901Y4720491D01*
X5083952Y4703952D01*
X5100491Y4692901D01*
X5120000Y4689020D01*
X5139509Y4692901D01*
X5147934Y4698530D01*
X5159197Y4697277D01*
X5169713Y4693594D01*
X5171880Y4691952D01*
X5176103Y4683712D01*
X5186712Y4674694D01*
X5199965Y4670424D01*
X5213843Y4671549D01*
X5281169Y4690711D01*
X5293560Y4697062D01*
X5302578Y4707671D01*
X5306849Y4720924D01*
X5305723Y4734802D01*
X5272874Y4850219D01*
X5266523Y4862610D01*
X5255914Y4871627D01*
X5242661Y4875898D01*
X5235719Y4875335D01*
X5230048Y4895262D01*
X5233560Y4897062D01*
X5242578Y4907671D01*
X5246849Y4920924D01*
X5245723Y4934802D01*
X5212874Y5050219D01*
X5206523Y5062610D01*
X5195914Y5071627D01*
X5182661Y5075898D01*
D02*
G37*
G36*
X9640000Y1860392D02*
X9632196Y1858840D01*
X9625581Y1854419D01*
X9625580Y1854418D01*
X9615581Y1844419D01*
X9615580Y1844418D01*
X9613204Y1842042D01*
X9612087Y1840371D01*
X9610667Y1838951D01*
X9606930Y1833359D01*
X9606162Y1831503D01*
X9605046Y1829834D01*
X9602473Y1823620D01*
X9602081Y1821651D01*
X9601312Y1819794D01*
X9600000Y1813198D01*
Y1811190D01*
X9599608Y1809220D01*
Y1671559D01*
X9600000Y1669588D01*
Y1667581D01*
X9602624Y1654388D01*
X9603393Y1652533D01*
X9603784Y1650563D01*
X9608932Y1638136D01*
X9610047Y1636466D01*
X9610816Y1634610D01*
X9618289Y1623426D01*
X9619709Y1622006D01*
X9620825Y1620337D01*
X9625580Y1615581D01*
X9630337Y1610825D01*
X9632006Y1609709D01*
X9633426Y1608289D01*
X9644610Y1600816D01*
X9646466Y1600048D01*
X9648136Y1598932D01*
X9660563Y1593784D01*
X9662532Y1593393D01*
X9664388Y1592624D01*
X9677581Y1590000D01*
X9679588D01*
X9681559Y1589608D01*
X9934756D01*
X9936726Y1590000D01*
X9938734D01*
X9948062Y1591856D01*
X9949917Y1592624D01*
X9951888Y1593016D01*
X9960675Y1596656D01*
X9962345Y1597772D01*
X9964201Y1598540D01*
X9972109Y1603824D01*
X9973529Y1605244D01*
X9975199Y1606360D01*
X10004419Y1635580D01*
X10004785Y1636129D01*
X10005307Y1636528D01*
X10018414Y1651419D01*
X10019097Y1652598D01*
X10020061Y1653562D01*
X10031412Y1670550D01*
X10032181Y1672405D01*
X10033296Y1674075D01*
X10043591Y1698929D01*
X10043983Y1700899D01*
X10044752Y1702754D01*
X10050000Y1729139D01*
Y1731147D01*
X10050392Y1733117D01*
Y1812378D01*
X10050000Y1814348D01*
Y1816356D01*
X10049072Y1821020D01*
X10048304Y1822876D01*
X10047912Y1824845D01*
X10046092Y1829239D01*
X10044976Y1830910D01*
X10044207Y1832765D01*
X10041565Y1836719D01*
X10040146Y1838138D01*
X10039030Y1839808D01*
X10037349Y1841489D01*
X10037349Y1841490D01*
X10037348Y1841490D01*
X10031490Y1847348D01*
X10031489Y1847349D01*
X10029808Y1849030D01*
X10028139Y1850145D01*
X10026719Y1851565D01*
X10022765Y1854207D01*
X10020910Y1854976D01*
X10019239Y1856092D01*
X10014846Y1857912D01*
X10012876Y1858304D01*
X10011021Y1859072D01*
X10006356Y1860000D01*
X10004348D01*
X10002378Y1860392D01*
X9640001D01*
X9640000Y1860392D01*
D02*
G37*
%LPD*%
G36*
X10007042Y1839072D02*
X10011436Y1837252D01*
X10015390Y1834610D01*
X10017071Y1832929D01*
X10022929Y1827071D01*
X10024610Y1825390D01*
X10027252Y1821436D01*
X10029072Y1817042D01*
X10030000Y1812378D01*
Y1733117D01*
X10024752Y1706733D01*
X10014457Y1681879D01*
X10003106Y1664892D01*
X9990000Y1650000D01*
Y1650000D01*
X9960780Y1620780D01*
X9952871Y1615495D01*
X9944084Y1611856D01*
X9934756Y1610000D01*
X9681559D01*
X9668366Y1612624D01*
X9655939Y1617771D01*
X9644755Y1625244D01*
X9640000Y1630000D01*
X9635244Y1634755D01*
X9627771Y1645939D01*
X9622624Y1658366D01*
X9620000Y1671559D01*
Y1809220D01*
X9621312Y1815817D01*
X9623886Y1822030D01*
X9627622Y1827622D01*
X9630000Y1830000D01*
Y1830000D01*
X9640000Y1840000D01*
X10002378D01*
X10007042Y1839072D01*
D02*
G37*
D10*
X9970258Y3623066D02*
G03*
X9986712Y3603288I116024J79792D01*
G01*
X9946201Y3688518D02*
G03*
X9970258Y3623066I140081J14340D01*
G01*
X9946081Y3695137D02*
G03*
X9945475Y3702822I-49000J0D01*
G01*
X9946081Y3690952D02*
G03*
X9946202Y3688518I27000J117D01*
G01*
X9945475Y3702822D02*
G03*
X9945469Y3702858I-48394J-7685D01*
G01*
X10120000Y3364790D02*
G03*
X10045605Y3544395I-254000J0D01*
G01*
X9933434Y3779925D02*
G03*
X9933369Y3780336I-48434J-7425D01*
G01*
X9932364Y3786668D02*
G03*
X9918578Y3813673I-48394J-7683D01*
G01*
X10120000Y3173564D02*
G03*
X10129760Y3150000I33324J0D01*
G01*
X9866727Y3849082D02*
G03*
X9856294Y3850206I-10433J-47876D01*
G01*
X9846772D02*
G03*
X9839949Y3849729I0J-49000D01*
G01*
X9400240Y1900000D02*
G03*
X9630000Y2454691I-554691J554691D01*
G01*
X9470836Y2160835D02*
G03*
X9570000Y2400093I-239051J239258D01*
G01*
X9359032Y2049032D02*
G03*
X9310000Y1930794I118046J-118238D01*
G01*
X9897957Y3834294D02*
G03*
X9873701Y3847563I-34688J-34608D01*
G01*
X9310000Y1822427D02*
G03*
X9340000Y1750000I102427J0D01*
G01*
X9570000Y3220000D02*
G03*
X9506360Y3373640I-217280J0D01*
G01*
X9270000Y3715211D02*
G03*
X9344395Y3535605I254000J0D01*
G01*
X9290000Y3790000D02*
G03*
X9270000Y3741716I48284J-48284D01*
G01*
X9338284Y3810000D02*
G03*
X9290000Y3790000I0J-68284D01*
G01*
X9514142Y3795858D02*
G03*
X9480000Y3810000I-34142J-34142D01*
G01*
X9541349Y3754056D02*
G03*
X9520000Y3790000I-81223J-23930D01*
G01*
X9544801Y3730126D02*
G03*
X9541349Y3754056I-84674J0D01*
G01*
X9382759Y1707241D02*
G03*
X9400240Y1700000I17481J17481D01*
G01*
X9630000Y3224790D02*
G03*
X9555605Y3404395I-254000J0D01*
G01*
X9485147Y3520000D02*
G03*
X9630000Y3580000I0J204853D01*
G01*
X9418787Y3541213D02*
G03*
X9470000Y3520000I51214J51214D01*
G01*
X9357082Y3684130D02*
G03*
X9414507Y3545494I196061J0D01*
G01*
X9810673Y3694302D02*
G03*
X9697370Y3647370I0J-160234D01*
G01*
X9992973Y3597027D02*
X10045605Y3544395D01*
X9986712Y3603288D02*
X9992973Y3597027D01*
X9946201Y3688518D02*
X9946201D01*
X9946081Y3690952D02*
Y3695137D01*
Y3690952D02*
Y3690952D01*
X9945469Y3702858D02*
X9945474Y3702822D01*
X10120000Y3173564D02*
Y3364790D01*
X9933434Y3779925D02*
X9945469Y3702858D01*
X9932364Y3786668D02*
X9933369Y3780336D01*
X9846772Y3850206D02*
X9856294D01*
X9630000Y2454691D02*
Y3224790D01*
X9570000Y2400093D02*
Y3220000D01*
X9359032Y2049032D02*
X9470836Y2160835D01*
X9310000Y1822427D02*
Y1930628D01*
X9310000Y1930794D02*
X9310000Y1930628D01*
X9340000Y1750000D02*
X9382759Y1707241D01*
X9885000Y3772500D02*
X9897081Y3695137D01*
X9866727Y3849082D02*
X9873701Y3847563D01*
X9897957Y3834294D02*
X9918578Y3813673D01*
X9787500Y3842501D02*
X9839949Y3849729D01*
X9344395Y3535605D02*
X9506360Y3373640D01*
X9270000Y3715211D02*
Y3741716D01*
X9338284Y3810000D02*
X9480000D01*
X9514142Y3795858D02*
X9520000Y3790000D01*
X9541349Y3754056D02*
X9795224Y3793101D01*
X9544801Y3713482D02*
Y3730126D01*
X9418787Y3541213D02*
X9555605Y3404395D01*
X9470000Y3520000D02*
X9485147D01*
X9414507Y3545493D02*
X9418787Y3541213D01*
X9802949Y3743701D02*
X9810673Y3694302D01*
X9630000Y3580000D02*
X9697370Y3647370D01*
X9795224Y3793101D02*
X9844688Y3800879D01*
X9846772Y3801206D01*
X9856294D01*
X9863269Y3799686D01*
X9883970Y3778985D01*
X9885000Y3772500D01*
X9873617Y3653696D02*
X9882266Y3655073D01*
X9896244Y3669051D01*
X9897081Y3675682D02*
Y3695137D01*
X9818397Y3644901D02*
X9873617Y3653696D01*
X9896244Y3669051D02*
X9897081Y3675682D01*
D11*
X2469363Y5238340D02*
G03*
X2365832Y5175605I76075J-242340D01*
G01*
X2545437Y5250000D02*
G03*
X2469363Y5238340I0J-254000D01*
G01*
X2580058Y5250000D02*
G03*
X2469363Y5238340I0J-531269D01*
G01*
X1464593Y4349999D02*
G03*
X1593762Y4403535I0J182596D01*
G01*
X2589574Y3388425D02*
G03*
X2277900Y3517499I-311674J-311759D01*
G01*
X7483848Y1540000D02*
G03*
X7169844Y1409844I0J-443848D01*
G01*
X7025147Y1350000D02*
G03*
X7169844Y1409844I0J204853D01*
G01*
X6285838Y1424162D02*
G03*
X6465210Y1350000I179372J179838D01*
G01*
X6285509Y1424490D02*
G03*
X6030652Y1530000I-254858J-255047D01*
G01*
X5570000Y1480000D02*
G03*
X5582699Y1474740I12699J12699D01*
G01*
X9838893Y1259701D02*
G03*
X9162193Y1540000I-676701J-676700D01*
G01*
X2065605Y1364395D02*
G03*
X2245210Y1290000I179605J179605D01*
G01*
X5387616Y1634576D02*
G03*
X5280000Y1590000I0J-152192D01*
G01*
X6727503Y5010000D02*
G03*
X6868429Y5068429I1J199163D01*
G01*
X7378347Y5280000D02*
G03*
X6869037Y5069037I0J-720275D01*
G01*
X8620000Y4910000D02*
G03*
X8571897Y5026284I-164605J-1D01*
G01*
X8571788Y5026393D02*
G03*
X8152665Y5200000I-419123J-419122D01*
G01*
X8620000Y4885210D02*
G03*
X8694395Y4705605I254000J0D01*
G01*
X8935605Y4464395D02*
G03*
X9115210Y4390000I179605J179605D01*
G01*
X3452164Y5250000D02*
G03*
X4939514Y5866165I1J2103224D01*
G01*
X9623935Y5290000D02*
G03*
X8868380Y4976954I0J-1068311D01*
G01*
X9647574Y5290000D02*
G03*
X9720000Y5320000I0J102426D01*
G01*
X6640119Y4560000D02*
G03*
X7106362Y4753124I1J659367D01*
G01*
X5870000Y5070000D02*
G03*
X6014854Y5010000I144854J144854D01*
G01*
X5870000Y5070000D02*
G03*
X5729878Y5128041I-140122J-140122D01*
G01*
X7402644Y5200000D02*
G03*
X6937028Y5007028I0J-658221D01*
G01*
X6770416Y4928040D02*
G03*
X6920000Y4990000I0J211543D01*
G01*
X5508568Y5567985D02*
G03*
X5610000Y5610000I0J143447D01*
G01*
X5015352Y5942003D02*
G03*
X5015404Y5942055I-173904J174007D01*
G01*
X650000Y4830000D02*
G03*
X683231Y4807864I71848J71848D01*
G01*
X2101112Y3517499D02*
G03*
X2010000Y3479760I0J-128852D01*
G01*
X1874475Y340000D02*
G03*
X2669320Y669320I1J1123875D01*
G01*
X1442235Y487765D02*
G03*
X1798973Y340000I356737J356738D01*
G01*
X3938549Y1195404D02*
G03*
X2669776Y669776I0J-1794111D01*
G01*
X1439384Y490615D02*
G03*
X1259779Y565010I-179605J-179605D01*
G01*
X5200058Y4773161D02*
G03*
X5120000Y4740000I0J-113219D01*
G01*
X5140058Y4973161D02*
G03*
X5060000Y4940000I0J-113219D01*
G01*
X3056568Y3360000D02*
G03*
X2960000Y3320000I0J-136568D01*
G01*
X2911716Y3300000D02*
G03*
X2960000Y3320000I0J68284D01*
G01*
X2620000Y3357999D02*
G03*
X2760022Y3300000I140023J140023D01*
G01*
X3471520Y3285605D02*
G03*
X3291915Y3360000I-179605J-179605D01*
G01*
X1715935Y910240D02*
G03*
X1655023Y885010I0J-86142D01*
G01*
X8564514Y2426196D02*
G03*
X8490120Y2605801I-254000J0D01*
G01*
X7789037Y2259175D02*
G03*
X7714642Y2438780I-254000J0D01*
G01*
X9679964Y4409965D02*
G03*
X9680000Y4410000I-48249J48320D01*
G01*
X9631716Y4390000D02*
G03*
X9679964Y4409965I0J68284D01*
G01*
X8666770Y5125605D02*
G03*
X8294028Y5280000I-372742J-372742D01*
G01*
X8974415Y4895585D02*
G03*
X8841901Y4950474I-132514J-132514D01*
G01*
X569760Y5032500D02*
G03*
X506152Y5006152I0J-89955D01*
G01*
X5523065Y4873161D02*
G03*
X5414135Y4828041I0J-154049D01*
G01*
X5463065Y5073161D02*
G03*
X5354135Y5028041I0J-154049D01*
G01*
X9504449Y4172119D02*
G03*
X9500000Y4124790I249551J-47330D01*
G01*
X9574395Y4304395D02*
G03*
X9504449Y4172119I179605J-179605D01*
G01*
X9720000Y5320000D02*
G03*
X9760000Y5416568I-96568J96568D01*
G01*
X9312281Y4452508D02*
G03*
X9237886Y4632114I-254000J0D01*
G01*
X10119760Y3140000D02*
X10129760Y3150000D01*
X2147548Y4957321D02*
X2365832Y5175605D01*
X2580058Y5250000D02*
X2580059D01*
X2545437D02*
X2580058D01*
X2580059D02*
X3451938D01*
X1593762Y4403535D02*
X2147548Y4957321D01*
X1930000Y1500000D02*
X2065605Y1364395D01*
X2589844Y3388154D02*
X2620000Y3357999D01*
X2150000Y3517499D02*
X2277675D01*
X2277900Y3517499D01*
X2589574Y3388425D02*
X2589844Y3388154D01*
X1464434Y4350000D02*
X1464593Y4349999D01*
X650000Y4350000D02*
X1464434D01*
X6465210Y1350000D02*
X7025147D01*
X6285509Y1424490D02*
X6285838Y1424162D01*
X5820000Y1530000D02*
X6030426D01*
X6030652Y1530000D01*
X7483848Y1540000D02*
X9161967D01*
X9162193Y1540000D01*
X5582699Y1474740D02*
X5608760D01*
X5550000Y1480000D02*
X5570000D01*
X5608760Y1474740D02*
X5820000Y1530000D01*
X4890587Y1290000D02*
X5550000Y1480000D01*
X4324790Y1290000D02*
X4890587D01*
X2245210Y1290000D02*
X4324790D01*
X5387616Y1634576D02*
X5442013D01*
X6357574Y5010000D02*
X6727503D01*
X6868429Y5068429D02*
X6869037Y5069037D01*
X7378347Y5280000D02*
X8294028D01*
X6014854Y5010000D02*
X6357574D01*
X8571788Y5026393D02*
X8571897Y5026284D01*
X8620000Y4885210D02*
Y4910000D01*
X8694395Y4705605D02*
X8935605Y4464395D01*
X8152440Y5200000D02*
X8152665Y5200000D01*
X7402644Y5200000D02*
X8152440D01*
X4939514Y5866165D02*
X5015352Y5942003D01*
X3451938Y5250000D02*
X3452164Y5250000D01*
X8841901Y4950474D02*
X8868380Y4976954D01*
X9623935Y5290000D02*
X9647574D01*
X5190000Y4560000D02*
X6639894D01*
X6640119Y4560000D01*
X5694375Y5128041D02*
X5729878D01*
X9574395Y4304395D02*
X9645858Y4375858D01*
X6920000Y4990000D02*
X6937028Y5007028D01*
X5754136Y4928040D02*
X6770416D01*
X5610000Y5610000D02*
X5620000Y5620000D01*
X5454576Y5567985D02*
X5508568D01*
X2101112Y3517499D02*
X2150000D01*
X2669320Y669320D02*
X2669776Y669776D01*
X1874249Y340000D02*
X1874475Y340000D01*
X1799198Y340000D02*
X1874249D01*
X1798973Y340000D02*
X1799198Y340000D01*
X1439384Y490615D02*
X1442015Y487985D01*
X1442234Y487765D01*
X1175023Y565010D02*
X1259779D01*
X3938549Y1195404D02*
X5067944D01*
X3056568Y3360000D02*
X3291915D01*
X2760022Y3300000D02*
X2911716D01*
X1809999Y3479759D02*
X2009999D01*
X3471520Y3285605D02*
X3488541Y3268584D01*
X1715935Y910240D02*
X1870000D01*
X5200058Y4773161D02*
X5221313D01*
X5140058Y4973161D02*
X5161313D01*
X8450576Y2645344D02*
X8490120Y2605801D01*
X8564514Y2159037D02*
Y2426196D01*
X7635576Y2517846D02*
X7714642Y2438780D01*
X7789037Y2025486D02*
Y2259175D01*
X9480000Y4390000D02*
X9631716D01*
X9115210D02*
X9190000D01*
X8666770Y5125605D02*
X8841901Y4950474D01*
X330000Y4830000D02*
X506152Y5006152D01*
X5523065Y4873161D02*
X5561313D01*
X5463065Y5073161D02*
X5501553D01*
X9040240Y1700000D02*
X9199760D01*
X9040240Y1900000D02*
X9199760D01*
X9500000Y4000000D02*
Y4124790D01*
X9760000Y5416568D02*
Y5439760D01*
X9312281Y3970648D02*
Y4452508D01*
X8974415Y4895585D02*
X9237886Y4632114D01*
X10080000Y2282501D02*
X10137499Y2340000D01*
X10080000Y2070000D02*
Y2282501D01*
X10109760Y2950000D02*
X10119760Y2960000D01*
Y3140000D01*
D12*
X200000Y3060000D02*
G03*
X242596Y2957164I145433J0D01*
G01*
X274395Y3254395D02*
G03*
X200000Y3074790I179605J-179605D01*
G01*
X414645Y3394645D02*
G03*
X450000Y3480000I-85355J85355D01*
G01*
X373733Y3046267D02*
G03*
X340000Y3060240I-33733J-33733D01*
G01*
Y2428995D02*
G03*
X410000Y2260000I238994J0D01*
G01*
D02*
G03*
X530712Y2209999I120712J120712D01*
G01*
X6008901Y5970000D02*
G03*
X4713156Y5433156I0J-1832150D01*
G01*
X5999631Y5898000D02*
G03*
X4750546Y5380546I0J-1766314D01*
G01*
X3876660Y5010000D02*
G03*
X4736033Y5366033I1J1215167D01*
G01*
X3954657Y5100000D02*
G03*
X4680875Y5400874I1J1026867D01*
G01*
X2814210Y2035789D02*
G03*
X2634789Y2110000I-179421J-179789D01*
G01*
X2814394Y2035605D02*
G03*
X3262485Y1850000I448090J448091D01*
G01*
X2809028Y2140972D02*
G03*
X3342502Y1920000I533473J533474D01*
G01*
X2800000Y2150000D02*
G03*
X2655149Y2209999I-144851J-144851D01*
G01*
X5473124Y3578637D02*
G03*
X5190000Y2895115I683521J-683521D01*
G01*
X4613181Y1985519D02*
G03*
X4909800Y2182261I-337676J831072D01*
G01*
X4605744Y1982536D02*
G03*
X4613181Y1985519I-330239J834055D01*
G01*
X4275504Y1919537D02*
G03*
X4555285Y1964283I1J897054D01*
G01*
X4910002Y2182462D02*
G03*
X5190000Y2858562I-676277J676100D01*
G01*
X1460000Y2497529D02*
G03*
X1534395Y2317924I254000J0D01*
G01*
X4555285Y1964283D02*
G03*
X4558337Y1965291I-279780J852308D01*
G01*
X4257623Y1916726D02*
G03*
X4235707Y1905705I6147J-39526D01*
G01*
X4137574Y1850000D02*
G03*
X4210000Y1880000I0J102426D01*
G01*
X1681851Y2171472D02*
G03*
X1847528Y2110000I165677J192528D01*
G01*
X1667923Y2184395D02*
G03*
X1681851Y2171472I179605J179605D01*
G01*
X3774790Y1920000D02*
G03*
X3954395Y1994395I0J254000D01*
G01*
X7356568Y4170000D02*
G03*
X7260000Y4130000I0J-136568D01*
G01*
X7091005Y4060000D02*
G03*
X7260000Y4130000I0J238995D01*
G01*
X7091005Y4060000D02*
G03*
X7088067Y4059892I0J-40001D01*
G01*
X7519850Y4170000D02*
G03*
X8156504Y4433776I1J900205D01*
G01*
X2887725Y4361975D02*
G03*
X2640000Y3763895I598106J-598080D01*
G01*
X4659792Y4942000D02*
G03*
X5056249Y5106249I0J560600D01*
G01*
X5516430Y5308999D02*
G03*
X5076854Y5126854I0J-621495D01*
G01*
X3485622Y1995041D02*
G03*
X3898027Y2165928I-151J583440D01*
G01*
X2716397Y2313602D02*
G03*
X3485622Y1995041I769074J769075D01*
G01*
X3898107Y2166008D02*
G03*
X3917338Y2212548I-46699J46540D01*
G01*
X3476661Y4941754D02*
G03*
X3400000Y4910000I0J-108414D01*
G01*
X4629845Y4720155D02*
G03*
X4332570Y4880000I-335932J-268400D01*
G01*
X4540826Y4719174D02*
G03*
X4309342Y4815059I-231485J-231484D01*
G01*
X2804448Y4369007D02*
G03*
X2804869Y4369499I-30173J26261D01*
G01*
X3773939Y4815059D02*
G03*
X2870966Y4440965I0J-1276830D01*
G01*
X3760663Y4880000D02*
G03*
X2837574Y4497574I0J-1305276D01*
G01*
X2865131Y4435131D02*
G03*
X2804869Y4369499I736229J-736477D01*
G01*
X2827807Y4487807D02*
G03*
X2460000Y3600000I887582J-887806D01*
G01*
X3582704Y4650000D02*
G03*
X2887725Y4361975I0J-982476D01*
G01*
X2804448Y4369007D02*
G03*
X2659878Y4143675I695264J-605112D01*
G01*
X2809923Y2350076D02*
G03*
X3340973Y2130109I531049J531050D01*
G01*
D02*
G03*
X3356763Y2136649I0J22330D01*
G01*
X10090000Y5386367D02*
G03*
X10016550Y5563690I-250773J-1D01*
G01*
X5155605Y4194395D02*
G03*
X5335210Y4120000I179605J179605D01*
G01*
X2659878Y4143675D02*
G03*
X2560000Y3698653I941482J-445021D01*
G01*
X10010000Y4650000D02*
G03*
X10047254Y4739940I-89940J89940D01*
G01*
X10010000Y4650000D02*
G03*
X9950000Y4505147I144853J-144853D01*
G01*
X8456310Y5970000D02*
G03*
X9337499Y6335000I1J1246189D01*
G01*
X9537202Y5555296D02*
G03*
X8707502Y5898002I-827786J-828377D01*
G01*
X5127605Y4132395D02*
G03*
X5307210Y4058000I179605J179605D01*
G01*
X4239232Y4575605D02*
G03*
X4059627Y4650000I-179605J-179605D01*
G01*
X699288Y2849999D02*
G03*
X820000Y2900000I0J170713D01*
G01*
X899999Y2945211D02*
G03*
X973070Y2768635I249883J-1D01*
G01*
X973070Y2768635D02*
G03*
X1259314Y2650000I286244J286008D01*
G01*
X1534395Y2734395D02*
G03*
X1460000Y2554790I179605J-179605D01*
G01*
X1545605Y2745605D02*
G03*
X1620000Y2925210I-179605J179605D01*
G01*
X980000Y2942416D02*
G03*
X988549Y2901451I102420J0D01*
G01*
D02*
G03*
X1009998Y2869994I93871J40965D01*
G01*
X1724851Y2689999D02*
G03*
X1580000Y2630000I0J-204851D01*
G01*
X1600000Y2340000D02*
G03*
X1720712Y2289999I120712J120712D01*
G01*
X1580000Y2630000D02*
G03*
X1530000Y2509290I120710J-120710D01*
G01*
Y2500000D02*
G03*
X1593640Y2346360I217279J0D01*
G01*
X2620000Y2849999D02*
G03*
X2580000Y2753432I96568J-96568D01*
G01*
Y2520000D02*
G03*
X2629497Y2400503I168995J0D01*
G01*
X2100000Y2430000D02*
G03*
X2051717Y2449999I-48283J-48283D01*
G01*
X2069288Y2770000D02*
G03*
X2190000Y2820000I0J170712D01*
G01*
X2366000Y3103999D02*
G03*
X2191874Y3031874I0J-246250D01*
G01*
X1770239Y1819999D02*
G03*
X1724447Y1930553I-156346J0D01*
G01*
X2380000Y2459760D02*
G03*
X2210427Y2530000I-169573J-169573D01*
G01*
X2258709Y2610000D02*
G03*
X2380000Y2660240I0J171531D01*
G01*
X7050022Y4058000D02*
G03*
X7072134Y4058775I0J316000D01*
G01*
X1380000Y1462664D02*
G03*
X1409999Y1390239I102424J0D01*
G01*
X1460000Y1634970D02*
G03*
X1534394Y1455364I254000J0D01*
G01*
X1300000Y3283431D02*
G03*
X1260000Y3380000I-136569J0D01*
G01*
X1090000Y3650000D02*
G03*
X1160710Y3479289I241421J0D01*
G01*
X1164394Y3884395D02*
G03*
X1090000Y3704789I179605J-179605D01*
G01*
X1220000Y3281715D02*
G03*
X1199999Y3329999I-68285J0D01*
G01*
X951585Y3655912D02*
G03*
X869289Y3690000I-82296J-82297D01*
G01*
X991687Y3595896D02*
G03*
X1107815Y3422184I494198J204705D01*
G01*
X991686Y3595896D02*
G03*
X951585Y3655912I-170909J-70793D01*
G01*
X1480000Y3319999D02*
G03*
X1460000Y3271715I48284J-48284D01*
G01*
X1429759Y3499999D02*
G03*
X1380000Y3379869I120130J-120130D01*
G01*
X2100789Y2689999D02*
G03*
X2280394Y2764394I0J254000D01*
G01*
X1557478Y3299978D02*
G03*
X1540000Y3257751I42270J-42227D01*
G01*
X1662500Y3372499D02*
G03*
X1607018Y3349519I0J-78462D01*
G01*
X1662500Y3372499D02*
G03*
X1709445Y3391945I0J66391D01*
G01*
X1991004Y2929999D02*
G03*
X2159999Y3000000I0J238995D01*
G01*
X1879869Y3010000D02*
G03*
X1999999Y3059759I0J169890D01*
G01*
X1609196Y3449196D02*
G03*
X1630239Y3499999I-50804J50804D01*
G01*
X1809999Y3479759D02*
G03*
X1788251Y3470751I0J-30757D01*
G01*
X1515845Y784155D02*
G03*
X1695450Y709761I179605J179605D01*
G01*
X1480000Y870692D02*
G03*
X1515845Y784155I122381J0D01*
G01*
X8690000Y1820000D02*
G03*
X8809088Y1869327I0J168415D01*
G01*
X7050022Y4120000D02*
G03*
X7229627Y4194395I0J254000D01*
G01*
X9859049Y3949055D02*
G03*
X9943029Y4017436I12027J70988D01*
G01*
X9831541Y3953716D02*
G03*
X9820740Y3954289I-7826J-45380D01*
G01*
X9960000Y5620240D02*
G03*
X9911716Y5640240I-48284J-48284D01*
G01*
X340000Y2428995D02*
Y2859760D01*
X242596Y2957164D02*
X340000Y2859760D01*
X200000Y3060000D02*
Y3074790D01*
X274395Y3254395D02*
X414645Y3394645D01*
X373733Y3046267D02*
X490000Y2930000D01*
X530712Y2209999D02*
X645000D01*
X2640000Y3650000D02*
Y3763693D01*
X2560000Y3590000D02*
Y3698452D01*
X2460000Y3565000D02*
Y3600000D01*
X1060000Y3184999D02*
X1060000Y2960000D01*
X6008901Y5970000D02*
X8456108D01*
X4680875Y5400874D02*
X4713156Y5433156D01*
X4736033Y5366033D02*
X4750546Y5380546D01*
X5999631Y5898000D02*
X8706474D01*
X3420000Y5010000D02*
X3876459D01*
X3876660Y5010000D01*
X3460000Y5100000D02*
X3954455D01*
X3954657Y5100000D01*
X3262687Y1850000D02*
X4137574D01*
X3262485Y1850000D02*
X3262687Y1850000D01*
X2814210Y2035789D02*
X2814394Y2035605D01*
X3342703Y1920000D02*
X3774790D01*
X2800000Y2150000D02*
X2808843Y2141157D01*
X3342502Y1920000D02*
X3342703Y1920000D01*
X2808843Y2141157D02*
X2809028Y2140971D01*
X1795000Y2209999D02*
X2655149D01*
X5190000Y2858562D02*
Y2894914D01*
X5190000Y2895115D02*
X5190000Y2894914D01*
X4558337Y1965291D02*
X4594090Y1970882D01*
X4909800Y2182261D02*
X4910002Y2182462D01*
X4272444Y1919056D02*
X4275504Y1919537D01*
X4594090Y1970882D02*
X4605744Y1982536D01*
X4257623Y1916726D02*
X4272444Y1919056D01*
X4235605Y1905605D02*
X4235707Y1905705D01*
X4210000Y1880000D02*
X4235605Y1905605D01*
X1847528Y2110000D02*
X2634789D01*
X1534394Y2317924D02*
X1646140Y2206178D01*
X1667923Y2184395D01*
X3954395Y1994395D02*
X4050000Y2090000D01*
X7519648Y4170000D02*
X7519850Y4170000D01*
X7356568Y4170000D02*
X7519648D01*
X2640000Y3763895D02*
X2640000Y3763693D01*
X3734982Y4942000D02*
X4659649D01*
X4659792Y4942000D01*
X5056249Y5106249D02*
X5076854Y5126854D01*
X5516430Y5308999D02*
X6110000D01*
X8156504Y4433776D02*
X8178075Y4455348D01*
X2629497Y2400503D02*
X2716240Y2313759D01*
X2716397Y2313602D01*
X3898027Y2165928D02*
X3898107Y2166008D01*
X3734736Y4941754D02*
X3734982Y4942000D01*
X3476661Y4941754D02*
X3734736D01*
X4629845Y4720154D02*
X4631384Y4718615D01*
X4330724Y4880000D02*
X4332570Y4880000D01*
X4631384Y4718615D02*
X5155605Y4194394D01*
X3760663Y4880000D02*
X4330724D01*
X4540826Y4719174D02*
X4541011Y4718989D01*
X4309140Y4815059D02*
X4309342Y4815058D01*
X2865131Y4435131D02*
X2870966Y4440965D01*
X3582704Y4650000D02*
X3582906Y4650000D01*
X2827807Y4487807D02*
X2837574Y4497574D01*
X3773939Y4815059D02*
X4309140D01*
X3582906Y4650000D02*
X4059627D01*
X2660000Y2500000D02*
X2809738Y2350262D01*
X2809923Y2350076D01*
X3356763Y2136649D02*
X3390342Y2170228D01*
X10090000Y5242142D02*
Y5386165D01*
X9960000Y5620240D02*
X10016365Y5563875D01*
X10016550Y5563690D01*
X10090000Y5386367D02*
X10090000Y5386165D01*
X4541011Y4718989D02*
X5127605Y4132395D01*
X2280394Y2764394D02*
X2366000Y2849999D01*
X2560000Y3698653D02*
X2560000Y3698452D01*
X10047254Y4739940D02*
Y5138946D01*
X8456108Y5970000D02*
X8456310Y5970000D01*
X8706474Y5898000D02*
X8707502Y5898001D01*
X9537202Y5555296D02*
X9537499Y5555000D01*
X6110000Y5308999D02*
X6679326Y5308999D01*
X5335210Y4120000D02*
X7050022D01*
X5307210Y4058000D02*
X7050022D01*
X4239232Y4575605D02*
X4272255Y4542582D01*
X645000Y2689999D02*
X645000Y2690000D01*
X910000D01*
X1259516Y2650000D02*
X1380000D01*
X1259314Y2650000D02*
X1259516Y2650000D01*
X1460000Y2497529D02*
Y2554790D01*
X1534395Y2734395D02*
X1545605Y2745605D01*
X1620000Y2925210D02*
Y3184999D01*
X1140000Y3040000D02*
X1140000Y3040000D01*
X1140000Y3040000D02*
Y3184999D01*
X980000Y2942416D02*
Y3184999D01*
X645000Y2849999D02*
X699288D01*
X6679326Y5308999D02*
X6682745Y5312418D01*
X1795000Y2689999D02*
X2100789D01*
X1724851D02*
X1795000D01*
X1720712Y2289999D02*
X1795000D01*
X1593640Y2346360D02*
X1600000Y2340000D01*
X1530000Y2500000D02*
Y2509290D01*
X809999Y2289999D02*
X810000Y2290000D01*
X645000Y2289999D02*
X809999D01*
X645000Y2450000D02*
X810000D01*
X645000Y2449999D02*
X645000Y2450000D01*
X450000Y2370000D02*
X644999D01*
X645000Y2370000D01*
X644999Y2530000D02*
X645000Y2530000D01*
X430000Y2530000D02*
X644999D01*
X2580000Y2520000D02*
Y2753432D01*
X900000Y2945211D02*
Y3184999D01*
X490000Y2930000D02*
X490001Y2929999D01*
X645000D01*
X1380000Y1462664D02*
Y2034999D01*
Y2210000D02*
X1380000Y2210000D01*
X1380000Y2034999D02*
Y2210000D01*
X1220000Y1390239D02*
Y2034999D01*
Y2209999D02*
X1220000Y2210000D01*
X1220000Y2034999D02*
Y2209999D01*
X3917338Y2212548D02*
Y2252630D01*
X1770239Y1619999D02*
Y1819999D01*
X1795000Y2530000D02*
X2210427D01*
X2029999Y2370000D02*
X2030000Y2370000D01*
X1795000Y2370000D02*
X2029999D01*
X1795000Y2449999D02*
X2051717D01*
X1795000Y2610000D02*
X2258709D01*
X7072134Y4058774D02*
X7088067Y4059892D01*
X1534394Y1455364D02*
X1569759Y1419999D01*
X1460000Y1634970D02*
Y2034999D01*
X1795000Y2770000D02*
X2069288D01*
X1300000Y3184999D02*
Y3283431D01*
X1160710Y3479289D02*
X1260000Y3380000D01*
X1090000Y3650000D02*
Y3704789D01*
X1164394Y3884395D02*
X1250000Y3970000D01*
X1220000Y3184999D02*
Y3281715D01*
X869087Y3690000D02*
X869289Y3690000D01*
X1107815Y3422184D02*
X1108108Y3421892D01*
X829999Y3690000D02*
X869087D01*
X1108108Y3421892D02*
X1200000Y3329999D01*
X1460000Y3184999D02*
Y3271715D01*
X1480000Y3319999D02*
X1609196Y3449196D01*
X1380000Y3184999D02*
Y3379869D01*
X1540000Y3184999D02*
Y3257751D01*
X1557500Y3299999D02*
X1607019Y3349519D01*
X1557478Y3299978D02*
X1557500Y3299999D01*
X2159999Y3000000D02*
X2191874Y3031874D01*
X1460000Y3020000D02*
Y3184999D01*
X1620000Y2034999D02*
X1724447Y1930553D01*
X1795000Y2929999D02*
X1991004D01*
X1795000Y3010000D02*
X1879869D01*
X1709445Y3391945D02*
X1788251Y3470751D01*
X1480000Y870692D02*
Y890000D01*
X1695450Y709761D02*
X1870000D01*
X8690000Y1700000D02*
X8839760D01*
X8839760Y1700000D01*
X8809087Y1869327D02*
X8839760Y1900000D01*
X7229627Y4194395D02*
X7363075Y4327843D01*
X9831541Y3953715D02*
X9859049Y3949055D01*
X9950000Y4200000D02*
Y4505147D01*
X9770507Y3951181D02*
X9820740Y3954289D01*
X9943029Y4017436D02*
X9950000Y4200000D01*
X9760000Y5640240D02*
X9911716D01*
D13*
X5908502Y1810000D02*
G03*
X6150202Y1910202I0J341605D01*
G01*
X6425394Y2030000D02*
G03*
X6160120Y1920120I0J-375155D01*
G01*
X4446770Y1380000D02*
G03*
X4725569Y1495569I1J394071D01*
G01*
X5466618Y1810000D02*
G03*
X4738187Y1508187I0J-1029948D01*
G01*
X2059498Y1550503D02*
G03*
X1940000Y1600000I-119498J-119498D01*
G01*
X2155605Y1454395D02*
G03*
X2335210Y1380000I179605J179605D01*
G01*
X7160000Y4450000D02*
G03*
X7125858Y4435858I0J-48284D01*
G01*
X6956708Y4272154D02*
G03*
X6986569Y4296568I-106708J160983D01*
G01*
X6953438Y4250000D02*
G03*
X7006924Y4272154I0J75640D01*
G01*
X1770239Y1619999D02*
G03*
X1818522Y1600000I48282J48282D01*
G01*
X7591716Y4398284D02*
G03*
X7660000Y4370000I68284J68284D01*
G01*
X7750320D02*
G03*
X7821923Y4399659I0J101263D01*
G01*
X7518284Y4471716D02*
G03*
X7450000Y4500000I-68284J-68284D01*
G01*
X6150202Y1910202D02*
X6160120Y1920120D01*
X5908301Y1810000D02*
X5908502Y1810000D01*
X5466618Y1810000D02*
X5908301D01*
X4725569Y1495569D02*
X4738187Y1508187D01*
X2335210Y1380000D02*
X4446485D01*
X4446770Y1380000D01*
X7590964Y1994514D02*
Y2011151D01*
X7572115Y2030000D02*
X7590964Y2011151D01*
X6425394Y2030000D02*
X7572115D01*
X2059498Y1550503D02*
X2155605Y1454395D01*
X1818522Y1600000D02*
X1940000D01*
X7160000Y4450000D02*
X7450000Y4500000D01*
X6986569Y4296568D02*
X7125858Y4435858D01*
X5520000Y4250000D02*
X6953438D01*
X7660000Y4370000D02*
X7750320D01*
X7518284Y4471716D02*
X7591716Y4398284D01*
D14*
X8137279Y2000000D02*
G03*
X7920000Y1910000I0J-307279D01*
G01*
X9720000Y3388661D02*
G03*
X9689707Y3461795I-103427J0D01*
G01*
X3040000Y4090000D02*
G03*
X2962790Y4121981I-77210J-77210D01*
G01*
X2861738D02*
G03*
X2802017Y4097983I-1738J-81981D01*
G01*
X2790490Y4086455D02*
G03*
X2760000Y4012845I73610J-73610D01*
G01*
Y3793890D02*
G03*
X2795285Y3708704I120472J0D01*
G01*
X2760000Y3590000D02*
G03*
X2795285Y3675186I-85186J85186D01*
G01*
X939678Y1715222D02*
G03*
X914999Y1705000I0J-34900D01*
G01*
X364789Y4650000D02*
G03*
X544395Y4724395I0J254000D01*
G01*
X624773Y1274982D02*
G03*
X681169Y1138831I192547J0D01*
G01*
X874234Y945766D02*
G03*
X960000Y910240I85767J85767D01*
G01*
X682721Y1332930D02*
G03*
X725000Y1435000I-102071J102071D01*
G01*
X914999Y1392072D02*
G03*
X920000Y1380000I17073J0D01*
G01*
X960000Y1283431D02*
G03*
X920000Y1380000I-136570J0D01*
G01*
X9920000Y1960240D02*
G03*
X9965499Y2070086I-109846J109846D01*
G01*
Y2350000D02*
G03*
X9950000Y2432656I-228144J0D01*
G01*
X9720000Y2795210D02*
G03*
X9794395Y2615605I254000J0D01*
G01*
X9898743Y2511256D02*
G03*
X9898677Y2511323I-161389J-161256D01*
G01*
X9950000Y2432656D02*
G03*
X9898743Y2511256I-212645J-82656D01*
G01*
X3007337Y3762388D02*
G03*
X3079036Y3935486I-173098J173098D01*
G01*
X7673996Y1911482D02*
G03*
X7750000Y1880000I76004J76004D01*
G01*
X7847574D02*
G03*
X7920000Y1910000I0J102426D01*
G01*
X8564896Y1960964D02*
X8595486D01*
X8525860Y2000000D02*
X8564896Y1960964D01*
X8137279Y2000000D02*
X8525860D01*
X9720000Y2795210D02*
Y3388661D01*
X2861738Y4121981D02*
X2962790D01*
X2790490Y4086456D02*
X2802017Y4097983D01*
X2760000Y3793890D02*
Y4012845D01*
X2795285Y3675186D02*
Y3708704D01*
X544395Y4724395D02*
X650000Y4830000D01*
X939678Y1715222D02*
X1095013D01*
X320000Y4650000D02*
X364789D01*
X624773Y1274982D02*
X682721Y1332930D01*
X681169Y1138831D02*
X874234Y945766D01*
X960000Y910240D02*
Y1283431D01*
X914999Y1392072D02*
Y1435000D01*
X9965499Y2070086D02*
Y2350000D01*
X9794395Y2615605D02*
X9898677Y2511322D01*
X2983004Y3738056D02*
X3007337Y3762388D01*
X7750000Y1880000D02*
X7847574D01*
X7590964Y1994514D02*
X7673996Y1911482D01*
D15*
X5545440Y1326799D02*
G03*
X5725045Y1401194I0J254000D01*
G01*
X5368342Y1260000D02*
G03*
X5529610Y1326799I0J228068D01*
G01*
X5727440Y1403589D02*
G03*
X5808531Y1370000I81091J81091D01*
G01*
X3527834Y3587500D02*
G03*
X3415486Y3540964I0J-158885D01*
G01*
X3247295Y3471297D02*
G03*
X3415486Y3540964I0J237858D01*
G01*
X3079036Y3995758D02*
G03*
X3040000Y4090000I-133278J0D01*
G01*
X5744395Y3805605D02*
G03*
X5564790Y3880000I-179605J-179605D01*
G01*
X4860000Y3940000D02*
G03*
X5004853Y3880000I144853J144853D01*
G01*
X4804395Y3995605D02*
G03*
X4624790Y4070000I-179605J-179605D01*
G01*
X3566676Y3935486D02*
G03*
X3650000Y3970000I0J117838D01*
G01*
X3855210Y4070000D02*
G03*
X3675605Y3995605I0J-254000D01*
G01*
X5323181Y6080386D02*
G03*
X5266411Y6217440I-193824J0D01*
G01*
X1053230Y4736770D02*
G03*
X900000Y4800240I-153230J-153230D01*
G01*
X1255605Y4534395D02*
G03*
X1435210Y4460000I179605J179605D01*
G01*
X721767Y4800240D02*
G03*
X730632Y4800655I-239J100001D01*
G01*
X721527Y4800240D02*
G03*
X721767Y4800240I2J100001D01*
G01*
X683231Y4807864D02*
G03*
X701637Y4800240I18407J18407D01*
G01*
X751284Y4801992D02*
G03*
X740557Y4801562I-1284J-101992D01*
G01*
X4293976Y2019637D02*
G03*
X4150000Y1960000I0J-203613D01*
G01*
X1630239Y3699999D02*
G03*
X1663972Y3713972I0J47705D01*
G01*
X1630239Y3699999D02*
G03*
X1677945Y3680239I47705J47705D01*
G01*
X4015538Y3350986D02*
G03*
X3977725Y3442275I-129102J0D01*
G01*
X1175023Y885010D02*
G03*
X1114111Y910240I-60911J-60912D01*
G01*
X1294464Y835536D02*
G03*
X1175023Y885010I-119441J-119441D01*
G01*
X4460783Y1821564D02*
G03*
X4533209Y1851564I0J102427D01*
G01*
X4444335Y2189428D02*
G03*
X4502238Y2049637I197695J0D01*
G01*
X3855480Y3564519D02*
G03*
X3800000Y3587500I-55480J-55480D01*
G01*
X4225486Y3670964D02*
G03*
X4191203Y3588199I82764J-82764D01*
G01*
Y3378453D02*
G03*
X4122761Y3543688I-233677J0D01*
G01*
X5808531Y1370000D02*
X6065210D01*
X5290000Y1260000D02*
X5368342D01*
X5529610Y1326799D02*
X5545440D01*
X5725045Y1401194D02*
X5727440Y1403589D01*
X3024715Y3471297D02*
X3247295D01*
X3079036Y3935486D02*
X3566676D01*
X3079036D02*
Y3995758D01*
X5004853Y3880000D02*
X5564790D01*
X5744395Y3805605D02*
X6050000Y3500000D01*
X4804395Y3995605D02*
X4860000Y3940000D01*
X3855210Y4070000D02*
X4624790D01*
X3650000Y3970000D02*
X3675605Y3995605D01*
X5323181Y6029652D02*
Y6080386D01*
X5489652Y6029652D02*
X5490000Y6030000D01*
X5323181Y6029652D02*
X5489652D01*
X1435210Y4460000D02*
X1474142D01*
X751284Y4801992D02*
X900000Y4800240D01*
X1053230Y4736770D02*
X1255605Y4534395D01*
X730632Y4800655D02*
X740557Y4801562D01*
X701638Y4800240D02*
X721527Y4800240D01*
X4293976Y2019637D02*
X4302239D01*
X960000Y910240D02*
X1114111D01*
X2000000Y3260239D02*
X2000239Y3260000D01*
X2130000D01*
X1630239Y3499999D02*
Y3699999D01*
X1663972Y3713972D02*
X1730000Y3780000D01*
X1677945Y3680239D02*
X1809999D01*
X3855481Y3564519D02*
X3977725Y3442275D01*
X1294464Y835536D02*
X1380000Y750000D01*
X1370000D02*
X1380000D01*
X4333210Y1821564D02*
X4460783D01*
X4444335Y2189428D02*
Y2335033D01*
X3527834Y3587500D02*
X3800000D01*
X4191203Y3378453D02*
Y3588199D01*
X4025485Y3640964D02*
X4122761Y3543688D01*
D16*
X10005995Y3185995D02*
G03*
X9900000Y2930240I255555J-255755D01*
G01*
X10050000Y3381936D02*
G03*
X9997054Y3509876I-181051J-0D01*
G01*
D02*
G03*
X9888824Y3554699I-108230J-108255D01*
G01*
X10008773Y3188773D02*
G03*
X10050000Y3288161I-99187J99387D01*
G01*
X9900000Y2930240D02*
X10079760Y2750480D01*
X9900000Y2930240D02*
X9900000Y2930240D01*
X10079760Y2750000D02*
Y2750480D01*
X10005995Y3185995D02*
X10008773Y3188773D01*
X9886735Y3554372D02*
X9888824Y3554699D01*
X9833845Y3546103D02*
X9886735Y3554372D01*
X10050000Y3288161D02*
Y3381936D01*
D17*
X9952596Y5412356D02*
G03*
X9889285Y5245219I153685J-153776D01*
G01*
X9929403Y4950715D02*
G03*
X9925302Y5002506I-330744J-129D01*
G01*
X9723397Y4453397D02*
G03*
X9929403Y4950715I-496972J497189D01*
G01*
X2000000Y3059759D02*
G03*
X2170300Y3130300I0J240841D01*
G01*
X2360000Y3229999D02*
G03*
X2206360Y3166359I0J-217280D01*
G01*
X2719999Y3189999D02*
G03*
X2623431Y3229999I-96568J-96568D01*
G01*
X2750000Y3117573D02*
G03*
X2719999Y3189999I-102427J0D01*
G01*
X2700502Y2930502D02*
G03*
X2750000Y3049999I-119498J119498D01*
G01*
X2004789Y2849999D02*
G03*
X2177322Y2921391I0J244177D01*
G01*
X2318013Y2979181D02*
G03*
X2177448Y2921517I-1341J-196887D01*
G01*
X2362960Y2978136D02*
G03*
X2372043Y2978244I3040J125863D01*
G01*
X2409999Y2980000D02*
G03*
X2556811Y3040811I0J207623D01*
G01*
X10047254Y5138946D02*
G03*
X10090000Y5242142I-103197J103197D01*
G01*
X9952596Y5412356D02*
X9960000Y5419760D01*
X9889480Y5243898D02*
X9925302Y5002507D01*
X9889284Y5245219D02*
X9889480Y5243898D01*
X9680000Y4410000D02*
X9723397Y4453397D01*
X2620000Y2849999D02*
X2700502Y2930502D01*
X2556811Y3040811D02*
X2620000Y3103999D01*
X2170300Y3130300D02*
X2206359Y3166359D01*
X2360000Y3229999D02*
X2623431D01*
X2750000Y3049999D02*
Y3117573D01*
X2177322Y2921391D02*
X2177448Y2921517D01*
X2318013Y2979181D02*
X2318269Y2979175D01*
X2372043Y2978245D02*
X2409999Y2980000D01*
X2318269Y2979175D02*
X2362960Y2978136D01*
X1795000Y2849999D02*
X2004789D01*
X9925302Y5002506D02*
Y5002507D01*
D18*
X10047254Y5138946D02*
D03*
X9770616Y5095690D02*
D03*
D19*
X8841901Y4950474D02*
D03*
D20*
X9690000Y4380000D02*
D03*
D21*
X9900000Y2729760D02*
D03*
Y2930240D02*
D03*
X9960000Y5419760D02*
D03*
Y5620240D02*
D03*
X9760000Y5439760D02*
D03*
Y5640240D02*
D03*
X9920000Y1960240D02*
D03*
Y1759760D02*
D03*
X9720000Y1960240D02*
D03*
Y1759760D02*
D03*
X1210000Y1149759D02*
D03*
Y1350239D02*
D03*
X1419999Y1189759D02*
D03*
Y1390239D02*
D03*
X1095013Y1514742D02*
D03*
Y1715222D02*
D03*
X545013Y1574742D02*
D03*
Y1775222D02*
D03*
X335013Y1574742D02*
D03*
Y1775222D02*
D03*
X2000000Y3059759D02*
D03*
Y3260239D02*
D03*
X1829999Y3479759D02*
D03*
Y3680239D02*
D03*
X2039999Y3680240D02*
D03*
Y3479760D02*
D03*
X2380000Y2459760D02*
D03*
Y2660240D02*
D03*
X1870000Y910240D02*
D03*
Y709761D02*
D03*
X900000Y4599760D02*
D03*
Y4800240D02*
D03*
X960000Y709761D02*
D03*
Y910240D02*
D03*
X340000Y2859760D02*
D03*
Y3060240D02*
D03*
D22*
X10280240Y2750000D02*
D03*
X10079760D02*
D03*
X10310240Y2950000D02*
D03*
X10109760D02*
D03*
X10330240Y3150000D02*
D03*
X10129760D02*
D03*
X9040240Y1900000D02*
D03*
X8839760D02*
D03*
X9040240Y1700000D02*
D03*
X8839760D02*
D03*
X9400240Y1900000D02*
D03*
X9199760D02*
D03*
X9400240Y1700000D02*
D03*
X9199760D02*
D03*
X825253Y1254982D02*
D03*
X624773D02*
D03*
X419760Y2040000D02*
D03*
X620240D02*
D03*
X1579759Y1609999D02*
D03*
X1780239D02*
D03*
X1429759Y3709999D02*
D03*
X1630239D02*
D03*
X1429759Y3489999D02*
D03*
X1630239D02*
D03*
X1569759Y1819999D02*
D03*
X1770239D02*
D03*
X1810239Y1399999D02*
D03*
X1609759D02*
D03*
X770240Y5032500D02*
D03*
X569760D02*
D03*
D23*
X5354135Y5028041D02*
D03*
X5161313Y4973161D02*
D03*
X5414135Y4828041D02*
D03*
X5221313Y4773161D02*
D03*
X5694375Y5128041D02*
D03*
X5501553Y5073161D02*
D03*
X5754136Y4928040D02*
D03*
X5561313Y4873161D02*
D03*
X5073589Y6162560D02*
D03*
X5266411Y6217440D02*
D03*
D24*
X10160000Y3930000D02*
D03*
D25*
X9758920Y4025280D02*
D03*
X9770507Y3951181D02*
D03*
X9843115Y3486823D02*
D03*
X9854701Y3412723D02*
D03*
D26*
X9779776Y3891901D02*
D03*
X9787500Y3842501D02*
D03*
X9795224Y3793101D02*
D03*
X9802949Y3743701D02*
D03*
X9810673Y3694302D02*
D03*
X9818397Y3644901D02*
D03*
X9826121Y3595502D02*
D03*
X9833845Y3546103D02*
D03*
D27*
X10230000Y3640000D02*
D03*
D28*
X8564514Y2159037D02*
D03*
X8595486Y1960964D02*
D03*
X3184514Y3709037D02*
D03*
X3215486Y3510964D02*
D03*
X3384514Y3739037D02*
D03*
X3415486Y3540964D02*
D03*
X4502238Y2049637D02*
D03*
X4533209Y1851564D02*
D03*
X4333210Y1821564D02*
D03*
X4302239Y2019637D02*
D03*
X4194514Y3869037D02*
D03*
X4225486Y3670964D02*
D03*
X3994514Y3839037D02*
D03*
X4025485Y3640964D02*
D03*
D29*
X7789037Y2025486D02*
D03*
X7590964Y1994514D02*
D03*
X2880963Y3904515D02*
D03*
X3079036Y3935486D02*
D03*
D30*
X5672560Y1596411D02*
D03*
X5727440Y1403589D02*
D03*
D31*
X7625696Y2516301D02*
D03*
X7289303Y2463702D02*
D03*
X8104304Y2591201D02*
D03*
X8440696Y2643800D02*
D03*
D32*
X7460826Y2470279D02*
D03*
X8275827Y2597777D02*
D03*
D33*
X7363075Y4327843D02*
D03*
X7006924Y4272154D02*
D03*
X7821923Y4399659D02*
D03*
X8178075Y4455348D02*
D03*
D34*
X650000Y4830000D02*
D03*
X330000D02*
D03*
Y4350000D02*
D03*
X650000D02*
D03*
D35*
X5323181Y6029652D02*
D03*
X5015404Y5942055D02*
D03*
X5146800Y5480388D02*
D03*
X5454576Y5567985D02*
D03*
D36*
X5529610Y1326799D02*
D03*
X5442013Y1634576D02*
D03*
X4980347Y1503181D02*
D03*
X5067944Y1195404D02*
D03*
D37*
X1175023Y885010D02*
D03*
Y565010D02*
D03*
X1655023D02*
D03*
Y885010D02*
D03*
D38*
X9312281Y3970648D02*
D03*
X9406141Y3985324D02*
D03*
X9500000Y4000000D02*
D03*
X9544801Y3713482D02*
D03*
X9450941Y3698806D02*
D03*
X9357082Y3684130D02*
D03*
D39*
X3024715Y3471297D02*
D03*
X2836996Y3441945D02*
D03*
X2795285Y3708704D02*
D03*
X2889145Y3723379D02*
D03*
X2983004Y3738056D02*
D03*
D40*
X725000Y1435000D02*
D03*
X820000D02*
D03*
X914999D02*
D03*
Y1705000D02*
D03*
X725000D02*
D03*
D41*
X1620000Y2034999D02*
D03*
X1540000D02*
D03*
X1460000D02*
D03*
X1380000D02*
D03*
X1300000D02*
D03*
X1220000D02*
D03*
X1140000D02*
D03*
X1060000D02*
D03*
X980000D02*
D03*
X900000D02*
D03*
X820000D02*
D03*
Y3184999D02*
D03*
X900000D02*
D03*
X980000D02*
D03*
X1060000D02*
D03*
X1140000D02*
D03*
X1220000D02*
D03*
X1300000D02*
D03*
X1380000D02*
D03*
X1460000D02*
D03*
X1540000D02*
D03*
X1620000D02*
D03*
D42*
X645000Y2209999D02*
D03*
Y2289999D02*
D03*
Y2370000D02*
D03*
Y2449999D02*
D03*
Y2530000D02*
D03*
Y2610000D02*
D03*
Y2689999D02*
D03*
Y2770000D02*
D03*
Y2849999D02*
D03*
Y2929999D02*
D03*
Y3010000D02*
D03*
X1795000D02*
D03*
Y2929999D02*
D03*
Y2849999D02*
D03*
Y2770000D02*
D03*
Y2689999D02*
D03*
Y2610000D02*
D03*
Y2530000D02*
D03*
Y2449999D02*
D03*
Y2370000D02*
D03*
Y2289999D02*
D03*
Y2209999D02*
D03*
D43*
X8778894Y1259701D02*
D03*
D44*
X9838893D02*
D03*
D45*
X9337499Y6285000D02*
D03*
D46*
X8277500D02*
D03*
D47*
X7702256Y5602583D02*
D03*
X6682745Y5312418D02*
D03*
X3252744Y4252417D02*
D03*
D48*
X5473124Y3578637D02*
D03*
D49*
X5636877Y2531363D02*
D03*
D50*
X4272255Y4542582D02*
D03*
D51*
X7106362Y4753124D02*
D03*
X8153636Y4916878D02*
D03*
D52*
X8477500Y5555000D02*
D03*
X9537499D02*
D03*
X10137499Y2340000D02*
D03*
X9077500D02*
D03*
D53*
X1250000Y3690000D02*
D03*
X829999D02*
D03*
Y3970000D02*
D03*
X1250000D02*
D03*
D54*
X9800000Y6000000D02*
D03*
X650000Y850000D02*
D03*
D55*
X3900000Y5850000D02*
D03*
X150000Y5000000D02*
D03*
X1050000Y5150000D02*
D03*
X2350000Y5400000D02*
D03*
X7540000Y6150000D02*
D03*
X3500000Y550000D02*
D03*
X150000Y2050000D02*
D03*
X4200000Y750000D02*
D03*
X6050000Y1170000D02*
D03*
X5070000Y960000D02*
D03*
X6400000Y6400000D02*
D03*
X7200000D02*
D03*
X150000Y3350000D02*
D03*
X1450000Y250000D02*
D03*
X800000Y550000D02*
D03*
X2800000Y350000D02*
D03*
X7410000Y1370000D02*
D03*
X8430000Y1350000D02*
D03*
X3050000Y5600000D02*
D03*
X4600000Y6050000D02*
D03*
X10010000Y1540000D02*
D03*
X5500000Y6300000D02*
D03*
X150000Y2700000D02*
D03*
Y4000000D02*
D03*
X200000Y1250000D02*
D03*
X2150000Y150000D02*
D03*
X8000000Y6150000D02*
D03*
X9600000Y6450000D02*
D03*
D56*
X9689707Y3461795D02*
X9843115Y3486823D01*
X9630257Y3928419D02*
X9770507Y3951181D01*
X9604188Y3924188D02*
X9630257Y3928419D01*
X9442546Y3890000D02*
X9570000D01*
X9604188Y3924188D01*
X9416164Y3916381D02*
X9428486Y3904059D01*
X9442546Y3890000D01*
X9406141Y3985324D02*
X9413776Y3932806D01*
X9416164Y3916381D01*
D57*
X9910598Y3297981D02*
D03*
D58*
X9777123Y4151609D02*
D03*
D59*
X10288506Y3357072D02*
D03*
X10155031Y4210699D02*
D03*
D60*
X450000Y3480000D02*
D03*
X2620000Y2849999D02*
D03*
D61*
X450000Y3734000D02*
D03*
X2366000Y2849999D02*
D03*
X2620000Y3103999D02*
D03*
X2366000D02*
D03*
X2620000Y3357999D02*
D03*
X2366000D02*
D03*
D62*
X9108893Y1259701D02*
D03*
X9508894D02*
D03*
X9007500Y6285000D02*
D03*
X8607500D02*
D03*
X7384861Y5512248D02*
D03*
X7000139Y5402752D02*
D03*
X5524103Y3252599D02*
D03*
X5585897Y2857401D02*
D03*
X3570139Y4342752D02*
D03*
X3954861Y4452248D02*
D03*
X7432400Y4804103D02*
D03*
X7827598Y4865898D02*
D03*
X8807500Y5555000D02*
D03*
X9207500D02*
D03*
X9807500Y2340000D02*
D03*
X9407500D02*
D03*
D63*
X4366869Y3405921D02*
D03*
X3312876Y3241117D02*
D03*
X3488541Y3268584D02*
D03*
X3664207Y3296051D02*
D03*
X3839873Y3323519D02*
D03*
X4015538Y3350986D02*
D03*
X4191203Y3378453D02*
D03*
X4542534Y3433388D02*
D03*
X3390342Y2170228D02*
D03*
X3566007Y2197696D02*
D03*
X3741673Y2225163D02*
D03*
X3917338Y2252630D02*
D03*
X4093004Y2280098D02*
D03*
X4268669Y2307565D02*
D03*
X4444335Y2335033D02*
D03*
X4620000Y2362500D02*
D03*
D64*
X10030000Y3760000D02*
D03*
X10330000Y3810000D02*
D03*
X6500000Y1850000D02*
D03*
X6460000Y1540000D02*
D03*
X6940000Y1560000D02*
D03*
X9650000Y1120000D02*
D03*
X8560000Y4530000D02*
D03*
X8510000Y4940000D02*
D03*
X10220000Y4570000D02*
D03*
X10150000Y4900000D02*
D03*
X9410000Y4530000D02*
D03*
X9090000Y5020000D02*
D03*
X8930000Y5210000D02*
D03*
X9970000Y5750000D02*
D03*
X9300000Y5360000D02*
D03*
X8990000Y5980000D02*
D03*
X8080000Y5600000D02*
D03*
X9110000Y6440000D02*
D03*
X5340000Y3090000D02*
D03*
X4740000Y4160000D02*
D03*
X3620000Y4730000D02*
D03*
X6270000Y4360000D02*
D03*
X6970000Y4490000D02*
D03*
X6350000Y4650000D02*
D03*
X5420000Y4340000D02*
D03*
X5100000Y4390000D02*
D03*
X5720000Y4470000D02*
D03*
X6900000Y4860000D02*
D03*
X5910000Y4650000D02*
D03*
X6000000Y5090000D02*
D03*
X5870000Y5390000D02*
D03*
X6280000Y5400000D02*
D03*
X5910000Y5790000D02*
D03*
X6600000Y5810000D02*
D03*
X6900000Y5240000D02*
D03*
X7070000Y5800000D02*
D03*
X7260000Y6170000D02*
D03*
X6810000Y6360000D02*
D03*
X6600000Y6110000D02*
D03*
X5930000Y6360000D02*
D03*
X5720000Y4780000D02*
D03*
X5560000Y5230000D02*
D03*
X5270000Y5150000D02*
D03*
X5080000Y4830000D02*
D03*
X4650000Y4410000D02*
D03*
X4700000Y3910000D02*
D03*
X4440000Y4680000D02*
D03*
X4110000Y4320000D02*
D03*
X4740000Y4800000D02*
D03*
X4500000Y5030000D02*
D03*
X5270000Y5630000D02*
D03*
X3980000Y5560000D02*
D03*
X4520000Y5420000D02*
D03*
X3920000Y5200000D02*
D03*
X4270000Y5920000D02*
D03*
X3530000Y5680000D02*
D03*
X1690000Y4330000D02*
D03*
X2020000D02*
D03*
X2390000D02*
D03*
X2990000Y4920000D02*
D03*
X2760000Y4650000D02*
D03*
X2350000Y4680000D02*
D03*
X2720000Y5110000D02*
D03*
X3230000Y5150000D02*
D03*
X2750000Y5430000D02*
D03*
X1080000Y4880000D02*
D03*
X500000Y5170000D02*
D03*
X150000Y3680000D02*
D03*
X5710000Y3970000D02*
D03*
X5430000Y3770000D02*
D03*
X5190000Y3400000D02*
D03*
X4840000Y3700000D02*
D03*
X5710000Y3400000D02*
D03*
X210000Y2390000D02*
D03*
X1930000Y1730000D02*
D03*
X2270000Y1520000D02*
D03*
X2230000Y850000D02*
D03*
X2610000Y1190000D02*
D03*
X3230000Y1200000D02*
D03*
X3780000Y940000D02*
D03*
X3100000Y710000D02*
D03*
X2450000Y600000D02*
D03*
X2640000Y3650000D02*
D03*
X2560000Y3590000D02*
D03*
X2460000Y3565000D02*
D03*
X8770000Y2430000D02*
D03*
X9470000Y3170000D02*
D03*
Y2700000D02*
D03*
X7960000Y2130000D02*
D03*
X7190000Y1690000D02*
D03*
X8160000Y1910000D02*
D03*
X8440000D02*
D03*
X8240000Y1620000D02*
D03*
X7860000D02*
D03*
X7480000Y1640000D02*
D03*
X7100000Y2220000D02*
D03*
X9920000Y1660000D02*
D03*
X6130000Y2040000D02*
D03*
X6350000Y2290000D02*
D03*
X5810000Y2040000D02*
D03*
X5980000Y2290000D02*
D03*
X5640000D02*
D03*
X5290000Y2270000D02*
D03*
X4980000Y2140000D02*
D03*
X5510000Y2040000D02*
D03*
X5010000Y1830000D02*
D03*
X4720000Y1630000D02*
D03*
X4690000Y1920000D02*
D03*
X4390000Y1530000D02*
D03*
X4030000Y1510000D02*
D03*
X3710000D02*
D03*
X3380000D02*
D03*
X2970000Y1530000D02*
D03*
X3550000Y1770000D02*
D03*
X4190000D02*
D03*
X3860000D02*
D03*
X3220000D02*
D03*
X2890000Y1840000D02*
D03*
X2220000Y2440000D02*
D03*
X2580000Y1690000D02*
D03*
X2220000Y2030000D02*
D03*
X5230000Y2000000D02*
D03*
X6250000Y1620000D02*
D03*
X5280000Y1590000D02*
D03*
X4050000Y2090000D02*
D03*
X3400000Y4910000D02*
D03*
X3420000Y5010000D02*
D03*
X2150000Y4090000D02*
D03*
X3460000Y5100000D02*
D03*
X5190000Y4560000D02*
D03*
X1970000Y2290000D02*
D03*
X5620000Y5620000D02*
D03*
X910000Y2690000D02*
D03*
X2260000Y4020000D02*
D03*
X1380000Y2650000D02*
D03*
X2150000Y4190000D02*
D03*
X1140000Y3040000D02*
D03*
X1060000Y2960000D02*
D03*
X1009998Y2869994D02*
D03*
X820000Y2900000D02*
D03*
X1640000Y2410000D02*
D03*
X810000Y2290000D02*
D03*
Y2450000D02*
D03*
X1930000Y1500000D02*
D03*
X450000Y2370000D02*
D03*
X430000Y2530000D02*
D03*
X2660000Y2500000D02*
D03*
X5000000Y3070000D02*
D03*
X4730000Y3450000D02*
D03*
X9210000Y3020000D02*
D03*
X9320000Y3390000D02*
D03*
X9220000Y3900000D02*
D03*
X8900000Y4220000D02*
D03*
X8470000Y4180000D02*
D03*
X8010000Y4100000D02*
D03*
X7540000Y4040000D02*
D03*
X7080000Y3970000D02*
D03*
X6580000Y3900000D02*
D03*
X8750000Y2870000D02*
D03*
X8250000Y2810000D02*
D03*
X7770000Y2720000D02*
D03*
X6990000Y2600000D02*
D03*
X6520000Y2580000D02*
D03*
X6180000Y3680000D02*
D03*
X6160000Y3230000D02*
D03*
X6250000Y2870000D02*
D03*
X3030000Y2550000D02*
D03*
X2990000Y2880000D02*
D03*
X2980000Y3170000D02*
D03*
X490000Y2930000D02*
D03*
X1380000Y2210000D02*
D03*
X1220000D02*
D03*
X2100000Y2430000D02*
D03*
X2030000Y2370000D02*
D03*
X1720000Y1980000D02*
D03*
X350000Y1890000D02*
D03*
X550000D02*
D03*
X730000Y1840000D02*
D03*
X840000Y1110000D02*
D03*
X539999Y1460000D02*
D03*
X340000D02*
D03*
X820000Y1580000D02*
D03*
X2190000Y2820000D02*
D03*
X1809999Y1269999D02*
D03*
X1080000Y2210000D02*
D03*
X939999Y2209999D02*
D03*
X2510000Y2470000D02*
D03*
X1640000Y2570000D02*
D03*
X830000Y2610000D02*
D03*
Y2770000D02*
D03*
X1400000Y2950000D02*
D03*
X1240000Y3550000D02*
D03*
X1429999Y3859999D02*
D03*
X2199999Y3709999D02*
D03*
X1429999Y4030000D02*
D03*
X919999Y3530000D02*
D03*
X649999Y3679999D02*
D03*
Y3839999D02*
D03*
Y4010000D02*
D03*
X909999Y4119999D02*
D03*
X1069999D02*
D03*
X1230000D02*
D03*
X1539999Y2209999D02*
D03*
X210000Y2210000D02*
D03*
X510000Y3060000D02*
D03*
X1579999Y1260000D02*
D03*
X1070000Y1240000D02*
D03*
X759999Y3530000D02*
D03*
X730000Y2040000D02*
D03*
X2130000Y3260000D02*
D03*
X1730000Y3780000D02*
D03*
X1460000Y3020000D02*
D03*
X1480000Y890000D02*
D03*
X5120000Y4740000D02*
D03*
X5060000Y4940000D02*
D03*
X320000Y4650000D02*
D03*
X8690000Y1700000D02*
D03*
Y1820000D02*
D03*
X9480000Y4390000D02*
D03*
X9190000D02*
D03*
X5990000Y6110000D02*
D03*
X10080000Y2070000D02*
D03*
X9720000Y2080000D02*
D03*
X1420000Y640000D02*
D03*
X2620000Y2030000D02*
D03*
X990000Y590000D02*
D03*
X2020000Y580000D02*
D03*
X750000Y4700000D02*
D03*
X200000Y4370000D02*
D03*
X300000Y4510000D02*
D03*
X1400000Y4830000D02*
D03*
X2350000Y5050000D02*
D03*
X1830000Y5080000D02*
D03*
X1290000Y4660000D02*
D03*
X1040000Y4600000D02*
D03*
X5720000Y2750000D02*
D03*
X5460000Y2700000D02*
D03*
X4330000Y3900000D02*
D03*
X3880000Y3740000D02*
D03*
X2860000Y4040000D02*
D03*
X3540000Y3700000D02*
D03*
X2910000Y3610000D02*
D03*
X3470000Y4160000D02*
D03*
X3010000Y4320000D02*
D03*
X4980000Y5300000D02*
D03*
X1050000Y1400000D02*
D03*
X4960000Y6120000D02*
D03*
X6920000Y6100000D02*
D03*
X6110000Y6110000D02*
D03*
X8480000Y6450000D02*
D03*
X7990000Y4720000D02*
D03*
X7940000Y5050000D02*
D03*
X7460000Y5710000D02*
D03*
X7560000Y5380000D02*
D03*
X8660000D02*
D03*
Y5740000D02*
D03*
X8430000Y6100000D02*
D03*
X8130000Y6050000D02*
D03*
X9620000Y4960000D02*
D03*
X9590000Y5170000D02*
D03*
X9470000Y3590000D02*
D03*
X10180000Y2630000D02*
D03*
X9960000Y2600000D02*
D03*
X9250000Y2200000D02*
D03*
Y2500000D02*
D03*
X8950000Y1400000D02*
D03*
X6980000Y1850000D02*
D03*
X7880000Y2550000D02*
D03*
X7430000Y2600000D02*
D03*
X8140000Y2420000D02*
D03*
X7430000Y2150000D02*
D03*
X5820000Y1650000D02*
D03*
X5620000Y1710000D02*
D03*
X5140000Y1550000D02*
D03*
X4830000Y1460000D02*
D03*
X3110000Y2270000D02*
D03*
X4840000Y2400000D02*
D03*
X10180000Y2010000D02*
D03*
X10310000Y2600000D02*
D03*
X2360000Y2300000D02*
D03*
X9410000Y4130000D02*
D03*
D65*
X5290000Y1260000D02*
D03*
X6065210Y1370000D02*
D03*
X6050000Y3500000D02*
D03*
X2760000Y3590000D02*
D03*
X5490000Y6030000D02*
D03*
X1474142Y4460000D02*
D03*
X5520000Y4250000D02*
D03*
X3040000Y4090000D02*
D03*
X1370000Y750000D02*
D03*
X4150000Y1960000D02*
D03*
D66*
X9689707Y3461795D02*
D03*
X9630000Y3930000D02*
D03*
D67*
X3900000Y5850000D02*
D03*
X150000Y5000000D02*
D03*
X1050000Y5150000D02*
D03*
X2350000Y5400000D02*
D03*
X7540000Y6150000D02*
D03*
X3500000Y550000D02*
D03*
X150000Y2050000D02*
D03*
X4200000Y750000D02*
D03*
X6050000Y1170000D02*
D03*
X5070000Y960000D02*
D03*
X6400000Y6400000D02*
D03*
X7200000D02*
D03*
X150000Y3350000D02*
D03*
X1450000Y250000D02*
D03*
X800000Y550000D02*
D03*
X2800000Y350000D02*
D03*
X7410000Y1370000D02*
D03*
X8430000Y1350000D02*
D03*
X3050000Y5600000D02*
D03*
X4600000Y6050000D02*
D03*
X10010000Y1540000D02*
D03*
X5500000Y6300000D02*
D03*
X150000Y2700000D02*
D03*
Y4000000D02*
D03*
X200000Y1250000D02*
D03*
X2150000Y150000D02*
D03*
X8000000Y6150000D02*
D03*
X9600000Y6450000D02*
D03*
%TF.MD5,ebdafd33940a4d414ef4d8e9ae316a94*%
M02*
