%TF.GenerationSoftware,KiCad,Pcbnew,(6.0.10)*%
%TF.CreationDate,2023-01-19T12:38:20+01:00*%
%TF.ProjectId,QMKMouse,514d4b4d-6f75-4736-952e-6b696361645f,2.001*%
%TF.SameCoordinates,PX5c0b167PY839143b*%
%TF.FileFunction,Plated,1,4,PTH,Mixed*%
%TF.FilePolarity,Positive*%
%FSLAX46Y46*%
G04 Gerber Fmt 4.6, Leading zero omitted, Abs format (unit mm)*
G04 Created by KiCad (PCBNEW (6.0.10)) date 2023-01-19 12:38:20*
%MOMM*%
%LPD*%
G01*
G04 APERTURE LIST*
G04 Aperture macros list*
%AMHorizOval*
0 Thick line with rounded ends*
0 $1 width*
0 $2 $3 position (X,Y) of the first rounded end (center of the circle)*
0 $4 $5 position (X,Y) of the second rounded end (center of the circle)*
0 Add line between two ends*
20,1,$1,$2,$3,$4,$5,0*
0 Add two circle primitives to create the rounded ends*
1,1,$1,$2,$3*
1,1,$1,$4,$5*%
G04 Aperture macros list end*
%TA.AperFunction,ViaDrill*%
%ADD10C,0.300000*%
%TD*%
%TA.AperFunction,ViaDrill*%
%ADD11C,0.400000*%
%TD*%
%TA.AperFunction,ViaDrill*%
%ADD12C,0.500000*%
%TD*%
%TA.AperFunction,ViaDrill*%
%ADD13C,0.508000*%
%TD*%
G04 aperture for slot hole*
%TA.AperFunction,ComponentDrill*%
%ADD14HorizOval,0.600000X-0.493997X-0.077243X0.493997X0.077243X0*%
%TD*%
G04 aperture for slot hole*
%TA.AperFunction,ComponentDrill*%
%ADD15HorizOval,0.600000X-0.642197X-0.100416X0.642197X0.100416X0*%
%TD*%
%TA.AperFunction,ComponentDrill*%
%ADD16C,0.700000*%
%TD*%
%TA.AperFunction,ComponentDrill*%
%ADD17C,1.016000*%
%TD*%
%TA.AperFunction,ComponentDrill*%
%ADD18C,1.200000*%
%TD*%
G04 APERTURE END LIST*
D10*
X1500000Y36800000D03*
X2000002Y43700000D03*
X2100002Y23900000D03*
X2100002Y22100000D03*
X3000000Y45100000D03*
X3200002Y46500000D03*
X3399996Y14600000D03*
X3500000Y18899998D03*
X4300000Y25300000D03*
X4500002Y23700000D03*
X4900000Y29300000D03*
X5000000Y51700000D03*
X5100000Y30600000D03*
X5399995Y14600000D03*
X5500002Y18899998D03*
X6499995Y40099996D03*
X6499995Y38399994D03*
X6499995Y36799995D03*
X7300000Y20400000D03*
X7300000Y18400000D03*
X7500000Y47000000D03*
X7599996Y35299995D03*
X8100000Y24500000D03*
X8100000Y22900000D03*
X8200000Y29000000D03*
X8200002Y15800000D03*
X8299997Y27699995D03*
X8299997Y26099996D03*
X8400000Y11100000D03*
X9099993Y41199994D03*
X9100000Y26900000D03*
X9199995Y35299995D03*
X9399995Y22099994D03*
X9900000Y5900000D03*
X10099980Y28699942D03*
X10400000Y46000000D03*
X10500000Y14000000D03*
X10600000Y29600000D03*
X10699994Y41199994D03*
X10700000Y12400000D03*
X10800002Y48800000D03*
X10800002Y22100000D03*
X11400000Y30400000D03*
X12200002Y22100000D03*
X12299996Y41199994D03*
X12400000Y35500000D03*
X12900000Y46600000D03*
X13800000Y26500000D03*
X13800000Y22100000D03*
X14000000Y48300000D03*
X14000000Y29500000D03*
X14200000Y6400000D03*
X14299995Y40299995D03*
X14299995Y38599994D03*
X14599997Y30199995D03*
X14800002Y8900000D03*
X15399995Y22099994D03*
X15799992Y12599995D03*
X16400000Y25700000D03*
X16400000Y24100000D03*
X16900000Y43300000D03*
X17200002Y19800000D03*
X17299997Y37799995D03*
X18099992Y12699995D03*
X18300000Y50800000D03*
X19300000Y17300000D03*
X19300000Y15000000D03*
X19700002Y22900000D03*
X20200000Y43300000D03*
X20200000Y5800000D03*
X20300000Y23700000D03*
X21000002Y24300000D03*
X21299996Y32599996D03*
X21500000Y41900000D03*
X21500000Y40900000D03*
X21900000Y28200000D03*
X21999995Y37099994D03*
X22200000Y24400000D03*
X22200000Y20300000D03*
X22300002Y8500000D03*
X22600000Y40200000D03*
X22700000Y15200000D03*
X23500002Y50500000D03*
X23500002Y46800000D03*
X23600002Y23000000D03*
X23900000Y43300000D03*
X24500000Y6000000D03*
X24600000Y35650000D03*
X25100000Y24700000D03*
X25600000Y35900000D03*
X25800000Y16900000D03*
X26100002Y11900000D03*
X26200002Y20300000D03*
X26400000Y36500000D03*
X26600000Y25000000D03*
X27200000Y51100000D03*
X27500002Y54300000D03*
X27600000Y46500000D03*
X28600002Y40400000D03*
X28900000Y18400000D03*
X29100000Y36100000D03*
X29700000Y15300000D03*
X29800000Y31700000D03*
X29900002Y49200000D03*
X29900002Y28800000D03*
X30100000Y43200000D03*
X30300000Y25500000D03*
X31000000Y7100000D03*
X31100000Y22700000D03*
X32200000Y17700000D03*
X32300000Y51500000D03*
X32300000Y12000000D03*
X33800002Y15100000D03*
X34000000Y49100000D03*
X34200000Y50100000D03*
X34600000Y51000000D03*
X34700000Y41600000D03*
X35300000Y56800000D03*
X35400000Y37000000D03*
X35500000Y17700000D03*
X36200002Y47300000D03*
X37100000Y15100000D03*
X37800000Y9400000D03*
X38600000Y17700000D03*
X38800002Y37400000D03*
X39200000Y52000000D03*
X39800000Y55600000D03*
X40300000Y15100000D03*
X40500000Y20900000D03*
X41100000Y43200000D03*
X41900000Y17700000D03*
X42700002Y59200000D03*
X43300000Y39000000D03*
X43900002Y15300000D03*
X44400000Y46800000D03*
X45000000Y50300000D03*
X45200002Y54200000D03*
X46500002Y44100000D03*
X46900000Y19200000D03*
X47000000Y39100000D03*
X47200000Y16300000D03*
X47300000Y34500000D03*
X47400000Y48000000D03*
X47400000Y41600000D03*
X48300000Y14600000D03*
X48400000Y37000000D03*
X48400000Y24000000D03*
X49600000Y61200000D03*
X49800000Y53000000D03*
X49800000Y21400000D03*
X50000000Y30700000D03*
X50100000Y18300000D03*
X50600000Y49400000D03*
X50800000Y48300000D03*
X51000000Y43900000D03*
X51200000Y47400000D03*
X51400000Y15500000D03*
X51900000Y45600000D03*
X51900000Y34000000D03*
X52300000Y20000000D03*
X52700000Y56300000D03*
X52700000Y51500000D03*
X52800002Y15900000D03*
X52900002Y22700000D03*
X53400000Y30900000D03*
X54200000Y43400000D03*
X54300000Y37700000D03*
X54600000Y27000000D03*
X55100000Y20400000D03*
X55600000Y52300000D03*
X56200000Y56200000D03*
X56200000Y17100000D03*
X56400000Y22900000D03*
X57100000Y39700000D03*
X57100000Y34000000D03*
X57200000Y47800000D03*
X57200000Y44700000D03*
X57200000Y27500000D03*
X58100000Y20400000D03*
X58200000Y16500000D03*
X58700000Y53900000D03*
X59100002Y57900000D03*
X59100002Y46500000D03*
X59300000Y63600000D03*
X59800000Y22900000D03*
X59899998Y61100002D03*
X60000000Y50900000D03*
X61099998Y61100002D03*
X61300000Y20400000D03*
X61600002Y32300000D03*
X61800002Y36800000D03*
X62500000Y28700000D03*
X62500000Y16200000D03*
X62700000Y43600000D03*
X62800000Y54000000D03*
X63500000Y46500000D03*
X63500000Y22900000D03*
X64600000Y15400000D03*
X65000000Y18500000D03*
X65200000Y25800000D03*
X65800000Y39000000D03*
X66000000Y61100000D03*
X66000000Y58100000D03*
X68100002Y63600000D03*
X69000000Y52400000D03*
X69000000Y48600000D03*
X69200000Y61000000D03*
X69400002Y15600000D03*
X69700000Y44900000D03*
X69800000Y18500000D03*
X69900000Y26000000D03*
X70700000Y58000000D03*
X70800000Y39700000D03*
X71000000Y22200000D03*
X71900002Y16900000D03*
X72600000Y61700000D03*
X74300002Y26000000D03*
X74300002Y21500000D03*
X74600000Y57100000D03*
X74800000Y16400000D03*
X75400000Y40400000D03*
X75600002Y53800000D03*
X77700000Y27200000D03*
X78600000Y16200000D03*
X78800000Y25500000D03*
X79400002Y50500000D03*
X79600000Y21300000D03*
X79900000Y47200000D03*
X80100000Y41000000D03*
X80800002Y56000000D03*
X81300000Y60500000D03*
X81400000Y24200000D03*
X81600000Y19100000D03*
X82400000Y16200000D03*
X82500000Y28100000D03*
X84300000Y61000000D03*
X84400000Y19100000D03*
X84700000Y41800000D03*
X84800000Y64500000D03*
X85100000Y49400000D03*
X85600000Y45300000D03*
X86600000Y57400000D03*
X86600000Y53800000D03*
X86900000Y18200000D03*
X86900000Y17000000D03*
X87500000Y28700000D03*
X87700000Y24300000D03*
X89000000Y42200000D03*
X89300000Y52100000D03*
X89500000Y14000000D03*
X89900000Y59800000D03*
X90900002Y50200000D03*
X91100000Y64400000D03*
X91900000Y43900000D03*
X92100002Y30200000D03*
X92200002Y39000000D03*
X92500000Y25000000D03*
X92500000Y22000000D03*
X93000000Y53600000D03*
X93200000Y33900000D03*
X94100000Y45300000D03*
X94100000Y41300000D03*
X94700002Y35900000D03*
X94700002Y31700000D03*
X94700002Y27000000D03*
X94800002Y43900000D03*
X95900002Y51700000D03*
X96200000Y49600000D03*
X96500000Y11200000D03*
X97200002Y20800000D03*
X99200000Y16600000D03*
X99600000Y26000000D03*
X99700002Y57500000D03*
X100300000Y37600000D03*
X100800000Y20700000D03*
X101500000Y49000000D03*
X101800000Y26300000D03*
X101800000Y20100000D03*
X102200000Y45700000D03*
X103100000Y26000000D03*
X103300000Y38100000D03*
D11*
X96300000Y39300000D03*
X96897071Y34617947D03*
D12*
X13700000Y7500000D03*
X14741422Y44600000D03*
X27600000Y35900000D03*
X30400000Y40900000D03*
X41500000Y19600000D03*
X52900002Y12600000D03*
X54900000Y60300000D03*
X55200000Y42500000D03*
X60500002Y35000000D03*
X60652102Y13700000D03*
D13*
X1500000Y50000000D03*
X1500000Y40000000D03*
X1500000Y33500000D03*
X1500000Y27000000D03*
X1500000Y20500000D03*
X2000002Y12500000D03*
X8000000Y5500000D03*
X10500000Y51500000D03*
X14500000Y2500000D03*
X21500000Y1500000D03*
X23500002Y54000000D03*
X28000000Y3500000D03*
X30500000Y56000000D03*
X35000002Y5500000D03*
X39000000Y58500000D03*
X42000000Y7500000D03*
X46000000Y60500000D03*
X50700000Y9600000D03*
X55000000Y63000000D03*
X60500002Y11700000D03*
X64000000Y64000000D03*
X72000000Y64000000D03*
X74100002Y13699998D03*
X75400000Y61500000D03*
X80000000Y61500000D03*
X84300002Y13500000D03*
X96000002Y64500000D03*
X100100000Y15400000D03*
D14*
%TO.C,USB.J.3*%
X97771224Y41516081D03*
X99105984Y32979806D03*
D15*
X101550307Y42106991D03*
X102885066Y33570717D03*
D16*
%TO.C,MOS.U.2*%
X33128761Y32411149D03*
X33903436Y21702262D03*
X34885415Y32685825D03*
X35660090Y21976942D03*
X36642071Y32960501D03*
X37416746Y22251617D03*
X38398732Y33235179D03*
X39173396Y22526293D03*
X40155380Y33509854D03*
X40930055Y22800971D03*
X41912036Y33784530D03*
X42686712Y23075647D03*
X43668690Y34059207D03*
X44443364Y23350327D03*
X45425345Y34333883D03*
X46200021Y23625001D03*
D17*
%TO.C,MCU.J.4*%
X4500002Y37340000D03*
X4500002Y34800000D03*
%TO.C,MCU.J.1*%
X23659997Y33579994D03*
X23659997Y31039994D03*
X23659997Y28499994D03*
X26199997Y33579994D03*
X26199997Y31039994D03*
X26199997Y28499994D03*
D18*
%TO.C,BTN.SW.7*%
X35701392Y43427518D03*
X39548608Y44522481D03*
%TO.C,BTN.SW.6*%
X55241033Y32525993D03*
X55858975Y28574012D03*
%TO.C,BTN.SW.5*%
X70001392Y54027517D03*
X73848608Y55122480D03*
%TO.C,BTN.SW.8*%
X74324002Y48041034D03*
X78275983Y48658975D03*
%TO.C,BTN.SW.4*%
X86074997Y62850004D03*
%TO.C,LBS.SW.1*%
X88074998Y55550000D03*
%TO.C,BTN.SW.4*%
X90075000Y62850004D03*
%TO.C,BTN.SW.3*%
X91088935Y12597008D03*
%TO.C,LBS.SW.1*%
X92075000Y55550000D03*
%TO.C,LBS.SW.2*%
X94074997Y23400000D03*
%TO.C,BTN.SW.3*%
X95088937Y12597008D03*
%TO.C,LBS.SW.2*%
X98075000Y23400000D03*
M02*
