%TF.GenerationSoftware,KiCad,Pcbnew,(6.0.10)*%
%TF.CreationDate,2023-01-19T11:38:05+01:00*%
%TF.ProjectId,QMKMouse,514d4b4d-6f75-4736-952e-6b696361645f,2.001*%
%TF.SameCoordinates,PX5c0b167PY839143b*%
%TF.FileFunction,Copper,L2,Inr*%
%TF.FilePolarity,Positive*%
%FSLAX45Y45*%
G04 Gerber Fmt 4.5, Leading zero omitted, Abs format (unit mm)*
G04 Created by KiCad (PCBNEW (6.0.10)) date 2023-01-19 11:38:05*
%MOMM*%
%LPD*%
G01*
G04 APERTURE LIST*
G04 Aperture macros list*
%AMRoundRect*
0 Rectangle with rounded corners*
0 $1 Rounding radius*
0 $2 $3 $4 $5 $6 $7 $8 $9 X,Y pos of 4 corners*
0 Add a 4 corners polygon primitive as box body*
4,1,4,$2,$3,$4,$5,$6,$7,$8,$9,$2,$3,0*
0 Add four circle primitives for the rounded corners*
1,1,$1+$1,$2,$3*
1,1,$1+$1,$4,$5*
1,1,$1+$1,$6,$7*
1,1,$1+$1,$8,$9*
0 Add four rect primitives between the rounded corners*
20,1,$1+$1,$2,$3,$4,$5,0*
20,1,$1+$1,$4,$5,$6,$7,0*
20,1,$1+$1,$6,$7,$8,$9,0*
20,1,$1+$1,$8,$9,$2,$3,0*%
%AMHorizOval*
0 Thick line with rounded ends*
0 $1 width*
0 $2 $3 position (X,Y) of the first rounded end (center of the circle)*
0 $4 $5 position (X,Y) of the second rounded end (center of the circle)*
0 Add line between two ends*
20,1,$1,$2,$3,$4,$5,0*
0 Add two circle primitives to create the rounded ends*
1,1,$1,$2,$3*
1,1,$1,$4,$5*%
G04 Aperture macros list end*
%TA.AperFunction,ComponentPad*%
%ADD10R,1.778000X1.778000*%
%TD*%
%TA.AperFunction,ComponentPad*%
%ADD11C,1.778000*%
%TD*%
%TA.AperFunction,ComponentPad*%
%ADD12RoundRect,0.550000X-0.493997X-0.077243X-0.493997X-0.077243X0.493997X0.077243X0.493997X0.077243X0*%
%TD*%
%TA.AperFunction,ComponentPad*%
%ADD13RoundRect,0.550000X-0.740996X-0.115865X-0.740996X-0.115865X0.740996X0.115865X0.740996X0.115865X0*%
%TD*%
%TA.AperFunction,ComponentPad*%
%ADD14C,2.000000*%
%TD*%
%TA.AperFunction,ComponentPad*%
%ADD15HorizOval,1.200000X-0.015449X0.098799X0.015449X-0.098799X0*%
%TD*%
%TA.AperFunction,ViaPad*%
%ADD16C,0.600000*%
%TD*%
%TA.AperFunction,ViaPad*%
%ADD17C,0.800000*%
%TD*%
%TA.AperFunction,ViaPad*%
%ADD18C,1.000000*%
%TD*%
%TA.AperFunction,ViaPad*%
%ADD19C,1.016000*%
%TD*%
G04 APERTURE END LIST*
D10*
%TO.N,MISO*%
%TO.C,MCU.J.1*%
X2620000Y2849999D03*
D11*
%TO.N,V_USB*%
X2366000Y2849999D03*
%TO.N,SCLK*%
X2620000Y3103999D03*
%TO.N,MOSI*%
X2366000Y3103999D03*
%TO.N,~{RESET*%
X2620000Y3357999D03*
%TO.N,GND*%
X2366000Y3357999D03*
%TD*%
D12*
%TO.N,GND*%
%TO.C,USB.J.3*%
X9910598Y3297981D03*
X9777122Y4151608D03*
D13*
X10288507Y3357072D03*
X10155031Y4210699D03*
%TD*%
D14*
%TO.N,*%
%TO.C,LBS.SW.2*%
X9807500Y2340000D03*
X9407500Y2340000D03*
%TD*%
%TO.N,*%
%TO.C,BTN.SW.6*%
X5524103Y3252599D03*
X5585898Y2857401D03*
%TD*%
D10*
%TO.N,NetMCU.J.4_1*%
%TO.C,MCU.J.4*%
X450000Y3480000D03*
D11*
%TO.N,GND*%
X450000Y3734000D03*
%TD*%
D14*
%TO.N,*%
%TO.C,BTN.SW.8*%
X7432400Y4804103D03*
X7827598Y4865898D03*
%TD*%
%TO.N,*%
%TO.C,BTN.SW.7*%
X3954861Y4452248D03*
X3570139Y4342752D03*
%TD*%
%TO.N,*%
%TO.C,BTN.SW.3*%
X9508894Y1259701D03*
X9108894Y1259701D03*
%TD*%
%TO.N,*%
%TO.C,BTN.SW.4*%
X8607500Y6285000D03*
X9007500Y6285000D03*
%TD*%
D15*
%TO.N,N/C*%
%TO.C,MOS.U.2*%
X4620002Y2362500D03*
%TO.N,NetMOS.R.4_1*%
X4444336Y2335033D03*
%TO.N,N/C*%
X4268671Y2307565D03*
%TO.N,~{CS*%
X4093005Y2280097D03*
%TO.N,MISO*%
X3917340Y2252629D03*
%TO.N,MOSI*%
X3741675Y2225162D03*
%TO.N,SCLK*%
X3566009Y2197694D03*
%TO.N,NetMCU.U.1_21*%
X3390344Y2170226D03*
%TO.N,GND*%
X3312876Y3241115D03*
%TO.N,~{RESET*%
X3488541Y3268582D03*
%TO.N,N/C*%
X3664207Y3296050D03*
%TO.N,3V3*%
X3839873Y3323518D03*
%TO.N,1V8*%
X4015538Y3350985D03*
%TO.N,NetMOS.C.10_2*%
X4191204Y3378453D03*
%TO.N,N/C*%
X4366869Y3405921D03*
X4542535Y3433388D03*
%TD*%
D14*
%TO.N,*%
%TO.C,BTN.SW.5*%
X7384861Y5512248D03*
X7000139Y5402752D03*
%TD*%
%TO.N,*%
%TO.C,LBS.SW.1*%
X8807500Y5555000D03*
X9207500Y5555000D03*
%TD*%
D16*
%TO.N,NetLED.D.3_2*%
X5620000Y5620000D03*
%TO.N,NetUSB.FB.4_1*%
X9190000Y4390000D03*
X9480000Y4390000D03*
%TO.N,NetMCU.U.1_21*%
X2660000Y2500000D03*
X1380000Y2650000D03*
%TO.N,NetMCU.U.1_18*%
X1140000Y3040000D03*
X5060000Y4940000D03*
%TO.N,NetLED.D.3_2*%
X5280000Y1590000D03*
%TO.N,NetLBS.SW.2_A*%
X10080000Y2070000D03*
X4050000Y2090000D03*
%TO.N,NetLBS.SW.1_A*%
X2150000Y4090000D03*
X820000Y2900000D03*
X3420000Y5010000D03*
%TO.N,NetBTN.SW.8_A*%
X1009998Y2869994D03*
X5190000Y4560000D03*
%TO.N,NetBTN.SW.7_A*%
X2640000Y3650000D03*
X810000Y2450000D03*
%TO.N,NetBTN.SW.5_A*%
X3400000Y4910000D03*
X910000Y2690000D03*
X2260000Y4020000D03*
%TO.N,NetBTN.SW.4_A*%
X3460000Y5100000D03*
X810000Y2290000D03*
X2150000Y4190000D03*
%TO.N,NetBTN.SW.3_A*%
X1930000Y1500000D03*
X450000Y2370000D03*
%TO.N,LEDData*%
X1480000Y890000D03*
X430000Y2530000D03*
%TO.N,NetMCU.U.1_19*%
X5120000Y4740000D03*
X1060000Y2960000D03*
D17*
%TO.N,NetUSB.FB.1_1*%
X9689707Y3461795D03*
X9630000Y3930000D03*
D18*
%TO.N,V_USB*%
X2760000Y3590000D03*
X1474142Y4460000D03*
X5290000Y1260000D03*
D16*
X320000Y4650000D03*
X9920000Y1660000D03*
D18*
X5490000Y6030000D03*
X6065210Y1370000D03*
X3040000Y4090000D03*
X6050000Y3500000D03*
X1370000Y750000D03*
D16*
%TO.N,NetMCU.U.1_41*%
X2460000Y3565000D03*
X1380000Y2210000D03*
%TO.N,NetMCU.U.1_39*%
X1220000Y2210000D03*
X2560000Y3590000D03*
%TO.N,NetMCU.U.1_4*%
X8690000Y1820000D03*
X2100000Y2430000D03*
%TO.N,NetMCU.U.1_3*%
X8690000Y1700000D03*
X2030000Y2370000D03*
%TO.N,~{CS*%
X2190000Y2820000D03*
D18*
%TO.N,1V8*%
X4150000Y1960000D03*
D16*
%TO.N,3V3*%
X490000Y2930000D03*
X1720000Y1980000D03*
X1460000Y3019999D03*
D18*
X5520000Y4250000D03*
D16*
X730000Y1840000D03*
X2130000Y3260000D03*
X550000Y1890000D03*
X1730000Y3779999D03*
X730000Y2040000D03*
X350000Y1890000D03*
%TO.N,GND*%
X8440000Y1910000D03*
X1539999Y2209999D03*
X8080000Y5600000D03*
X1080000Y4880000D03*
X2610000Y1190000D03*
X6520000Y2580000D03*
X2360000Y2300000D03*
X6600000Y5810000D03*
X5290000Y2270000D03*
D19*
X2350000Y5400000D03*
X8430000Y1350000D03*
D16*
X2620000Y2030000D03*
X1429999Y3859999D03*
X5910000Y4650000D03*
X9470000Y3590000D03*
X1069999Y4119999D03*
X6250000Y1620000D03*
X7070000Y5800000D03*
X7430000Y2150000D03*
X8010000Y4100000D03*
X9470000Y2700000D03*
X5100000Y4390000D03*
X8430000Y6100000D03*
X9410000Y4130000D03*
X6970000Y4490000D03*
X1240000Y3550000D03*
X5140000Y1550000D03*
X5190000Y3400000D03*
X8660000Y5740000D03*
X4030000Y1510000D03*
D19*
X7540000Y6150000D03*
X150000Y5000000D03*
D16*
X6940000Y1560000D03*
X9090000Y5020000D03*
D19*
X800000Y550000D03*
D16*
X7540000Y4040000D03*
X6350000Y2290000D03*
X1640000Y2410000D03*
X6580000Y3900000D03*
X3380000Y1510000D03*
X8950000Y1400000D03*
X3110000Y2270000D03*
X3470000Y4160000D03*
X760000Y3529999D03*
X6250000Y2870000D03*
X5720000Y4470000D03*
X2220000Y2440000D03*
X750000Y4700000D03*
X8930000Y5210000D03*
X4520000Y5420000D03*
X1579999Y1260000D03*
X6900000Y5240000D03*
D19*
X3500000Y550000D03*
D16*
X4840000Y3700000D03*
X8160000Y1910000D03*
X8240000Y1620000D03*
D19*
X9600000Y6450000D03*
D16*
X1050000Y1400000D03*
D19*
X10010000Y1540000D03*
X150000Y2700000D03*
D16*
X5910000Y5790000D03*
X3860000Y1770000D03*
X2270000Y1520000D03*
X2890000Y1840000D03*
X6810000Y6360000D03*
X5870000Y5390000D03*
X2020000Y4330000D03*
X8140000Y2420000D03*
X5980000Y2290000D03*
X3550000Y1770000D03*
X6990000Y2600000D03*
X7860000Y1620000D03*
X540000Y1460000D03*
X1040000Y4600000D03*
X340000Y1460000D03*
X9620000Y4960000D03*
X10310000Y2600000D03*
X3880000Y3740000D03*
X5420000Y4340000D03*
X4830000Y1460000D03*
X8470000Y4180000D03*
X8560000Y4530000D03*
X919999Y3529999D03*
X210000Y2210000D03*
X8130000Y6050000D03*
X10330000Y3810000D03*
X10180000Y2010000D03*
X650000Y4010000D03*
X5720000Y2750000D03*
X8660000Y5380000D03*
X9970000Y5750000D03*
X2200000Y3709999D03*
X5270000Y5150000D03*
X5720000Y4780000D03*
X210000Y2390000D03*
X4840000Y2400000D03*
X6460000Y1540000D03*
X3030000Y2550000D03*
X3530000Y5680000D03*
X7460000Y5710000D03*
X6350000Y4650000D03*
X5620000Y1710000D03*
X4190000Y1770000D03*
D19*
X8000000Y6150000D03*
X150000Y2050000D03*
D16*
X9110000Y6440000D03*
X2990000Y2880000D03*
X3010000Y4320000D03*
X6160000Y3230000D03*
X4700000Y3910000D03*
X5820000Y1650000D03*
X200000Y4370000D03*
X5000000Y3070000D03*
X1080000Y2210000D03*
D19*
X2150000Y150000D03*
D16*
X2510000Y2470000D03*
X7560000Y5380000D03*
X9960000Y2600000D03*
X7100000Y2220000D03*
D19*
X2800000Y350000D03*
D16*
X6900000Y4860000D03*
X7880000Y2550000D03*
X5270000Y5630000D03*
X8900000Y4220000D03*
D19*
X5500000Y6300000D03*
D16*
X3920000Y5200000D03*
X2760000Y4650000D03*
D19*
X3900000Y5850000D03*
D16*
X10030000Y3760000D03*
X8480000Y6450000D03*
X7480000Y1640000D03*
X6920000Y6100000D03*
D19*
X4200000Y750000D03*
D16*
X9300000Y5360000D03*
X2350000Y5050000D03*
X1070000Y1240000D03*
X650000Y3839999D03*
X650000Y3679999D03*
X5010000Y1830000D03*
X5560000Y5230000D03*
D19*
X3050000Y5600000D03*
D16*
X830000Y2610000D03*
X2020000Y580000D03*
X4720000Y1630000D03*
X5080000Y4830000D03*
X7940000Y5050000D03*
X7430000Y2600000D03*
X6000000Y5090000D03*
X7260000Y6170000D03*
D19*
X7200000Y6400000D03*
D16*
X6270000Y4360000D03*
X4980000Y2140000D03*
X6280000Y5400000D03*
X7990000Y4720000D03*
X2720000Y5110000D03*
X820000Y1580000D03*
X909999Y4119999D03*
X4960000Y6120000D03*
X150000Y3680000D03*
D19*
X200000Y1250000D03*
D16*
X4730000Y3450000D03*
X1230000Y4119999D03*
X3100000Y710000D03*
X10220000Y4570000D03*
D19*
X150000Y3350000D03*
X1450000Y250000D03*
D16*
X2220000Y2030000D03*
X9250000Y2200000D03*
X9590000Y5170000D03*
X4650000Y4410000D03*
X6500000Y1850000D03*
X1830000Y5080000D03*
X5430000Y3770000D03*
X9650000Y1120000D03*
X500000Y5170000D03*
X4390000Y1530000D03*
X4980000Y5300000D03*
X2970000Y1530000D03*
X5230000Y2000000D03*
X8510000Y4940000D03*
X1690000Y4330000D03*
X5640000Y2290000D03*
X9210000Y3020000D03*
X1400000Y4830000D03*
X6110000Y6110000D03*
X2580000Y1690000D03*
X1640000Y2570000D03*
X1970000Y2290000D03*
X10180000Y2630000D03*
X2450000Y600000D03*
X3220000Y1770000D03*
X8250000Y2810000D03*
X3620000Y4730000D03*
X2390000Y4330000D03*
X3230000Y1200000D03*
X4740000Y4800000D03*
X4440000Y4680000D03*
X4110000Y4320000D03*
X2860000Y4040000D03*
X4270000Y5920000D03*
X9410000Y4530000D03*
X3230000Y5150000D03*
X5510000Y2040000D03*
X5710000Y3400000D03*
D19*
X6400000Y6400000D03*
D16*
X10150000Y4900000D03*
X7770000Y2720000D03*
X8990000Y5980000D03*
D19*
X1050000Y5150000D03*
D16*
X3540000Y3700000D03*
X5990000Y6110000D03*
X2350000Y4680000D03*
X2910000Y3610000D03*
X1809999Y1270000D03*
X510000Y3060000D03*
X840000Y1110000D03*
D19*
X150000Y4000000D03*
D16*
X1290000Y4660000D03*
X3780000Y940000D03*
X9720000Y2080000D03*
X1400000Y2950000D03*
X1930000Y1730000D03*
X830000Y2770000D03*
X5930000Y6360000D03*
X6180000Y3680000D03*
X6600000Y6110000D03*
X4500000Y5030000D03*
X5710000Y3970000D03*
X3980000Y5560000D03*
X8750000Y2870000D03*
X9220000Y3900000D03*
X9470000Y3170000D03*
X3710000Y1510000D03*
D19*
X7410000Y1370000D03*
D16*
X2230000Y850000D03*
X990000Y590000D03*
X6980000Y1850000D03*
X7960000Y2130000D03*
X9250000Y2500000D03*
D19*
X4600000Y6050000D03*
D16*
X5810000Y2040000D03*
X300000Y4510000D03*
D19*
X6050000Y1170000D03*
D16*
X7080000Y3970000D03*
X6130000Y2040000D03*
X5460000Y2700000D03*
X5340000Y3090000D03*
X1420000Y640000D03*
X8770000Y2430000D03*
X939999Y2209999D03*
X4740000Y4160000D03*
X1429999Y4029999D03*
X9320000Y3390000D03*
X4690000Y1920000D03*
X7190000Y1690000D03*
X2750000Y5430000D03*
X2990000Y4920000D03*
D19*
X5070000Y960000D03*
D16*
X4330000Y3900000D03*
X2980000Y3170000D03*
%TD*%
%TA.AperFunction,Conductor*%
%TO.N,GND*%
G36*
X7268116Y6554766D02*
G01*
X7268671Y6554765D01*
X7270054Y6554447D01*
X7271438Y6554760D01*
X7271551Y6554760D01*
X7272763Y6554699D01*
X7284453Y6553547D01*
X7286875Y6553066D01*
X7299497Y6549237D01*
X7299500Y6549236D01*
X7301781Y6548291D01*
X7313415Y6542073D01*
X7315469Y6540701D01*
X7325666Y6532332D01*
X7327413Y6530586D01*
X7335782Y6520388D01*
X7337154Y6518335D01*
X7340420Y6512225D01*
X7343373Y6506702D01*
X7344318Y6504420D01*
X7348148Y6491796D01*
X7348630Y6489374D01*
X7349782Y6477688D01*
X7349842Y6476431D01*
X7349842Y6476430D01*
X7349525Y6475047D01*
X7349838Y6473663D01*
X7349837Y6473179D01*
X7350040Y6471361D01*
X7350040Y6458750D01*
X7349715Y6455904D01*
X7349525Y6455085D01*
X7349525Y6455013D01*
X7349677Y6454343D01*
X7349711Y6453979D01*
X7351269Y6432178D01*
X7351365Y6431738D01*
X7351365Y6431737D01*
X7354899Y6415489D01*
X7356135Y6409807D01*
X7356292Y6409385D01*
X7362853Y6391792D01*
X7364134Y6388356D01*
X7375106Y6368262D01*
X7388825Y6349935D01*
X7405013Y6333746D01*
X7407813Y6331650D01*
X7422979Y6320296D01*
X7422980Y6320295D01*
X7423340Y6320026D01*
X7423736Y6319810D01*
X7443039Y6309269D01*
X7443039Y6309269D01*
X7443434Y6309054D01*
X7464884Y6301053D01*
X7465323Y6300958D01*
X7465323Y6300957D01*
X7478460Y6298100D01*
X7487255Y6296187D01*
X7487703Y6296154D01*
X7509043Y6294628D01*
X7509364Y6294598D01*
X7510018Y6294447D01*
X7510090Y6294447D01*
X7510784Y6294605D01*
X7510784Y6294605D01*
X7510871Y6294625D01*
X7510967Y6294647D01*
X7513769Y6294962D01*
X7748169Y6294962D01*
X7986352Y6294962D01*
X7989198Y6294637D01*
X7990017Y6294447D01*
X7990089Y6294447D01*
X7990747Y6294597D01*
X7991051Y6294625D01*
X8012476Y6296156D01*
X8012476Y6296156D01*
X8012925Y6296188D01*
X8035296Y6301053D01*
X8056748Y6309053D01*
X8057142Y6309269D01*
X8057143Y6309269D01*
X8076446Y6319809D01*
X8076842Y6320025D01*
X8095170Y6333745D01*
X8111359Y6349933D01*
X8112246Y6351118D01*
X8120049Y6361542D01*
X8125079Y6368261D01*
X8126134Y6370194D01*
X8135835Y6387960D01*
X8135835Y6387960D01*
X8136051Y6388355D01*
X8144051Y6409806D01*
X8148917Y6432177D01*
X8150474Y6453965D01*
X8150504Y6454288D01*
X8150656Y6454942D01*
X8150656Y6455013D01*
X8150456Y6455890D01*
X8150140Y6458692D01*
X8150140Y6471303D01*
X8150337Y6473034D01*
X8150338Y6473592D01*
X8150656Y6474975D01*
X8150343Y6476359D01*
X8150343Y6476471D01*
X8150404Y6477684D01*
X8150945Y6483179D01*
X8151556Y6489374D01*
X8152038Y6491796D01*
X8152185Y6492282D01*
X8155867Y6504420D01*
X8156812Y6506701D01*
X8163031Y6518335D01*
X8164403Y6520388D01*
X8172772Y6530586D01*
X8174518Y6532332D01*
X8180617Y6537337D01*
X8184715Y6540701D01*
X8186769Y6542073D01*
X8198402Y6548292D01*
X8200684Y6549237D01*
X8213307Y6553067D01*
X8215729Y6553549D01*
X8227442Y6554704D01*
X8228678Y6554763D01*
X8230056Y6554447D01*
X8231440Y6554760D01*
X8231926Y6554759D01*
X8233742Y6554962D01*
X8894327Y6554962D01*
X9565185Y6554962D01*
X9566917Y6554766D01*
X9567474Y6554765D01*
X9568857Y6554447D01*
X9570241Y6554760D01*
X9571660Y6554758D01*
X9571660Y6554709D01*
X9572455Y6554777D01*
X9584097Y6554169D01*
X9597375Y6553476D01*
X9598680Y6553339D01*
X9612442Y6551169D01*
X9626203Y6548999D01*
X9627487Y6548727D01*
X9654408Y6541546D01*
X9655657Y6541142D01*
X9681687Y6531197D01*
X9682886Y6530665D01*
X9703156Y6520389D01*
X9707737Y6518066D01*
X9708875Y6517412D01*
X9732282Y6502294D01*
X9733345Y6501526D01*
X9755050Y6484054D01*
X9756028Y6483179D01*
X9775796Y6463544D01*
X9776678Y6462571D01*
X9781002Y6457273D01*
X9794296Y6440985D01*
X9795072Y6439925D01*
X9810346Y6416623D01*
X9811008Y6415489D01*
X9822178Y6393820D01*
X9822415Y6393360D01*
X9822674Y6392620D01*
X9822731Y6392646D01*
X9823312Y6391351D01*
X9823591Y6389960D01*
X9824445Y6388827D01*
X9824735Y6388181D01*
X9825529Y6386826D01*
X9878488Y6266140D01*
X9881808Y6258575D01*
X9881908Y6258340D01*
X9920725Y6164684D01*
X9936872Y6125725D01*
X9936969Y6125484D01*
X9989185Y5991774D01*
X9989277Y5991532D01*
X10038728Y5856771D01*
X10038815Y5856526D01*
X10084326Y5724132D01*
X10084636Y5722698D01*
X10084887Y5721941D01*
X10085021Y5720528D01*
X10085754Y5719314D01*
X10086057Y5718396D01*
X10086584Y5717222D01*
X10097443Y5682130D01*
X10097586Y5681629D01*
X10107835Y5642895D01*
X10107958Y5642388D01*
X10116594Y5603260D01*
X10116696Y5602748D01*
X10123112Y5566634D01*
X10123173Y5565470D01*
X10123337Y5564412D01*
X10123236Y5562997D01*
X10123759Y5561678D01*
X10123833Y5561201D01*
X10124315Y5559434D01*
X10428770Y3612315D01*
X10428940Y3611226D01*
X10429014Y3609485D01*
X10429099Y3608934D01*
X10428998Y3607519D01*
X10429521Y3606200D01*
X10429669Y3605246D01*
X10429995Y3604001D01*
X10434916Y3567598D01*
X10434976Y3567079D01*
X10438695Y3527185D01*
X10438733Y3526664D01*
X10440797Y3486649D01*
X10440813Y3486128D01*
X10441185Y3449451D01*
X10441052Y3448288D01*
X10441051Y3448193D01*
X10440781Y3447348D01*
X10440887Y3446588D01*
X10440707Y3445842D01*
X10441005Y3444455D01*
X10440996Y3443735D01*
X10441144Y3442184D01*
X10440164Y3396328D01*
X10438053Y3297658D01*
X10438001Y3295220D01*
X10437992Y3294952D01*
X10434040Y3203057D01*
X10431525Y3144600D01*
X10431511Y3144328D01*
X10429837Y3118452D01*
X10421836Y2994733D01*
X10421799Y2994164D01*
X10421779Y2993895D01*
X10408884Y2844644D01*
X10408826Y2843972D01*
X10408800Y2843702D01*
X10393261Y2700091D01*
X10392612Y2694091D01*
X10392579Y2693821D01*
X10373165Y2544599D01*
X10373127Y2544329D01*
X10350493Y2395556D01*
X10350449Y2395287D01*
X10324609Y2247046D01*
X10324560Y2246778D01*
X10320458Y2225921D01*
X10296520Y2104192D01*
X10295523Y2099123D01*
X10295468Y2098857D01*
X10263559Y1953280D01*
X10263250Y1951867D01*
X10263189Y1951603D01*
X10248306Y1890088D01*
X10227802Y1805336D01*
X10227735Y1805072D01*
X10212594Y1747917D01*
X10192409Y1671725D01*
X10189200Y1659613D01*
X10189128Y1659352D01*
X10174924Y1610059D01*
X10147458Y1514750D01*
X10147380Y1514489D01*
X10102600Y1370831D01*
X10102517Y1370572D01*
X10055768Y1231261D01*
X10055144Y1229945D01*
X10054878Y1229183D01*
X10054123Y1227981D01*
X10053965Y1226571D01*
X10053496Y1225231D01*
X10053438Y1225252D01*
X10053240Y1224480D01*
X10042891Y1199357D01*
X10042279Y1198081D01*
X10027800Y1171775D01*
X10027049Y1170576D01*
X10009711Y1146059D01*
X10008830Y1144952D01*
X9988852Y1122534D01*
X9987853Y1121532D01*
X9965486Y1101496D01*
X9964381Y1100612D01*
X9939909Y1083211D01*
X9938711Y1082457D01*
X9912442Y1067910D01*
X9911167Y1067295D01*
X9883432Y1055786D01*
X9882097Y1055318D01*
X9853247Y1046992D01*
X9851867Y1046676D01*
X9822265Y1041638D01*
X9820858Y1041479D01*
X9810354Y1040889D01*
X9793780Y1039956D01*
X9793008Y1040022D01*
X9793008Y1039946D01*
X9791589Y1039949D01*
X9790206Y1040267D01*
X9788822Y1039953D01*
X9788333Y1039954D01*
X9786521Y1039752D01*
X9157523Y1039921D01*
X8683709Y1040049D01*
X8681969Y1040247D01*
X8681419Y1040248D01*
X8680036Y1040566D01*
X8678652Y1040252D01*
X8678539Y1040253D01*
X8677327Y1040313D01*
X8670771Y1040959D01*
X8665637Y1041464D01*
X8663214Y1041946D01*
X8657957Y1043541D01*
X8650590Y1045775D01*
X8648309Y1046720D01*
X8648169Y1046795D01*
X8636674Y1052939D01*
X8634620Y1054311D01*
X8624423Y1062679D01*
X8622677Y1064426D01*
X8621936Y1065329D01*
X8614307Y1074623D01*
X8612935Y1076677D01*
X8606716Y1088310D01*
X8605771Y1090592D01*
X8601941Y1103216D01*
X8601459Y1105638D01*
X8600383Y1116558D01*
X8600405Y1119233D01*
X8600566Y1119927D01*
X8600566Y1119999D01*
X8600407Y1120693D01*
X8600328Y1121400D01*
X8600343Y1121401D01*
X8600263Y1121927D01*
X8599188Y1135598D01*
X8598933Y1138837D01*
X8598816Y1139324D01*
X8594638Y1156729D01*
X8594523Y1157211D01*
X8587293Y1174669D01*
X8587033Y1175092D01*
X8580058Y1186476D01*
X8577420Y1190781D01*
X8565149Y1205150D01*
X8561395Y1208356D01*
X8551157Y1217101D01*
X8551156Y1217101D01*
X8550780Y1217422D01*
X8534669Y1227296D01*
X8517212Y1234527D01*
X8516731Y1234643D01*
X8516730Y1234643D01*
X8499320Y1238823D01*
X8498838Y1238939D01*
X8491541Y1239513D01*
X8481990Y1240265D01*
X8481479Y1240344D01*
X8481476Y1240323D01*
X8480768Y1240404D01*
X8480072Y1240566D01*
X8480000Y1240566D01*
X8479307Y1240407D01*
X8479306Y1240407D01*
X8479123Y1240366D01*
X8476321Y1240050D01*
X6293739Y1240050D01*
X6290893Y1240376D01*
X6290074Y1240566D01*
X6290002Y1240566D01*
X6289309Y1240407D01*
X6288602Y1240328D01*
X6288600Y1240344D01*
X6288087Y1240266D01*
X6271657Y1238975D01*
X6271656Y1238974D01*
X6271164Y1238936D01*
X6252789Y1234526D01*
X6246996Y1232127D01*
X6235788Y1227485D01*
X6235788Y1227485D01*
X6235330Y1227296D01*
X6219218Y1217423D01*
X6204848Y1205151D01*
X6204527Y1204775D01*
X6204527Y1204775D01*
X6192897Y1191159D01*
X6192897Y1191158D01*
X6192576Y1190782D01*
X6192317Y1190360D01*
X6192317Y1190360D01*
X6188340Y1183871D01*
X6182702Y1174670D01*
X6175471Y1157212D01*
X6171060Y1138837D01*
X6170160Y1127386D01*
X6169735Y1121989D01*
X6169658Y1121486D01*
X6169678Y1121484D01*
X6169597Y1120770D01*
X6169434Y1120071D01*
X6169434Y1120035D01*
X6169434Y1120035D01*
X6169434Y1120035D01*
X6169434Y1119999D01*
X6169594Y1119301D01*
X6169600Y1119242D01*
X6169617Y1116615D01*
X6168536Y1105637D01*
X6168054Y1103214D01*
X6164225Y1090592D01*
X6163280Y1088310D01*
X6157062Y1076678D01*
X6155690Y1074623D01*
X6147321Y1064427D01*
X6145575Y1062681D01*
X6135378Y1054313D01*
X6133324Y1052941D01*
X6121692Y1046724D01*
X6119409Y1045778D01*
X6106786Y1041950D01*
X6104364Y1041468D01*
X6094447Y1040493D01*
X6092574Y1040308D01*
X6091402Y1040252D01*
X6090038Y1040566D01*
X6088654Y1040253D01*
X6088356Y1040253D01*
X6086317Y1040016D01*
X6062588Y1039787D01*
X6060362Y1040031D01*
X6060361Y1040023D01*
X6059653Y1040105D01*
X6058957Y1040266D01*
X6058885Y1040266D01*
X6058441Y1040165D01*
X6057920Y1040131D01*
X5978429Y1038544D01*
X5978429Y1038544D01*
X5978304Y1038542D01*
X5978181Y1038535D01*
X5978178Y1038534D01*
X5908518Y1034361D01*
X5897852Y1033722D01*
X5897731Y1033709D01*
X5897728Y1033709D01*
X5817780Y1025709D01*
X5817778Y1025709D01*
X5817655Y1025697D01*
X5817531Y1025679D01*
X5817531Y1025679D01*
X5737968Y1014497D01*
X5737967Y1014497D01*
X5737843Y1014480D01*
X5672251Y1002577D01*
X5663920Y1001065D01*
X5658541Y1000089D01*
X5579876Y982547D01*
X5549523Y974495D01*
X5502988Y962150D01*
X5502455Y962036D01*
X5502011Y962013D01*
X5501942Y961993D01*
X5501319Y961650D01*
X5501319Y961650D01*
X5501154Y961559D01*
X5498547Y960483D01*
X3906604Y504001D01*
X2489771Y97731D01*
X2488052Y97442D01*
X2487516Y97290D01*
X2486099Y97214D01*
X2484855Y96532D01*
X2483903Y96261D01*
X2482732Y95793D01*
X2403781Y74989D01*
X2403252Y74862D01*
X2320233Y56779D01*
X2319699Y56674D01*
X2235977Y42193D01*
X2235439Y42112D01*
X2151166Y31259D01*
X2150625Y31201D01*
X2102686Y27122D01*
X2065963Y23997D01*
X2065423Y23963D01*
X1980531Y20421D01*
X1979987Y20410D01*
X1941294Y20468D01*
X1895018Y20537D01*
X1894474Y20550D01*
X1809594Y24345D01*
X1809051Y24381D01*
X1724411Y31838D01*
X1723870Y31897D01*
X1639634Y43002D01*
X1639096Y43085D01*
X1555415Y57816D01*
X1554882Y57922D01*
X1471916Y76253D01*
X1471387Y76382D01*
X1437250Y85487D01*
X1389291Y98278D01*
X1388769Y98429D01*
X1335392Y115165D01*
X1307692Y123850D01*
X1307179Y124023D01*
X1227275Y152922D01*
X1226770Y153117D01*
X1187479Y169277D01*
X1148190Y185437D01*
X1147691Y185655D01*
X1070580Y221339D01*
X1070091Y221578D01*
X1063387Y225040D01*
X994594Y260557D01*
X994116Y260817D01*
X920373Y303020D01*
X919906Y303300D01*
X848052Y348648D01*
X847598Y348948D01*
X777770Y397356D01*
X777330Y397676D01*
X751298Y417439D01*
X709655Y449055D01*
X709231Y449392D01*
X643838Y503645D01*
X643427Y504001D01*
X580440Y561025D01*
X580045Y561399D01*
X519578Y621089D01*
X519199Y621480D01*
X461365Y683727D01*
X461003Y684134D01*
X405912Y748819D01*
X405568Y749241D01*
X404400Y750739D01*
X1299439Y750739D01*
X1301300Y733886D01*
X1307127Y717964D01*
X1307550Y717334D01*
X1307550Y717334D01*
X1308857Y715389D01*
X1316583Y703892D01*
X1317144Y703381D01*
X1317145Y703381D01*
X1328561Y692992D01*
X1328562Y692992D01*
X1329123Y692481D01*
X1329791Y692119D01*
X1329791Y692118D01*
X1343356Y684753D01*
X1343356Y684753D01*
X1344024Y684391D01*
X1344758Y684198D01*
X1359688Y680281D01*
X1359689Y680281D01*
X1360423Y680088D01*
X1369061Y679953D01*
X1376616Y679834D01*
X1376616Y679834D01*
X1377376Y679822D01*
X1378117Y679992D01*
X1378117Y679992D01*
X1384159Y681376D01*
X1393903Y683607D01*
X1409050Y691225D01*
X1421942Y702237D01*
X1431836Y716005D01*
X1432624Y717964D01*
X1437877Y731031D01*
X1437877Y731031D01*
X1438160Y731737D01*
X1440549Y748522D01*
X1440564Y750000D01*
X1440384Y751492D01*
X1438619Y766078D01*
X1438528Y766832D01*
X1432534Y782692D01*
X1422931Y796665D01*
X1421751Y797716D01*
X1410839Y807439D01*
X1410839Y807439D01*
X1410272Y807944D01*
X1395288Y815878D01*
X1378844Y820008D01*
X1378084Y820012D01*
X1378084Y820012D01*
X1370367Y820052D01*
X1361890Y820097D01*
X1361151Y819919D01*
X1361150Y819919D01*
X1346816Y816478D01*
X1345403Y816139D01*
X1344729Y815791D01*
X1344729Y815791D01*
X1344209Y815522D01*
X1330337Y808362D01*
X1317560Y797217D01*
X1307811Y783345D01*
X1301652Y767549D01*
X1299439Y750739D01*
X404400Y750739D01*
X380038Y781982D01*
X353319Y816247D01*
X352995Y816681D01*
X350688Y819919D01*
X305655Y883121D01*
X305103Y884143D01*
X304495Y885040D01*
X303980Y886361D01*
X302943Y887329D01*
X302672Y887729D01*
X301480Y889118D01*
X300460Y890618D01*
X1429439Y890618D01*
X1429556Y889727D01*
X1429556Y889727D01*
X1429817Y887729D01*
X1431298Y876402D01*
X1437072Y863280D01*
X1437650Y862592D01*
X1437650Y862592D01*
X1438379Y861725D01*
X1446297Y852305D01*
X1458231Y844361D01*
X1471916Y840086D01*
X1472813Y840069D01*
X1472813Y840069D01*
X1479346Y839950D01*
X1486250Y839823D01*
X1487153Y840069D01*
X1499216Y843358D01*
X1499216Y843358D01*
X1500082Y843594D01*
X1512299Y851095D01*
X1521920Y861725D01*
X1528171Y874627D01*
X1530550Y888765D01*
X1530565Y890000D01*
X1528532Y904192D01*
X1522599Y917243D01*
X1517225Y923479D01*
X1513826Y927424D01*
X1513826Y927424D01*
X1513240Y928104D01*
X1501210Y935901D01*
X1487474Y940009D01*
X1486576Y940015D01*
X1486576Y940015D01*
X1480556Y940052D01*
X1473138Y940097D01*
X1459353Y936157D01*
X1447228Y928507D01*
X1437738Y917761D01*
X1431645Y904784D01*
X1429439Y890618D01*
X300460Y890618D01*
X144427Y1119924D01*
X87974Y1202888D01*
X87162Y1204431D01*
X86850Y1204892D01*
X86335Y1206214D01*
X85297Y1207181D01*
X84501Y1208356D01*
X84517Y1208367D01*
X84008Y1208987D01*
X69092Y1233054D01*
X68565Y1233991D01*
X54997Y1260739D01*
X5219440Y1260739D01*
X5221300Y1243887D01*
X5223153Y1238823D01*
X5226440Y1229840D01*
X5227127Y1227964D01*
X5227550Y1227334D01*
X5227550Y1227334D01*
X5228858Y1225389D01*
X5236583Y1213892D01*
X5237144Y1213381D01*
X5237145Y1213381D01*
X5248561Y1202992D01*
X5248562Y1202992D01*
X5249124Y1202481D01*
X5249791Y1202119D01*
X5249791Y1202118D01*
X5263356Y1194753D01*
X5263356Y1194753D01*
X5264024Y1194391D01*
X5264759Y1194198D01*
X5279689Y1190281D01*
X5279689Y1190281D01*
X5280424Y1190088D01*
X5289061Y1189953D01*
X5296616Y1189834D01*
X5296617Y1189834D01*
X5297376Y1189822D01*
X5298117Y1189992D01*
X5298117Y1189992D01*
X5306523Y1191917D01*
X5313903Y1193607D01*
X5329050Y1201225D01*
X5339510Y1210159D01*
X5341365Y1211744D01*
X5341365Y1211744D01*
X5341943Y1212237D01*
X5351836Y1226005D01*
X5352630Y1227981D01*
X5357877Y1241031D01*
X5357877Y1241032D01*
X5358160Y1241737D01*
X5358888Y1246849D01*
X5360491Y1258114D01*
X5360491Y1258114D01*
X5360549Y1258522D01*
X5360565Y1260000D01*
X5360384Y1261492D01*
X5360219Y1262857D01*
X8988371Y1262857D01*
X8989814Y1240840D01*
X8989956Y1240281D01*
X8989956Y1240280D01*
X8995103Y1220015D01*
X8995245Y1219456D01*
X8995486Y1218931D01*
X8995486Y1218931D01*
X8999298Y1210663D01*
X9004482Y1199419D01*
X9017216Y1181401D01*
X9033020Y1166005D01*
X9033500Y1165684D01*
X9033500Y1165684D01*
X9041920Y1160058D01*
X9051365Y1153747D01*
X9051896Y1153519D01*
X9051896Y1153519D01*
X9069258Y1146059D01*
X9071637Y1145037D01*
X9079602Y1143235D01*
X9092593Y1140295D01*
X9092594Y1140295D01*
X9093157Y1140168D01*
X9093734Y1140145D01*
X9093734Y1140145D01*
X9100515Y1139879D01*
X9115203Y1139302D01*
X9126121Y1140885D01*
X9136467Y1142385D01*
X9136468Y1142385D01*
X9137039Y1142468D01*
X9137585Y1142653D01*
X9137586Y1142653D01*
X9157384Y1149374D01*
X9157385Y1149374D01*
X9157931Y1149560D01*
X9159782Y1150596D01*
X9170734Y1156729D01*
X9177182Y1160341D01*
X9182085Y1164418D01*
X9193702Y1174080D01*
X9194145Y1174449D01*
X9204147Y1186475D01*
X9207884Y1190968D01*
X9207885Y1190969D01*
X9208254Y1191412D01*
X9216127Y1205471D01*
X9218752Y1210159D01*
X9218752Y1210159D01*
X9219035Y1210663D01*
X9219220Y1211210D01*
X9219220Y1211210D01*
X9225941Y1231009D01*
X9225941Y1231009D01*
X9226127Y1231556D01*
X9226209Y1232127D01*
X9226210Y1232127D01*
X9229239Y1253024D01*
X9229293Y1253391D01*
X9229458Y1259701D01*
X9229168Y1262857D01*
X9388371Y1262857D01*
X9389814Y1240840D01*
X9389956Y1240281D01*
X9389956Y1240280D01*
X9395103Y1220015D01*
X9395245Y1219456D01*
X9395487Y1218931D01*
X9395487Y1218931D01*
X9399298Y1210663D01*
X9404482Y1199419D01*
X9417216Y1181401D01*
X9433020Y1166005D01*
X9433500Y1165684D01*
X9433500Y1165684D01*
X9441920Y1160058D01*
X9451365Y1153747D01*
X9451896Y1153519D01*
X9451896Y1153519D01*
X9469259Y1146059D01*
X9471637Y1145037D01*
X9479603Y1143235D01*
X9492593Y1140295D01*
X9492594Y1140295D01*
X9493157Y1140168D01*
X9493734Y1140145D01*
X9493734Y1140145D01*
X9500515Y1139879D01*
X9515204Y1139302D01*
X9526121Y1140885D01*
X9536468Y1142385D01*
X9536468Y1142385D01*
X9537039Y1142468D01*
X9537585Y1142653D01*
X9537586Y1142653D01*
X9557384Y1149374D01*
X9557385Y1149374D01*
X9557932Y1149560D01*
X9559782Y1150596D01*
X9570734Y1156729D01*
X9577182Y1160341D01*
X9582085Y1164418D01*
X9593702Y1174080D01*
X9594146Y1174449D01*
X9604148Y1186475D01*
X9607885Y1190968D01*
X9607885Y1190969D01*
X9608254Y1191412D01*
X9616127Y1205471D01*
X9618752Y1210159D01*
X9618752Y1210159D01*
X9619035Y1210663D01*
X9619220Y1211210D01*
X9619221Y1211210D01*
X9625941Y1231009D01*
X9625941Y1231009D01*
X9626127Y1231556D01*
X9626210Y1232127D01*
X9626210Y1232127D01*
X9629240Y1253024D01*
X9629293Y1253391D01*
X9629458Y1259701D01*
X9627439Y1281672D01*
X9621450Y1302907D01*
X9611692Y1322696D01*
X9611180Y1323381D01*
X9598836Y1339912D01*
X9598836Y1339912D01*
X9598490Y1340374D01*
X9583072Y1354627D01*
X9582713Y1354959D01*
X9582712Y1354959D01*
X9582289Y1355351D01*
X9563629Y1367124D01*
X9543136Y1375300D01*
X9542570Y1375413D01*
X9542569Y1375413D01*
X9522063Y1379492D01*
X9522063Y1379492D01*
X9521496Y1379605D01*
X9520919Y1379612D01*
X9520918Y1379612D01*
X9509844Y1379757D01*
X9499434Y1379893D01*
X9498865Y1379796D01*
X9498865Y1379796D01*
X9478259Y1376255D01*
X9478259Y1376255D01*
X9477689Y1376157D01*
X9456989Y1368520D01*
X9438028Y1357239D01*
X9421439Y1342692D01*
X9407780Y1325365D01*
X9397507Y1305839D01*
X9390964Y1284768D01*
X9388371Y1262857D01*
X9229168Y1262857D01*
X9227439Y1281672D01*
X9221450Y1302907D01*
X9211692Y1322696D01*
X9211180Y1323381D01*
X9198836Y1339912D01*
X9198836Y1339912D01*
X9198490Y1340374D01*
X9183071Y1354627D01*
X9182712Y1354959D01*
X9182712Y1354959D01*
X9182288Y1355351D01*
X9163629Y1367124D01*
X9143136Y1375300D01*
X9142570Y1375413D01*
X9142569Y1375413D01*
X9122063Y1379492D01*
X9122062Y1379492D01*
X9121496Y1379605D01*
X9120918Y1379612D01*
X9120918Y1379612D01*
X9109844Y1379757D01*
X9099434Y1379893D01*
X9098864Y1379796D01*
X9098864Y1379796D01*
X9078259Y1376255D01*
X9078259Y1376255D01*
X9077689Y1376157D01*
X9056989Y1368520D01*
X9038028Y1357239D01*
X9021439Y1342692D01*
X9007780Y1325365D01*
X8997507Y1305839D01*
X8990964Y1284768D01*
X8988371Y1262857D01*
X5360219Y1262857D01*
X5358619Y1276078D01*
X5358528Y1276832D01*
X5352535Y1292692D01*
X5347518Y1299992D01*
X5343362Y1306039D01*
X5343362Y1306039D01*
X5342931Y1306665D01*
X5341752Y1307716D01*
X5330839Y1317439D01*
X5330839Y1317439D01*
X5330272Y1317944D01*
X5315288Y1325878D01*
X5298844Y1330008D01*
X5298085Y1330012D01*
X5298084Y1330012D01*
X5290367Y1330053D01*
X5281890Y1330097D01*
X5281151Y1329920D01*
X5281151Y1329920D01*
X5266816Y1326478D01*
X5265403Y1326139D01*
X5264729Y1325791D01*
X5264729Y1325791D01*
X5251012Y1318711D01*
X5250337Y1318363D01*
X5237561Y1307217D01*
X5234896Y1303426D01*
X5232483Y1299992D01*
X5227812Y1293345D01*
X5221653Y1277549D01*
X5221553Y1276795D01*
X5221553Y1276795D01*
X5219598Y1261944D01*
X5219440Y1260739D01*
X54997Y1260739D01*
X54385Y1261944D01*
X53940Y1262923D01*
X42194Y1291984D01*
X41834Y1292997D01*
X32830Y1322237D01*
X32609Y1322954D01*
X32337Y1323994D01*
X32222Y1324522D01*
X27075Y1348277D01*
X25699Y1354627D01*
X25516Y1355687D01*
X23579Y1370739D01*
X5994650Y1370739D01*
X5996510Y1353887D01*
X5997297Y1351737D01*
X6001455Y1340374D01*
X6002337Y1337964D01*
X6002760Y1337334D01*
X6002760Y1337334D01*
X6004068Y1335389D01*
X6011793Y1323892D01*
X6012354Y1323381D01*
X6012355Y1323381D01*
X6023771Y1312992D01*
X6023772Y1312992D01*
X6024333Y1312481D01*
X6025001Y1312119D01*
X6025001Y1312118D01*
X6038566Y1304753D01*
X6038566Y1304753D01*
X6039234Y1304391D01*
X6039969Y1304198D01*
X6054898Y1300281D01*
X6054899Y1300281D01*
X6055633Y1300088D01*
X6064271Y1299953D01*
X6071826Y1299834D01*
X6071827Y1299834D01*
X6072586Y1299822D01*
X6073327Y1299992D01*
X6073327Y1299992D01*
X6079369Y1301376D01*
X6089113Y1303607D01*
X6104260Y1311225D01*
X6117152Y1322237D01*
X6127046Y1336005D01*
X6127834Y1337964D01*
X6133087Y1351031D01*
X6133087Y1351032D01*
X6133370Y1351737D01*
X6134099Y1356858D01*
X6135701Y1368114D01*
X6135701Y1368114D01*
X6135759Y1368522D01*
X6135775Y1370000D01*
X6135594Y1371492D01*
X6135018Y1376255D01*
X6133738Y1386832D01*
X6127745Y1402692D01*
X6118141Y1416665D01*
X6116962Y1417716D01*
X6106049Y1427439D01*
X6106049Y1427439D01*
X6105482Y1427944D01*
X6090498Y1435878D01*
X6074054Y1440008D01*
X6073294Y1440012D01*
X6073294Y1440012D01*
X6065577Y1440052D01*
X6057100Y1440097D01*
X6056361Y1439919D01*
X6056361Y1439919D01*
X6042026Y1436478D01*
X6040613Y1436139D01*
X6039939Y1435791D01*
X6039939Y1435791D01*
X6039419Y1435522D01*
X6025547Y1428362D01*
X6012771Y1417217D01*
X6003021Y1403345D01*
X5996863Y1387549D01*
X5996763Y1386795D01*
X5996763Y1386795D01*
X5995376Y1376255D01*
X5994650Y1370739D01*
X23579Y1370739D01*
X21514Y1386776D01*
X21423Y1387848D01*
X21405Y1388257D01*
X20791Y1402637D01*
X20217Y1416080D01*
X20289Y1416863D01*
X20257Y1416863D01*
X20260Y1418282D01*
X20578Y1419665D01*
X20265Y1421049D01*
X20265Y1421531D01*
X20062Y1423351D01*
X20062Y1500618D01*
X1879439Y1500618D01*
X1879555Y1499727D01*
X1879555Y1499727D01*
X1879930Y1496862D01*
X1881298Y1486402D01*
X1887072Y1473280D01*
X1887650Y1472592D01*
X1887650Y1472592D01*
X1888379Y1471725D01*
X1896297Y1462305D01*
X1908231Y1454361D01*
X1921916Y1450086D01*
X1922813Y1450069D01*
X1922813Y1450069D01*
X1929346Y1449950D01*
X1936250Y1449823D01*
X1937153Y1450069D01*
X1949216Y1453358D01*
X1949216Y1453358D01*
X1950082Y1453594D01*
X1962299Y1461095D01*
X1971920Y1471725D01*
X1978171Y1484627D01*
X1980550Y1498765D01*
X1980565Y1500000D01*
X1979747Y1505708D01*
X1978660Y1513303D01*
X1978659Y1513303D01*
X1978532Y1514192D01*
X1972598Y1527243D01*
X1970760Y1529377D01*
X1963826Y1537424D01*
X1963826Y1537424D01*
X1963240Y1538104D01*
X1951209Y1545901D01*
X1937474Y1550009D01*
X1936576Y1550015D01*
X1936576Y1550015D01*
X1930555Y1550052D01*
X1923138Y1550097D01*
X1909353Y1546157D01*
X1897228Y1538507D01*
X1887738Y1527761D01*
X1881645Y1514784D01*
X1879439Y1500618D01*
X20062Y1500618D01*
X20062Y1590618D01*
X5229439Y1590618D01*
X5229556Y1589727D01*
X5229556Y1589727D01*
X5229682Y1588765D01*
X5231298Y1576402D01*
X5237072Y1563280D01*
X5237650Y1562592D01*
X5237650Y1562592D01*
X5238379Y1561725D01*
X5246297Y1552305D01*
X5247045Y1551807D01*
X5256651Y1545413D01*
X5258232Y1544361D01*
X5271916Y1540086D01*
X5272813Y1540069D01*
X5272813Y1540069D01*
X5279347Y1539950D01*
X5286250Y1539823D01*
X5287154Y1540069D01*
X5299216Y1543358D01*
X5299216Y1543358D01*
X5300082Y1543594D01*
X5312299Y1551095D01*
X5321920Y1561725D01*
X5328171Y1574627D01*
X5330550Y1588765D01*
X5330565Y1590000D01*
X5328533Y1604192D01*
X5322599Y1617243D01*
X5319279Y1621095D01*
X5313826Y1627424D01*
X5313826Y1627424D01*
X5313240Y1628104D01*
X5301210Y1635901D01*
X5287474Y1640009D01*
X5286577Y1640015D01*
X5286576Y1640015D01*
X5280556Y1640052D01*
X5273138Y1640097D01*
X5259353Y1636157D01*
X5247228Y1628507D01*
X5237738Y1617761D01*
X5231645Y1604784D01*
X5231414Y1603303D01*
X5229589Y1591581D01*
X5229439Y1590618D01*
X20062Y1590618D01*
X20062Y1701315D01*
X6495363Y1701315D01*
X6495379Y1700877D01*
X6495379Y1700876D01*
X6496342Y1673280D01*
X6496362Y1672712D01*
X6496438Y1672280D01*
X6496438Y1672279D01*
X6498672Y1659613D01*
X6501332Y1644526D01*
X6501468Y1644109D01*
X6501468Y1644108D01*
X6506509Y1628592D01*
X6510176Y1617305D01*
X6510369Y1616910D01*
X6510369Y1616910D01*
X6521826Y1593420D01*
X6522723Y1591581D01*
X6522969Y1591217D01*
X6522969Y1591217D01*
X6530422Y1580167D01*
X6538728Y1567853D01*
X6557879Y1546584D01*
X6558215Y1546301D01*
X6558215Y1546301D01*
X6560882Y1544064D01*
X6579804Y1528186D01*
X6604076Y1513019D01*
X6630223Y1501378D01*
X6636724Y1499514D01*
X6645129Y1497104D01*
X6657735Y1493489D01*
X6658170Y1493428D01*
X6658170Y1493428D01*
X6668609Y1491961D01*
X6686077Y1489506D01*
X6707534Y1489506D01*
X6707753Y1489521D01*
X6707753Y1489521D01*
X6728501Y1490972D01*
X6728501Y1490972D01*
X6728939Y1491003D01*
X6756935Y1496953D01*
X6757348Y1497104D01*
X6757348Y1497104D01*
X6783415Y1506591D01*
X6783416Y1506592D01*
X6783830Y1506742D01*
X6784219Y1506949D01*
X6784219Y1506949D01*
X6808712Y1519972D01*
X6808712Y1519972D01*
X6809101Y1520179D01*
X6809457Y1520438D01*
X6809457Y1520438D01*
X6831899Y1536743D01*
X6831900Y1536743D01*
X6832256Y1537002D01*
X6833117Y1537834D01*
X6852527Y1556578D01*
X6852528Y1556579D01*
X6852844Y1556884D01*
X6857304Y1562592D01*
X6870194Y1579090D01*
X6870465Y1579438D01*
X6884775Y1604224D01*
X6895497Y1630761D01*
X6895954Y1632592D01*
X6901314Y1654093D01*
X6902421Y1658532D01*
X6902497Y1659251D01*
X6905367Y1686559D01*
X6905367Y1686560D01*
X6905413Y1686996D01*
X6905386Y1687761D01*
X6904937Y1700618D01*
X8639439Y1700618D01*
X8639556Y1699727D01*
X8639556Y1699727D01*
X8640369Y1693510D01*
X8641298Y1686402D01*
X8647072Y1673280D01*
X8647650Y1672592D01*
X8647650Y1672592D01*
X8648379Y1671725D01*
X8656297Y1662305D01*
X8668231Y1654361D01*
X8681916Y1650086D01*
X8682813Y1650069D01*
X8682813Y1650069D01*
X8689346Y1649950D01*
X8696250Y1649823D01*
X8697153Y1650069D01*
X8709216Y1653358D01*
X8709216Y1653358D01*
X8710082Y1653594D01*
X8721521Y1660618D01*
X9869439Y1660618D01*
X9869556Y1659727D01*
X9869556Y1659727D01*
X9870292Y1654093D01*
X9871298Y1646402D01*
X9877072Y1633280D01*
X9877650Y1632592D01*
X9877650Y1632592D01*
X9885719Y1622993D01*
X9886297Y1622305D01*
X9898231Y1614361D01*
X9911916Y1610086D01*
X9912813Y1610069D01*
X9912813Y1610069D01*
X9919346Y1609950D01*
X9926250Y1609823D01*
X9927153Y1610069D01*
X9939216Y1613358D01*
X9939216Y1613358D01*
X9940082Y1613594D01*
X9952299Y1621095D01*
X9961920Y1631725D01*
X9968171Y1644627D01*
X9970550Y1658765D01*
X9970557Y1659386D01*
X9970559Y1659514D01*
X9970559Y1659515D01*
X9970565Y1660000D01*
X9968981Y1671059D01*
X9968660Y1673303D01*
X9968660Y1673303D01*
X9968532Y1674192D01*
X9962598Y1687243D01*
X9960760Y1689377D01*
X9953826Y1697424D01*
X9953826Y1697424D01*
X9953240Y1698104D01*
X9941210Y1705901D01*
X9927474Y1710009D01*
X9926576Y1710015D01*
X9926576Y1710015D01*
X9920556Y1710052D01*
X9913138Y1710097D01*
X9899353Y1706157D01*
X9887228Y1698507D01*
X9877738Y1687761D01*
X9871645Y1674784D01*
X9871304Y1672592D01*
X9869617Y1661761D01*
X9869439Y1660618D01*
X8721521Y1660618D01*
X8722299Y1661095D01*
X8731920Y1671725D01*
X8738171Y1684627D01*
X8740550Y1698765D01*
X8740565Y1700000D01*
X8739747Y1705708D01*
X8738660Y1713303D01*
X8738660Y1713303D01*
X8738532Y1714192D01*
X8732598Y1727243D01*
X8730044Y1730207D01*
X8723826Y1737424D01*
X8723826Y1737424D01*
X8723240Y1738104D01*
X8711210Y1745901D01*
X8710349Y1746159D01*
X8710349Y1746159D01*
X8704471Y1747917D01*
X8698517Y1751785D01*
X8695600Y1758258D01*
X8696646Y1765280D01*
X8701322Y1770622D01*
X8704767Y1772145D01*
X8709216Y1773358D01*
X8709216Y1773358D01*
X8710082Y1773594D01*
X8722299Y1781095D01*
X8731920Y1791725D01*
X8736805Y1801807D01*
X8737780Y1803819D01*
X8737780Y1803819D01*
X8738171Y1804627D01*
X8740550Y1818765D01*
X8740565Y1820000D01*
X8738978Y1831081D01*
X8738660Y1833303D01*
X8738660Y1833303D01*
X8738532Y1834192D01*
X8732598Y1847243D01*
X8729094Y1851310D01*
X8723826Y1857424D01*
X8723826Y1857424D01*
X8723240Y1858104D01*
X8711210Y1865901D01*
X8697474Y1870009D01*
X8696576Y1870015D01*
X8696576Y1870015D01*
X8690556Y1870052D01*
X8683138Y1870097D01*
X8669353Y1866157D01*
X8657228Y1858507D01*
X8647738Y1847761D01*
X8641645Y1834784D01*
X8641507Y1833896D01*
X8639938Y1823819D01*
X8639439Y1820618D01*
X8639556Y1819727D01*
X8639556Y1819727D01*
X8639681Y1818765D01*
X8641298Y1806402D01*
X8647072Y1793280D01*
X8647650Y1792592D01*
X8647650Y1792592D01*
X8654478Y1784469D01*
X8656297Y1782305D01*
X8668231Y1774361D01*
X8674157Y1772510D01*
X8675699Y1772028D01*
X8681604Y1768087D01*
X8684442Y1761580D01*
X8683311Y1754571D01*
X8678570Y1749286D01*
X8675404Y1747886D01*
X8670216Y1746404D01*
X8670216Y1746404D01*
X8669353Y1746157D01*
X8657228Y1738507D01*
X8647738Y1727761D01*
X8641645Y1714784D01*
X8641507Y1713896D01*
X8639616Y1701752D01*
X8639439Y1700618D01*
X6904937Y1700618D01*
X6904429Y1715160D01*
X6904429Y1715161D01*
X6904414Y1715600D01*
X6902361Y1727243D01*
X6900446Y1738104D01*
X6899444Y1743786D01*
X6899308Y1744203D01*
X6899308Y1744204D01*
X6890736Y1770587D01*
X6890599Y1771006D01*
X6890101Y1772028D01*
X6878246Y1796336D01*
X6878053Y1796731D01*
X6877807Y1797095D01*
X6877807Y1797095D01*
X6869628Y1809221D01*
X6862048Y1820459D01*
X6842897Y1841728D01*
X6840955Y1843358D01*
X6831170Y1851569D01*
X6820972Y1860125D01*
X6796700Y1875292D01*
X6778359Y1883458D01*
X6770955Y1886755D01*
X6770954Y1886755D01*
X6770553Y1886934D01*
X6756797Y1890878D01*
X6743464Y1894701D01*
X6743464Y1894701D01*
X6743041Y1894823D01*
X6742606Y1894884D01*
X6742606Y1894884D01*
X6732167Y1896351D01*
X6714698Y1898806D01*
X6693242Y1898806D01*
X6693023Y1898791D01*
X6693023Y1898791D01*
X6672275Y1897340D01*
X6672275Y1897340D01*
X6671837Y1897309D01*
X6643841Y1891358D01*
X6643428Y1891208D01*
X6643428Y1891208D01*
X6617361Y1881720D01*
X6617360Y1881720D01*
X6616946Y1881569D01*
X6616557Y1881363D01*
X6616556Y1881362D01*
X6592064Y1868340D01*
X6592064Y1868339D01*
X6591675Y1868133D01*
X6591319Y1867874D01*
X6591319Y1867874D01*
X6569141Y1851761D01*
X6568520Y1851310D01*
X6568204Y1851004D01*
X6568204Y1851004D01*
X6548249Y1831733D01*
X6548248Y1831733D01*
X6547932Y1831428D01*
X6547661Y1831081D01*
X6547661Y1831081D01*
X6539077Y1820094D01*
X6530311Y1808874D01*
X6516001Y1784088D01*
X6505279Y1757551D01*
X6505172Y1757123D01*
X6505172Y1757123D01*
X6503218Y1749286D01*
X6498355Y1729780D01*
X6498309Y1729343D01*
X6498309Y1729342D01*
X6495409Y1701752D01*
X6495363Y1701315D01*
X20062Y1701315D01*
X20062Y1890617D01*
X299439Y1890617D01*
X299556Y1889727D01*
X299556Y1889727D01*
X300056Y1885901D01*
X301298Y1876402D01*
X307072Y1863279D01*
X307650Y1862592D01*
X307650Y1862592D01*
X311012Y1858592D01*
X316297Y1852305D01*
X328231Y1844361D01*
X341916Y1840086D01*
X342813Y1840069D01*
X342813Y1840069D01*
X349346Y1839949D01*
X356250Y1839823D01*
X357153Y1840069D01*
X369216Y1843358D01*
X369216Y1843358D01*
X370082Y1843594D01*
X382299Y1851095D01*
X385638Y1854784D01*
X391318Y1861059D01*
X391920Y1861724D01*
X398171Y1874626D01*
X400550Y1888764D01*
X400565Y1890000D01*
X400476Y1890617D01*
X499439Y1890617D01*
X499556Y1889727D01*
X499556Y1889727D01*
X500056Y1885901D01*
X501298Y1876402D01*
X507072Y1863279D01*
X507650Y1862592D01*
X507650Y1862592D01*
X511012Y1858592D01*
X516297Y1852305D01*
X528232Y1844361D01*
X541916Y1840086D01*
X542813Y1840069D01*
X542813Y1840069D01*
X549347Y1839949D01*
X556250Y1839823D01*
X557154Y1840069D01*
X559166Y1840618D01*
X679439Y1840618D01*
X679556Y1839727D01*
X679556Y1839727D01*
X680202Y1834784D01*
X681298Y1826402D01*
X687072Y1813280D01*
X687650Y1812592D01*
X687650Y1812592D01*
X695719Y1802993D01*
X696297Y1802305D01*
X708231Y1794361D01*
X721916Y1790086D01*
X722813Y1790069D01*
X722813Y1790069D01*
X729346Y1789950D01*
X736250Y1789823D01*
X737153Y1790069D01*
X749216Y1793358D01*
X749216Y1793358D01*
X750082Y1793594D01*
X762299Y1801095D01*
X771920Y1811725D01*
X778171Y1824627D01*
X780550Y1838765D01*
X780565Y1840000D01*
X779043Y1850626D01*
X778660Y1853303D01*
X778659Y1853303D01*
X778532Y1854192D01*
X772598Y1867243D01*
X765509Y1875471D01*
X763826Y1877424D01*
X763826Y1877424D01*
X763240Y1878104D01*
X751209Y1885901D01*
X737474Y1890009D01*
X736576Y1890015D01*
X736576Y1890015D01*
X730555Y1890052D01*
X723138Y1890097D01*
X709353Y1886157D01*
X697228Y1878507D01*
X696634Y1877834D01*
X696634Y1877834D01*
X694643Y1875580D01*
X687738Y1867761D01*
X681645Y1854784D01*
X681259Y1852305D01*
X679903Y1843594D01*
X679439Y1840618D01*
X559166Y1840618D01*
X569216Y1843358D01*
X569216Y1843358D01*
X570082Y1843594D01*
X582299Y1851095D01*
X585638Y1854784D01*
X591318Y1861059D01*
X591920Y1861724D01*
X598171Y1874626D01*
X600550Y1888764D01*
X600565Y1890000D01*
X599518Y1897309D01*
X598660Y1903303D01*
X598660Y1903303D01*
X598533Y1904192D01*
X592599Y1917243D01*
X590760Y1919376D01*
X583826Y1927423D01*
X583826Y1927424D01*
X583240Y1928103D01*
X571210Y1935901D01*
X557474Y1940009D01*
X556577Y1940015D01*
X556576Y1940015D01*
X550556Y1940051D01*
X543138Y1940097D01*
X529353Y1936157D01*
X517228Y1928507D01*
X507738Y1917761D01*
X501645Y1904783D01*
X501168Y1901718D01*
X499997Y1894198D01*
X499439Y1890617D01*
X400476Y1890617D01*
X399518Y1897309D01*
X398660Y1903303D01*
X398659Y1903303D01*
X398532Y1904192D01*
X392598Y1917243D01*
X390760Y1919376D01*
X383826Y1927423D01*
X383826Y1927424D01*
X383240Y1928103D01*
X371209Y1935901D01*
X357474Y1940009D01*
X356576Y1940015D01*
X356576Y1940015D01*
X350555Y1940051D01*
X343138Y1940097D01*
X329353Y1936157D01*
X317228Y1928507D01*
X307738Y1917761D01*
X301645Y1904783D01*
X301168Y1901718D01*
X299997Y1894198D01*
X299439Y1890617D01*
X20062Y1890617D01*
X20062Y1980618D01*
X1669439Y1980618D01*
X1669556Y1979727D01*
X1669556Y1979727D01*
X1669934Y1976832D01*
X1671298Y1966402D01*
X1677072Y1953280D01*
X1677650Y1952592D01*
X1677650Y1952592D01*
X1678260Y1951867D01*
X1686297Y1942305D01*
X1688820Y1940626D01*
X1696652Y1935413D01*
X1698231Y1934361D01*
X1711916Y1930086D01*
X1712813Y1930069D01*
X1712813Y1930069D01*
X1719346Y1929950D01*
X1726250Y1929823D01*
X1727153Y1930069D01*
X1739216Y1933358D01*
X1739216Y1933358D01*
X1740082Y1933594D01*
X1752299Y1941095D01*
X1761920Y1951725D01*
X1765413Y1958935D01*
X1766288Y1960739D01*
X4079439Y1960739D01*
X4081300Y1943886D01*
X4082777Y1939850D01*
X4086350Y1930086D01*
X4087127Y1927964D01*
X4087550Y1927334D01*
X4087550Y1927334D01*
X4088857Y1925389D01*
X4096583Y1913892D01*
X4097144Y1913381D01*
X4097144Y1913381D01*
X4108561Y1902992D01*
X4108562Y1902992D01*
X4109123Y1902481D01*
X4109791Y1902119D01*
X4109791Y1902118D01*
X4123356Y1894753D01*
X4123356Y1894753D01*
X4124023Y1894391D01*
X4124758Y1894198D01*
X4139688Y1890281D01*
X4139688Y1890281D01*
X4140423Y1890088D01*
X4149061Y1889953D01*
X4156616Y1889834D01*
X4156616Y1889834D01*
X4157376Y1889822D01*
X4158116Y1889992D01*
X4158117Y1889992D01*
X4164723Y1891505D01*
X4173903Y1893607D01*
X4189050Y1901225D01*
X4201942Y1912237D01*
X4211836Y1926005D01*
X4212876Y1928592D01*
X4217877Y1941031D01*
X4217877Y1941031D01*
X4218160Y1941737D01*
X4220549Y1958522D01*
X4220565Y1960000D01*
X4220384Y1961492D01*
X4219889Y1965580D01*
X4218528Y1976832D01*
X4212535Y1992692D01*
X4202931Y2006665D01*
X4201519Y2007923D01*
X4190839Y2017439D01*
X4190839Y2017439D01*
X4190272Y2017944D01*
X4189048Y2018592D01*
X4179177Y2023819D01*
X4175288Y2025878D01*
X4158844Y2030008D01*
X4158084Y2030012D01*
X4158084Y2030012D01*
X4150367Y2030052D01*
X4141889Y2030097D01*
X4141151Y2029919D01*
X4141150Y2029919D01*
X4130209Y2027293D01*
X4125403Y2026139D01*
X4124729Y2025791D01*
X4124728Y2025791D01*
X4111545Y2018986D01*
X4110337Y2018362D01*
X4109765Y2017863D01*
X4109764Y2017863D01*
X4103722Y2012592D01*
X4097560Y2007217D01*
X4096733Y2006039D01*
X4088337Y1994093D01*
X4087811Y1993345D01*
X4081652Y1977549D01*
X4081553Y1976795D01*
X4081553Y1976795D01*
X4080068Y1965512D01*
X4079439Y1960739D01*
X1766288Y1960739D01*
X1767780Y1963819D01*
X1767780Y1963819D01*
X1768171Y1964627D01*
X1770550Y1978765D01*
X1770565Y1980000D01*
X1769156Y1989839D01*
X1768660Y1993303D01*
X1768660Y1993303D01*
X1768532Y1994192D01*
X1762599Y2007243D01*
X1757989Y2012592D01*
X1753826Y2017424D01*
X1753826Y2017424D01*
X1753240Y2018104D01*
X1741210Y2025901D01*
X1727474Y2030009D01*
X1726576Y2030015D01*
X1726576Y2030015D01*
X1720556Y2030052D01*
X1713138Y2030097D01*
X1699353Y2026157D01*
X1687228Y2018507D01*
X1677738Y2007761D01*
X1671645Y1994784D01*
X1669439Y1980618D01*
X20062Y1980618D01*
X20062Y2040618D01*
X679439Y2040618D01*
X679556Y2039727D01*
X679556Y2039727D01*
X679681Y2038765D01*
X681298Y2026402D01*
X681660Y2025580D01*
X685242Y2017439D01*
X687072Y2013280D01*
X687650Y2012592D01*
X687650Y2012592D01*
X695719Y2002993D01*
X696297Y2002305D01*
X708231Y1994361D01*
X721916Y1990086D01*
X722813Y1990069D01*
X722813Y1990069D01*
X729346Y1989950D01*
X736250Y1989823D01*
X737153Y1990069D01*
X749216Y1993358D01*
X749216Y1993358D01*
X750082Y1993594D01*
X762299Y2001095D01*
X771920Y2011725D01*
X778171Y2024627D01*
X780550Y2038765D01*
X780565Y2040000D01*
X779043Y2050626D01*
X778660Y2053303D01*
X778659Y2053303D01*
X778532Y2054192D01*
X777527Y2056402D01*
X776618Y2058402D01*
X772598Y2067243D01*
X769690Y2070618D01*
X763826Y2077424D01*
X763826Y2077424D01*
X763240Y2078104D01*
X751209Y2085901D01*
X737474Y2090009D01*
X736576Y2090015D01*
X736576Y2090015D01*
X730555Y2090052D01*
X723138Y2090097D01*
X709353Y2086157D01*
X697228Y2078507D01*
X687738Y2067761D01*
X681645Y2054784D01*
X680721Y2048851D01*
X679854Y2043280D01*
X679439Y2040618D01*
X20062Y2040618D01*
X20062Y2210618D01*
X1169439Y2210618D01*
X1169556Y2209728D01*
X1169556Y2209727D01*
X1169806Y2207816D01*
X1171298Y2196402D01*
X1177072Y2183280D01*
X1177650Y2182592D01*
X1177650Y2182592D01*
X1182779Y2176491D01*
X1186297Y2172305D01*
X1198232Y2164361D01*
X1211916Y2160086D01*
X1212813Y2160069D01*
X1212813Y2160069D01*
X1219347Y2159950D01*
X1226250Y2159823D01*
X1227154Y2160069D01*
X1239216Y2163358D01*
X1239216Y2163358D01*
X1240082Y2163594D01*
X1252299Y2171096D01*
X1253955Y2172924D01*
X1261318Y2181059D01*
X1261920Y2181725D01*
X1267430Y2193096D01*
X1267780Y2193819D01*
X1267780Y2193819D01*
X1268171Y2194627D01*
X1270550Y2208765D01*
X1270565Y2210000D01*
X1270476Y2210618D01*
X1329439Y2210618D01*
X1329556Y2209728D01*
X1329556Y2209727D01*
X1329806Y2207816D01*
X1331298Y2196402D01*
X1337072Y2183280D01*
X1337650Y2182592D01*
X1337650Y2182592D01*
X1342779Y2176491D01*
X1346297Y2172305D01*
X1358231Y2164361D01*
X1371916Y2160086D01*
X1372813Y2160069D01*
X1372813Y2160069D01*
X1379346Y2159950D01*
X1386250Y2159823D01*
X1387153Y2160069D01*
X1399216Y2163358D01*
X1399216Y2163358D01*
X1400082Y2163594D01*
X1412299Y2171096D01*
X1413954Y2172924D01*
X1421318Y2181059D01*
X1421920Y2181725D01*
X1427429Y2193096D01*
X1427779Y2193819D01*
X1427779Y2193819D01*
X1428171Y2194627D01*
X1430550Y2208765D01*
X1430565Y2210000D01*
X1429507Y2217382D01*
X1428660Y2223303D01*
X1428659Y2223304D01*
X1428532Y2224192D01*
X1428012Y2225337D01*
X1425600Y2230642D01*
X1422598Y2237243D01*
X1420149Y2240086D01*
X1413826Y2247424D01*
X1413826Y2247424D01*
X1413240Y2248104D01*
X1401209Y2255902D01*
X1387474Y2260009D01*
X1386576Y2260015D01*
X1386576Y2260015D01*
X1380556Y2260052D01*
X1373138Y2260097D01*
X1359353Y2256157D01*
X1347228Y2248507D01*
X1346634Y2247834D01*
X1346634Y2247834D01*
X1342991Y2243709D01*
X1337738Y2237761D01*
X1331645Y2224784D01*
X1331008Y2220695D01*
X1329578Y2211512D01*
X1329439Y2210618D01*
X1270476Y2210618D01*
X1269508Y2217382D01*
X1268660Y2223303D01*
X1268660Y2223304D01*
X1268533Y2224192D01*
X1268012Y2225337D01*
X1265600Y2230642D01*
X1262599Y2237243D01*
X1260149Y2240086D01*
X1253826Y2247424D01*
X1253826Y2247424D01*
X1253240Y2248104D01*
X1241210Y2255902D01*
X1227474Y2260009D01*
X1226577Y2260015D01*
X1226576Y2260015D01*
X1220556Y2260052D01*
X1213138Y2260097D01*
X1199353Y2256157D01*
X1187228Y2248507D01*
X1186634Y2247834D01*
X1186634Y2247834D01*
X1182991Y2243709D01*
X1177738Y2237761D01*
X1171645Y2224784D01*
X1171008Y2220695D01*
X1169579Y2211512D01*
X1169439Y2210618D01*
X20062Y2210618D01*
X20062Y2290618D01*
X759439Y2290618D01*
X759555Y2289728D01*
X759555Y2289727D01*
X760020Y2286176D01*
X761298Y2276402D01*
X767072Y2263280D01*
X767650Y2262592D01*
X767650Y2262592D01*
X775556Y2253187D01*
X776297Y2252305D01*
X788231Y2244361D01*
X801916Y2240086D01*
X802813Y2240069D01*
X802813Y2240069D01*
X809346Y2239950D01*
X816250Y2239823D01*
X817153Y2240069D01*
X829216Y2243358D01*
X829216Y2243358D01*
X830082Y2243594D01*
X842299Y2251096D01*
X843000Y2251870D01*
X851318Y2261059D01*
X851920Y2261725D01*
X856543Y2271267D01*
X857779Y2273819D01*
X857779Y2273819D01*
X858171Y2274627D01*
X860550Y2288765D01*
X860565Y2290000D01*
X858903Y2301603D01*
X858660Y2303303D01*
X858659Y2303304D01*
X858532Y2304192D01*
X852598Y2317243D01*
X850149Y2320086D01*
X843826Y2327424D01*
X843826Y2327424D01*
X843240Y2328104D01*
X831209Y2335902D01*
X817474Y2340009D01*
X816576Y2340015D01*
X816576Y2340015D01*
X810555Y2340052D01*
X803138Y2340097D01*
X789353Y2336157D01*
X777228Y2328507D01*
X776634Y2327834D01*
X776634Y2327834D01*
X773303Y2324063D01*
X767738Y2317761D01*
X761645Y2304784D01*
X761507Y2303897D01*
X759690Y2292232D01*
X759439Y2290618D01*
X20062Y2290618D01*
X20062Y2370618D01*
X399439Y2370618D01*
X399556Y2369728D01*
X399556Y2369727D01*
X400093Y2365618D01*
X401298Y2356402D01*
X401660Y2355580D01*
X406247Y2345154D01*
X407072Y2343280D01*
X407650Y2342592D01*
X407650Y2342592D01*
X413274Y2335902D01*
X416297Y2332305D01*
X428231Y2324361D01*
X441916Y2320086D01*
X442813Y2320069D01*
X442813Y2320069D01*
X449346Y2319950D01*
X456250Y2319823D01*
X457153Y2320069D01*
X469216Y2323358D01*
X469216Y2323358D01*
X470082Y2323594D01*
X482299Y2331096D01*
X484407Y2333424D01*
X491318Y2341059D01*
X491920Y2341725D01*
X497132Y2352481D01*
X497780Y2353819D01*
X497780Y2353819D01*
X498171Y2354627D01*
X500550Y2368765D01*
X500565Y2370000D01*
X500476Y2370618D01*
X1979439Y2370618D01*
X1979555Y2369728D01*
X1979555Y2369727D01*
X1980093Y2365618D01*
X1981298Y2356402D01*
X1981660Y2355580D01*
X1986247Y2345154D01*
X1987072Y2343280D01*
X1987650Y2342592D01*
X1987650Y2342592D01*
X1993274Y2335902D01*
X1996297Y2332305D01*
X2008231Y2324361D01*
X2021916Y2320086D01*
X2022813Y2320069D01*
X2022813Y2320069D01*
X2029346Y2319950D01*
X2036250Y2319823D01*
X2037153Y2320069D01*
X2049216Y2323358D01*
X2049216Y2323358D01*
X2050082Y2323594D01*
X2062299Y2331096D01*
X2064407Y2333424D01*
X2071318Y2341059D01*
X2071920Y2341725D01*
X2077131Y2352481D01*
X2077779Y2353819D01*
X2077779Y2353819D01*
X2078171Y2354627D01*
X2079407Y2361971D01*
X2080469Y2368285D01*
X2080469Y2368285D01*
X2080550Y2368765D01*
X2080564Y2368762D01*
X2083097Y2375195D01*
X2088857Y2379346D01*
X2093276Y2380061D01*
X2106250Y2379823D01*
X2107123Y2380061D01*
X2119216Y2383358D01*
X2119216Y2383358D01*
X2120082Y2383594D01*
X2132299Y2391096D01*
X2136599Y2395846D01*
X2141318Y2401059D01*
X2141920Y2401725D01*
X2146805Y2411808D01*
X2147780Y2413819D01*
X2147780Y2413819D01*
X2148171Y2414627D01*
X2150550Y2428765D01*
X2150565Y2430000D01*
X2149262Y2439096D01*
X2148660Y2443303D01*
X2148660Y2443304D01*
X2148533Y2444192D01*
X2142599Y2457243D01*
X2139279Y2461096D01*
X2133826Y2467424D01*
X2133826Y2467424D01*
X2133240Y2468104D01*
X2121210Y2475902D01*
X2107474Y2480009D01*
X2106577Y2480015D01*
X2106576Y2480015D01*
X2100556Y2480052D01*
X2093138Y2480097D01*
X2079353Y2476157D01*
X2067228Y2468507D01*
X2057738Y2457761D01*
X2051645Y2444784D01*
X2049588Y2431570D01*
X2049448Y2430674D01*
X2046424Y2424251D01*
X2040407Y2420482D01*
X2036921Y2420013D01*
X2029424Y2420059D01*
X2023138Y2420097D01*
X2009353Y2416157D01*
X1997228Y2408507D01*
X1996634Y2407834D01*
X1996634Y2407834D01*
X1992889Y2403594D01*
X1987738Y2397761D01*
X1981645Y2384784D01*
X1981459Y2383594D01*
X1979751Y2372622D01*
X1979439Y2370618D01*
X500476Y2370618D01*
X499691Y2376102D01*
X498660Y2383303D01*
X498660Y2383304D01*
X498532Y2384192D01*
X492599Y2397243D01*
X490149Y2400086D01*
X483826Y2407424D01*
X483826Y2407424D01*
X483240Y2408104D01*
X471210Y2415902D01*
X457474Y2420009D01*
X456576Y2420015D01*
X456576Y2420015D01*
X450556Y2420052D01*
X443138Y2420097D01*
X429353Y2416157D01*
X417228Y2408507D01*
X416634Y2407834D01*
X416634Y2407834D01*
X412889Y2403594D01*
X407738Y2397761D01*
X401645Y2384784D01*
X401460Y2383594D01*
X399751Y2372622D01*
X399439Y2370618D01*
X20062Y2370618D01*
X20062Y2450618D01*
X759439Y2450618D01*
X759555Y2449728D01*
X759555Y2449727D01*
X760202Y2444784D01*
X761298Y2436402D01*
X767072Y2423280D01*
X767650Y2422592D01*
X767650Y2422592D01*
X775206Y2413603D01*
X776297Y2412305D01*
X788231Y2404361D01*
X801916Y2400086D01*
X802813Y2400069D01*
X802813Y2400069D01*
X809346Y2399950D01*
X816250Y2399823D01*
X817153Y2400069D01*
X829216Y2403358D01*
X829216Y2403358D01*
X830082Y2403594D01*
X842299Y2411096D01*
X845470Y2414598D01*
X851318Y2421059D01*
X851920Y2421725D01*
X856256Y2430674D01*
X857779Y2433819D01*
X857779Y2433819D01*
X858171Y2434627D01*
X860550Y2448765D01*
X860565Y2450000D01*
X859145Y2459911D01*
X858660Y2463303D01*
X858659Y2463304D01*
X858532Y2464192D01*
X852598Y2477243D01*
X850139Y2480097D01*
X843826Y2487424D01*
X843826Y2487424D01*
X843240Y2488104D01*
X831209Y2495902D01*
X817474Y2500009D01*
X816576Y2500015D01*
X816576Y2500015D01*
X810555Y2500052D01*
X803138Y2500097D01*
X789353Y2496157D01*
X777228Y2488507D01*
X776634Y2487834D01*
X776634Y2487834D01*
X773087Y2483819D01*
X767738Y2477761D01*
X761645Y2464784D01*
X760930Y2460193D01*
X759875Y2453419D01*
X759439Y2450618D01*
X20062Y2450618D01*
X20062Y2530618D01*
X379439Y2530618D01*
X379555Y2529728D01*
X379555Y2529727D01*
X379813Y2527761D01*
X381298Y2516402D01*
X387072Y2503280D01*
X387650Y2502592D01*
X387650Y2502592D01*
X389955Y2499850D01*
X396297Y2492305D01*
X408231Y2484361D01*
X409089Y2484093D01*
X410686Y2483594D01*
X421916Y2480086D01*
X422813Y2480069D01*
X422813Y2480069D01*
X429346Y2479950D01*
X436250Y2479823D01*
X437153Y2480069D01*
X449216Y2483358D01*
X449216Y2483358D01*
X450082Y2483594D01*
X462299Y2491096D01*
X470918Y2500618D01*
X2609439Y2500618D01*
X2609556Y2499728D01*
X2609556Y2499727D01*
X2610022Y2496157D01*
X2611298Y2486402D01*
X2611660Y2485580D01*
X2615029Y2477923D01*
X2617072Y2473280D01*
X2617650Y2472592D01*
X2617650Y2472592D01*
X2624959Y2463897D01*
X2626297Y2462305D01*
X2632112Y2458434D01*
X2635384Y2456256D01*
X2638231Y2454361D01*
X2651916Y2450086D01*
X2652813Y2450069D01*
X2652813Y2450069D01*
X2659346Y2449950D01*
X2666250Y2449823D01*
X2667153Y2450069D01*
X2679216Y2453358D01*
X2679216Y2453358D01*
X2680082Y2453594D01*
X2692299Y2461096D01*
X2701920Y2471725D01*
X2708171Y2484627D01*
X2710550Y2498765D01*
X2710565Y2500000D01*
X2709233Y2509299D01*
X2708660Y2513303D01*
X2708660Y2513304D01*
X2708532Y2514192D01*
X2707527Y2516402D01*
X2704333Y2523428D01*
X2702598Y2527243D01*
X2699690Y2530618D01*
X2693826Y2537424D01*
X2693826Y2537424D01*
X2693240Y2538104D01*
X2681210Y2545902D01*
X2667474Y2550009D01*
X2666576Y2550015D01*
X2666576Y2550015D01*
X2660556Y2550052D01*
X2653138Y2550097D01*
X2639353Y2546157D01*
X2627228Y2538507D01*
X2626634Y2537834D01*
X2626634Y2537834D01*
X2623858Y2534691D01*
X2617738Y2527761D01*
X2611645Y2514784D01*
X2610925Y2510160D01*
X2609854Y2503280D01*
X2609439Y2500618D01*
X470918Y2500618D01*
X471920Y2501725D01*
X476007Y2510160D01*
X477779Y2513819D01*
X477779Y2513819D01*
X478171Y2514627D01*
X480550Y2528765D01*
X480565Y2530000D01*
X479346Y2538507D01*
X478660Y2543303D01*
X478659Y2543304D01*
X478532Y2544192D01*
X472598Y2557243D01*
X470760Y2559377D01*
X463826Y2567424D01*
X463826Y2567424D01*
X463240Y2568104D01*
X451209Y2575902D01*
X437474Y2580009D01*
X436576Y2580015D01*
X436576Y2580015D01*
X430555Y2580052D01*
X423138Y2580097D01*
X409353Y2576157D01*
X397228Y2568507D01*
X387738Y2557761D01*
X381645Y2544784D01*
X381414Y2543303D01*
X380073Y2534691D01*
X379439Y2530618D01*
X20062Y2530618D01*
X20062Y2690618D01*
X859439Y2690618D01*
X859555Y2689728D01*
X859555Y2689727D01*
X860117Y2685432D01*
X861298Y2676402D01*
X867072Y2663280D01*
X867650Y2662592D01*
X867650Y2662592D01*
X875719Y2652993D01*
X876297Y2652305D01*
X888231Y2644361D01*
X901916Y2640086D01*
X902813Y2640069D01*
X902813Y2640069D01*
X909346Y2639950D01*
X916250Y2639823D01*
X917153Y2640069D01*
X929216Y2643358D01*
X929216Y2643358D01*
X930082Y2643594D01*
X941521Y2650618D01*
X1329439Y2650618D01*
X1329556Y2649728D01*
X1329556Y2649727D01*
X1330292Y2644093D01*
X1331298Y2636402D01*
X1337072Y2623280D01*
X1337650Y2622592D01*
X1337650Y2622592D01*
X1338379Y2621725D01*
X1346297Y2612305D01*
X1358231Y2604361D01*
X1371916Y2600086D01*
X1372813Y2600069D01*
X1372813Y2600069D01*
X1379346Y2599950D01*
X1386250Y2599823D01*
X1387153Y2600069D01*
X1399216Y2603358D01*
X1399216Y2603358D01*
X1400082Y2603594D01*
X1412299Y2611096D01*
X1421920Y2621725D01*
X1428171Y2634627D01*
X1430550Y2648765D01*
X1430565Y2650000D01*
X1428981Y2661059D01*
X1428660Y2663303D01*
X1428659Y2663304D01*
X1428532Y2664192D01*
X1422598Y2677243D01*
X1415801Y2685132D01*
X1413826Y2687424D01*
X1413826Y2687424D01*
X1413240Y2688104D01*
X1401209Y2695902D01*
X1387474Y2700009D01*
X1386576Y2700015D01*
X1386576Y2700015D01*
X1380556Y2700052D01*
X1373138Y2700097D01*
X1359353Y2696157D01*
X1347228Y2688507D01*
X1346634Y2687834D01*
X1346634Y2687834D01*
X1342483Y2683134D01*
X1337738Y2677761D01*
X1331645Y2664784D01*
X1331065Y2661059D01*
X1329617Y2651761D01*
X1329439Y2650618D01*
X941521Y2650618D01*
X942299Y2651096D01*
X951920Y2661725D01*
X958171Y2674627D01*
X960550Y2688765D01*
X960565Y2690000D01*
X959747Y2695708D01*
X958660Y2703303D01*
X958659Y2703304D01*
X958532Y2704192D01*
X952598Y2717243D01*
X948422Y2722089D01*
X943826Y2727424D01*
X943826Y2727424D01*
X943240Y2728104D01*
X931209Y2735902D01*
X917474Y2740009D01*
X916576Y2740015D01*
X916576Y2740015D01*
X910555Y2740052D01*
X903138Y2740097D01*
X889353Y2736157D01*
X877228Y2728507D01*
X867738Y2717761D01*
X861645Y2704784D01*
X861226Y2702097D01*
X859959Y2693956D01*
X859439Y2690618D01*
X20062Y2690618D01*
X20062Y2930618D01*
X439439Y2930618D01*
X439555Y2929727D01*
X439555Y2929727D01*
X440201Y2924787D01*
X441298Y2916402D01*
X441660Y2915580D01*
X445157Y2907632D01*
X447072Y2903280D01*
X447650Y2902592D01*
X447650Y2902592D01*
X455719Y2892993D01*
X456297Y2892305D01*
X468231Y2884361D01*
X469089Y2884093D01*
X470686Y2883594D01*
X481916Y2880086D01*
X482813Y2880069D01*
X482813Y2880069D01*
X489346Y2879950D01*
X496250Y2879823D01*
X497153Y2880069D01*
X509216Y2883358D01*
X509216Y2883358D01*
X510082Y2883594D01*
X522299Y2891095D01*
X530918Y2900618D01*
X769439Y2900618D01*
X769555Y2899727D01*
X769555Y2899727D01*
X769920Y2896943D01*
X771298Y2886402D01*
X777072Y2873280D01*
X777650Y2872592D01*
X777650Y2872592D01*
X782496Y2866827D01*
X786297Y2862305D01*
X787045Y2861807D01*
X796511Y2855506D01*
X798231Y2854361D01*
X811916Y2850086D01*
X812813Y2850069D01*
X812813Y2850069D01*
X819346Y2849950D01*
X826250Y2849823D01*
X827153Y2850069D01*
X839216Y2853358D01*
X839216Y2853358D01*
X840082Y2853594D01*
X852299Y2861095D01*
X860913Y2870612D01*
X959437Y2870612D01*
X959553Y2869722D01*
X959553Y2869721D01*
X960082Y2865678D01*
X961296Y2856396D01*
X961658Y2855574D01*
X966141Y2845386D01*
X967070Y2843274D01*
X967648Y2842587D01*
X967648Y2842586D01*
X971519Y2837981D01*
X976295Y2832299D01*
X988229Y2824355D01*
X1001914Y2820080D01*
X1002811Y2820064D01*
X1002811Y2820063D01*
X1009344Y2819944D01*
X1016248Y2819817D01*
X1017151Y2820063D01*
X1019184Y2820618D01*
X2139439Y2820618D01*
X2139556Y2819727D01*
X2139556Y2819727D01*
X2139960Y2816632D01*
X2141298Y2806402D01*
X2141660Y2805580D01*
X2145648Y2796517D01*
X2147072Y2793280D01*
X2147650Y2792592D01*
X2147650Y2792592D01*
X2150575Y2789113D01*
X2156297Y2782305D01*
X2168231Y2774361D01*
X2181916Y2770086D01*
X2182813Y2770069D01*
X2182813Y2770069D01*
X2189346Y2769950D01*
X2196250Y2769823D01*
X2197153Y2770069D01*
X2209216Y2773358D01*
X2209216Y2773358D01*
X2210082Y2773594D01*
X2222299Y2781096D01*
X2231920Y2791725D01*
X2238171Y2804627D01*
X2239088Y2810079D01*
X2242191Y2816465D01*
X2248254Y2820160D01*
X2255351Y2819990D01*
X2261231Y2816010D01*
X2262956Y2813264D01*
X2271242Y2795291D01*
X2273192Y2792532D01*
X2281274Y2781096D01*
X2282799Y2778939D01*
X2283213Y2778535D01*
X2287498Y2774361D01*
X2297142Y2764967D01*
X2297622Y2764646D01*
X2299509Y2763384D01*
X2313791Y2753842D01*
X2314321Y2753614D01*
X2314321Y2753614D01*
X2317508Y2752245D01*
X2332188Y2745938D01*
X2351718Y2741519D01*
X2352295Y2741496D01*
X2352295Y2741496D01*
X2356413Y2741334D01*
X2371726Y2740733D01*
X2391543Y2743606D01*
X2392089Y2743791D01*
X2392089Y2743791D01*
X2409957Y2749857D01*
X2410504Y2750042D01*
X2426722Y2759125D01*
X2511050Y2759125D01*
X2512213Y2753276D01*
X2516645Y2746644D01*
X2523277Y2742213D01*
X2524494Y2741971D01*
X2524494Y2741971D01*
X2528518Y2741170D01*
X2529125Y2741049D01*
X2710875Y2741049D01*
X2711481Y2741170D01*
X2715506Y2741971D01*
X2715506Y2741971D01*
X2716723Y2742213D01*
X2723355Y2746644D01*
X2727786Y2753276D01*
X2728950Y2759125D01*
X2728950Y2940874D01*
X2728829Y2941481D01*
X2728029Y2945505D01*
X2728029Y2945506D01*
X2727786Y2946722D01*
X2723355Y2953355D01*
X2716723Y2957786D01*
X2715506Y2958028D01*
X2715506Y2958028D01*
X2711481Y2958829D01*
X2710875Y2958949D01*
X2529125Y2958949D01*
X2528518Y2958829D01*
X2524494Y2958028D01*
X2524494Y2958028D01*
X2523277Y2957786D01*
X2516645Y2953355D01*
X2512213Y2946722D01*
X2511971Y2945506D01*
X2511971Y2945505D01*
X2511170Y2941481D01*
X2511050Y2940874D01*
X2511050Y2759125D01*
X2426722Y2759125D01*
X2427974Y2759826D01*
X2443369Y2772630D01*
X2456173Y2788025D01*
X2465957Y2805496D01*
X2467513Y2810079D01*
X2472208Y2823910D01*
X2472208Y2823910D01*
X2472393Y2824457D01*
X2475267Y2844273D01*
X2475417Y2849999D01*
X2473584Y2869939D01*
X2473268Y2871059D01*
X2469601Y2884064D01*
X2468149Y2889211D01*
X2459293Y2907169D01*
X2458801Y2907828D01*
X2453607Y2914784D01*
X2447312Y2923213D01*
X2442855Y2927334D01*
X2433033Y2936414D01*
X2433032Y2936414D01*
X2432608Y2936806D01*
X2418192Y2945901D01*
X2416162Y2947183D01*
X2415674Y2947490D01*
X2415138Y2947704D01*
X2415138Y2947704D01*
X2397612Y2954696D01*
X2397076Y2954910D01*
X2396510Y2955023D01*
X2396509Y2955023D01*
X2378004Y2958704D01*
X2378003Y2958704D01*
X2377437Y2958817D01*
X2376859Y2958824D01*
X2376859Y2958824D01*
X2366864Y2958955D01*
X2357415Y2959079D01*
X2356845Y2958981D01*
X2356845Y2958981D01*
X2341973Y2956425D01*
X2337681Y2955688D01*
X2318895Y2948757D01*
X2301686Y2938519D01*
X2301252Y2938139D01*
X2301252Y2938139D01*
X2288931Y2927334D01*
X2286632Y2925317D01*
X2286274Y2924863D01*
X2286274Y2924863D01*
X2278204Y2914627D01*
X2274235Y2909592D01*
X2273966Y2909080D01*
X2273966Y2909080D01*
X2268539Y2898765D01*
X2264912Y2891871D01*
X2264740Y2891319D01*
X2261176Y2879839D01*
X2258974Y2872748D01*
X2256620Y2852864D01*
X2256658Y2852287D01*
X2256654Y2852143D01*
X2254477Y2845386D01*
X2248991Y2840879D01*
X2241940Y2840053D01*
X2235561Y2843170D01*
X2233444Y2845685D01*
X2232970Y2846426D01*
X2232598Y2847243D01*
X2230542Y2849629D01*
X2223826Y2857424D01*
X2223826Y2857424D01*
X2223240Y2858104D01*
X2211210Y2865901D01*
X2197474Y2870009D01*
X2196576Y2870015D01*
X2196576Y2870015D01*
X2190556Y2870052D01*
X2183138Y2870097D01*
X2169353Y2866157D01*
X2157228Y2858507D01*
X2156634Y2857834D01*
X2156634Y2857834D01*
X2153082Y2853813D01*
X2147738Y2847761D01*
X2141645Y2834784D01*
X2140873Y2829827D01*
X2139952Y2823910D01*
X2139439Y2820618D01*
X1019184Y2820618D01*
X1029214Y2823352D01*
X1029214Y2823352D01*
X1030080Y2823588D01*
X1042297Y2831090D01*
X1051918Y2841719D01*
X1058169Y2854621D01*
X1060548Y2868759D01*
X1060563Y2869994D01*
X1059118Y2880086D01*
X1058658Y2883297D01*
X1058658Y2883298D01*
X1058530Y2884186D01*
X1057897Y2885580D01*
X1055602Y2890626D01*
X1054950Y2892060D01*
X1053952Y2899089D01*
X1056912Y2905542D01*
X1062891Y2909371D01*
X1064863Y2909778D01*
X1065352Y2909839D01*
X1066250Y2909823D01*
X1067116Y2910059D01*
X1079216Y2913358D01*
X1079216Y2913358D01*
X1080082Y2913594D01*
X1092299Y2921095D01*
X1092936Y2921799D01*
X1100918Y2930618D01*
X1101920Y2931725D01*
X1105438Y2938986D01*
X1107780Y2943819D01*
X1107780Y2943819D01*
X1108171Y2944627D01*
X1110550Y2958765D01*
X1110565Y2960000D01*
X1109346Y2968507D01*
X1108660Y2973303D01*
X1108660Y2973303D01*
X1108532Y2974192D01*
X1108161Y2975009D01*
X1108161Y2975009D01*
X1107896Y2975591D01*
X1106898Y2982620D01*
X1109858Y2989073D01*
X1115837Y2992901D01*
X1123124Y2992833D01*
X1131916Y2990086D01*
X1132813Y2990069D01*
X1132813Y2990069D01*
X1139346Y2989950D01*
X1146250Y2989823D01*
X1147153Y2990069D01*
X1159216Y2993358D01*
X1159216Y2993358D01*
X1160082Y2993594D01*
X1172299Y3001095D01*
X1175222Y3004324D01*
X1179613Y3009176D01*
X1181920Y3011725D01*
X1185797Y3019727D01*
X1186228Y3020617D01*
X1409439Y3020617D01*
X1409555Y3019727D01*
X1409555Y3019727D01*
X1410027Y3016120D01*
X1411298Y3006402D01*
X1411659Y3005580D01*
X1416030Y2995646D01*
X1417072Y2993279D01*
X1417649Y2992592D01*
X1417649Y2992592D01*
X1421144Y2988434D01*
X1426297Y2982305D01*
X1438231Y2974360D01*
X1451915Y2970085D01*
X1452813Y2970069D01*
X1452813Y2970069D01*
X1459346Y2969949D01*
X1466250Y2969822D01*
X1467153Y2970069D01*
X1479215Y2973357D01*
X1479216Y2973357D01*
X1480081Y2973593D01*
X1492299Y2981095D01*
X1501920Y2991724D01*
X1508171Y3004626D01*
X1510549Y3018764D01*
X1510564Y3019999D01*
X1509625Y3026556D01*
X1508659Y3033303D01*
X1508659Y3033303D01*
X1508532Y3034191D01*
X1502598Y3047242D01*
X1497376Y3053303D01*
X1493826Y3057423D01*
X1493825Y3057423D01*
X1493240Y3058103D01*
X1481209Y3065901D01*
X1467474Y3070009D01*
X1466576Y3070014D01*
X1466576Y3070014D01*
X1460555Y3070051D01*
X1453137Y3070096D01*
X1439353Y3066157D01*
X1427228Y3058506D01*
X1426633Y3057834D01*
X1426633Y3057834D01*
X1425506Y3056557D01*
X1417737Y3047761D01*
X1411644Y3034783D01*
X1411294Y3032535D01*
X1410063Y3024627D01*
X1409439Y3020617D01*
X1186228Y3020617D01*
X1187780Y3023819D01*
X1187780Y3023819D01*
X1188171Y3024627D01*
X1190550Y3038765D01*
X1190565Y3040000D01*
X1189288Y3048917D01*
X1188660Y3053303D01*
X1188660Y3053303D01*
X1188532Y3054192D01*
X1187781Y3055844D01*
X1183431Y3065412D01*
X1182598Y3067243D01*
X1180352Y3069850D01*
X1173826Y3077424D01*
X1173826Y3077424D01*
X1173240Y3078104D01*
X1161210Y3085901D01*
X1147474Y3090009D01*
X1146576Y3090015D01*
X1146576Y3090015D01*
X1140556Y3090052D01*
X1133138Y3090097D01*
X1119353Y3086157D01*
X1107228Y3078507D01*
X1097738Y3067761D01*
X1091645Y3054784D01*
X1091507Y3053896D01*
X1089737Y3042528D01*
X1089439Y3040618D01*
X1089556Y3039727D01*
X1089556Y3039727D01*
X1089681Y3038765D01*
X1091298Y3026402D01*
X1091660Y3025580D01*
X1092232Y3024280D01*
X1093145Y3017240D01*
X1090106Y3010823D01*
X1084081Y3007068D01*
X1077089Y3007134D01*
X1076560Y3007292D01*
X1067474Y3010009D01*
X1066576Y3010015D01*
X1066576Y3010015D01*
X1060556Y3010052D01*
X1053138Y3010097D01*
X1039353Y3006157D01*
X1027228Y2998507D01*
X1026634Y2997834D01*
X1026634Y2997834D01*
X1023273Y2994028D01*
X1017738Y2987761D01*
X1011645Y2974784D01*
X1011367Y2973001D01*
X1010046Y2964517D01*
X1009439Y2960618D01*
X1009555Y2959727D01*
X1009555Y2959727D01*
X1009813Y2957761D01*
X1011298Y2946402D01*
X1013730Y2940874D01*
X1015099Y2937763D01*
X1016012Y2930722D01*
X1012973Y2924306D01*
X1006948Y2920551D01*
X1004913Y2920279D01*
X1004923Y2920207D01*
X1004033Y2920086D01*
X1003136Y2920091D01*
X989351Y2916151D01*
X977226Y2908501D01*
X967736Y2897755D01*
X961643Y2884778D01*
X961194Y2881894D01*
X959852Y2873280D01*
X959437Y2870612D01*
X860913Y2870612D01*
X861920Y2871725D01*
X868171Y2884627D01*
X870550Y2898765D01*
X870565Y2900000D01*
X869405Y2908098D01*
X868660Y2913303D01*
X868659Y2913303D01*
X868532Y2914192D01*
X867527Y2916402D01*
X865711Y2920396D01*
X862598Y2927243D01*
X859310Y2931059D01*
X853826Y2937424D01*
X853826Y2937424D01*
X853240Y2938104D01*
X841209Y2945901D01*
X827474Y2950009D01*
X826576Y2950015D01*
X826576Y2950015D01*
X820555Y2950052D01*
X813138Y2950097D01*
X799353Y2946157D01*
X787228Y2938507D01*
X786634Y2937834D01*
X786634Y2937834D01*
X786271Y2937424D01*
X777738Y2927761D01*
X771645Y2914784D01*
X771459Y2913594D01*
X769808Y2902987D01*
X769439Y2900618D01*
X530918Y2900618D01*
X531920Y2901725D01*
X538171Y2914627D01*
X540550Y2928765D01*
X540565Y2930000D01*
X539345Y2938519D01*
X538660Y2943303D01*
X538660Y2943303D01*
X538532Y2944192D01*
X537901Y2945580D01*
X535960Y2949850D01*
X532598Y2957243D01*
X529690Y2960618D01*
X523826Y2967424D01*
X523826Y2967424D01*
X523240Y2968104D01*
X511209Y2975901D01*
X497474Y2980009D01*
X496576Y2980015D01*
X496576Y2980015D01*
X490555Y2980052D01*
X483138Y2980097D01*
X469353Y2976157D01*
X457228Y2968507D01*
X447738Y2957761D01*
X441645Y2944784D01*
X441414Y2943303D01*
X439854Y2933280D01*
X439439Y2930618D01*
X20062Y2930618D01*
X20062Y3106864D01*
X2256620Y3106864D01*
X2257930Y3086883D01*
X2262859Y3067475D01*
X2271242Y3049291D01*
X2272209Y3047923D01*
X2281336Y3035008D01*
X2282799Y3032939D01*
X2297142Y3018967D01*
X2297622Y3018646D01*
X2301504Y3016052D01*
X2313791Y3007842D01*
X2314321Y3007614D01*
X2314321Y3007614D01*
X2319215Y3005511D01*
X2332188Y2999938D01*
X2351718Y2995519D01*
X2352295Y2995496D01*
X2352295Y2995496D01*
X2356413Y2995334D01*
X2371726Y2994733D01*
X2391543Y2997606D01*
X2392089Y2997791D01*
X2392089Y2997791D01*
X2409957Y3003857D01*
X2410504Y3004042D01*
X2427974Y3013826D01*
X2443369Y3026630D01*
X2456173Y3042025D01*
X2465957Y3059496D01*
X2468587Y3067243D01*
X2472208Y3077910D01*
X2472208Y3077910D01*
X2472393Y3078457D01*
X2475267Y3098273D01*
X2475417Y3103999D01*
X2475153Y3106864D01*
X2510620Y3106864D01*
X2511930Y3086883D01*
X2516859Y3067475D01*
X2525242Y3049291D01*
X2526209Y3047923D01*
X2535336Y3035008D01*
X2536799Y3032939D01*
X2551142Y3018967D01*
X2551622Y3018646D01*
X2555504Y3016052D01*
X2567791Y3007842D01*
X2568321Y3007614D01*
X2568321Y3007614D01*
X2573215Y3005511D01*
X2586188Y2999938D01*
X2605718Y2995519D01*
X2606295Y2995496D01*
X2606295Y2995496D01*
X2610413Y2995334D01*
X2625726Y2994733D01*
X2645543Y2997606D01*
X2646089Y2997791D01*
X2646089Y2997791D01*
X2663957Y3003857D01*
X2664504Y3004042D01*
X2681974Y3013826D01*
X2697369Y3026630D01*
X2710173Y3042025D01*
X2719957Y3059496D01*
X2722587Y3067243D01*
X2726208Y3077910D01*
X2726208Y3077910D01*
X2726393Y3078457D01*
X2729267Y3098273D01*
X2729417Y3103999D01*
X2729346Y3104766D01*
X3090828Y3104766D01*
X3091046Y3103364D01*
X3091182Y3102486D01*
X3091012Y3102460D01*
X3091014Y3102454D01*
X3091182Y3102480D01*
X3091438Y3100841D01*
X3091436Y3100841D01*
X3091439Y3100831D01*
X3092233Y3095727D01*
X3092233Y3095727D01*
X3091757Y3095653D01*
X3091758Y3095643D01*
X3092239Y3095718D01*
X3223897Y2253720D01*
X3224300Y2251140D01*
X3224299Y2251128D01*
X3224302Y2251129D01*
X3225091Y2246051D01*
X3225895Y2244882D01*
X3226082Y2244414D01*
X3226458Y2243709D01*
X3226745Y2243294D01*
X3227270Y2241977D01*
X3228315Y2241017D01*
X3228622Y2240572D01*
X3229074Y2240051D01*
X3229473Y2239685D01*
X3230277Y2238516D01*
X3231509Y2237811D01*
X3231880Y2237470D01*
X3232524Y2236999D01*
X3232962Y2236749D01*
X3234007Y2235789D01*
X3235366Y2235378D01*
X3235835Y2235110D01*
X3236470Y2234836D01*
X3236986Y2234679D01*
X3238218Y2233975D01*
X3239633Y2233874D01*
X3240116Y2233728D01*
X3240901Y2233582D01*
X3241404Y2233547D01*
X3242762Y2233136D01*
X3244163Y2233354D01*
X3244164Y2233354D01*
X3245041Y2233490D01*
X3245073Y2233290D01*
X3245079Y2233289D01*
X3245048Y2233490D01*
X3246616Y2233735D01*
X3246627Y2233737D01*
X3250682Y2234367D01*
X3251801Y2234541D01*
X3251875Y2234065D01*
X3251885Y2234066D01*
X3251809Y2234547D01*
X3255739Y2235161D01*
X3309288Y2243535D01*
X3316327Y2242611D01*
X3321750Y2238028D01*
X3323834Y2231241D01*
X3321917Y2224405D01*
X3321336Y2223555D01*
X3319256Y2220765D01*
X3318970Y2220121D01*
X3318970Y2220121D01*
X3316318Y2214139D01*
X3311976Y2204347D01*
X3311144Y2200111D01*
X3308705Y2187694D01*
X3308514Y2186725D01*
X3308926Y2172750D01*
X3308987Y2172359D01*
X3308987Y2172358D01*
X3311225Y2158045D01*
X3313497Y2143518D01*
X3313590Y2143180D01*
X3313590Y2143179D01*
X3314961Y2138161D01*
X3317034Y2130577D01*
X3325490Y2114733D01*
X3325951Y2114201D01*
X3325951Y2114201D01*
X3334617Y2104192D01*
X3337245Y2101156D01*
X3351716Y2090521D01*
X3352362Y2090240D01*
X3352362Y2090240D01*
X3356856Y2088285D01*
X3368185Y2083356D01*
X3368876Y2083225D01*
X3368876Y2083225D01*
X3381416Y2080853D01*
X3385831Y2080018D01*
X3396865Y2080420D01*
X3403073Y2080646D01*
X3403074Y2080646D01*
X3403778Y2080672D01*
X3421134Y2085286D01*
X3421758Y2085613D01*
X3431295Y2090618D01*
X3999439Y2090618D01*
X3999555Y2089727D01*
X3999555Y2089727D01*
X4000202Y2084784D01*
X4001298Y2076402D01*
X4001660Y2075580D01*
X4005029Y2067923D01*
X4007072Y2063280D01*
X4007650Y2062592D01*
X4007650Y2062592D01*
X4015458Y2053303D01*
X4016297Y2052305D01*
X4028231Y2044361D01*
X4041916Y2040086D01*
X4042813Y2040069D01*
X4042813Y2040069D01*
X4049346Y2039950D01*
X4056250Y2039823D01*
X4057153Y2040069D01*
X4069216Y2043358D01*
X4069216Y2043358D01*
X4070082Y2043594D01*
X4082299Y2051095D01*
X4091920Y2061725D01*
X4096229Y2070618D01*
X10029439Y2070618D01*
X10029556Y2069727D01*
X10029556Y2069727D01*
X10029813Y2067761D01*
X10031298Y2056402D01*
X10037072Y2043280D01*
X10037650Y2042592D01*
X10037650Y2042592D01*
X10040058Y2039727D01*
X10046297Y2032305D01*
X10049746Y2030009D01*
X10056651Y2025413D01*
X10058231Y2024361D01*
X10059089Y2024093D01*
X10060686Y2023594D01*
X10071916Y2020086D01*
X10072813Y2020069D01*
X10072813Y2020069D01*
X10079346Y2019950D01*
X10086250Y2019823D01*
X10087153Y2020069D01*
X10099216Y2023358D01*
X10099216Y2023358D01*
X10100082Y2023594D01*
X10112299Y2031095D01*
X10121920Y2041725D01*
X10126805Y2051807D01*
X10127780Y2053819D01*
X10127780Y2053819D01*
X10128171Y2054627D01*
X10130550Y2068765D01*
X10130565Y2070000D01*
X10129346Y2078507D01*
X10128660Y2083303D01*
X10128660Y2083303D01*
X10128532Y2084192D01*
X10128117Y2085105D01*
X10125892Y2090000D01*
X10122598Y2097243D01*
X10119226Y2101156D01*
X10113826Y2107424D01*
X10113826Y2107424D01*
X10113240Y2108104D01*
X10101210Y2115902D01*
X10087474Y2120009D01*
X10086576Y2120015D01*
X10086576Y2120015D01*
X10080556Y2120052D01*
X10073138Y2120097D01*
X10059353Y2116157D01*
X10047228Y2108507D01*
X10046634Y2107834D01*
X10046634Y2107834D01*
X10043940Y2104784D01*
X10037738Y2097761D01*
X10031645Y2084784D01*
X10031507Y2083896D01*
X10029938Y2073819D01*
X10029439Y2070618D01*
X4096229Y2070618D01*
X4098171Y2074627D01*
X4100550Y2088765D01*
X4100565Y2090000D01*
X4099296Y2098856D01*
X4098660Y2103303D01*
X4098659Y2103304D01*
X4098532Y2104192D01*
X4092598Y2117243D01*
X4089276Y2121099D01*
X4083826Y2127424D01*
X4083826Y2127424D01*
X4083240Y2128104D01*
X4071209Y2135902D01*
X4057474Y2140009D01*
X4056576Y2140015D01*
X4056576Y2140015D01*
X4050555Y2140052D01*
X4043138Y2140097D01*
X4029353Y2136157D01*
X4017228Y2128507D01*
X4007738Y2117761D01*
X4001645Y2104784D01*
X4001507Y2103897D01*
X3999857Y2093303D01*
X3999439Y2090618D01*
X3431295Y2090618D01*
X3436413Y2093303D01*
X3436414Y2093304D01*
X3437037Y2093631D01*
X3450695Y2105291D01*
X3459608Y2117243D01*
X3461010Y2119123D01*
X3461011Y2119123D01*
X3461432Y2119688D01*
X3461912Y2120772D01*
X3468426Y2135462D01*
X3468711Y2136105D01*
X3471495Y2150278D01*
X3474771Y2156577D01*
X3480932Y2160105D01*
X3488022Y2159742D01*
X3493791Y2155603D01*
X3494975Y2153782D01*
X3501155Y2142201D01*
X3501616Y2141669D01*
X3501616Y2141669D01*
X3507431Y2134953D01*
X3512911Y2128624D01*
X3527382Y2117989D01*
X3528027Y2117708D01*
X3528027Y2117708D01*
X3532180Y2115902D01*
X3543850Y2110824D01*
X3544542Y2110694D01*
X3544542Y2110693D01*
X3557082Y2108321D01*
X3561496Y2107486D01*
X3572531Y2107888D01*
X3578739Y2108114D01*
X3578739Y2108114D01*
X3579443Y2108140D01*
X3596799Y2112754D01*
X3601756Y2115355D01*
X3612079Y2120772D01*
X3612079Y2120772D01*
X3612702Y2121099D01*
X3626361Y2132759D01*
X3635620Y2145176D01*
X3636676Y2146591D01*
X3636676Y2146591D01*
X3637097Y2147156D01*
X3637722Y2148566D01*
X3642830Y2160086D01*
X3644377Y2163573D01*
X3646547Y2174623D01*
X3647160Y2177746D01*
X3650436Y2184045D01*
X3656597Y2187573D01*
X3663688Y2187210D01*
X3669456Y2183071D01*
X3670640Y2181250D01*
X3676821Y2169669D01*
X3677282Y2169136D01*
X3677282Y2169136D01*
X3685331Y2159840D01*
X3688576Y2156092D01*
X3703047Y2145457D01*
X3703693Y2145176D01*
X3703693Y2145176D01*
X3710529Y2142201D01*
X3719516Y2138292D01*
X3720207Y2138161D01*
X3720207Y2138161D01*
X3732150Y2135902D01*
X3737162Y2134953D01*
X3748196Y2135356D01*
X3754404Y2135582D01*
X3754405Y2135582D01*
X3755109Y2135608D01*
X3772465Y2140222D01*
X3773089Y2140549D01*
X3787744Y2148239D01*
X3787745Y2148239D01*
X3788368Y2148566D01*
X3802026Y2160227D01*
X3809782Y2170626D01*
X3812341Y2174059D01*
X3812342Y2174059D01*
X3812763Y2174623D01*
X3813243Y2175707D01*
X3818558Y2187694D01*
X3820042Y2191041D01*
X3820446Y2193096D01*
X3822520Y2203656D01*
X3822826Y2205213D01*
X3826101Y2211512D01*
X3832263Y2215040D01*
X3839353Y2214677D01*
X3845121Y2210538D01*
X3846306Y2208717D01*
X3848176Y2205213D01*
X3852486Y2197137D01*
X3852947Y2196604D01*
X3852947Y2196604D01*
X3863780Y2184092D01*
X3864241Y2183559D01*
X3878712Y2172924D01*
X3879358Y2172643D01*
X3879358Y2172643D01*
X3881279Y2171808D01*
X3895181Y2165759D01*
X3895872Y2165629D01*
X3895872Y2165629D01*
X3906735Y2163573D01*
X3912827Y2162421D01*
X3923861Y2162823D01*
X3930069Y2163049D01*
X3930070Y2163049D01*
X3930774Y2163075D01*
X3948130Y2167689D01*
X3948754Y2168016D01*
X3963409Y2175707D01*
X3963410Y2175707D01*
X3964033Y2176034D01*
X3977691Y2187694D01*
X3984733Y2197137D01*
X3988006Y2201526D01*
X3988007Y2201526D01*
X3988428Y2202091D01*
X3988908Y2203174D01*
X3994169Y2215040D01*
X3995707Y2218509D01*
X3998491Y2232682D01*
X4001767Y2238981D01*
X4007928Y2242509D01*
X4015018Y2242146D01*
X4020787Y2238007D01*
X4021971Y2236186D01*
X4028151Y2224604D01*
X4028613Y2224072D01*
X4028613Y2224072D01*
X4038790Y2212317D01*
X4039907Y2211027D01*
X4054378Y2200392D01*
X4070846Y2193227D01*
X4071538Y2193096D01*
X4071538Y2193096D01*
X4082403Y2191041D01*
X4088493Y2189889D01*
X4099527Y2190291D01*
X4105735Y2190517D01*
X4105735Y2190517D01*
X4106440Y2190543D01*
X4123796Y2195157D01*
X4124420Y2195484D01*
X4139075Y2203174D01*
X4139076Y2203175D01*
X4139699Y2203502D01*
X4153357Y2215162D01*
X4159429Y2223303D01*
X4163672Y2228994D01*
X4163672Y2228994D01*
X4164093Y2229559D01*
X4164574Y2230642D01*
X4168512Y2239523D01*
X4171373Y2245976D01*
X4171557Y2246910D01*
X4174146Y2260091D01*
X4174157Y2260149D01*
X4177433Y2266448D01*
X4183594Y2269976D01*
X4190684Y2269613D01*
X4196453Y2265474D01*
X4197637Y2263653D01*
X4198183Y2262629D01*
X4203817Y2252072D01*
X4204278Y2251539D01*
X4204278Y2251539D01*
X4212879Y2241606D01*
X4215573Y2238495D01*
X4230044Y2227860D01*
X4246512Y2220695D01*
X4247204Y2220564D01*
X4247204Y2220564D01*
X4258069Y2218509D01*
X4264158Y2217356D01*
X4275193Y2217759D01*
X4281401Y2217985D01*
X4281401Y2217985D01*
X4282105Y2218011D01*
X4299462Y2222625D01*
X4300087Y2222953D01*
X4314741Y2230642D01*
X4314741Y2230642D01*
X4315364Y2230969D01*
X4329023Y2242630D01*
X4334986Y2250626D01*
X4339338Y2256462D01*
X4339338Y2256462D01*
X4339759Y2257026D01*
X4340240Y2258110D01*
X4345805Y2270662D01*
X4347039Y2273444D01*
X4347271Y2274627D01*
X4349540Y2286176D01*
X4349823Y2287616D01*
X4353098Y2293915D01*
X4359259Y2297443D01*
X4366350Y2297080D01*
X4372118Y2292941D01*
X4373302Y2291120D01*
X4375842Y2286362D01*
X4379482Y2279540D01*
X4379944Y2279007D01*
X4379944Y2279007D01*
X4389547Y2267916D01*
X4391238Y2265963D01*
X4405709Y2255328D01*
X4406355Y2255047D01*
X4406355Y2255047D01*
X4418158Y2249912D01*
X4422177Y2248163D01*
X4422869Y2248032D01*
X4422869Y2248032D01*
X4433339Y2246051D01*
X4439824Y2244824D01*
X4450858Y2245227D01*
X4457066Y2245453D01*
X4457066Y2245453D01*
X4457771Y2245479D01*
X4475127Y2250093D01*
X4475751Y2250420D01*
X4490406Y2258110D01*
X4490407Y2258110D01*
X4491030Y2258437D01*
X4504688Y2270098D01*
X4510497Y2277887D01*
X4515003Y2283930D01*
X4515003Y2283930D01*
X4515424Y2284494D01*
X4515905Y2285577D01*
X4521013Y2297097D01*
X4522704Y2300912D01*
X4525205Y2313644D01*
X4525488Y2315085D01*
X4528764Y2321383D01*
X4534925Y2324911D01*
X4542015Y2324548D01*
X4547784Y2320410D01*
X4548968Y2318588D01*
X4555148Y2307007D01*
X4555609Y2306475D01*
X4555609Y2306475D01*
X4566210Y2294232D01*
X4566904Y2293430D01*
X4578705Y2284758D01*
X4579831Y2283930D01*
X4581375Y2282795D01*
X4582021Y2282514D01*
X4582021Y2282514D01*
X4591273Y2278489D01*
X4597843Y2275630D01*
X4598535Y2275499D01*
X4598535Y2275499D01*
X4607419Y2273819D01*
X4615489Y2272292D01*
X4626524Y2272694D01*
X4632732Y2272920D01*
X4632732Y2272920D01*
X4633436Y2272946D01*
X4650793Y2277560D01*
X4652562Y2278489D01*
X4666072Y2285577D01*
X4666072Y2285578D01*
X4666695Y2285905D01*
X4680354Y2297565D01*
X4689693Y2310088D01*
X4690669Y2311397D01*
X4690669Y2311397D01*
X4691090Y2311962D01*
X4691747Y2313443D01*
X4696248Y2323594D01*
X4698370Y2328379D01*
X4700652Y2340000D01*
X4701272Y2343156D01*
X9286977Y2343156D01*
X9288420Y2321140D01*
X9288562Y2320580D01*
X9288562Y2320580D01*
X9292517Y2305009D01*
X9293851Y2299755D01*
X9294093Y2299231D01*
X9294093Y2299231D01*
X9297654Y2291505D01*
X9303088Y2279718D01*
X9315822Y2261700D01*
X9331626Y2246304D01*
X9332106Y2245983D01*
X9332106Y2245983D01*
X9345009Y2237362D01*
X9349971Y2234046D01*
X9350502Y2233818D01*
X9350502Y2233818D01*
X9364371Y2227860D01*
X9370243Y2225337D01*
X9378209Y2223534D01*
X9391199Y2220595D01*
X9391200Y2220595D01*
X9391763Y2220467D01*
X9392340Y2220444D01*
X9392340Y2220444D01*
X9399121Y2220178D01*
X9413810Y2219601D01*
X9425726Y2221329D01*
X9435074Y2222684D01*
X9435074Y2222684D01*
X9435645Y2222767D01*
X9436191Y2222952D01*
X9436192Y2222953D01*
X9455990Y2229673D01*
X9455991Y2229673D01*
X9456538Y2229859D01*
X9457936Y2230642D01*
X9469935Y2237362D01*
X9475788Y2240640D01*
X9476950Y2241606D01*
X9492308Y2254380D01*
X9492752Y2254748D01*
X9498533Y2261700D01*
X9506491Y2271267D01*
X9506491Y2271268D01*
X9506860Y2271712D01*
X9516325Y2288614D01*
X9517358Y2290458D01*
X9517358Y2290458D01*
X9517641Y2290962D01*
X9517826Y2291509D01*
X9517827Y2291509D01*
X9524547Y2311308D01*
X9524547Y2311308D01*
X9524733Y2311855D01*
X9524816Y2312426D01*
X9524816Y2312426D01*
X9527089Y2328104D01*
X9527899Y2333690D01*
X9528064Y2340000D01*
X9527774Y2343156D01*
X9686977Y2343156D01*
X9688420Y2321140D01*
X9688562Y2320580D01*
X9688562Y2320580D01*
X9692517Y2305009D01*
X9693851Y2299755D01*
X9694093Y2299231D01*
X9694093Y2299231D01*
X9697654Y2291505D01*
X9703088Y2279718D01*
X9715822Y2261700D01*
X9731626Y2246304D01*
X9732106Y2245983D01*
X9732106Y2245983D01*
X9745009Y2237362D01*
X9749972Y2234046D01*
X9750502Y2233818D01*
X9750502Y2233818D01*
X9764371Y2227860D01*
X9770244Y2225337D01*
X9778209Y2223534D01*
X9791200Y2220595D01*
X9791200Y2220595D01*
X9791763Y2220467D01*
X9792340Y2220444D01*
X9792341Y2220444D01*
X9799121Y2220178D01*
X9813810Y2219601D01*
X9825726Y2221329D01*
X9835074Y2222684D01*
X9835074Y2222684D01*
X9835645Y2222767D01*
X9836192Y2222952D01*
X9836192Y2222953D01*
X9855991Y2229673D01*
X9855991Y2229673D01*
X9856538Y2229859D01*
X9857936Y2230642D01*
X9869935Y2237362D01*
X9875788Y2240640D01*
X9876950Y2241606D01*
X9892309Y2254380D01*
X9892752Y2254748D01*
X9898533Y2261700D01*
X9906491Y2271267D01*
X9906491Y2271268D01*
X9906860Y2271712D01*
X9916326Y2288614D01*
X9917359Y2290458D01*
X9917359Y2290458D01*
X9917641Y2290962D01*
X9917827Y2291509D01*
X9917827Y2291509D01*
X9924548Y2311308D01*
X9924548Y2311308D01*
X9924733Y2311855D01*
X9924816Y2312426D01*
X9924816Y2312426D01*
X9927089Y2328104D01*
X9927899Y2333690D01*
X9928064Y2340000D01*
X9926045Y2361971D01*
X9920057Y2383206D01*
X9910298Y2402995D01*
X9906996Y2407416D01*
X9897442Y2420211D01*
X9897442Y2420211D01*
X9897097Y2420673D01*
X9886681Y2430301D01*
X9881319Y2435258D01*
X9881319Y2435258D01*
X9880895Y2435650D01*
X9862235Y2447424D01*
X9841742Y2455599D01*
X9841176Y2455712D01*
X9841176Y2455712D01*
X9820669Y2459791D01*
X9820669Y2459791D01*
X9820102Y2459904D01*
X9819525Y2459911D01*
X9819525Y2459911D01*
X9808450Y2460056D01*
X9798041Y2460193D01*
X9797471Y2460095D01*
X9797471Y2460095D01*
X9776865Y2456554D01*
X9776865Y2456554D01*
X9776296Y2456456D01*
X9755596Y2448820D01*
X9755100Y2448524D01*
X9755100Y2448524D01*
X9744244Y2442066D01*
X9736634Y2437539D01*
X9720046Y2422991D01*
X9706386Y2405664D01*
X9696113Y2386138D01*
X9689570Y2365067D01*
X9686977Y2343156D01*
X9527774Y2343156D01*
X9526045Y2361971D01*
X9520056Y2383206D01*
X9510298Y2402995D01*
X9506996Y2407416D01*
X9497442Y2420211D01*
X9497442Y2420211D01*
X9497096Y2420673D01*
X9486681Y2430301D01*
X9481319Y2435258D01*
X9481318Y2435258D01*
X9480895Y2435650D01*
X9462235Y2447424D01*
X9441742Y2455599D01*
X9441176Y2455712D01*
X9441175Y2455712D01*
X9420669Y2459791D01*
X9420669Y2459791D01*
X9420102Y2459904D01*
X9419525Y2459911D01*
X9419524Y2459911D01*
X9408450Y2460056D01*
X9398040Y2460193D01*
X9397471Y2460095D01*
X9397471Y2460095D01*
X9376865Y2456554D01*
X9376865Y2456554D01*
X9376295Y2456456D01*
X9355595Y2448820D01*
X9355099Y2448524D01*
X9355099Y2448524D01*
X9344244Y2442066D01*
X9336634Y2437539D01*
X9320045Y2422991D01*
X9306386Y2405664D01*
X9296113Y2386138D01*
X9289570Y2365067D01*
X9286977Y2343156D01*
X4701272Y2343156D01*
X4701695Y2345310D01*
X4701695Y2345311D01*
X4701831Y2346002D01*
X4701420Y2359976D01*
X4701358Y2360367D01*
X4701358Y2360368D01*
X4697653Y2384064D01*
X4696849Y2389208D01*
X4696461Y2390626D01*
X4694467Y2397923D01*
X4693312Y2402149D01*
X4684856Y2417993D01*
X4683110Y2420009D01*
X4673561Y2431038D01*
X4673561Y2431038D01*
X4673101Y2431570D01*
X4669201Y2434436D01*
X4664897Y2440081D01*
X4664328Y2447158D01*
X4667675Y2453419D01*
X4673876Y2456877D01*
X4674716Y2457037D01*
X4995457Y2507189D01*
X5000552Y2507981D01*
X5001721Y2508786D01*
X5002189Y2508972D01*
X5002894Y2509349D01*
X5003308Y2509635D01*
X5004626Y2510160D01*
X5005586Y2511205D01*
X5006031Y2511512D01*
X5006552Y2511965D01*
X5006918Y2512363D01*
X5008087Y2513168D01*
X5008792Y2514399D01*
X5009133Y2514770D01*
X5009604Y2515415D01*
X5009854Y2515853D01*
X5010814Y2516898D01*
X5011225Y2518256D01*
X5011493Y2518725D01*
X5011766Y2519359D01*
X5011924Y2519876D01*
X5012628Y2521108D01*
X5012729Y2522524D01*
X5012875Y2523006D01*
X5013020Y2523792D01*
X5013056Y2524294D01*
X5013467Y2525652D01*
X5013113Y2527931D01*
X5013283Y2527958D01*
X5013281Y2527964D01*
X5013113Y2527938D01*
X5012849Y2529626D01*
X5012848Y2529636D01*
X5012062Y2534691D01*
X5012535Y2534764D01*
X5012534Y2534774D01*
X5012056Y2534700D01*
X4961104Y2860557D01*
X5465375Y2860557D01*
X5466818Y2838541D01*
X5466960Y2837981D01*
X5466960Y2837981D01*
X5470615Y2823588D01*
X5472249Y2817156D01*
X5472490Y2816632D01*
X5472490Y2816632D01*
X5476302Y2808363D01*
X5481486Y2797119D01*
X5494220Y2779101D01*
X5510024Y2763705D01*
X5510504Y2763385D01*
X5510504Y2763384D01*
X5518924Y2757759D01*
X5528369Y2751447D01*
X5528900Y2751219D01*
X5528900Y2751219D01*
X5548110Y2742966D01*
X5548641Y2742738D01*
X5555569Y2741170D01*
X5569597Y2737996D01*
X5569598Y2737996D01*
X5570161Y2737868D01*
X5570738Y2737846D01*
X5570738Y2737846D01*
X5577519Y2737579D01*
X5592207Y2737002D01*
X5603125Y2738585D01*
X5613471Y2740085D01*
X5613472Y2740085D01*
X5614043Y2740168D01*
X5614589Y2740354D01*
X5614590Y2740354D01*
X5634388Y2747074D01*
X5634389Y2747075D01*
X5634935Y2747260D01*
X5654186Y2758041D01*
X5656332Y2759826D01*
X5670706Y2771781D01*
X5671149Y2772149D01*
X5678199Y2780626D01*
X5684888Y2788669D01*
X5684888Y2788669D01*
X5685258Y2789113D01*
X5691758Y2800720D01*
X5695756Y2807859D01*
X5695756Y2807859D01*
X5696038Y2808363D01*
X5696224Y2808910D01*
X5696224Y2808910D01*
X5702945Y2828709D01*
X5702945Y2828710D01*
X5703131Y2829256D01*
X5703213Y2829827D01*
X5703213Y2829827D01*
X5705308Y2844273D01*
X5706297Y2851091D01*
X5706462Y2857401D01*
X5704443Y2879372D01*
X5704166Y2880354D01*
X5698702Y2899727D01*
X5698454Y2900608D01*
X5688695Y2920396D01*
X5685416Y2924787D01*
X5675839Y2937612D01*
X5675839Y2937612D01*
X5675494Y2938074D01*
X5662862Y2949752D01*
X5659716Y2952659D01*
X5659716Y2952660D01*
X5659292Y2953051D01*
X5640632Y2964825D01*
X5628106Y2969822D01*
X5620676Y2972787D01*
X5620140Y2973001D01*
X5619574Y2973113D01*
X5619573Y2973113D01*
X5599067Y2977192D01*
X5599066Y2977192D01*
X5598500Y2977305D01*
X5597922Y2977313D01*
X5597922Y2977313D01*
X5586848Y2977457D01*
X5576438Y2977594D01*
X5575868Y2977496D01*
X5575868Y2977496D01*
X5555263Y2973955D01*
X5555263Y2973955D01*
X5554693Y2973857D01*
X5533993Y2966221D01*
X5533497Y2965926D01*
X5533497Y2965926D01*
X5517529Y2956425D01*
X5515032Y2954940D01*
X5498443Y2940392D01*
X5484784Y2923065D01*
X5474511Y2903539D01*
X5470716Y2891319D01*
X5468244Y2883358D01*
X5467968Y2882468D01*
X5465375Y2860557D01*
X4961104Y2860557D01*
X4899310Y3255755D01*
X5403580Y3255755D01*
X5405023Y3233739D01*
X5405165Y3233179D01*
X5405166Y3233179D01*
X5410295Y3212981D01*
X5410454Y3212354D01*
X5410696Y3211830D01*
X5410696Y3211830D01*
X5416567Y3199096D01*
X5419692Y3192317D01*
X5432426Y3174299D01*
X5448230Y3158903D01*
X5448709Y3158583D01*
X5448710Y3158582D01*
X5457129Y3152957D01*
X5466575Y3146645D01*
X5467105Y3146417D01*
X5467106Y3146417D01*
X5486316Y3138164D01*
X5486847Y3137936D01*
X5492887Y3136569D01*
X5507803Y3133194D01*
X5507803Y3133194D01*
X5508367Y3133066D01*
X5508944Y3133044D01*
X5508944Y3133044D01*
X5515724Y3132777D01*
X5530413Y3132200D01*
X5541331Y3133783D01*
X5551677Y3135283D01*
X5551678Y3135283D01*
X5552249Y3135366D01*
X5552795Y3135552D01*
X5552795Y3135552D01*
X5572594Y3142272D01*
X5572595Y3142273D01*
X5573141Y3142458D01*
X5576966Y3144600D01*
X5588492Y3151055D01*
X5592392Y3153239D01*
X5601547Y3160853D01*
X5608912Y3166979D01*
X5609355Y3167347D01*
X5614925Y3174045D01*
X5623094Y3183867D01*
X5623094Y3183867D01*
X5623463Y3184311D01*
X5632275Y3200045D01*
X5633962Y3203057D01*
X5633962Y3203057D01*
X5634244Y3203561D01*
X5634430Y3204108D01*
X5634430Y3204109D01*
X5641151Y3223907D01*
X5641151Y3223908D01*
X5641336Y3224454D01*
X5641419Y3225025D01*
X5641419Y3225025D01*
X5643970Y3242615D01*
X5644502Y3246289D01*
X5644668Y3252599D01*
X5642649Y3274570D01*
X5642409Y3275419D01*
X5636817Y3295249D01*
X5636660Y3295806D01*
X5629808Y3309699D01*
X5627157Y3315076D01*
X5626901Y3315594D01*
X5625524Y3317438D01*
X5614045Y3332810D01*
X5614045Y3332810D01*
X5613700Y3333273D01*
X5602674Y3343465D01*
X5597922Y3347857D01*
X5597922Y3347858D01*
X5597498Y3348249D01*
X5578838Y3360023D01*
X5558345Y3368199D01*
X5557779Y3368311D01*
X5557779Y3368311D01*
X5537272Y3372390D01*
X5537272Y3372390D01*
X5536706Y3372503D01*
X5536128Y3372511D01*
X5536128Y3372511D01*
X5525054Y3372656D01*
X5514644Y3372792D01*
X5514074Y3372694D01*
X5514074Y3372694D01*
X5493469Y3369153D01*
X5493469Y3369153D01*
X5492899Y3369055D01*
X5472199Y3361419D01*
X5471703Y3361124D01*
X5471703Y3361124D01*
X5454770Y3351049D01*
X5453237Y3350138D01*
X5436649Y3335590D01*
X5422990Y3318263D01*
X5412716Y3298737D01*
X5406174Y3277666D01*
X5403580Y3255755D01*
X4899310Y3255755D01*
X4879989Y3379320D01*
X4879987Y3379331D01*
X4879873Y3380061D01*
X4879534Y3382245D01*
X4879422Y3382965D01*
X4879422Y3382965D01*
X4879204Y3384367D01*
X4878400Y3385535D01*
X4878213Y3386004D01*
X4877837Y3386708D01*
X4877551Y3387123D01*
X4877025Y3388441D01*
X4875980Y3389401D01*
X4875674Y3389845D01*
X4875220Y3390368D01*
X4874822Y3390733D01*
X4874018Y3391902D01*
X4872786Y3392606D01*
X4872416Y3392947D01*
X4871769Y3393420D01*
X4871333Y3393669D01*
X4870288Y3394629D01*
X4868930Y3395040D01*
X4868460Y3395308D01*
X4867826Y3395581D01*
X4867309Y3395739D01*
X4866077Y3396443D01*
X4864662Y3396544D01*
X4864180Y3396690D01*
X4863394Y3396835D01*
X4862891Y3396871D01*
X4861533Y3397282D01*
X4859254Y3396928D01*
X4859227Y3397098D01*
X4859221Y3397096D01*
X4859247Y3396928D01*
X4857609Y3396672D01*
X4857609Y3396673D01*
X4857599Y3396670D01*
X4852494Y3395877D01*
X4852494Y3395877D01*
X4852420Y3396353D01*
X4852411Y3396352D01*
X4852486Y3395871D01*
X4623590Y3360080D01*
X4616551Y3361004D01*
X4611128Y3365587D01*
X4609045Y3372374D01*
X4610961Y3379210D01*
X4611543Y3380061D01*
X4613202Y3382285D01*
X4613202Y3382286D01*
X4613623Y3382850D01*
X4614375Y3384547D01*
X4618125Y3393005D01*
X4620902Y3399267D01*
X4622745Y3408649D01*
X4624228Y3416198D01*
X4624228Y3416199D01*
X4624364Y3416890D01*
X4624007Y3428991D01*
X4623964Y3430468D01*
X4623964Y3430468D01*
X4623952Y3430865D01*
X4623891Y3431255D01*
X4623891Y3431256D01*
X4620687Y3451744D01*
X4619381Y3460096D01*
X4619191Y3460792D01*
X4617035Y3468678D01*
X4615844Y3473037D01*
X4607389Y3488881D01*
X4606108Y3490360D01*
X4597122Y3500739D01*
X5979440Y3500739D01*
X5981300Y3483886D01*
X5982345Y3481031D01*
X5986183Y3470544D01*
X5987127Y3467964D01*
X5987550Y3467334D01*
X5987550Y3467334D01*
X5988814Y3465454D01*
X5996583Y3453892D01*
X5997144Y3453381D01*
X5997145Y3453381D01*
X6008561Y3442992D01*
X6008562Y3442992D01*
X6009123Y3442481D01*
X6009791Y3442119D01*
X6009791Y3442118D01*
X6023356Y3434753D01*
X6023356Y3434753D01*
X6024024Y3434391D01*
X6024759Y3434198D01*
X6039688Y3430281D01*
X6039689Y3430281D01*
X6040423Y3430088D01*
X6049061Y3429953D01*
X6056616Y3429834D01*
X6056617Y3429834D01*
X6057376Y3429822D01*
X6058117Y3429992D01*
X6058117Y3429992D01*
X6065165Y3431606D01*
X6073903Y3433607D01*
X6089050Y3441225D01*
X6097442Y3448393D01*
X6245185Y3448393D01*
X6247864Y3422419D01*
X6248574Y3415540D01*
X6248493Y3415531D01*
X6248556Y3415299D01*
X6248541Y3415083D01*
X6248552Y3415012D01*
X6248815Y3414350D01*
X6248884Y3414177D01*
X6249629Y3411457D01*
X6285854Y3179789D01*
X6325726Y2924787D01*
X6325844Y2921926D01*
X6325783Y2921086D01*
X6325794Y2921015D01*
X6325875Y2920812D01*
X6325884Y2920590D01*
X6325958Y2920605D01*
X6332019Y2891807D01*
X6332778Y2888200D01*
X6343082Y2856275D01*
X6343215Y2855974D01*
X6343215Y2855974D01*
X6344339Y2853437D01*
X6356666Y2825602D01*
X6356830Y2825316D01*
X6356830Y2825315D01*
X6373217Y2796803D01*
X6373381Y2796517D01*
X6373574Y2796251D01*
X6373574Y2796250D01*
X6390691Y2772593D01*
X6393046Y2769339D01*
X6415443Y2744365D01*
X6415688Y2744143D01*
X6415688Y2744143D01*
X6432985Y2728507D01*
X6440329Y2721869D01*
X6440595Y2721674D01*
X6464558Y2704192D01*
X6467430Y2702097D01*
X6496448Y2685267D01*
X6496749Y2685132D01*
X6496750Y2685132D01*
X6506720Y2680669D01*
X6527068Y2671562D01*
X6527382Y2671459D01*
X6527382Y2671459D01*
X6558638Y2661235D01*
X6558638Y2661235D01*
X6558952Y2661133D01*
X6571608Y2658416D01*
X6591428Y2654162D01*
X6591429Y2654162D01*
X6591751Y2654093D01*
X6608447Y2652305D01*
X6624780Y2650556D01*
X6624780Y2650556D01*
X6625107Y2650521D01*
X6641473Y2650489D01*
X6658323Y2650456D01*
X6658324Y2650456D01*
X6658653Y2650455D01*
X6658981Y2650489D01*
X6658982Y2650489D01*
X6691506Y2653843D01*
X6691515Y2653762D01*
X6691748Y2653825D01*
X6691963Y2653810D01*
X6692034Y2653821D01*
X6692870Y2654154D01*
X6695589Y2654898D01*
X8960650Y3009067D01*
X8963511Y3009185D01*
X8963618Y3009178D01*
X8963639Y3009176D01*
X8964351Y3009124D01*
X8964422Y3009135D01*
X8964626Y3009216D01*
X8964851Y3009225D01*
X8964836Y3009300D01*
X8996915Y3016052D01*
X8996916Y3016052D01*
X8997238Y3016120D01*
X8997551Y3016221D01*
X8997552Y3016221D01*
X9028851Y3026322D01*
X9028851Y3026322D01*
X9029163Y3026422D01*
X9059837Y3040006D01*
X9063350Y3042025D01*
X9088636Y3056557D01*
X9088637Y3056558D01*
X9088922Y3056721D01*
X9116101Y3076386D01*
X9131292Y3090009D01*
X9140829Y3098563D01*
X9140830Y3098563D01*
X9141075Y3098783D01*
X9142935Y3100841D01*
X9152745Y3111693D01*
X9163571Y3123669D01*
X9178745Y3144467D01*
X9183149Y3150503D01*
X9183149Y3150503D01*
X9183343Y3150770D01*
X9200173Y3179789D01*
X9210814Y3203561D01*
X9213743Y3210106D01*
X9213743Y3210107D01*
X9213878Y3210408D01*
X9214515Y3212354D01*
X9224205Y3241978D01*
X9224205Y3241979D01*
X9224307Y3242292D01*
X9226205Y3251133D01*
X9231277Y3274770D01*
X9231277Y3274770D01*
X9231346Y3275092D01*
X9232878Y3289397D01*
X9234883Y3308121D01*
X9234883Y3308121D01*
X9234918Y3308448D01*
X9234966Y3332810D01*
X9234983Y3341664D01*
X9234983Y3341665D01*
X9234984Y3341994D01*
X9234663Y3345107D01*
X9231595Y3374848D01*
X9231677Y3374856D01*
X9231613Y3375089D01*
X9231629Y3375305D01*
X9231618Y3375376D01*
X9231354Y3376036D01*
X9231285Y3376210D01*
X9230540Y3378931D01*
X9230496Y3379210D01*
X9217583Y3461795D01*
X9629139Y3461795D01*
X9631203Y3446118D01*
X9637254Y3431511D01*
X9646879Y3418966D01*
X9647534Y3418464D01*
X9649585Y3416890D01*
X9659423Y3409341D01*
X9674031Y3403290D01*
X9689707Y3401226D01*
X9690526Y3401334D01*
X9704565Y3403182D01*
X9705383Y3403290D01*
X9719991Y3409341D01*
X9729829Y3416890D01*
X9731881Y3418464D01*
X9732535Y3418966D01*
X9742161Y3431511D01*
X9744065Y3436107D01*
X9906378Y3436107D01*
X9906548Y3435266D01*
X9906548Y3435266D01*
X9907286Y3431606D01*
X9909359Y3421322D01*
X9916207Y3407883D01*
X9916788Y3407251D01*
X9918070Y3405857D01*
X9926416Y3396781D01*
X9932825Y3392807D01*
X9938505Y3389286D01*
X9938505Y3389285D01*
X9939235Y3388833D01*
X9953718Y3384625D01*
X9954416Y3384574D01*
X9954557Y3384563D01*
X9954558Y3384563D01*
X9954787Y3384547D01*
X9965614Y3384547D01*
X9966039Y3384605D01*
X9966040Y3384605D01*
X9972088Y3385433D01*
X9976779Y3386076D01*
X9977568Y3386417D01*
X9989833Y3391725D01*
X9989833Y3391725D01*
X9990621Y3392066D01*
X10002343Y3401558D01*
X10011080Y3413852D01*
X10016189Y3428043D01*
X10016353Y3430273D01*
X10016768Y3435926D01*
X10017294Y3443086D01*
X10017026Y3444414D01*
X10015218Y3453381D01*
X10014313Y3457871D01*
X10007465Y3471310D01*
X9997256Y3482412D01*
X9989101Y3487468D01*
X9985167Y3489908D01*
X9985167Y3489908D01*
X9984437Y3490360D01*
X9969953Y3494568D01*
X9969256Y3494619D01*
X9969115Y3494630D01*
X9969114Y3494630D01*
X9968884Y3494647D01*
X9958057Y3494647D01*
X9957633Y3494588D01*
X9957632Y3494588D01*
X9951584Y3493760D01*
X9946893Y3493117D01*
X9946104Y3492776D01*
X9946104Y3492776D01*
X9933839Y3487468D01*
X9933839Y3487468D01*
X9933050Y3487127D01*
X9921329Y3477635D01*
X9912592Y3465341D01*
X9907483Y3451150D01*
X9907420Y3450294D01*
X9907420Y3450293D01*
X9907115Y3446139D01*
X9906378Y3436107D01*
X9744065Y3436107D01*
X9748212Y3446118D01*
X9750275Y3461795D01*
X9748212Y3477471D01*
X9742161Y3492079D01*
X9732535Y3504623D01*
X9719991Y3514248D01*
X9706535Y3519822D01*
X9706146Y3519983D01*
X9705383Y3520299D01*
X9689707Y3522363D01*
X9674031Y3520299D01*
X9673268Y3519983D01*
X9672879Y3519822D01*
X9659423Y3514248D01*
X9646879Y3504623D01*
X9637254Y3492079D01*
X9631203Y3477471D01*
X9629139Y3461795D01*
X9217583Y3461795D01*
X9189906Y3638799D01*
X9154443Y3865601D01*
X9154325Y3868461D01*
X9154335Y3868590D01*
X9154335Y3868591D01*
X9154386Y3869302D01*
X9154375Y3869373D01*
X9154295Y3869575D01*
X9154287Y3869775D01*
X9154221Y3869761D01*
X9147462Y3901866D01*
X9147462Y3901867D01*
X9147394Y3902189D01*
X9138418Y3930000D01*
X9569432Y3930000D01*
X9571496Y3914324D01*
X9577546Y3899716D01*
X9587172Y3887172D01*
X9599716Y3877546D01*
X9614324Y3871496D01*
X9630000Y3869432D01*
X9630819Y3869540D01*
X9644857Y3871388D01*
X9645676Y3871496D01*
X9660284Y3877546D01*
X9672828Y3887172D01*
X9682454Y3899716D01*
X9688504Y3914324D01*
X9690568Y3930000D01*
X9688504Y3945676D01*
X9682454Y3960284D01*
X9672828Y3972828D01*
X9671180Y3974093D01*
X9669208Y3975606D01*
X9660284Y3982454D01*
X9645676Y3988504D01*
X9630000Y3990568D01*
X9614324Y3988504D01*
X9599716Y3982454D01*
X9590792Y3975606D01*
X9588820Y3974093D01*
X9587172Y3972828D01*
X9577546Y3960284D01*
X9571496Y3945676D01*
X9569432Y3930000D01*
X9138418Y3930000D01*
X9137090Y3934113D01*
X9136957Y3934414D01*
X9136957Y3934415D01*
X9123640Y3964484D01*
X9123640Y3964484D01*
X9123506Y3964786D01*
X9122929Y3965790D01*
X9112645Y3983684D01*
X9106790Y3993871D01*
X9087125Y4021050D01*
X9086905Y4021295D01*
X9066299Y4044271D01*
X9811648Y4044271D01*
X9811735Y4043202D01*
X9811771Y4042973D01*
X9811771Y4042972D01*
X9815632Y4018285D01*
X9817270Y4007805D01*
X9820506Y3997011D01*
X9828563Y3984260D01*
X9839752Y3974146D01*
X9853248Y3967413D01*
X9868058Y3964558D01*
X9872251Y3964901D01*
X9882235Y3965720D01*
X9882235Y3965720D01*
X9883090Y3965790D01*
X9897238Y3971020D01*
X9897933Y3971523D01*
X9897934Y3971523D01*
X9908762Y3979358D01*
X9909457Y3979861D01*
X9910440Y3981095D01*
X9913536Y3984987D01*
X9918849Y3991663D01*
X9919184Y3992454D01*
X9919184Y3992454D01*
X9924387Y4004764D01*
X9924387Y4004764D01*
X9924721Y4005555D01*
X9926641Y4020516D01*
X9926554Y4021584D01*
X9926518Y4021814D01*
X9921085Y4056557D01*
X9921085Y4056558D01*
X9921019Y4056981D01*
X9918884Y4064102D01*
X9918030Y4066952D01*
X9918030Y4066953D01*
X9917783Y4067775D01*
X9909726Y4080526D01*
X9901665Y4087813D01*
X9899175Y4090064D01*
X9899174Y4090064D01*
X9898538Y4090640D01*
X9885041Y4097373D01*
X9870231Y4100229D01*
X9858803Y4099292D01*
X9856055Y4099066D01*
X9855199Y4098996D01*
X9841051Y4093766D01*
X9837908Y4091492D01*
X9829528Y4085429D01*
X9829528Y4085429D01*
X9828832Y4084925D01*
X9824753Y4079799D01*
X9820047Y4073886D01*
X9819440Y4073123D01*
X9813568Y4059231D01*
X9813458Y4058378D01*
X9813458Y4058378D01*
X9813336Y4057424D01*
X9811648Y4044271D01*
X9066299Y4044271D01*
X9064948Y4045777D01*
X9064947Y4045778D01*
X9064727Y4046023D01*
X9054367Y4055389D01*
X9040087Y4068297D01*
X9040087Y4068298D01*
X9039842Y4068519D01*
X9012741Y4088291D01*
X9012456Y4088456D01*
X8984007Y4104955D01*
X8984007Y4104956D01*
X8983722Y4105121D01*
X8953102Y4118826D01*
X8939369Y4123318D01*
X8921532Y4129152D01*
X8921532Y4129152D01*
X8921218Y4129255D01*
X8888419Y4136294D01*
X8870037Y4138263D01*
X8855390Y4139831D01*
X8855390Y4139831D01*
X8855063Y4139866D01*
X8821517Y4139933D01*
X8821188Y4139899D01*
X8821188Y4139899D01*
X8788664Y4136545D01*
X8788656Y4136627D01*
X8788422Y4136563D01*
X8788206Y4136578D01*
X8788136Y4136567D01*
X8787300Y4136234D01*
X8784580Y4135490D01*
X6519520Y3781320D01*
X6516658Y3781202D01*
X6515819Y3781264D01*
X6515748Y3781253D01*
X6515545Y3781172D01*
X6515294Y3781161D01*
X6515311Y3781079D01*
X6483255Y3774333D01*
X6483254Y3774333D01*
X6482932Y3774265D01*
X6451007Y3763963D01*
X6450706Y3763830D01*
X6450705Y3763829D01*
X6420635Y3750514D01*
X6420333Y3750380D01*
X6391247Y3733665D01*
X6390980Y3733472D01*
X6390980Y3733472D01*
X6386262Y3730059D01*
X6364068Y3714001D01*
X6339093Y3691604D01*
X6316597Y3666719D01*
X6314105Y3663303D01*
X6297110Y3640009D01*
X6296825Y3639618D01*
X6279994Y3610599D01*
X6279860Y3610299D01*
X6279859Y3610298D01*
X6268109Y3584044D01*
X6266289Y3579980D01*
X6266187Y3579666D01*
X6256361Y3549627D01*
X6255860Y3548095D01*
X6255791Y3547773D01*
X6255791Y3547772D01*
X6249473Y3518328D01*
X6248822Y3515296D01*
X6248787Y3514968D01*
X6248786Y3514967D01*
X6248204Y3509527D01*
X6245250Y3481940D01*
X6245221Y3466981D01*
X6245187Y3449451D01*
X6245185Y3448393D01*
X6097442Y3448393D01*
X6099191Y3449887D01*
X6101365Y3451744D01*
X6101365Y3451744D01*
X6101942Y3452237D01*
X6111836Y3466005D01*
X6112162Y3466817D01*
X6117877Y3481031D01*
X6117877Y3481031D01*
X6118160Y3481737D01*
X6119986Y3494568D01*
X6120491Y3498114D01*
X6120491Y3498114D01*
X6120549Y3498522D01*
X6120565Y3500000D01*
X6120384Y3501492D01*
X6118901Y3513746D01*
X6118528Y3516832D01*
X6112535Y3532692D01*
X6109763Y3536725D01*
X6103362Y3546039D01*
X6103361Y3546039D01*
X6102931Y3546665D01*
X6101326Y3548095D01*
X6090839Y3557439D01*
X6090839Y3557439D01*
X6090272Y3557944D01*
X6075288Y3565878D01*
X6058844Y3570008D01*
X6058084Y3570012D01*
X6058084Y3570012D01*
X6050367Y3570052D01*
X6041890Y3570097D01*
X6041151Y3569919D01*
X6041151Y3569919D01*
X6026929Y3566505D01*
X6025403Y3566139D01*
X6024729Y3565791D01*
X6024729Y3565791D01*
X6011012Y3558711D01*
X6010337Y3558362D01*
X6009765Y3557863D01*
X6009765Y3557863D01*
X6006473Y3554992D01*
X5997561Y3547217D01*
X5995365Y3544093D01*
X5990754Y3537532D01*
X5987811Y3533345D01*
X5981653Y3517549D01*
X5981553Y3516795D01*
X5981553Y3516795D01*
X5979596Y3501926D01*
X5979440Y3500739D01*
X4597122Y3500739D01*
X4596094Y3501926D01*
X4596094Y3501926D01*
X4595633Y3502458D01*
X4581162Y3513093D01*
X4564694Y3520258D01*
X4551462Y3522761D01*
X4547739Y3523466D01*
X4547739Y3523466D01*
X4547047Y3523597D01*
X4536338Y3523206D01*
X4529805Y3522968D01*
X4529805Y3522968D01*
X4529100Y3522942D01*
X4511744Y3518328D01*
X4511121Y3518001D01*
X4511120Y3518001D01*
X4496465Y3510311D01*
X4496464Y3510311D01*
X4495841Y3509984D01*
X4482183Y3498323D01*
X4479245Y3494384D01*
X4473088Y3486128D01*
X4471447Y3483927D01*
X4471161Y3483283D01*
X4471161Y3483283D01*
X4468897Y3478176D01*
X4464167Y3467509D01*
X4462970Y3461413D01*
X4461383Y3453336D01*
X4458107Y3447038D01*
X4451946Y3443510D01*
X4444856Y3443873D01*
X4439087Y3448012D01*
X4437903Y3449833D01*
X4431723Y3461413D01*
X4430427Y3462910D01*
X4420428Y3474458D01*
X4420428Y3474458D01*
X4419967Y3474991D01*
X4405496Y3485626D01*
X4389028Y3492791D01*
X4375796Y3495294D01*
X4372074Y3495998D01*
X4372074Y3495998D01*
X4371382Y3496129D01*
X4360673Y3495739D01*
X4354139Y3495501D01*
X4354139Y3495501D01*
X4353435Y3495475D01*
X4336079Y3490861D01*
X4335455Y3490534D01*
X4335455Y3490534D01*
X4320799Y3482843D01*
X4320799Y3482843D01*
X4320176Y3482516D01*
X4306517Y3470856D01*
X4306096Y3470291D01*
X4296737Y3457741D01*
X4295781Y3456459D01*
X4295496Y3455816D01*
X4295496Y3455815D01*
X4291606Y3447042D01*
X4288501Y3440041D01*
X4288366Y3439350D01*
X4285718Y3425869D01*
X4282442Y3419570D01*
X4276281Y3416042D01*
X4269190Y3416405D01*
X4263422Y3420544D01*
X4262238Y3422365D01*
X4260368Y3425869D01*
X4256058Y3433946D01*
X4255359Y3434753D01*
X4244763Y3446991D01*
X4244763Y3446991D01*
X4244302Y3447523D01*
X4229831Y3458158D01*
X4213363Y3465323D01*
X4199400Y3467964D01*
X4196409Y3468530D01*
X4196408Y3468530D01*
X4195717Y3468661D01*
X4185007Y3468271D01*
X4178474Y3468033D01*
X4178474Y3468033D01*
X4177769Y3468007D01*
X4160413Y3463393D01*
X4159790Y3463066D01*
X4159789Y3463066D01*
X4145134Y3455376D01*
X4145133Y3455375D01*
X4144510Y3455049D01*
X4130852Y3443388D01*
X4128727Y3440540D01*
X4120744Y3429834D01*
X4120116Y3428991D01*
X4119830Y3428348D01*
X4119830Y3428348D01*
X4116719Y3421332D01*
X4112836Y3412574D01*
X4111054Y3403504D01*
X4110052Y3398401D01*
X4106776Y3392102D01*
X4100615Y3388574D01*
X4093525Y3388937D01*
X4087756Y3393076D01*
X4086572Y3394897D01*
X4083306Y3401017D01*
X4080392Y3406478D01*
X4079175Y3407883D01*
X4069097Y3419523D01*
X4069097Y3419523D01*
X4068636Y3420055D01*
X4054165Y3430690D01*
X4037697Y3437855D01*
X4024465Y3440359D01*
X4020743Y3441063D01*
X4020743Y3441063D01*
X4020051Y3441194D01*
X4009342Y3440803D01*
X4002808Y3440565D01*
X4002808Y3440565D01*
X4002104Y3440540D01*
X3984748Y3435926D01*
X3984124Y3435598D01*
X3984124Y3435598D01*
X3969468Y3427908D01*
X3969468Y3427908D01*
X3968845Y3427581D01*
X3955186Y3415920D01*
X3953550Y3413726D01*
X3945717Y3403223D01*
X3944450Y3401524D01*
X3944165Y3400880D01*
X3944164Y3400880D01*
X3941943Y3395871D01*
X3937170Y3385106D01*
X3936202Y3380175D01*
X3934387Y3370935D01*
X3931111Y3364636D01*
X3924950Y3361108D01*
X3917860Y3361471D01*
X3912091Y3365610D01*
X3910907Y3367431D01*
X3910426Y3368331D01*
X3904727Y3379011D01*
X3903818Y3380061D01*
X3893432Y3392055D01*
X3893432Y3392056D01*
X3892972Y3392588D01*
X3878500Y3403223D01*
X3862032Y3410388D01*
X3848800Y3412891D01*
X3845078Y3413595D01*
X3845078Y3413595D01*
X3844386Y3413726D01*
X3833677Y3413336D01*
X3827143Y3413098D01*
X3827143Y3413098D01*
X3826439Y3413072D01*
X3809083Y3408458D01*
X3808459Y3408131D01*
X3808459Y3408131D01*
X3793803Y3400441D01*
X3793803Y3400440D01*
X3793180Y3400113D01*
X3779521Y3388453D01*
X3775429Y3382965D01*
X3769382Y3374856D01*
X3768785Y3374056D01*
X3768500Y3373413D01*
X3768500Y3373412D01*
X3765334Y3366272D01*
X3761506Y3357639D01*
X3760633Y3353195D01*
X3758721Y3343465D01*
X3755446Y3337166D01*
X3749285Y3333638D01*
X3742194Y3334001D01*
X3736426Y3338140D01*
X3735242Y3339961D01*
X3735212Y3340016D01*
X3729061Y3351543D01*
X3728151Y3352593D01*
X3717766Y3364588D01*
X3717766Y3364588D01*
X3717305Y3365120D01*
X3702834Y3375755D01*
X3686366Y3382920D01*
X3673134Y3385423D01*
X3669412Y3386127D01*
X3669412Y3386127D01*
X3668720Y3386258D01*
X3658011Y3385868D01*
X3651477Y3385630D01*
X3651477Y3385630D01*
X3650773Y3385604D01*
X3633417Y3380990D01*
X3632793Y3380663D01*
X3632793Y3380663D01*
X3618137Y3372973D01*
X3618137Y3372973D01*
X3617514Y3372646D01*
X3603855Y3360985D01*
X3593119Y3346588D01*
X3592834Y3345945D01*
X3592834Y3345945D01*
X3590589Y3340883D01*
X3585839Y3330171D01*
X3585704Y3329480D01*
X3583056Y3315998D01*
X3579780Y3309699D01*
X3573619Y3306171D01*
X3566528Y3306534D01*
X3560760Y3310673D01*
X3559576Y3312494D01*
X3553727Y3323454D01*
X3553395Y3324075D01*
X3551542Y3326216D01*
X3542101Y3337120D01*
X3542101Y3337120D01*
X3541640Y3337652D01*
X3527169Y3348288D01*
X3510700Y3355452D01*
X3497238Y3357999D01*
X3493746Y3358660D01*
X3493746Y3358660D01*
X3493054Y3358791D01*
X3482345Y3358400D01*
X3475812Y3358162D01*
X3475811Y3358162D01*
X3475107Y3358137D01*
X3457751Y3353523D01*
X3457127Y3353195D01*
X3457127Y3353195D01*
X3442472Y3345505D01*
X3442471Y3345505D01*
X3441848Y3345178D01*
X3428190Y3333518D01*
X3427398Y3332457D01*
X3419209Y3321475D01*
X3417453Y3319121D01*
X3417168Y3318477D01*
X3417168Y3318477D01*
X3415660Y3315076D01*
X3410174Y3302703D01*
X3409217Y3297834D01*
X3407077Y3286939D01*
X3406712Y3285081D01*
X3406977Y3276103D01*
X3407006Y3275127D01*
X3407124Y3271106D01*
X3407185Y3270715D01*
X3407185Y3270714D01*
X3410018Y3252599D01*
X3411695Y3241874D01*
X3411788Y3241536D01*
X3411788Y3241535D01*
X3412519Y3238859D01*
X3415232Y3228934D01*
X3423687Y3213090D01*
X3424149Y3212557D01*
X3424149Y3212557D01*
X3434982Y3200045D01*
X3435443Y3199513D01*
X3439343Y3196646D01*
X3443647Y3191001D01*
X3444216Y3183924D01*
X3440869Y3177663D01*
X3434668Y3174206D01*
X3433828Y3174045D01*
X3108849Y3123230D01*
X3108837Y3123232D01*
X3108838Y3123228D01*
X3105145Y3122654D01*
X3105145Y3122654D01*
X3103743Y3122436D01*
X3102574Y3121632D01*
X3102106Y3121446D01*
X3101402Y3121069D01*
X3100987Y3120783D01*
X3099669Y3120257D01*
X3098709Y3119212D01*
X3098264Y3118905D01*
X3097742Y3118452D01*
X3097377Y3118055D01*
X3096208Y3117250D01*
X3095503Y3116019D01*
X3095162Y3115648D01*
X3094691Y3115003D01*
X3094441Y3114565D01*
X3093481Y3113520D01*
X3093070Y3112162D01*
X3092802Y3111693D01*
X3092528Y3111059D01*
X3092371Y3110541D01*
X3091667Y3109309D01*
X3091566Y3107894D01*
X3091420Y3107412D01*
X3091274Y3106626D01*
X3091239Y3106123D01*
X3090828Y3104766D01*
X2729346Y3104766D01*
X2727584Y3123939D01*
X2722149Y3143211D01*
X2713293Y3161169D01*
X2711484Y3163592D01*
X2701658Y3176750D01*
X2701312Y3177213D01*
X2694115Y3183867D01*
X2687033Y3190414D01*
X2687032Y3190414D01*
X2686608Y3190806D01*
X2671965Y3200045D01*
X2670162Y3201183D01*
X2669674Y3201490D01*
X2669138Y3201704D01*
X2669138Y3201704D01*
X2651612Y3208696D01*
X2651076Y3208910D01*
X2650510Y3209023D01*
X2650509Y3209023D01*
X2632004Y3212704D01*
X2632003Y3212704D01*
X2631437Y3212817D01*
X2630859Y3212824D01*
X2630859Y3212824D01*
X2620864Y3212955D01*
X2611415Y3213079D01*
X2610845Y3212981D01*
X2610845Y3212981D01*
X2593839Y3210059D01*
X2591681Y3209688D01*
X2572895Y3202757D01*
X2555686Y3192519D01*
X2555252Y3192139D01*
X2555252Y3192139D01*
X2545820Y3183867D01*
X2540632Y3179317D01*
X2528235Y3163592D01*
X2527966Y3163080D01*
X2527966Y3163080D01*
X2519199Y3146417D01*
X2518912Y3145871D01*
X2518740Y3145319D01*
X2514929Y3133044D01*
X2512974Y3126748D01*
X2510620Y3106864D01*
X2475153Y3106864D01*
X2473584Y3123939D01*
X2468149Y3143211D01*
X2459293Y3161169D01*
X2457484Y3163592D01*
X2447658Y3176750D01*
X2447312Y3177213D01*
X2440115Y3183867D01*
X2433033Y3190414D01*
X2433032Y3190414D01*
X2432608Y3190806D01*
X2417965Y3200045D01*
X2416162Y3201183D01*
X2415674Y3201490D01*
X2415138Y3201704D01*
X2415138Y3201704D01*
X2397612Y3208696D01*
X2397076Y3208910D01*
X2396510Y3209023D01*
X2396509Y3209023D01*
X2378004Y3212704D01*
X2378003Y3212704D01*
X2377437Y3212817D01*
X2376859Y3212824D01*
X2376859Y3212824D01*
X2366864Y3212955D01*
X2357415Y3213079D01*
X2356845Y3212981D01*
X2356845Y3212981D01*
X2339839Y3210059D01*
X2337681Y3209688D01*
X2318895Y3202757D01*
X2301686Y3192519D01*
X2301252Y3192139D01*
X2301252Y3192139D01*
X2291820Y3183867D01*
X2286632Y3179317D01*
X2274235Y3163592D01*
X2273966Y3163080D01*
X2273966Y3163080D01*
X2265199Y3146417D01*
X2264912Y3145871D01*
X2264740Y3145319D01*
X2260929Y3133044D01*
X2258974Y3126748D01*
X2256620Y3106864D01*
X20062Y3106864D01*
X20062Y3260617D01*
X2079439Y3260617D01*
X2079555Y3259727D01*
X2079555Y3259727D01*
X2079744Y3258285D01*
X2081298Y3246402D01*
X2083439Y3241535D01*
X2086299Y3235035D01*
X2087072Y3233279D01*
X2087649Y3232592D01*
X2087649Y3232592D01*
X2088379Y3231724D01*
X2096297Y3222305D01*
X2108231Y3214361D01*
X2121915Y3210085D01*
X2122813Y3210069D01*
X2122813Y3210069D01*
X2129346Y3209949D01*
X2136250Y3209823D01*
X2137153Y3210069D01*
X2149215Y3213357D01*
X2149216Y3213358D01*
X2150081Y3213594D01*
X2162299Y3221095D01*
X2171920Y3231724D01*
X2178171Y3244626D01*
X2180549Y3258764D01*
X2180564Y3260000D01*
X2179491Y3267492D01*
X2178659Y3273303D01*
X2178659Y3273303D01*
X2178532Y3274191D01*
X2177213Y3277092D01*
X2175772Y3280261D01*
X2172598Y3287242D01*
X2170741Y3289397D01*
X2163826Y3297423D01*
X2163825Y3297424D01*
X2163240Y3298103D01*
X2151209Y3305901D01*
X2137474Y3310009D01*
X2136576Y3310014D01*
X2136576Y3310014D01*
X2130555Y3310051D01*
X2123137Y3310096D01*
X2109353Y3306157D01*
X2097228Y3298507D01*
X2096633Y3297834D01*
X2096633Y3297834D01*
X2095727Y3296807D01*
X2087737Y3287761D01*
X2081644Y3274783D01*
X2080797Y3269342D01*
X2079594Y3261614D01*
X2079439Y3260617D01*
X20062Y3260617D01*
X20062Y3360864D01*
X2510620Y3360864D01*
X2511930Y3340883D01*
X2516859Y3321475D01*
X2525242Y3303291D01*
X2526146Y3302012D01*
X2535516Y3288753D01*
X2536799Y3286939D01*
X2537213Y3286535D01*
X2539902Y3283915D01*
X2551142Y3272967D01*
X2567791Y3261842D01*
X2568321Y3261614D01*
X2568321Y3261614D01*
X2573823Y3259250D01*
X2586188Y3253938D01*
X2605718Y3249519D01*
X2606295Y3249496D01*
X2606295Y3249496D01*
X2610413Y3249334D01*
X2625726Y3248733D01*
X2645543Y3251606D01*
X2646089Y3251791D01*
X2646089Y3251791D01*
X2659948Y3256496D01*
X2664504Y3258042D01*
X2681974Y3267826D01*
X2683797Y3269342D01*
X2696925Y3280261D01*
X2697369Y3280630D01*
X2710173Y3296025D01*
X2719957Y3313496D01*
X2722593Y3321262D01*
X2726208Y3331910D01*
X2726208Y3331910D01*
X2726393Y3332457D01*
X2729267Y3352273D01*
X2729417Y3357999D01*
X2727584Y3377939D01*
X2727225Y3379212D01*
X2724490Y3388910D01*
X2722149Y3397211D01*
X2714327Y3413072D01*
X2713548Y3414651D01*
X2713293Y3415169D01*
X2712641Y3416042D01*
X2708691Y3421332D01*
X2701312Y3431213D01*
X2695092Y3436964D01*
X2687033Y3444414D01*
X2687032Y3444414D01*
X2686608Y3444806D01*
X2674831Y3452237D01*
X2670162Y3455183D01*
X2669674Y3455490D01*
X2669138Y3455704D01*
X2669138Y3455704D01*
X2651612Y3462696D01*
X2651076Y3462910D01*
X2650510Y3463023D01*
X2650509Y3463023D01*
X2632004Y3466704D01*
X2632003Y3466704D01*
X2631437Y3466817D01*
X2630859Y3466824D01*
X2630859Y3466824D01*
X2620864Y3466955D01*
X2611415Y3467079D01*
X2610845Y3466981D01*
X2610845Y3466981D01*
X2592250Y3463786D01*
X2591681Y3463688D01*
X2572895Y3456757D01*
X2555686Y3446519D01*
X2555252Y3446139D01*
X2555252Y3446139D01*
X2542269Y3434753D01*
X2540632Y3433317D01*
X2540274Y3432863D01*
X2540274Y3432863D01*
X2530506Y3420472D01*
X2528235Y3417592D01*
X2527966Y3417080D01*
X2527966Y3417080D01*
X2519515Y3401017D01*
X2518912Y3399871D01*
X2518740Y3399319D01*
X2513561Y3382639D01*
X2512974Y3380748D01*
X2510620Y3360864D01*
X20062Y3360864D01*
X20062Y3389125D01*
X341050Y3389125D01*
X341171Y3388518D01*
X341949Y3384605D01*
X342214Y3383277D01*
X346645Y3376645D01*
X353277Y3372213D01*
X354494Y3371971D01*
X354494Y3371971D01*
X358519Y3371171D01*
X359125Y3371050D01*
X540875Y3371050D01*
X541482Y3371171D01*
X545506Y3371971D01*
X545506Y3371971D01*
X546723Y3372213D01*
X553355Y3376645D01*
X557787Y3383277D01*
X558051Y3384605D01*
X558830Y3388518D01*
X558950Y3389125D01*
X558950Y3565618D01*
X2409439Y3565618D01*
X2409556Y3564727D01*
X2409556Y3564727D01*
X2409948Y3561725D01*
X2411298Y3551402D01*
X2411660Y3550580D01*
X2416285Y3540069D01*
X2417072Y3538280D01*
X2417650Y3537592D01*
X2417650Y3537592D01*
X2422587Y3531718D01*
X2426297Y3527305D01*
X2432107Y3523438D01*
X2437139Y3520088D01*
X2438231Y3519361D01*
X2451916Y3515086D01*
X2452813Y3515069D01*
X2452813Y3515069D01*
X2459346Y3514950D01*
X2466250Y3514823D01*
X2467153Y3515069D01*
X2479216Y3518358D01*
X2479216Y3518358D01*
X2480082Y3518594D01*
X2492299Y3526095D01*
X2497627Y3531982D01*
X2501318Y3536059D01*
X2501920Y3536725D01*
X2502311Y3537532D01*
X2502311Y3537532D01*
X2507329Y3547889D01*
X2512099Y3553147D01*
X2518955Y3554992D01*
X2525720Y3552837D01*
X2526097Y3552543D01*
X2526297Y3552305D01*
X2527022Y3551823D01*
X2532932Y3547889D01*
X2538231Y3544361D01*
X2551916Y3540086D01*
X2552813Y3540069D01*
X2552813Y3540069D01*
X2559346Y3539950D01*
X2566250Y3539823D01*
X2567153Y3540069D01*
X2579216Y3543358D01*
X2579216Y3543358D01*
X2580082Y3543594D01*
X2592299Y3551095D01*
X2595826Y3554992D01*
X2601318Y3561059D01*
X2601920Y3561725D01*
X2606353Y3570875D01*
X2607780Y3573819D01*
X2607780Y3573819D01*
X2608171Y3574627D01*
X2610550Y3588765D01*
X2610562Y3589774D01*
X2612645Y3596561D01*
X2618067Y3601145D01*
X2625106Y3602069D01*
X2626918Y3601647D01*
X2631916Y3600086D01*
X2632813Y3600069D01*
X2632813Y3600069D01*
X2639346Y3599950D01*
X2646250Y3599823D01*
X2647153Y3600069D01*
X2659216Y3603358D01*
X2659216Y3603358D01*
X2660082Y3603594D01*
X2671326Y3610498D01*
X2678177Y3612357D01*
X2684947Y3610218D01*
X2689485Y3604758D01*
X2690411Y3598116D01*
X2689539Y3591492D01*
X2689539Y3591492D01*
X2689439Y3590739D01*
X2691300Y3573886D01*
X2693601Y3567598D01*
X2696854Y3558711D01*
X2697127Y3557964D01*
X2697550Y3557334D01*
X2697550Y3557334D01*
X2698857Y3555389D01*
X2706583Y3543892D01*
X2707144Y3543381D01*
X2707145Y3543381D01*
X2718561Y3532992D01*
X2718562Y3532992D01*
X2719123Y3532481D01*
X2719791Y3532119D01*
X2719791Y3532118D01*
X2733356Y3524753D01*
X2733356Y3524753D01*
X2734024Y3524391D01*
X2734758Y3524198D01*
X2749688Y3520281D01*
X2749689Y3520281D01*
X2750423Y3520088D01*
X2759061Y3519953D01*
X2766616Y3519834D01*
X2766616Y3519834D01*
X2767376Y3519822D01*
X2768117Y3519992D01*
X2768117Y3519992D01*
X2778470Y3522363D01*
X2783903Y3523607D01*
X2799050Y3531225D01*
X2811942Y3542237D01*
X2821836Y3556005D01*
X2822784Y3558362D01*
X2827877Y3571031D01*
X2827877Y3571031D01*
X2828160Y3571737D01*
X2829667Y3582324D01*
X2830491Y3588114D01*
X2830491Y3588114D01*
X2830549Y3588522D01*
X2830564Y3590000D01*
X2830490Y3590618D01*
X2829312Y3600353D01*
X2828528Y3606832D01*
X2822534Y3622692D01*
X2822086Y3623345D01*
X2813361Y3636039D01*
X2813361Y3636039D01*
X2812931Y3636665D01*
X2812312Y3637217D01*
X2800839Y3647439D01*
X2800839Y3647439D01*
X2800272Y3647944D01*
X2797769Y3649269D01*
X2793508Y3651525D01*
X2785288Y3655878D01*
X2768844Y3660008D01*
X2768084Y3660012D01*
X2768084Y3660012D01*
X2760367Y3660052D01*
X2751890Y3660097D01*
X2751151Y3659919D01*
X2751150Y3659919D01*
X2736816Y3656478D01*
X2735403Y3656139D01*
X2734729Y3655791D01*
X2734729Y3655791D01*
X2721012Y3648711D01*
X2720337Y3648362D01*
X2711431Y3640593D01*
X2704983Y3637623D01*
X2697952Y3638610D01*
X2692571Y3643241D01*
X2690575Y3649269D01*
X2690559Y3649513D01*
X2690565Y3650000D01*
X2689158Y3659823D01*
X2688660Y3663303D01*
X2688660Y3663303D01*
X2688532Y3664192D01*
X2682598Y3677243D01*
X2680760Y3679377D01*
X2673826Y3687424D01*
X2673826Y3687424D01*
X2673240Y3688104D01*
X2661210Y3695901D01*
X2647474Y3700009D01*
X2646576Y3700015D01*
X2646576Y3700015D01*
X2640556Y3700052D01*
X2633138Y3700097D01*
X2619353Y3696157D01*
X2607228Y3688507D01*
X2597738Y3677761D01*
X2591645Y3664784D01*
X2589439Y3650618D01*
X2589517Y3650025D01*
X2587478Y3643382D01*
X2582056Y3638799D01*
X2575016Y3637874D01*
X2573352Y3638251D01*
X2568781Y3639618D01*
X2567474Y3640009D01*
X2566576Y3640015D01*
X2566576Y3640015D01*
X2560556Y3640052D01*
X2553138Y3640097D01*
X2539353Y3636157D01*
X2527228Y3628507D01*
X2517738Y3617761D01*
X2517356Y3616948D01*
X2517356Y3616948D01*
X2512781Y3607203D01*
X2508075Y3601887D01*
X2501242Y3599959D01*
X2494452Y3602031D01*
X2493620Y3602663D01*
X2493240Y3603104D01*
X2481210Y3610901D01*
X2467474Y3615009D01*
X2466576Y3615015D01*
X2466576Y3615015D01*
X2460556Y3615052D01*
X2453138Y3615097D01*
X2439353Y3611157D01*
X2427228Y3603507D01*
X2417738Y3592761D01*
X2411645Y3579784D01*
X2411507Y3578896D01*
X2409667Y3567079D01*
X2409439Y3565618D01*
X558950Y3565618D01*
X558950Y3570875D01*
X558493Y3573173D01*
X558029Y3575506D01*
X558029Y3575506D01*
X557787Y3576723D01*
X553355Y3583355D01*
X546723Y3587787D01*
X545506Y3588029D01*
X545506Y3588029D01*
X541482Y3588829D01*
X540875Y3588950D01*
X359125Y3588950D01*
X358519Y3588829D01*
X354494Y3588029D01*
X354494Y3588029D01*
X353277Y3587787D01*
X346645Y3583355D01*
X342214Y3576723D01*
X341971Y3575506D01*
X341971Y3575506D01*
X341507Y3573173D01*
X341050Y3570875D01*
X341050Y3389125D01*
X20062Y3389125D01*
X20062Y3780617D01*
X1679439Y3780617D01*
X1679555Y3779727D01*
X1679555Y3779727D01*
X1679681Y3778764D01*
X1681298Y3766402D01*
X1687072Y3753279D01*
X1687649Y3752592D01*
X1687649Y3752592D01*
X1695719Y3742992D01*
X1696297Y3742305D01*
X1708231Y3734360D01*
X1709088Y3734093D01*
X1710686Y3733593D01*
X1721915Y3730085D01*
X1722813Y3730069D01*
X1722813Y3730069D01*
X1729346Y3729949D01*
X1736250Y3729822D01*
X1737153Y3730069D01*
X1749215Y3733357D01*
X1749216Y3733357D01*
X1750081Y3733593D01*
X1762299Y3741095D01*
X1771920Y3751724D01*
X1778171Y3764626D01*
X1780549Y3778764D01*
X1780564Y3779999D01*
X1778532Y3794191D01*
X1772598Y3807242D01*
X1770759Y3809376D01*
X1763826Y3817423D01*
X1763825Y3817423D01*
X1763240Y3818103D01*
X1751209Y3825901D01*
X1737474Y3830009D01*
X1736576Y3830014D01*
X1736576Y3830014D01*
X1730555Y3830051D01*
X1723137Y3830096D01*
X1709353Y3826157D01*
X1697228Y3818506D01*
X1687737Y3807761D01*
X1681644Y3794783D01*
X1679439Y3780617D01*
X20062Y3780617D01*
X20062Y4020618D01*
X2209439Y4020618D01*
X2209556Y4019727D01*
X2209556Y4019727D01*
X2209681Y4018765D01*
X2211298Y4006402D01*
X2217072Y3993280D01*
X2217650Y3992592D01*
X2217650Y3992592D01*
X2220995Y3988612D01*
X2226297Y3982305D01*
X2238231Y3974361D01*
X2251916Y3970086D01*
X2252813Y3970069D01*
X2252813Y3970069D01*
X2259346Y3969950D01*
X2266250Y3969823D01*
X2267153Y3970069D01*
X2279216Y3973358D01*
X2279216Y3973358D01*
X2280082Y3973594D01*
X2292299Y3981095D01*
X2301920Y3991725D01*
X2305409Y3998926D01*
X2307780Y4003819D01*
X2307780Y4003819D01*
X2308171Y4004627D01*
X2310550Y4018765D01*
X2310565Y4020000D01*
X2309006Y4030884D01*
X2308660Y4033303D01*
X2308660Y4033303D01*
X2308532Y4034192D01*
X2302598Y4047243D01*
X2299279Y4051095D01*
X2293826Y4057424D01*
X2293826Y4057424D01*
X2293240Y4058104D01*
X2281210Y4065901D01*
X2267474Y4070009D01*
X2266576Y4070015D01*
X2266576Y4070015D01*
X2260556Y4070052D01*
X2253138Y4070097D01*
X2239353Y4066157D01*
X2227228Y4058507D01*
X2226634Y4057834D01*
X2226634Y4057834D01*
X2225506Y4056557D01*
X2217738Y4047761D01*
X2211645Y4034784D01*
X2210721Y4028851D01*
X2209878Y4023438D01*
X2209439Y4020618D01*
X20062Y4020618D01*
X20062Y4090618D01*
X2099439Y4090618D01*
X2099556Y4089727D01*
X2099556Y4089727D01*
X2099743Y4088291D01*
X2101298Y4076402D01*
X2101660Y4075580D01*
X2104774Y4068501D01*
X2107072Y4063280D01*
X2107650Y4062592D01*
X2107650Y4062592D01*
X2115719Y4052993D01*
X2116297Y4052305D01*
X2117045Y4051807D01*
X2125754Y4046010D01*
X2128231Y4044361D01*
X2141916Y4040086D01*
X2142813Y4040069D01*
X2142813Y4040069D01*
X2149346Y4039950D01*
X2156250Y4039823D01*
X2157153Y4040069D01*
X2169216Y4043358D01*
X2169216Y4043358D01*
X2170082Y4043594D01*
X2182299Y4051095D01*
X2187381Y4056710D01*
X2191318Y4061059D01*
X2191920Y4061725D01*
X2195976Y4070097D01*
X2197780Y4073819D01*
X2197780Y4073819D01*
X2198171Y4074627D01*
X2200550Y4088765D01*
X2200565Y4090000D01*
X2200459Y4090739D01*
X2969439Y4090739D01*
X2971300Y4073886D01*
X2973536Y4067775D01*
X2975751Y4061725D01*
X2977127Y4057964D01*
X2977550Y4057334D01*
X2977550Y4057334D01*
X2978857Y4055389D01*
X2986583Y4043892D01*
X2987144Y4043381D01*
X2987144Y4043381D01*
X2998561Y4032992D01*
X2998562Y4032992D01*
X2999123Y4032481D01*
X2999791Y4032119D01*
X2999791Y4032118D01*
X3013356Y4024753D01*
X3013356Y4024753D01*
X3014023Y4024391D01*
X3014758Y4024198D01*
X3029688Y4020281D01*
X3029688Y4020281D01*
X3030423Y4020088D01*
X3039061Y4019953D01*
X3046616Y4019834D01*
X3046616Y4019834D01*
X3047376Y4019822D01*
X3048116Y4019992D01*
X3048117Y4019992D01*
X3054159Y4021375D01*
X3063903Y4023607D01*
X3079050Y4031225D01*
X3091942Y4042237D01*
X3101836Y4056005D01*
X3102876Y4058592D01*
X3107877Y4071031D01*
X3107877Y4071031D01*
X3108160Y4071737D01*
X3110549Y4088522D01*
X3110564Y4090000D01*
X3110490Y4090618D01*
X3110073Y4094064D01*
X3108528Y4106832D01*
X3102534Y4122692D01*
X3098815Y4128104D01*
X3093361Y4136039D01*
X3093361Y4136039D01*
X3092931Y4136665D01*
X3091751Y4137716D01*
X3080839Y4147439D01*
X3080839Y4147439D01*
X3080272Y4147944D01*
X3065288Y4155878D01*
X3048844Y4160008D01*
X3048084Y4160012D01*
X3048084Y4160012D01*
X3040367Y4160052D01*
X3031889Y4160097D01*
X3031151Y4159919D01*
X3031150Y4159919D01*
X3016816Y4156478D01*
X3015403Y4156139D01*
X3014729Y4155791D01*
X3014728Y4155791D01*
X3005632Y4151095D01*
X3000337Y4148362D01*
X2999765Y4147863D01*
X2999764Y4147863D01*
X2995750Y4144361D01*
X2987560Y4137217D01*
X2985812Y4134729D01*
X2981156Y4128104D01*
X2977811Y4123345D01*
X2971652Y4107549D01*
X2971553Y4106795D01*
X2971553Y4106795D01*
X2969540Y4091505D01*
X2969439Y4090739D01*
X2200459Y4090739D01*
X2198532Y4104192D01*
X2192598Y4117243D01*
X2187364Y4123318D01*
X2183826Y4127424D01*
X2183826Y4127424D01*
X2183240Y4128104D01*
X2181324Y4129346D01*
X2176695Y4134729D01*
X2175712Y4141761D01*
X2178687Y4148207D01*
X2180854Y4150040D01*
X2180844Y4150052D01*
X2181534Y4150626D01*
X2182299Y4151095D01*
X2191920Y4161725D01*
X2198171Y4174627D01*
X2200550Y4188765D01*
X2200565Y4190000D01*
X2198812Y4202237D01*
X2198660Y4203303D01*
X2198660Y4203304D01*
X2198532Y4204192D01*
X2192598Y4217243D01*
X2188195Y4222353D01*
X2183826Y4227424D01*
X2183826Y4227424D01*
X2183240Y4228104D01*
X2171210Y4235902D01*
X2157474Y4240009D01*
X2156576Y4240015D01*
X2156576Y4240015D01*
X2150556Y4240052D01*
X2143138Y4240097D01*
X2129353Y4236157D01*
X2117228Y4228507D01*
X2116634Y4227834D01*
X2116634Y4227834D01*
X2114589Y4225519D01*
X2107738Y4217761D01*
X2101645Y4204784D01*
X2101426Y4203381D01*
X2099611Y4191718D01*
X2099439Y4190618D01*
X2099556Y4189727D01*
X2099556Y4189727D01*
X2100253Y4184391D01*
X2101298Y4176402D01*
X2107072Y4163280D01*
X2107650Y4162592D01*
X2107650Y4162592D01*
X2112926Y4156316D01*
X2116297Y4152305D01*
X2117045Y4151807D01*
X2117045Y4151807D01*
X2118922Y4150558D01*
X2123484Y4145118D01*
X2124382Y4138075D01*
X2121329Y4131666D01*
X2118664Y4129413D01*
X2117987Y4128986D01*
X2117987Y4128986D01*
X2117228Y4128507D01*
X2107738Y4117761D01*
X2101645Y4104784D01*
X2101507Y4103896D01*
X2099929Y4093766D01*
X2099439Y4090618D01*
X20062Y4090618D01*
X20062Y4345908D01*
X3449616Y4345908D01*
X3451059Y4323891D01*
X3451201Y4323332D01*
X3451201Y4323331D01*
X3455130Y4307863D01*
X3456490Y4302507D01*
X3456732Y4301982D01*
X3456732Y4301982D01*
X3460544Y4293714D01*
X3465727Y4282470D01*
X3478461Y4264452D01*
X3494266Y4249056D01*
X3494745Y4248735D01*
X3494745Y4248735D01*
X3503165Y4243109D01*
X3512611Y4236798D01*
X3513141Y4236570D01*
X3513141Y4236570D01*
X3530793Y4228986D01*
X3532883Y4228088D01*
X3540848Y4226286D01*
X3553839Y4223346D01*
X3553839Y4223346D01*
X3554402Y4223219D01*
X3554979Y4223196D01*
X3554980Y4223196D01*
X3561760Y4222930D01*
X3576449Y4222353D01*
X3587367Y4223936D01*
X3597713Y4225436D01*
X3597713Y4225436D01*
X3598284Y4225519D01*
X3598831Y4225704D01*
X3598831Y4225704D01*
X3618630Y4232425D01*
X3618630Y4232425D01*
X3619177Y4232611D01*
X3621455Y4233887D01*
X3631929Y4239752D01*
X3638428Y4243392D01*
X3644596Y4248522D01*
X3647262Y4250739D01*
X5449439Y4250739D01*
X5451300Y4233887D01*
X5453237Y4228592D01*
X5455490Y4222436D01*
X5457127Y4217964D01*
X5457550Y4217334D01*
X5457550Y4217334D01*
X5458857Y4215389D01*
X5466583Y4203892D01*
X5467144Y4203381D01*
X5467145Y4203381D01*
X5478561Y4192992D01*
X5478562Y4192992D01*
X5479123Y4192481D01*
X5479791Y4192119D01*
X5479791Y4192118D01*
X5493356Y4184753D01*
X5493356Y4184753D01*
X5494024Y4184391D01*
X5494758Y4184198D01*
X5509688Y4180281D01*
X5509689Y4180281D01*
X5510423Y4180088D01*
X5519061Y4179953D01*
X5526616Y4179834D01*
X5526616Y4179834D01*
X5527376Y4179822D01*
X5528117Y4179992D01*
X5528117Y4179992D01*
X5534159Y4181375D01*
X5543903Y4183607D01*
X5559050Y4191225D01*
X5571942Y4202237D01*
X5581836Y4216005D01*
X5582813Y4218434D01*
X5587877Y4231031D01*
X5587877Y4231032D01*
X5588160Y4231737D01*
X5590549Y4248522D01*
X5590565Y4250000D01*
X5590384Y4251492D01*
X5588864Y4264049D01*
X5588528Y4266832D01*
X5582535Y4282692D01*
X5574960Y4293714D01*
X5573361Y4296039D01*
X5573361Y4296039D01*
X5572931Y4296665D01*
X5571751Y4297716D01*
X5560839Y4307439D01*
X5560839Y4307439D01*
X5560272Y4307944D01*
X5545288Y4315878D01*
X5528844Y4320008D01*
X5528084Y4320012D01*
X5528084Y4320012D01*
X5520367Y4320053D01*
X5511890Y4320097D01*
X5511151Y4319920D01*
X5511150Y4319920D01*
X5496816Y4316478D01*
X5495403Y4316139D01*
X5494729Y4315791D01*
X5494729Y4315791D01*
X5492435Y4314607D01*
X5480337Y4308363D01*
X5467560Y4297217D01*
X5457811Y4283345D01*
X5451652Y4267549D01*
X5451553Y4266795D01*
X5451553Y4266795D01*
X5450281Y4257131D01*
X5449439Y4250739D01*
X3647262Y4250739D01*
X3654948Y4257131D01*
X3655391Y4257500D01*
X3663152Y4266832D01*
X3669130Y4274019D01*
X3669130Y4274020D01*
X3669499Y4274463D01*
X3680280Y4293714D01*
X3680466Y4294261D01*
X3680466Y4294261D01*
X3687187Y4314060D01*
X3687187Y4314060D01*
X3687372Y4314607D01*
X3687455Y4315178D01*
X3687455Y4315178D01*
X3689876Y4331872D01*
X3690538Y4336442D01*
X3690703Y4342752D01*
X3688685Y4364723D01*
X3688043Y4366996D01*
X3682853Y4385402D01*
X3682696Y4385958D01*
X3672937Y4405747D01*
X3667236Y4413381D01*
X3660081Y4422963D01*
X3660081Y4422963D01*
X3659736Y4423425D01*
X3645961Y4436159D01*
X3643958Y4438010D01*
X3643958Y4438010D01*
X3643534Y4438402D01*
X3624874Y4450175D01*
X3611768Y4455404D01*
X3834338Y4455404D01*
X3835781Y4433388D01*
X3835923Y4432828D01*
X3835923Y4432828D01*
X3839881Y4417243D01*
X3841212Y4412003D01*
X3841454Y4411479D01*
X3841454Y4411479D01*
X3846180Y4401225D01*
X3850449Y4391966D01*
X3863183Y4373948D01*
X3878987Y4358552D01*
X3879467Y4358232D01*
X3879467Y4358231D01*
X3887887Y4352605D01*
X3897332Y4346294D01*
X3897863Y4346066D01*
X3897863Y4346066D01*
X3912394Y4339823D01*
X3917604Y4337585D01*
X3922654Y4336442D01*
X3938560Y4332843D01*
X3938561Y4332843D01*
X3939124Y4332715D01*
X3939701Y4332693D01*
X3939701Y4332693D01*
X3946482Y4332426D01*
X3961171Y4331849D01*
X3972088Y4333432D01*
X3982435Y4334932D01*
X3982435Y4334932D01*
X3983006Y4335015D01*
X3983552Y4335201D01*
X3983553Y4335201D01*
X4003351Y4341921D01*
X4003352Y4341922D01*
X4003899Y4342107D01*
X4009656Y4345331D01*
X4019949Y4351096D01*
X4023149Y4352888D01*
X4040113Y4366996D01*
X4054221Y4383960D01*
X4057950Y4390618D01*
X9139439Y4390618D01*
X9139556Y4389728D01*
X9139556Y4389727D01*
X9140244Y4384464D01*
X9141298Y4376402D01*
X9141660Y4375580D01*
X9146192Y4365279D01*
X9147072Y4363280D01*
X9147650Y4362592D01*
X9147650Y4362592D01*
X9148379Y4361725D01*
X9156297Y4352305D01*
X9168231Y4344361D01*
X9181916Y4340086D01*
X9182813Y4340069D01*
X9182813Y4340069D01*
X9189346Y4339950D01*
X9196250Y4339823D01*
X9197153Y4340069D01*
X9209216Y4343358D01*
X9209216Y4343358D01*
X9210082Y4343594D01*
X9222299Y4351096D01*
X9224256Y4353257D01*
X9231318Y4361059D01*
X9231920Y4361725D01*
X9238171Y4374627D01*
X9240550Y4388765D01*
X9240565Y4390000D01*
X9240476Y4390618D01*
X9429439Y4390618D01*
X9429556Y4389728D01*
X9429556Y4389727D01*
X9430244Y4384464D01*
X9431298Y4376402D01*
X9431660Y4375580D01*
X9436192Y4365279D01*
X9437072Y4363280D01*
X9437650Y4362592D01*
X9437650Y4362592D01*
X9438379Y4361725D01*
X9446297Y4352305D01*
X9458232Y4344361D01*
X9471916Y4340086D01*
X9472813Y4340069D01*
X9472813Y4340069D01*
X9479347Y4339950D01*
X9486250Y4339823D01*
X9487154Y4340069D01*
X9499216Y4343358D01*
X9499216Y4343358D01*
X9500082Y4343594D01*
X9512299Y4351096D01*
X9514256Y4353257D01*
X9521318Y4361059D01*
X9521920Y4361725D01*
X9528171Y4374627D01*
X9530550Y4388765D01*
X9530565Y4390000D01*
X9529006Y4400884D01*
X9528660Y4403303D01*
X9528660Y4403304D01*
X9528533Y4404192D01*
X9527615Y4406209D01*
X9524981Y4412003D01*
X9522599Y4417243D01*
X9517159Y4423556D01*
X9513826Y4427424D01*
X9513826Y4427424D01*
X9513240Y4428104D01*
X9501210Y4435902D01*
X9487474Y4440009D01*
X9486577Y4440015D01*
X9486576Y4440015D01*
X9480556Y4440052D01*
X9473138Y4440097D01*
X9459353Y4436157D01*
X9447228Y4428507D01*
X9446634Y4427834D01*
X9446634Y4427834D01*
X9442483Y4423134D01*
X9437738Y4417761D01*
X9431645Y4404784D01*
X9430721Y4398851D01*
X9429731Y4392491D01*
X9429439Y4390618D01*
X9240476Y4390618D01*
X9239006Y4400884D01*
X9238660Y4403303D01*
X9238660Y4403304D01*
X9238532Y4404192D01*
X9237615Y4406209D01*
X9234981Y4412003D01*
X9232598Y4417243D01*
X9227159Y4423556D01*
X9223826Y4427424D01*
X9223826Y4427424D01*
X9223240Y4428104D01*
X9211210Y4435902D01*
X9197474Y4440009D01*
X9196576Y4440015D01*
X9196576Y4440015D01*
X9190556Y4440052D01*
X9183138Y4440097D01*
X9169353Y4436157D01*
X9157228Y4428507D01*
X9156634Y4427834D01*
X9156634Y4427834D01*
X9152483Y4423134D01*
X9147738Y4417761D01*
X9141645Y4404784D01*
X9140721Y4398851D01*
X9139731Y4392491D01*
X9139439Y4390618D01*
X4057950Y4390618D01*
X4065002Y4403210D01*
X4065187Y4403757D01*
X4065188Y4403757D01*
X4071908Y4423556D01*
X4071908Y4423557D01*
X4072094Y4424103D01*
X4072177Y4424674D01*
X4072177Y4424674D01*
X4074962Y4443887D01*
X4075260Y4445938D01*
X4075425Y4452248D01*
X4073406Y4474219D01*
X4072268Y4478257D01*
X4067574Y4494899D01*
X4067417Y4495455D01*
X4059273Y4511969D01*
X4057914Y4514725D01*
X4057659Y4515243D01*
X4055702Y4517863D01*
X4044803Y4532459D01*
X4044803Y4532459D01*
X4044457Y4532921D01*
X4029874Y4546402D01*
X4028680Y4547506D01*
X4028679Y4547507D01*
X4028256Y4547898D01*
X4009596Y4559672D01*
X4007225Y4560618D01*
X5139439Y4560618D01*
X5139556Y4559728D01*
X5139556Y4559727D01*
X5139744Y4558285D01*
X5141298Y4546402D01*
X5147072Y4533280D01*
X5147650Y4532592D01*
X5147650Y4532592D01*
X5152926Y4526316D01*
X5156297Y4522305D01*
X5168231Y4514361D01*
X5181916Y4510086D01*
X5182813Y4510069D01*
X5182813Y4510069D01*
X5189346Y4509950D01*
X5196250Y4509823D01*
X5197153Y4510069D01*
X5209216Y4513358D01*
X5209216Y4513358D01*
X5210082Y4513594D01*
X5222299Y4521096D01*
X5226190Y4525394D01*
X5231318Y4531059D01*
X5231920Y4531725D01*
X5238171Y4544627D01*
X5240550Y4558765D01*
X5240565Y4560000D01*
X5239318Y4568704D01*
X5238660Y4573303D01*
X5238660Y4573304D01*
X5238532Y4574192D01*
X5232598Y4587243D01*
X5230205Y4590021D01*
X5223826Y4597424D01*
X5223826Y4597424D01*
X5223240Y4598104D01*
X5211210Y4605902D01*
X5197474Y4610009D01*
X5196576Y4610015D01*
X5196576Y4610015D01*
X5190556Y4610052D01*
X5183138Y4610097D01*
X5169353Y4606157D01*
X5157228Y4598507D01*
X5147738Y4587761D01*
X5141645Y4574784D01*
X5141217Y4572039D01*
X5140565Y4567848D01*
X5139439Y4560618D01*
X4007225Y4560618D01*
X3989103Y4567848D01*
X3988537Y4567960D01*
X3988536Y4567960D01*
X3968030Y4572039D01*
X3968030Y4572039D01*
X3967463Y4572152D01*
X3966886Y4572160D01*
X3966885Y4572160D01*
X3955811Y4572304D01*
X3945401Y4572441D01*
X3944832Y4572343D01*
X3944832Y4572343D01*
X3924226Y4568802D01*
X3924226Y4568802D01*
X3923656Y4568704D01*
X3902956Y4561068D01*
X3902460Y4560773D01*
X3902460Y4560773D01*
X3898572Y4558459D01*
X3883995Y4549787D01*
X3867406Y4535239D01*
X3853747Y4517912D01*
X3843474Y4498386D01*
X3836931Y4477315D01*
X3834338Y4455404D01*
X3611768Y4455404D01*
X3604381Y4458351D01*
X3603815Y4458464D01*
X3603815Y4458464D01*
X3583308Y4462543D01*
X3583308Y4462543D01*
X3582742Y4462656D01*
X3582164Y4462663D01*
X3582164Y4462663D01*
X3571090Y4462808D01*
X3560680Y4462944D01*
X3560110Y4462847D01*
X3560110Y4462847D01*
X3539505Y4459306D01*
X3539504Y4459306D01*
X3538935Y4459208D01*
X3518235Y4451571D01*
X3517739Y4451276D01*
X3517739Y4451276D01*
X3506587Y4444641D01*
X3499273Y4440290D01*
X3482685Y4425743D01*
X3469025Y4408416D01*
X3458752Y4388890D01*
X3452209Y4367819D01*
X3449616Y4345908D01*
X20062Y4345908D01*
X20062Y4460739D01*
X1403582Y4460739D01*
X1405442Y4443887D01*
X1411269Y4427964D01*
X1411692Y4427334D01*
X1411692Y4427334D01*
X1412762Y4425743D01*
X1420725Y4413892D01*
X1421286Y4413381D01*
X1421287Y4413381D01*
X1432703Y4402992D01*
X1432704Y4402992D01*
X1433265Y4402481D01*
X1433933Y4402119D01*
X1433933Y4402118D01*
X1447498Y4394753D01*
X1447498Y4394753D01*
X1448166Y4394391D01*
X1448901Y4394198D01*
X1463830Y4390281D01*
X1463831Y4390281D01*
X1464565Y4390088D01*
X1473203Y4389953D01*
X1480758Y4389834D01*
X1480759Y4389834D01*
X1481518Y4389822D01*
X1482259Y4389992D01*
X1482259Y4389992D01*
X1488820Y4391494D01*
X1498045Y4393607D01*
X1513192Y4401225D01*
X1526084Y4412237D01*
X1535978Y4426005D01*
X1537018Y4428592D01*
X1542019Y4441031D01*
X1542019Y4441032D01*
X1542302Y4441737D01*
X1543030Y4446849D01*
X1544633Y4458114D01*
X1544633Y4458114D01*
X1544691Y4458522D01*
X1544707Y4460000D01*
X1544526Y4461492D01*
X1544243Y4463835D01*
X1542670Y4476832D01*
X1536677Y4492692D01*
X1532341Y4499001D01*
X1527504Y4506039D01*
X1527503Y4506039D01*
X1527073Y4506665D01*
X1526506Y4507170D01*
X1514981Y4517439D01*
X1514981Y4517439D01*
X1514414Y4517944D01*
X1513618Y4518366D01*
X1506177Y4522305D01*
X1499430Y4525878D01*
X1482986Y4530008D01*
X1482226Y4530012D01*
X1482226Y4530012D01*
X1474509Y4530053D01*
X1466032Y4530097D01*
X1465293Y4529920D01*
X1465293Y4529920D01*
X1450958Y4526478D01*
X1449545Y4526139D01*
X1448871Y4525791D01*
X1448871Y4525791D01*
X1435154Y4518711D01*
X1434479Y4518363D01*
X1433907Y4517863D01*
X1433907Y4517863D01*
X1429013Y4513594D01*
X1421703Y4507217D01*
X1421266Y4506596D01*
X1413080Y4494949D01*
X1411953Y4493345D01*
X1405795Y4477549D01*
X1405695Y4476795D01*
X1405695Y4476795D01*
X1403859Y4462847D01*
X1403582Y4460739D01*
X20062Y4460739D01*
X20062Y4650618D01*
X269439Y4650618D01*
X269556Y4649728D01*
X269556Y4649727D01*
X269744Y4648285D01*
X271298Y4636402D01*
X277072Y4623280D01*
X277650Y4622592D01*
X277650Y4622592D01*
X278379Y4621725D01*
X286297Y4612305D01*
X287045Y4611808D01*
X296651Y4605413D01*
X298232Y4604361D01*
X311916Y4600086D01*
X312813Y4600069D01*
X312813Y4600069D01*
X319347Y4599950D01*
X326250Y4599823D01*
X327154Y4600069D01*
X339216Y4603358D01*
X339216Y4603358D01*
X340082Y4603594D01*
X351165Y4610399D01*
X8917082Y4610399D01*
X8918052Y4589422D01*
X8918193Y4588840D01*
X8918193Y4588840D01*
X8922215Y4572152D01*
X8922973Y4569007D01*
X8923221Y4568461D01*
X8923221Y4568461D01*
X8927289Y4559514D01*
X8931664Y4549891D01*
X8943814Y4532763D01*
X8951006Y4525878D01*
X8958493Y4518711D01*
X8958983Y4518241D01*
X8960284Y4517401D01*
X8976121Y4507176D01*
X8976121Y4507175D01*
X8976625Y4506850D01*
X8977181Y4506626D01*
X8995546Y4499225D01*
X8995546Y4499225D01*
X8996102Y4499001D01*
X8996690Y4498886D01*
X8996691Y4498886D01*
X9016268Y4495063D01*
X9016268Y4495063D01*
X9016712Y4494976D01*
X9017264Y4494949D01*
X9032747Y4494949D01*
X9048405Y4496443D01*
X9048980Y4496612D01*
X9048981Y4496612D01*
X9057888Y4499225D01*
X9068555Y4502354D01*
X9078966Y4507716D01*
X9086691Y4511695D01*
X9086691Y4511695D01*
X9087224Y4511969D01*
X9094727Y4517863D01*
X9103266Y4524571D01*
X9103267Y4524571D01*
X9103738Y4524941D01*
X9104131Y4525394D01*
X9117108Y4540349D01*
X9117108Y4540349D01*
X9117501Y4540802D01*
X9128017Y4558979D01*
X9133197Y4573897D01*
X9134709Y4578250D01*
X9134709Y4578250D01*
X9134905Y4578816D01*
X9136202Y4587761D01*
X9137833Y4599004D01*
X9137833Y4599005D01*
X9137919Y4599598D01*
X9136948Y4620576D01*
X9133348Y4635512D01*
X9132168Y4640407D01*
X9132168Y4640408D01*
X9132028Y4640991D01*
X9127726Y4650452D01*
X9123584Y4659561D01*
X9123336Y4660107D01*
X9112562Y4675296D01*
X9111533Y4676746D01*
X9111533Y4676746D01*
X9111186Y4677235D01*
X9098570Y4689312D01*
X9096450Y4691342D01*
X9096017Y4691756D01*
X9091212Y4694859D01*
X9078879Y4702822D01*
X9078879Y4702822D01*
X9078376Y4703147D01*
X9077819Y4703372D01*
X9059455Y4710773D01*
X9059454Y4710773D01*
X9058898Y4710997D01*
X9058310Y4711112D01*
X9058310Y4711112D01*
X9038733Y4714935D01*
X9038732Y4714935D01*
X9038288Y4715022D01*
X9037736Y4715049D01*
X9022253Y4715049D01*
X9006596Y4713555D01*
X9006020Y4713386D01*
X9006020Y4713386D01*
X9003110Y4712532D01*
X8986445Y4707644D01*
X8978151Y4703372D01*
X8968309Y4698303D01*
X8968309Y4698303D01*
X8967776Y4698028D01*
X8963741Y4694859D01*
X8951734Y4685427D01*
X8951733Y4685427D01*
X8951262Y4685056D01*
X8950869Y4684603D01*
X8950869Y4684603D01*
X8937892Y4669649D01*
X8937892Y4669649D01*
X8937499Y4669196D01*
X8926984Y4651019D01*
X8926201Y4648765D01*
X8922217Y4637293D01*
X8920095Y4631181D01*
X8920009Y4630588D01*
X8920009Y4630588D01*
X8917183Y4611096D01*
X8917082Y4610399D01*
X351165Y4610399D01*
X352299Y4611096D01*
X355825Y4614991D01*
X361318Y4621059D01*
X361920Y4621725D01*
X367422Y4633081D01*
X367780Y4633819D01*
X367780Y4633819D01*
X368171Y4634627D01*
X370550Y4648765D01*
X370565Y4650000D01*
X369337Y4658576D01*
X368660Y4663303D01*
X368660Y4663304D01*
X368532Y4664192D01*
X362599Y4677243D01*
X357031Y4683704D01*
X353826Y4687424D01*
X353826Y4687424D01*
X353240Y4688104D01*
X341210Y4695902D01*
X327474Y4700009D01*
X326577Y4700015D01*
X326576Y4700015D01*
X320556Y4700052D01*
X313138Y4700097D01*
X299353Y4696157D01*
X287228Y4688507D01*
X286634Y4687834D01*
X286634Y4687834D01*
X283864Y4684698D01*
X277738Y4677761D01*
X271645Y4664784D01*
X271414Y4663303D01*
X269583Y4651539D01*
X269439Y4650618D01*
X20062Y4650618D01*
X20062Y4863360D01*
X2408175Y4863360D01*
X2408191Y4862921D01*
X2408191Y4862920D01*
X2409089Y4837205D01*
X2409174Y4834756D01*
X2409250Y4834324D01*
X2409250Y4834323D01*
X2410705Y4826075D01*
X2414144Y4806570D01*
X2414280Y4806153D01*
X2414280Y4806152D01*
X2420886Y4785820D01*
X2422989Y4779350D01*
X2423181Y4778954D01*
X2423182Y4778954D01*
X2432297Y4760265D01*
X2435535Y4753625D01*
X2435781Y4753261D01*
X2435781Y4753261D01*
X2441001Y4745521D01*
X2451540Y4729897D01*
X2451834Y4729570D01*
X2451834Y4729570D01*
X2455589Y4725401D01*
X2470691Y4708628D01*
X2492616Y4690230D01*
X2516888Y4675064D01*
X2530067Y4669196D01*
X2539977Y4664784D01*
X2543035Y4663422D01*
X2543458Y4663301D01*
X2543457Y4663301D01*
X2557941Y4659148D01*
X2570547Y4655533D01*
X2570982Y4655472D01*
X2570982Y4655472D01*
X2581421Y4654005D01*
X2598890Y4651550D01*
X2620346Y4651550D01*
X2620565Y4651565D01*
X2620565Y4651565D01*
X2641313Y4653016D01*
X2641313Y4653016D01*
X2641751Y4653047D01*
X2669747Y4658998D01*
X2670160Y4659148D01*
X2670160Y4659148D01*
X2696227Y4668636D01*
X2696228Y4668636D01*
X2696642Y4668786D01*
X2697031Y4668993D01*
X2697032Y4668994D01*
X2721524Y4682016D01*
X2721524Y4682017D01*
X2721913Y4682223D01*
X2722269Y4682482D01*
X2722269Y4682482D01*
X2744711Y4698787D01*
X2744712Y4698788D01*
X2745068Y4699046D01*
X2745900Y4699850D01*
X2765339Y4718622D01*
X2765340Y4718623D01*
X2765656Y4718928D01*
X2770853Y4725580D01*
X2781125Y4738728D01*
X2782602Y4740618D01*
X5069439Y4740618D01*
X5069556Y4739728D01*
X5069556Y4739727D01*
X5070067Y4735815D01*
X5071298Y4726402D01*
X5071660Y4725580D01*
X5076306Y4715022D01*
X5077072Y4713280D01*
X5077650Y4712592D01*
X5077650Y4712592D01*
X5084485Y4704461D01*
X5086297Y4702305D01*
X5087045Y4701808D01*
X5096651Y4695413D01*
X5098231Y4694361D01*
X5111916Y4690086D01*
X5112813Y4690069D01*
X5112813Y4690069D01*
X5119346Y4689950D01*
X5126250Y4689823D01*
X5127153Y4690069D01*
X5139216Y4693358D01*
X5139216Y4693358D01*
X5140082Y4693594D01*
X5152299Y4701096D01*
X5161920Y4711725D01*
X5168171Y4724627D01*
X5170550Y4738765D01*
X5170565Y4740000D01*
X5169341Y4748548D01*
X5168660Y4753303D01*
X5168660Y4753304D01*
X5168532Y4754192D01*
X5162598Y4767243D01*
X5157979Y4772604D01*
X5153826Y4777424D01*
X5153826Y4777424D01*
X5153240Y4778104D01*
X5141210Y4785902D01*
X5127474Y4790009D01*
X5126576Y4790015D01*
X5126576Y4790015D01*
X5120556Y4790052D01*
X5113138Y4790097D01*
X5099353Y4786157D01*
X5087228Y4778507D01*
X5086634Y4777834D01*
X5086634Y4777834D01*
X5086271Y4777424D01*
X5077738Y4767761D01*
X5071645Y4754784D01*
X5071414Y4753303D01*
X5069865Y4743350D01*
X5069439Y4740618D01*
X2782602Y4740618D01*
X2783277Y4741482D01*
X2797587Y4766268D01*
X2808309Y4792805D01*
X2811913Y4807259D01*
X7311877Y4807259D01*
X7313320Y4785243D01*
X7313462Y4784683D01*
X7313462Y4784683D01*
X7317775Y4767702D01*
X7318751Y4763858D01*
X7318993Y4763334D01*
X7318993Y4763334D01*
X7322560Y4755596D01*
X7327988Y4743821D01*
X7340722Y4725803D01*
X7356527Y4710407D01*
X7357006Y4710087D01*
X7357006Y4710087D01*
X7367392Y4703147D01*
X7374872Y4698149D01*
X7375402Y4697922D01*
X7375402Y4697921D01*
X7393640Y4690086D01*
X7395144Y4689440D01*
X7402240Y4687834D01*
X7416100Y4684698D01*
X7416100Y4684698D01*
X7416663Y4684571D01*
X7417240Y4684548D01*
X7417241Y4684548D01*
X7424021Y4684281D01*
X7438710Y4683704D01*
X7450591Y4685427D01*
X7459974Y4686787D01*
X7459974Y4686788D01*
X7460545Y4686870D01*
X7461092Y4687056D01*
X7461092Y4687056D01*
X7480891Y4693777D01*
X7480891Y4693777D01*
X7481438Y4693962D01*
X7485798Y4696404D01*
X7493337Y4700626D01*
X7500689Y4704743D01*
X7504379Y4707812D01*
X7517209Y4718483D01*
X7517277Y4718539D01*
X9608678Y4718539D01*
X9609649Y4697562D01*
X9609789Y4696980D01*
X9609789Y4696980D01*
X9614259Y4678434D01*
X9614569Y4677147D01*
X9614817Y4676601D01*
X9614817Y4676601D01*
X9619129Y4667119D01*
X9623261Y4658031D01*
X9635410Y4640903D01*
X9650580Y4626382D01*
X9651083Y4626056D01*
X9667717Y4615316D01*
X9667718Y4615316D01*
X9668221Y4614991D01*
X9668777Y4614766D01*
X9687142Y4607365D01*
X9687142Y4607365D01*
X9687698Y4607141D01*
X9688287Y4607026D01*
X9688287Y4607026D01*
X9707864Y4603203D01*
X9707864Y4603203D01*
X9708309Y4603116D01*
X9708861Y4603089D01*
X9724343Y4603089D01*
X9740001Y4604583D01*
X9740577Y4604752D01*
X9740577Y4604752D01*
X9749485Y4607365D01*
X9760151Y4610494D01*
X9770191Y4615665D01*
X9778287Y4619835D01*
X9778288Y4619835D01*
X9778820Y4620110D01*
X9786391Y4626056D01*
X9794863Y4632711D01*
X9794863Y4632711D01*
X9795334Y4633081D01*
X9795974Y4633819D01*
X9808704Y4648489D01*
X9808705Y4648489D01*
X9809098Y4648942D01*
X9819613Y4667119D01*
X9826502Y4686956D01*
X9826895Y4689668D01*
X9829429Y4707145D01*
X9829429Y4707145D01*
X9829515Y4707739D01*
X9828544Y4728716D01*
X9824500Y4745498D01*
X9823765Y4748548D01*
X9823765Y4748548D01*
X9823624Y4749131D01*
X9822668Y4751234D01*
X9815181Y4767702D01*
X9814933Y4768247D01*
X9805585Y4781425D01*
X9803129Y4784886D01*
X9803129Y4784887D01*
X9802783Y4785375D01*
X9789810Y4797794D01*
X9788046Y4799482D01*
X9787613Y4799897D01*
X9777900Y4806169D01*
X9770476Y4810962D01*
X9770475Y4810962D01*
X9769972Y4811288D01*
X9769416Y4811512D01*
X9751051Y4818913D01*
X9751051Y4818913D01*
X9750495Y4819137D01*
X9749907Y4819252D01*
X9749906Y4819252D01*
X9730329Y4823075D01*
X9730329Y4823075D01*
X9729884Y4823162D01*
X9729332Y4823189D01*
X9713850Y4823189D01*
X9698192Y4821695D01*
X9697616Y4821526D01*
X9697616Y4821526D01*
X9694378Y4820576D01*
X9678042Y4815784D01*
X9669747Y4811512D01*
X9659906Y4806443D01*
X9659905Y4806443D01*
X9659373Y4806169D01*
X9658901Y4805798D01*
X9643330Y4793567D01*
X9643330Y4793567D01*
X9642859Y4793197D01*
X9642466Y4792744D01*
X9642465Y4792744D01*
X9629489Y4777789D01*
X9629488Y4777789D01*
X9629096Y4777336D01*
X9618580Y4759159D01*
X9611691Y4739322D01*
X9611605Y4738728D01*
X9611605Y4738728D01*
X9609443Y4723819D01*
X9608678Y4718539D01*
X7517277Y4718539D01*
X7517652Y4718852D01*
X7523099Y4725401D01*
X7531391Y4735371D01*
X7531391Y4735371D01*
X7531760Y4735815D01*
X7540395Y4751234D01*
X7542259Y4754561D01*
X7542259Y4754561D01*
X7542541Y4755066D01*
X7542727Y4755612D01*
X7542727Y4755613D01*
X7549448Y4775411D01*
X7549448Y4775412D01*
X7549633Y4775958D01*
X7549716Y4776529D01*
X7549716Y4776530D01*
X7552076Y4792805D01*
X7552799Y4797794D01*
X7552964Y4804103D01*
X7550946Y4826075D01*
X7544957Y4847310D01*
X7535198Y4867098D01*
X7533738Y4869054D01*
X7707075Y4869054D01*
X7708518Y4847037D01*
X7708660Y4846478D01*
X7708660Y4846477D01*
X7711637Y4834756D01*
X7713949Y4825652D01*
X7714191Y4825128D01*
X7714191Y4825128D01*
X7720572Y4811288D01*
X7723187Y4805615D01*
X7735920Y4787597D01*
X7751725Y4772201D01*
X7752204Y4771881D01*
X7752205Y4771881D01*
X7760369Y4766425D01*
X7770070Y4759944D01*
X7770600Y4759716D01*
X7770601Y4759716D01*
X7784776Y4753625D01*
X7790342Y4751234D01*
X7798307Y4749432D01*
X7811298Y4746492D01*
X7811298Y4746492D01*
X7811861Y4746365D01*
X7812439Y4746342D01*
X7812439Y4746342D01*
X7819219Y4746076D01*
X7833908Y4745498D01*
X7844826Y4747081D01*
X7855172Y4748582D01*
X7855173Y4748582D01*
X7855743Y4748664D01*
X7856290Y4748850D01*
X7856290Y4748850D01*
X7876089Y4755571D01*
X7876089Y4755571D01*
X7876636Y4755757D01*
X7895887Y4766537D01*
X7896381Y4766949D01*
X7912407Y4780277D01*
X7912850Y4780646D01*
X7920638Y4790009D01*
X7926589Y4797165D01*
X7926589Y4797165D01*
X7926958Y4797609D01*
X7937739Y4816860D01*
X7937925Y4817406D01*
X7937925Y4817407D01*
X7944646Y4837205D01*
X7944646Y4837206D01*
X7944831Y4837752D01*
X7944914Y4838323D01*
X7944914Y4838324D01*
X7947944Y4859220D01*
X7947997Y4859588D01*
X7948163Y4865898D01*
X7946144Y4887869D01*
X7945523Y4890069D01*
X7940312Y4908548D01*
X7940155Y4909104D01*
X7930396Y4928892D01*
X7921742Y4940482D01*
X7917540Y4946108D01*
X7917540Y4946109D01*
X7917195Y4946571D01*
X7906644Y4956324D01*
X7901417Y4961156D01*
X7901417Y4961156D01*
X7900993Y4961548D01*
X7882333Y4973321D01*
X7869122Y4978592D01*
X7862377Y4981283D01*
X7861840Y4981497D01*
X7861274Y4981610D01*
X7861274Y4981610D01*
X7840767Y4985689D01*
X7840767Y4985689D01*
X7840201Y4985801D01*
X7839623Y4985809D01*
X7839623Y4985809D01*
X7828549Y4985954D01*
X7818139Y4986090D01*
X7817569Y4985992D01*
X7817569Y4985992D01*
X7796964Y4982452D01*
X7796964Y4982452D01*
X7796394Y4982354D01*
X7775694Y4974717D01*
X7775198Y4974422D01*
X7775198Y4974422D01*
X7762636Y4966949D01*
X7756732Y4963436D01*
X7740144Y4948889D01*
X7726485Y4931562D01*
X7716211Y4912036D01*
X7709669Y4890964D01*
X7707075Y4869054D01*
X7533738Y4869054D01*
X7522501Y4884102D01*
X7522342Y4884314D01*
X7522342Y4884314D01*
X7521997Y4884777D01*
X7505795Y4899754D01*
X7487135Y4911527D01*
X7466642Y4919703D01*
X7466076Y4919815D01*
X7466076Y4919816D01*
X7445569Y4923895D01*
X7445569Y4923895D01*
X7445003Y4924007D01*
X7444425Y4924015D01*
X7444425Y4924015D01*
X7433351Y4924160D01*
X7422941Y4924296D01*
X7422371Y4924198D01*
X7422371Y4924198D01*
X7401766Y4920658D01*
X7401765Y4920658D01*
X7401196Y4920560D01*
X7380496Y4912923D01*
X7380000Y4912628D01*
X7380000Y4912628D01*
X7369276Y4906248D01*
X7361534Y4901642D01*
X7344946Y4887094D01*
X7331286Y4869767D01*
X7321013Y4850241D01*
X7314470Y4829170D01*
X7311877Y4807259D01*
X2811913Y4807259D01*
X2815233Y4820576D01*
X2815505Y4823161D01*
X2818179Y4848604D01*
X2818179Y4848604D01*
X2818225Y4849040D01*
X2818209Y4849480D01*
X2817241Y4877204D01*
X2817241Y4877205D01*
X2817226Y4877644D01*
X2816087Y4884102D01*
X2813273Y4900062D01*
X2812256Y4905830D01*
X2812120Y4906247D01*
X2812120Y4906248D01*
X2810700Y4910618D01*
X3349439Y4910618D01*
X3349555Y4909728D01*
X3349555Y4909727D01*
X3349681Y4908765D01*
X3351298Y4896402D01*
X3357072Y4883280D01*
X3357650Y4882592D01*
X3357650Y4882592D01*
X3358379Y4881725D01*
X3366297Y4872305D01*
X3378231Y4864361D01*
X3391916Y4860086D01*
X3392813Y4860069D01*
X3392813Y4860069D01*
X3399346Y4859950D01*
X3406250Y4859823D01*
X3407153Y4860069D01*
X3419216Y4863358D01*
X3419216Y4863358D01*
X3420082Y4863594D01*
X3432299Y4871096D01*
X3441920Y4881725D01*
X3448171Y4894627D01*
X3450550Y4908765D01*
X3450565Y4910000D01*
X3449206Y4919489D01*
X3448660Y4923303D01*
X3448659Y4923304D01*
X3448532Y4924192D01*
X3447527Y4926402D01*
X3446185Y4929355D01*
X3442598Y4937243D01*
X3439690Y4940618D01*
X5009439Y4940618D01*
X5009556Y4939728D01*
X5009556Y4939727D01*
X5009813Y4937761D01*
X5011298Y4926402D01*
X5017072Y4913280D01*
X5017650Y4912592D01*
X5017650Y4912592D01*
X5020058Y4909727D01*
X5026297Y4902305D01*
X5038231Y4894361D01*
X5039089Y4894093D01*
X5040686Y4893594D01*
X5051916Y4890086D01*
X5052813Y4890069D01*
X5052813Y4890069D01*
X5059346Y4889950D01*
X5066250Y4889823D01*
X5067153Y4890069D01*
X5079216Y4893358D01*
X5079216Y4893358D01*
X5080082Y4893594D01*
X5092299Y4901096D01*
X5093061Y4901937D01*
X5101318Y4911059D01*
X5101920Y4911725D01*
X5106201Y4920560D01*
X5107780Y4923819D01*
X5107780Y4923819D01*
X5108171Y4924627D01*
X5110550Y4938765D01*
X5110565Y4940000D01*
X5108532Y4954192D01*
X5107563Y4956324D01*
X5105972Y4959823D01*
X5102598Y4967243D01*
X5099132Y4971265D01*
X5093826Y4977424D01*
X5093826Y4977424D01*
X5093240Y4978104D01*
X5081210Y4985902D01*
X5067474Y4990009D01*
X5066576Y4990015D01*
X5066576Y4990015D01*
X5060556Y4990052D01*
X5053138Y4990097D01*
X5039353Y4986157D01*
X5027228Y4978507D01*
X5026634Y4977834D01*
X5026634Y4977834D01*
X5023881Y4974717D01*
X5017738Y4967761D01*
X5011645Y4954784D01*
X5011507Y4953897D01*
X5010357Y4946513D01*
X5009439Y4940618D01*
X3439690Y4940618D01*
X3436475Y4944349D01*
X3433544Y4950815D01*
X3434574Y4957840D01*
X3439238Y4963192D01*
X3439902Y4963545D01*
X3440082Y4963594D01*
X3452299Y4971096D01*
X3461920Y4981725D01*
X3468171Y4994627D01*
X3470550Y5008765D01*
X3470565Y5010000D01*
X3468532Y5024192D01*
X3465629Y5030577D01*
X3464040Y5034073D01*
X3463041Y5041102D01*
X3466001Y5047555D01*
X3472196Y5051444D01*
X3479216Y5053358D01*
X3479216Y5053358D01*
X3480082Y5053594D01*
X3492299Y5061096D01*
X3501920Y5071725D01*
X3508171Y5084627D01*
X3510550Y5098765D01*
X3510565Y5100000D01*
X3508532Y5114192D01*
X3502598Y5127243D01*
X3499114Y5131287D01*
X3493826Y5137424D01*
X3493826Y5137424D01*
X3493240Y5138104D01*
X3481209Y5145902D01*
X3467474Y5150009D01*
X3466576Y5150015D01*
X3466576Y5150015D01*
X3460555Y5150052D01*
X3453138Y5150097D01*
X3439353Y5146157D01*
X3427228Y5138507D01*
X3417738Y5127761D01*
X3411645Y5114784D01*
X3409439Y5100618D01*
X3409555Y5099728D01*
X3409555Y5099727D01*
X3409676Y5098807D01*
X3411298Y5086402D01*
X3411660Y5085580D01*
X3415968Y5075789D01*
X3416881Y5068748D01*
X3413842Y5062332D01*
X3407898Y5058599D01*
X3399353Y5056157D01*
X3387228Y5048507D01*
X3386634Y5047834D01*
X3386634Y5047834D01*
X3383040Y5043765D01*
X3377738Y5037761D01*
X3371645Y5024784D01*
X3369439Y5010618D01*
X3369555Y5009728D01*
X3369555Y5009727D01*
X3369681Y5008765D01*
X3371298Y4996402D01*
X3371660Y4995580D01*
X3376012Y4985689D01*
X3377072Y4983280D01*
X3377650Y4982592D01*
X3377650Y4982592D01*
X3383600Y4975514D01*
X3386452Y4969012D01*
X3385336Y4962001D01*
X3380607Y4956706D01*
X3379834Y4956295D01*
X3379353Y4956157D01*
X3367228Y4948507D01*
X3366634Y4947834D01*
X3366634Y4947834D01*
X3365518Y4946571D01*
X3357738Y4937761D01*
X3351645Y4924784D01*
X3350900Y4920003D01*
X3349581Y4911527D01*
X3349439Y4910618D01*
X2810700Y4910618D01*
X2803548Y4932632D01*
X2803411Y4933050D01*
X2801510Y4936949D01*
X2791058Y4958380D01*
X2790865Y4958775D01*
X2790619Y4959139D01*
X2790619Y4959139D01*
X2782931Y4970537D01*
X2774860Y4982503D01*
X2773421Y4984102D01*
X2756003Y5003446D01*
X2755709Y5003772D01*
X2733784Y5022170D01*
X2709512Y5037336D01*
X2685934Y5047834D01*
X2683767Y5048799D01*
X2683767Y5048799D01*
X2683365Y5048978D01*
X2669609Y5052922D01*
X2656276Y5056746D01*
X2656276Y5056746D01*
X2655853Y5056867D01*
X2655418Y5056928D01*
X2655418Y5056928D01*
X2643525Y5058599D01*
X2627511Y5060850D01*
X2606054Y5060850D01*
X2605835Y5060835D01*
X2605835Y5060835D01*
X2585087Y5059384D01*
X2585087Y5059384D01*
X2584649Y5059353D01*
X2556653Y5053403D01*
X2556240Y5053252D01*
X2556240Y5053252D01*
X2530173Y5043765D01*
X2530172Y5043764D01*
X2529758Y5043614D01*
X2529369Y5043407D01*
X2529369Y5043407D01*
X2504876Y5030384D01*
X2504876Y5030383D01*
X2504487Y5030177D01*
X2504131Y5029918D01*
X2504131Y5029918D01*
X2481689Y5013613D01*
X2481332Y5013354D01*
X2481016Y5013048D01*
X2481016Y5013048D01*
X2461061Y4993778D01*
X2461060Y4993777D01*
X2460744Y4993472D01*
X2460473Y4993125D01*
X2460473Y4993125D01*
X2451221Y4981283D01*
X2443123Y4970918D01*
X2428813Y4946132D01*
X2418091Y4919595D01*
X2417985Y4919167D01*
X2417984Y4919167D01*
X2416206Y4912036D01*
X2411167Y4891824D01*
X2411121Y4891387D01*
X2411121Y4891387D01*
X2408252Y4864093D01*
X2408175Y4863360D01*
X20062Y4863360D01*
X20062Y4915992D01*
X20259Y4917725D01*
X20260Y4918282D01*
X20578Y4919665D01*
X20264Y4921049D01*
X20267Y4922468D01*
X20306Y4922468D01*
X20237Y4923263D01*
X20274Y4924015D01*
X21862Y4956324D01*
X21983Y4957554D01*
X27273Y4993213D01*
X27514Y4994425D01*
X27786Y4995512D01*
X34393Y5021887D01*
X36273Y5029394D01*
X36632Y5030577D01*
X48776Y5064518D01*
X49250Y5065660D01*
X64663Y5098248D01*
X65246Y5099338D01*
X83779Y5130259D01*
X84466Y5131287D01*
X105939Y5160241D01*
X106724Y5161197D01*
X130932Y5187906D01*
X131806Y5188781D01*
X158517Y5212990D01*
X159473Y5213775D01*
X188428Y5235249D01*
X189456Y5235936D01*
X220375Y5254469D01*
X221465Y5255051D01*
X254052Y5270464D01*
X255195Y5270938D01*
X289136Y5283082D01*
X290319Y5283441D01*
X325288Y5292201D01*
X326501Y5292442D01*
X327636Y5292611D01*
X362159Y5297732D01*
X363389Y5297853D01*
X396384Y5299475D01*
X397175Y5299405D01*
X397175Y5299455D01*
X398594Y5299453D01*
X399977Y5299135D01*
X401361Y5299448D01*
X401844Y5299447D01*
X403663Y5299651D01*
X1075660Y5299651D01*
X1115193Y5299651D01*
X1118039Y5299325D01*
X1118163Y5299297D01*
X1118163Y5299296D01*
X1118859Y5299135D01*
X1118930Y5299135D01*
X1119374Y5299237D01*
X1119896Y5299271D01*
X1199386Y5300857D01*
X1199387Y5300857D01*
X1199511Y5300860D01*
X1199635Y5300867D01*
X1199637Y5300867D01*
X1269470Y5305051D01*
X1279964Y5305680D01*
X1324358Y5310122D01*
X1360036Y5313692D01*
X1360038Y5313692D01*
X1360160Y5313705D01*
X1390318Y5317943D01*
X1439847Y5324904D01*
X1439848Y5324904D01*
X1439973Y5324922D01*
X1519274Y5339313D01*
X1597939Y5356855D01*
X1667012Y5375178D01*
X1674827Y5377251D01*
X1675360Y5377366D01*
X1675804Y5377389D01*
X1675873Y5377408D01*
X1676496Y5377752D01*
X1676662Y5377843D01*
X1679269Y5378918D01*
X1773392Y5405908D01*
X6879616Y5405908D01*
X6881059Y5383891D01*
X6881201Y5383332D01*
X6881201Y5383331D01*
X6885881Y5364907D01*
X6886490Y5362507D01*
X6886732Y5361982D01*
X6886732Y5361982D01*
X6890451Y5353914D01*
X6895727Y5342470D01*
X6908461Y5324452D01*
X6924266Y5309056D01*
X6924745Y5308735D01*
X6924745Y5308735D01*
X6933165Y5303109D01*
X6942611Y5296798D01*
X6943141Y5296570D01*
X6943141Y5296570D01*
X6952960Y5292351D01*
X6962883Y5288088D01*
X6970848Y5286286D01*
X6983839Y5283346D01*
X6983839Y5283346D01*
X6984402Y5283219D01*
X6984979Y5283196D01*
X6984980Y5283196D01*
X6991760Y5282930D01*
X7006449Y5282353D01*
X7017367Y5283936D01*
X7027713Y5285436D01*
X7027713Y5285436D01*
X7028284Y5285519D01*
X7028831Y5285704D01*
X7028831Y5285704D01*
X7048630Y5292425D01*
X7048630Y5292425D01*
X7049177Y5292611D01*
X7068428Y5303392D01*
X7071170Y5305672D01*
X7084948Y5317131D01*
X7085391Y5317500D01*
X7091565Y5324923D01*
X7099130Y5334019D01*
X7099130Y5334019D01*
X7099499Y5334463D01*
X7110280Y5353714D01*
X7110466Y5354261D01*
X7110466Y5354261D01*
X7117187Y5374060D01*
X7117187Y5374060D01*
X7117372Y5374607D01*
X7117455Y5375177D01*
X7117455Y5375178D01*
X7119876Y5391872D01*
X7120538Y5396442D01*
X7120703Y5402752D01*
X7118685Y5424723D01*
X7118043Y5426996D01*
X7112853Y5445402D01*
X7112696Y5445958D01*
X7102937Y5465746D01*
X7100224Y5469380D01*
X7090081Y5482963D01*
X7090081Y5482963D01*
X7089736Y5483425D01*
X7073534Y5498402D01*
X7054874Y5510175D01*
X7041768Y5515404D01*
X7264338Y5515404D01*
X7265781Y5493388D01*
X7265923Y5492828D01*
X7265923Y5492828D01*
X7270019Y5476700D01*
X7271212Y5472003D01*
X7271454Y5471479D01*
X7271454Y5471479D01*
X7275265Y5463210D01*
X7280449Y5451966D01*
X7293183Y5433948D01*
X7308987Y5418552D01*
X7309467Y5418231D01*
X7309467Y5418231D01*
X7317887Y5412605D01*
X7327332Y5406294D01*
X7327863Y5406066D01*
X7327863Y5406066D01*
X7347074Y5397813D01*
X7347604Y5397585D01*
X7352654Y5396442D01*
X7368560Y5392843D01*
X7368561Y5392843D01*
X7369124Y5392715D01*
X7369701Y5392692D01*
X7369701Y5392692D01*
X7376482Y5392426D01*
X7391171Y5391849D01*
X7402088Y5393432D01*
X7412435Y5394932D01*
X7412435Y5394932D01*
X7413006Y5395015D01*
X7413552Y5395200D01*
X7413553Y5395201D01*
X7433351Y5401921D01*
X7433352Y5401921D01*
X7433899Y5402107D01*
X7439656Y5405331D01*
X7441948Y5406615D01*
X7453149Y5412888D01*
X7456798Y5415922D01*
X7467000Y5424408D01*
X7470113Y5426996D01*
X7476456Y5434624D01*
X7483852Y5443515D01*
X7483852Y5443516D01*
X7484221Y5443960D01*
X7495002Y5463210D01*
X7495187Y5463757D01*
X7495188Y5463757D01*
X7501908Y5483556D01*
X7501908Y5483556D01*
X7502094Y5484103D01*
X7502177Y5484674D01*
X7502177Y5484674D01*
X7505207Y5505571D01*
X7505260Y5505938D01*
X7505425Y5512248D01*
X7503406Y5534219D01*
X7497417Y5555454D01*
X7496085Y5558156D01*
X8686977Y5558156D01*
X8688420Y5536140D01*
X8688562Y5535580D01*
X8688562Y5535580D01*
X8691873Y5522543D01*
X8693851Y5514755D01*
X8694093Y5514231D01*
X8694093Y5514231D01*
X8697744Y5506309D01*
X8703088Y5494718D01*
X8715822Y5476700D01*
X8731626Y5461304D01*
X8732106Y5460983D01*
X8732106Y5460983D01*
X8740526Y5455357D01*
X8749972Y5449046D01*
X8750502Y5448818D01*
X8750502Y5448818D01*
X8761810Y5443960D01*
X8770243Y5440337D01*
X8778209Y5438534D01*
X8791199Y5435595D01*
X8791200Y5435595D01*
X8791763Y5435467D01*
X8792340Y5435444D01*
X8792340Y5435444D01*
X8799121Y5435178D01*
X8813810Y5434601D01*
X8824727Y5436184D01*
X8835074Y5437684D01*
X8835074Y5437684D01*
X8835645Y5437767D01*
X8836191Y5437952D01*
X8836192Y5437953D01*
X8855991Y5444673D01*
X8855991Y5444673D01*
X8856538Y5444859D01*
X8875788Y5455640D01*
X8884891Y5463210D01*
X8890535Y5467905D01*
X8892752Y5469748D01*
X8903742Y5482963D01*
X8906491Y5486267D01*
X8906491Y5486268D01*
X8906860Y5486712D01*
X8917641Y5505962D01*
X8917826Y5506509D01*
X8917827Y5506509D01*
X8924547Y5526308D01*
X8924547Y5526308D01*
X8924733Y5526855D01*
X8924816Y5527426D01*
X8924816Y5527426D01*
X8927846Y5548323D01*
X8927899Y5548690D01*
X8928064Y5555000D01*
X8927774Y5558156D01*
X9086977Y5558156D01*
X9088420Y5536140D01*
X9088562Y5535580D01*
X9088562Y5535580D01*
X9091873Y5522543D01*
X9093851Y5514755D01*
X9094093Y5514231D01*
X9094093Y5514231D01*
X9097745Y5506309D01*
X9103088Y5494718D01*
X9115822Y5476700D01*
X9131626Y5461304D01*
X9132106Y5460983D01*
X9132106Y5460983D01*
X9140526Y5455357D01*
X9149972Y5449046D01*
X9150502Y5448818D01*
X9150502Y5448818D01*
X9161811Y5443960D01*
X9170244Y5440337D01*
X9178209Y5438534D01*
X9191200Y5435595D01*
X9191200Y5435595D01*
X9191763Y5435467D01*
X9192340Y5435444D01*
X9192341Y5435444D01*
X9199121Y5435178D01*
X9213810Y5434601D01*
X9224728Y5436184D01*
X9235074Y5437684D01*
X9235074Y5437684D01*
X9235645Y5437767D01*
X9236192Y5437952D01*
X9236192Y5437953D01*
X9255991Y5444673D01*
X9255991Y5444673D01*
X9256538Y5444859D01*
X9275788Y5455640D01*
X9284891Y5463210D01*
X9290535Y5467905D01*
X9292752Y5469748D01*
X9303742Y5482963D01*
X9306491Y5486267D01*
X9306491Y5486268D01*
X9306860Y5486712D01*
X9317641Y5505962D01*
X9317827Y5506509D01*
X9317827Y5506509D01*
X9324548Y5526308D01*
X9324548Y5526308D01*
X9324733Y5526855D01*
X9324816Y5527426D01*
X9324816Y5527426D01*
X9327846Y5548323D01*
X9327899Y5548690D01*
X9328064Y5555000D01*
X9326045Y5576971D01*
X9325780Y5577912D01*
X9321547Y5592921D01*
X9320057Y5598206D01*
X9310298Y5617995D01*
X9308003Y5621068D01*
X9297442Y5635211D01*
X9297442Y5635211D01*
X9297097Y5635673D01*
X9284020Y5647761D01*
X9281319Y5650258D01*
X9281319Y5650258D01*
X9280895Y5650650D01*
X9262235Y5662424D01*
X9241742Y5670599D01*
X9241176Y5670712D01*
X9241176Y5670712D01*
X9220669Y5674791D01*
X9220669Y5674791D01*
X9220102Y5674904D01*
X9219525Y5674911D01*
X9219525Y5674911D01*
X9208450Y5675056D01*
X9198041Y5675193D01*
X9197471Y5675095D01*
X9197471Y5675095D01*
X9176865Y5671554D01*
X9176865Y5671554D01*
X9176296Y5671456D01*
X9155596Y5663820D01*
X9155100Y5663524D01*
X9155100Y5663524D01*
X9145988Y5658104D01*
X9136634Y5652539D01*
X9120046Y5637991D01*
X9106386Y5620664D01*
X9096113Y5601138D01*
X9093562Y5592921D01*
X9089890Y5581096D01*
X9089570Y5580067D01*
X9086977Y5558156D01*
X8927774Y5558156D01*
X8926045Y5576971D01*
X8925780Y5577912D01*
X8921547Y5592921D01*
X8920056Y5598206D01*
X8910298Y5617995D01*
X8908003Y5621068D01*
X8897442Y5635211D01*
X8897442Y5635211D01*
X8897097Y5635673D01*
X8884020Y5647761D01*
X8881319Y5650258D01*
X8881318Y5650258D01*
X8880895Y5650650D01*
X8862235Y5662424D01*
X8841742Y5670599D01*
X8841176Y5670712D01*
X8841176Y5670712D01*
X8820669Y5674791D01*
X8820669Y5674791D01*
X8820102Y5674904D01*
X8819525Y5674911D01*
X8819524Y5674911D01*
X8808450Y5675056D01*
X8798040Y5675193D01*
X8797471Y5675095D01*
X8797471Y5675095D01*
X8776865Y5671554D01*
X8776865Y5671554D01*
X8776296Y5671456D01*
X8755596Y5663820D01*
X8755099Y5663524D01*
X8755099Y5663524D01*
X8745988Y5658104D01*
X8736634Y5652539D01*
X8720046Y5637991D01*
X8706386Y5620664D01*
X8696113Y5601138D01*
X8693562Y5592921D01*
X8689890Y5581096D01*
X8689570Y5580067D01*
X8686977Y5558156D01*
X7496085Y5558156D01*
X7487659Y5575243D01*
X7486368Y5576971D01*
X7474803Y5592459D01*
X7474803Y5592459D01*
X7474457Y5592921D01*
X7459874Y5606402D01*
X7458680Y5607506D01*
X7458679Y5607506D01*
X7458256Y5607898D01*
X7439596Y5619672D01*
X7419103Y5627847D01*
X7418537Y5627960D01*
X7418536Y5627960D01*
X7398030Y5632039D01*
X7398030Y5632039D01*
X7397463Y5632152D01*
X7396886Y5632159D01*
X7396885Y5632159D01*
X7385811Y5632304D01*
X7375401Y5632441D01*
X7374832Y5632343D01*
X7374832Y5632343D01*
X7354226Y5628802D01*
X7354226Y5628802D01*
X7353656Y5628704D01*
X7332956Y5621068D01*
X7332460Y5620772D01*
X7332460Y5620772D01*
X7328280Y5618285D01*
X7313995Y5609787D01*
X7297406Y5595239D01*
X7283747Y5577912D01*
X7273474Y5558386D01*
X7266931Y5537315D01*
X7264338Y5515404D01*
X7041768Y5515404D01*
X7034381Y5518351D01*
X7033815Y5518464D01*
X7033815Y5518464D01*
X7013308Y5522543D01*
X7013308Y5522543D01*
X7012742Y5522656D01*
X7012164Y5522663D01*
X7012164Y5522663D01*
X7001090Y5522808D01*
X6990680Y5522944D01*
X6990110Y5522846D01*
X6990110Y5522846D01*
X6969505Y5519306D01*
X6969504Y5519306D01*
X6968935Y5519208D01*
X6948235Y5511571D01*
X6947739Y5511276D01*
X6947739Y5511276D01*
X6937959Y5505458D01*
X6929273Y5500290D01*
X6912685Y5485743D01*
X6899025Y5468416D01*
X6888752Y5448890D01*
X6882209Y5427818D01*
X6879616Y5405908D01*
X1773392Y5405908D01*
X2522174Y5620618D01*
X5569439Y5620618D01*
X5569556Y5619727D01*
X5569556Y5619727D01*
X5569681Y5618765D01*
X5571298Y5606402D01*
X5571660Y5605580D01*
X5576042Y5595620D01*
X5577072Y5593280D01*
X5577650Y5592592D01*
X5577650Y5592592D01*
X5578379Y5591725D01*
X5586297Y5582305D01*
X5587045Y5581808D01*
X5596907Y5575243D01*
X5598231Y5574361D01*
X5611916Y5570086D01*
X5612813Y5570069D01*
X5612813Y5570069D01*
X5619346Y5569950D01*
X5626250Y5569823D01*
X5627153Y5570069D01*
X5639216Y5573358D01*
X5639216Y5573358D01*
X5640082Y5573594D01*
X5652299Y5581096D01*
X5661920Y5591725D01*
X5666213Y5600586D01*
X5667779Y5603819D01*
X5667779Y5603819D01*
X5668171Y5604627D01*
X5670550Y5618765D01*
X5670565Y5620000D01*
X5669441Y5627847D01*
X5668660Y5633303D01*
X5668659Y5633303D01*
X5668532Y5634192D01*
X5668069Y5635211D01*
X5662970Y5646425D01*
X5662598Y5647243D01*
X5658363Y5652158D01*
X5653826Y5657424D01*
X5653826Y5657424D01*
X5653240Y5658104D01*
X5641209Y5665901D01*
X5627474Y5670009D01*
X5626576Y5670015D01*
X5626576Y5670015D01*
X5620555Y5670052D01*
X5613138Y5670097D01*
X5599353Y5666157D01*
X5587228Y5658507D01*
X5577738Y5647761D01*
X5571645Y5634784D01*
X5569439Y5620618D01*
X2522174Y5620618D01*
X3952437Y6030739D01*
X5419439Y6030739D01*
X5421300Y6013886D01*
X5427127Y5997964D01*
X5427550Y5997334D01*
X5427550Y5997334D01*
X5428857Y5995389D01*
X5436583Y5983892D01*
X5437144Y5983381D01*
X5437145Y5983381D01*
X5448561Y5972992D01*
X5448562Y5972992D01*
X5449123Y5972481D01*
X5449791Y5972119D01*
X5449791Y5972118D01*
X5463356Y5964753D01*
X5463356Y5964753D01*
X5464024Y5964391D01*
X5464758Y5964198D01*
X5479688Y5960281D01*
X5479689Y5960281D01*
X5480423Y5960088D01*
X5489061Y5959953D01*
X5496616Y5959834D01*
X5496616Y5959834D01*
X5497376Y5959822D01*
X5498117Y5959992D01*
X5498117Y5959992D01*
X5504159Y5961375D01*
X5513903Y5963607D01*
X5529050Y5971225D01*
X5541942Y5982237D01*
X5551836Y5996005D01*
X5552624Y5997964D01*
X5557877Y6011031D01*
X5557877Y6011031D01*
X5558160Y6011737D01*
X5560549Y6028522D01*
X5560565Y6030000D01*
X5560384Y6031492D01*
X5558619Y6046078D01*
X5558528Y6046832D01*
X5552535Y6062692D01*
X5542931Y6076665D01*
X5541751Y6077716D01*
X5530839Y6087439D01*
X5530839Y6087439D01*
X5530272Y6087944D01*
X5515288Y6095878D01*
X5498844Y6100008D01*
X5498084Y6100012D01*
X5498084Y6100012D01*
X5490367Y6100052D01*
X5481890Y6100097D01*
X5481151Y6099919D01*
X5481150Y6099919D01*
X5466816Y6096478D01*
X5465403Y6096139D01*
X5464729Y6095791D01*
X5464729Y6095791D01*
X5464209Y6095522D01*
X5450337Y6088362D01*
X5437560Y6077217D01*
X5427811Y6063345D01*
X5421652Y6047549D01*
X5419439Y6030739D01*
X3952437Y6030739D01*
X4850159Y6288156D01*
X8486977Y6288156D01*
X8488420Y6266140D01*
X8488562Y6265580D01*
X8488562Y6265580D01*
X8493709Y6245315D01*
X8493851Y6244755D01*
X8494093Y6244231D01*
X8494093Y6244231D01*
X8497904Y6235962D01*
X8503088Y6224718D01*
X8515822Y6206700D01*
X8531626Y6191304D01*
X8532106Y6190984D01*
X8532106Y6190984D01*
X8540526Y6185358D01*
X8549971Y6179046D01*
X8550502Y6178819D01*
X8550502Y6178818D01*
X8569713Y6170565D01*
X8570243Y6170337D01*
X8578209Y6168535D01*
X8591199Y6165595D01*
X8591200Y6165595D01*
X8591763Y6165467D01*
X8592340Y6165445D01*
X8592340Y6165445D01*
X8599121Y6165178D01*
X8613810Y6164601D01*
X8624727Y6166184D01*
X8635074Y6167684D01*
X8635074Y6167684D01*
X8635645Y6167767D01*
X8636191Y6167953D01*
X8636192Y6167953D01*
X8655990Y6174674D01*
X8655991Y6174674D01*
X8656538Y6174859D01*
X8675788Y6185640D01*
X8692752Y6199749D01*
X8706860Y6216712D01*
X8717641Y6235962D01*
X8717826Y6236509D01*
X8717827Y6236510D01*
X8724547Y6256308D01*
X8724547Y6256309D01*
X8724733Y6256855D01*
X8724816Y6257426D01*
X8724816Y6257427D01*
X8727846Y6278323D01*
X8727899Y6278691D01*
X8728064Y6285000D01*
X8727774Y6288156D01*
X8886977Y6288156D01*
X8888420Y6266140D01*
X8888562Y6265580D01*
X8888562Y6265580D01*
X8893709Y6245315D01*
X8893851Y6244755D01*
X8894093Y6244231D01*
X8894093Y6244231D01*
X8897905Y6235962D01*
X8903088Y6224718D01*
X8915822Y6206700D01*
X8931626Y6191304D01*
X8932106Y6190984D01*
X8932106Y6190984D01*
X8940526Y6185358D01*
X8949972Y6179046D01*
X8950502Y6178819D01*
X8950502Y6178818D01*
X8969713Y6170565D01*
X8970244Y6170337D01*
X8978209Y6168535D01*
X8991200Y6165595D01*
X8991200Y6165595D01*
X8991763Y6165467D01*
X8992340Y6165445D01*
X8992341Y6165445D01*
X8999121Y6165178D01*
X9013810Y6164601D01*
X9024728Y6166184D01*
X9035074Y6167684D01*
X9035074Y6167684D01*
X9035645Y6167767D01*
X9036192Y6167953D01*
X9036192Y6167953D01*
X9055991Y6174674D01*
X9055991Y6174674D01*
X9056538Y6174859D01*
X9075788Y6185640D01*
X9092752Y6199749D01*
X9106860Y6216712D01*
X9117641Y6235962D01*
X9117827Y6236509D01*
X9117827Y6236510D01*
X9124548Y6256308D01*
X9124548Y6256309D01*
X9124733Y6256855D01*
X9124816Y6257426D01*
X9124816Y6257427D01*
X9127846Y6278323D01*
X9127899Y6278691D01*
X9128064Y6285000D01*
X9126045Y6306971D01*
X9120057Y6328207D01*
X9110298Y6347995D01*
X9109087Y6349616D01*
X9097442Y6365211D01*
X9097442Y6365211D01*
X9097097Y6365674D01*
X9080895Y6380650D01*
X9062235Y6392424D01*
X9041742Y6400600D01*
X9041176Y6400712D01*
X9041176Y6400712D01*
X9020669Y6404791D01*
X9020669Y6404791D01*
X9020102Y6404904D01*
X9019525Y6404912D01*
X9019525Y6404912D01*
X9008450Y6405057D01*
X8998041Y6405193D01*
X8997471Y6405095D01*
X8997471Y6405095D01*
X8976865Y6401554D01*
X8976865Y6401554D01*
X8976296Y6401457D01*
X8955596Y6393820D01*
X8955100Y6393525D01*
X8955100Y6393525D01*
X8946410Y6388355D01*
X8936634Y6382539D01*
X8920046Y6367991D01*
X8906386Y6350664D01*
X8896113Y6331138D01*
X8889570Y6310067D01*
X8886977Y6288156D01*
X8727774Y6288156D01*
X8726045Y6306971D01*
X8720056Y6328207D01*
X8710298Y6347995D01*
X8709087Y6349616D01*
X8697442Y6365211D01*
X8697442Y6365211D01*
X8697096Y6365674D01*
X8680895Y6380650D01*
X8662235Y6392424D01*
X8641742Y6400600D01*
X8641176Y6400712D01*
X8641175Y6400712D01*
X8620669Y6404791D01*
X8620669Y6404791D01*
X8620102Y6404904D01*
X8619525Y6404912D01*
X8619524Y6404912D01*
X8608450Y6405057D01*
X8598040Y6405193D01*
X8597471Y6405095D01*
X8597471Y6405095D01*
X8576865Y6401554D01*
X8576865Y6401554D01*
X8576295Y6401457D01*
X8555595Y6393820D01*
X8555099Y6393525D01*
X8555099Y6393525D01*
X8546410Y6388355D01*
X8536634Y6382539D01*
X8520045Y6367991D01*
X8506386Y6350664D01*
X8496113Y6331138D01*
X8489570Y6310067D01*
X8486977Y6288156D01*
X4850159Y6288156D01*
X5104283Y6361025D01*
X5106003Y6361314D01*
X5106538Y6361466D01*
X5107955Y6361542D01*
X5109199Y6362224D01*
X5109935Y6362434D01*
X5111332Y6362999D01*
X5174542Y6380259D01*
X5229653Y6395307D01*
X5229957Y6395386D01*
X5352407Y6425504D01*
X5352719Y6425576D01*
X5475898Y6452577D01*
X5476212Y6452642D01*
X5600035Y6476507D01*
X5600350Y6476563D01*
X5724732Y6497276D01*
X5725049Y6497325D01*
X5849925Y6514875D01*
X5850242Y6514916D01*
X5897940Y6520388D01*
X5975524Y6529290D01*
X5975838Y6529322D01*
X6033611Y6534469D01*
X6101444Y6540512D01*
X6101763Y6540537D01*
X6201799Y6546894D01*
X6227607Y6548534D01*
X6227925Y6548551D01*
X6246138Y6549244D01*
X6353938Y6553351D01*
X6354258Y6553360D01*
X6476839Y6554916D01*
X6478234Y6554766D01*
X6479089Y6554765D01*
X6480472Y6554447D01*
X6481856Y6554760D01*
X6482339Y6554759D01*
X6484158Y6554962D01*
X7266381Y6554962D01*
X7268116Y6554766D01*
G37*
%TD.AperFunction*%
%TD*%
M02*
