%TF.GenerationSoftware,Altium Limited,Altium Designer,22.6.1 (34)*%
G04 Layer_Color=8421504*
%FSLAX45Y45*%
%MOMM*%
%TF.SameCoordinates,EFAF5BE3-474D-4A98-89D0-AE48FBC3E593*%
%TF.FilePolarity,Positive*%
%TF.FileFunction,Paste,Top*%
%TF.Part,Single*%
G01*
G75*
%TA.AperFunction,TestPad*%
G04:AMPARAMS|DCode=21|XSize=1.5mm|YSize=1mm|CornerRadius=0.15mm|HoleSize=0mm|Usage=FLASHONLY|Rotation=180.000|XOffset=0mm|YOffset=0mm|HoleType=Round|Shape=RoundedRectangle|*
%AMROUNDEDRECTD21*
21,1,1.50000,0.70000,0,0,180.0*
21,1,1.20000,1.00000,0,0,180.0*
1,1,0.30000,-0.60000,0.35000*
1,1,0.30000,0.60000,0.35000*
1,1,0.30000,0.60000,-0.35000*
1,1,0.30000,-0.60000,-0.35000*
%
%ADD21ROUNDEDRECTD21*%
G04:AMPARAMS|DCode=22|XSize=1.5mm|YSize=1mm|CornerRadius=0.15mm|HoleSize=0mm|Usage=FLASHONLY|Rotation=270.000|XOffset=0mm|YOffset=0mm|HoleType=Round|Shape=RoundedRectangle|*
%AMROUNDEDRECTD22*
21,1,1.50000,0.70000,0,0,270.0*
21,1,1.20000,1.00000,0,0,270.0*
1,1,0.30000,-0.35000,-0.60000*
1,1,0.30000,-0.35000,0.60000*
1,1,0.30000,0.35000,0.60000*
1,1,0.30000,0.35000,-0.60000*
%
%ADD22ROUNDEDRECTD22*%
G04:AMPARAMS|DCode=23|XSize=1.5mm|YSize=1mm|CornerRadius=0.15mm|HoleSize=0mm|Usage=FLASHONLY|Rotation=285.887|XOffset=0mm|YOffset=0mm|HoleType=Round|Shape=RoundedRectangle|*
%AMROUNDEDRECTD23*
21,1,1.50000,0.70000,0,0,285.9*
21,1,1.20000,1.00000,0,0,285.9*
1,1,0.30000,-0.17239,-0.67289*
1,1,0.30000,-0.50088,0.48127*
1,1,0.30000,0.17239,0.67289*
1,1,0.30000,0.50088,-0.48127*
%
%ADD23ROUNDEDRECTD23*%
G04:AMPARAMS|DCode=28|XSize=1.5mm|YSize=1mm|CornerRadius=0.15mm|HoleSize=0mm|Usage=FLASHONLY|Rotation=8.887|XOffset=0mm|YOffset=0mm|HoleType=Round|Shape=RoundedRectangle|*
%AMROUNDEDRECTD28*
21,1,1.50000,0.70000,0,0,8.9*
21,1,1.20000,1.00000,0,0,8.9*
1,1,0.30000,0.64687,-0.25311*
1,1,0.30000,-0.53873,-0.43849*
1,1,0.30000,-0.64687,0.25311*
1,1,0.30000,0.53873,0.43849*
%
%ADD28ROUNDEDRECTD28*%
G04:AMPARAMS|DCode=29|XSize=1.5mm|YSize=1mm|CornerRadius=0.15mm|HoleSize=0mm|Usage=FLASHONLY|Rotation=278.887|XOffset=0mm|YOffset=0mm|HoleType=Round|Shape=RoundedRectangle|*
%AMROUNDEDRECTD29*
21,1,1.50000,0.70000,0,0,278.9*
21,1,1.20000,1.00000,0,0,278.9*
1,1,0.30000,-0.25311,-0.64687*
1,1,0.30000,-0.43849,0.53873*
1,1,0.30000,0.25311,0.64687*
1,1,0.30000,0.43849,-0.53873*
%
%ADD29ROUNDEDRECTD29*%
G04:AMPARAMS|DCode=30|XSize=1.5mm|YSize=1mm|CornerRadius=0.15mm|HoleSize=0mm|Usage=FLASHONLY|Rotation=15.887|XOffset=0mm|YOffset=0mm|HoleType=Round|Shape=RoundedRectangle|*
%AMROUNDEDRECTD30*
21,1,1.50000,0.70000,0,0,15.9*
21,1,1.20000,1.00000,0,0,15.9*
1,1,0.30000,0.67289,-0.17239*
1,1,0.30000,-0.48127,-0.50088*
1,1,0.30000,-0.67289,0.17239*
1,1,0.30000,0.48127,0.50088*
%
%ADD30ROUNDEDRECTD30*%
%TA.AperFunction,NonConductor*%
%ADD87C,0.60000*%
%ADD92C,0.70000*%
%TA.AperFunction,SMDPad,CuDef*%
G04:AMPARAMS|DCode=93|XSize=1.9mm|YSize=3.1mm|CornerRadius=0.65mm|HoleSize=0mm|Usage=FLASHONLY|Rotation=188.887|XOffset=0mm|YOffset=0mm|HoleType=Round|Shape=RoundedRectangle|*
%AMROUNDEDRECTD93*
21,1,1.90000,1.80000,0,0,188.9*
21,1,0.60000,3.10000,0,0,188.9*
1,1,1.30000,-0.43543,0.84285*
1,1,1.30000,0.15736,0.93554*
1,1,1.30000,0.43543,-0.84285*
1,1,1.30000,-0.15736,-0.93554*
%
%ADD93ROUNDEDRECTD93*%
G04:AMPARAMS|DCode=94|XSize=3.1mm|YSize=3.1mm|CornerRadius=1.07mm|HoleSize=0mm|Usage=FLASHONLY|Rotation=188.887|XOffset=0mm|YOffset=0mm|HoleType=Round|Shape=RoundedRectangle|*
%AMROUNDEDRECTD94*
21,1,3.10000,0.96000,0,0,188.9*
21,1,0.96000,3.10000,0,0,188.9*
1,1,2.14000,-0.54839,0.40009*
1,1,2.14000,0.40009,0.54839*
1,1,2.14000,0.54839,-0.40009*
1,1,2.14000,-0.40009,-0.54839*
%
%ADD94ROUNDEDRECTD94*%
G04:AMPARAMS|DCode=95|XSize=3.1mm|YSize=2.5mm|CornerRadius=0.86mm|HoleSize=0mm|Usage=FLASHONLY|Rotation=188.887|XOffset=0mm|YOffset=0mm|HoleType=Round|Shape=RoundedRectangle|*
%AMROUNDEDRECTD95*
21,1,3.10000,0.78000,0,0,188.9*
21,1,1.38000,2.50000,0,0,188.9*
1,1,1.72000,-0.74197,0.27872*
1,1,1.72000,0.62147,0.49191*
1,1,1.72000,0.74197,-0.27872*
1,1,1.72000,-0.62147,-0.49191*
%
%ADD95ROUNDEDRECTD95*%
%TA.AperFunction,TestPad*%
G04:AMPARAMS|DCode=96|XSize=1.76mm|YSize=3.16mm|CornerRadius=0.48mm|HoleSize=0mm|Usage=FLASHONLY|Rotation=98.887|XOffset=0mm|YOffset=0mm|HoleType=Round|Shape=RoundedRectangle|*
%AMROUNDEDRECTD96*
21,1,1.76000,2.20000,0,0,98.9*
21,1,0.80000,3.16000,0,0,98.9*
1,1,0.96000,1.02500,0.56513*
1,1,0.96000,1.14859,-0.22526*
1,1,0.96000,-1.02500,-0.56513*
1,1,0.96000,-1.14859,0.22526*
%
%ADD96ROUNDEDRECTD96*%
G04:AMPARAMS|DCode=97|XSize=0.4mm|YSize=0.9mm|CornerRadius=0.125mm|HoleSize=0mm|Usage=FLASHONLY|Rotation=278.887|XOffset=0mm|YOffset=0mm|HoleType=Round|Shape=RoundedRectangle|*
%AMROUNDEDRECTD97*
21,1,0.40000,0.65000,0,0,278.9*
21,1,0.15000,0.90000,0,0,278.9*
1,1,0.25000,-0.30951,-0.12431*
1,1,0.25000,-0.33268,0.02389*
1,1,0.25000,0.30951,0.12431*
1,1,0.25000,0.33268,-0.02389*
%
%ADD97ROUNDEDRECTD97*%
G04:AMPARAMS|DCode=98|XSize=0.19mm|YSize=0.92mm|CornerRadius=0.0545mm|HoleSize=0mm|Usage=FLASHONLY|Rotation=278.887|XOffset=0mm|YOffset=0mm|HoleType=Round|Shape=RoundedRectangle|*
%AMROUNDEDRECTD98*
21,1,0.19000,0.81100,0,0,278.9*
21,1,0.08100,0.92000,0,0,278.9*
1,1,0.10900,-0.39438,-0.10266*
1,1,0.10900,-0.40689,-0.02263*
1,1,0.10900,0.39438,0.10266*
1,1,0.10900,0.40689,0.02263*
%
%ADD98ROUNDEDRECTD98*%
G04:AMPARAMS|DCode=99|XSize=1.76mm|YSize=2.76mm|CornerRadius=0.48mm|HoleSize=0mm|Usage=FLASHONLY|Rotation=278.887|XOffset=0mm|YOffset=0mm|HoleType=Round|Shape=RoundedRectangle|*
%AMROUNDEDRECTD99*
21,1,1.76000,1.80000,0,0,278.9*
21,1,0.80000,2.76000,0,0,278.9*
1,1,0.96000,-0.82740,-0.53423*
1,1,0.96000,-0.95099,0.25616*
1,1,0.96000,0.82740,0.53423*
1,1,0.96000,0.95099,-0.25616*
%
%ADD99ROUNDEDRECTD99*%
%TA.AperFunction,SMDPad,CuDef*%
G04:AMPARAMS|DCode=100|XSize=1.54mm|YSize=1.74mm|CornerRadius=0.45mm|HoleSize=0mm|Usage=FLASHONLY|Rotation=278.887|XOffset=0mm|YOffset=0mm|HoleType=Round|Shape=RoundedRectangle|*
%AMROUNDEDRECTD100*
21,1,1.54000,0.84000,0,0,278.9*
21,1,0.64000,1.74000,0,0,278.9*
1,1,0.90000,-0.36552,-0.38104*
1,1,0.90000,-0.46440,0.25128*
1,1,0.90000,0.36552,0.38104*
1,1,0.90000,0.46440,-0.25128*
%
%ADD100ROUNDEDRECTD100*%
%TA.AperFunction,TestPad*%
G04:AMPARAMS|DCode=101|XSize=1.64mm|YSize=1.74mm|CornerRadius=0.48mm|HoleSize=0mm|Usage=FLASHONLY|Rotation=98.887|XOffset=0mm|YOffset=0mm|HoleType=Round|Shape=RoundedRectangle|*
%AMROUNDEDRECTD101*
21,1,1.64000,0.78000,0,0,98.9*
21,1,0.68000,1.74000,0,0,98.9*
1,1,0.96000,0.33280,0.39617*
1,1,0.96000,0.43785,-0.27567*
1,1,0.96000,-0.33280,-0.39617*
1,1,0.96000,-0.43785,0.27567*
%
%ADD101ROUNDEDRECTD101*%
%TA.AperFunction,SMDPad,CuDef*%
G04:AMPARAMS|DCode=102|XSize=1.72mm|YSize=1.42mm|CornerRadius=0.41mm|HoleSize=0mm|Usage=FLASHONLY|Rotation=90.000|XOffset=0mm|YOffset=0mm|HoleType=Round|Shape=RoundedRectangle|*
%AMROUNDEDRECTD102*
21,1,1.72000,0.60000,0,0,90.0*
21,1,0.90000,1.42000,0,0,90.0*
1,1,0.82000,0.30000,0.45000*
1,1,0.82000,0.30000,-0.45000*
1,1,0.82000,-0.30000,-0.45000*
1,1,0.82000,-0.30000,0.45000*
%
%ADD102ROUNDEDRECTD102*%
G04:AMPARAMS|DCode=103|XSize=1.72mm|YSize=1.42mm|CornerRadius=0.41mm|HoleSize=0mm|Usage=FLASHONLY|Rotation=105.887|XOffset=0mm|YOffset=0mm|HoleType=Round|Shape=RoundedRectangle|*
%AMROUNDEDRECTD103*
21,1,1.72000,0.60000,0,0,105.9*
21,1,0.90000,1.42000,0,0,105.9*
1,1,0.82000,0.16536,0.51494*
1,1,0.82000,0.41173,-0.35069*
1,1,0.82000,-0.16536,-0.51494*
1,1,0.82000,-0.41173,0.35069*
%
%ADD103ROUNDEDRECTD103*%
G04:AMPARAMS|DCode=104|XSize=1.72mm|YSize=1.42mm|CornerRadius=0.41mm|HoleSize=0mm|Usage=FLASHONLY|Rotation=15.887|XOffset=0mm|YOffset=0mm|HoleType=Round|Shape=RoundedRectangle|*
%AMROUNDEDRECTD104*
21,1,1.72000,0.60000,0,0,15.9*
21,1,0.90000,1.42000,0,0,15.9*
1,1,0.82000,0.51494,-0.16536*
1,1,0.82000,-0.35069,-0.41173*
1,1,0.82000,-0.51494,0.16536*
1,1,0.82000,0.35069,0.41173*
%
%ADD104ROUNDEDRECTD104*%
G04:AMPARAMS|DCode=105|XSize=1.72mm|YSize=1.42mm|CornerRadius=0.41mm|HoleSize=0mm|Usage=FLASHONLY|Rotation=180.000|XOffset=0mm|YOffset=0mm|HoleType=Round|Shape=RoundedRectangle|*
%AMROUNDEDRECTD105*
21,1,1.72000,0.60000,0,0,180.0*
21,1,0.90000,1.42000,0,0,180.0*
1,1,0.82000,-0.45000,0.30000*
1,1,0.82000,0.45000,0.30000*
1,1,0.82000,0.45000,-0.30000*
1,1,0.82000,-0.45000,-0.30000*
%
%ADD105ROUNDEDRECTD105*%
%TA.AperFunction,TestPad*%
G04:AMPARAMS|DCode=106|XSize=0.49mm|YSize=1.14mm|CornerRadius=0.19mm|HoleSize=0mm|Usage=FLASHONLY|Rotation=188.887|XOffset=0mm|YOffset=0mm|HoleType=Round|Shape=RoundedRectangle|*
%AMROUNDEDRECTD106*
21,1,0.49000,0.76000,0,0,188.9*
21,1,0.11000,1.14000,0,0,188.9*
1,1,0.38000,-0.11305,0.36694*
1,1,0.38000,-0.00436,0.38394*
1,1,0.38000,0.11305,-0.36694*
1,1,0.38000,0.00436,-0.38394*
%
%ADD106ROUNDEDRECTD106*%
%TA.AperFunction,SMDPad,CuDef*%
G04:AMPARAMS|DCode=107|XSize=0.52mm|YSize=0.92mm|CornerRadius=0.2mm|HoleSize=0mm|Usage=FLASHONLY|Rotation=8.887|XOffset=0mm|YOffset=0mm|HoleType=Round|Shape=RoundedRectangle|*
%AMROUNDEDRECTD107*
21,1,0.52000,0.52000,0,0,8.9*
21,1,0.12000,0.92000,0,0,8.9*
1,1,0.40000,0.09945,-0.24761*
1,1,0.40000,-0.01911,-0.26615*
1,1,0.40000,-0.09945,0.24761*
1,1,0.40000,0.01911,0.26615*
%
%ADD107ROUNDEDRECTD107*%
G04:AMPARAMS|DCode=108|XSize=0.52mm|YSize=0.92mm|CornerRadius=0.2mm|HoleSize=0mm|Usage=FLASHONLY|Rotation=180.000|XOffset=0mm|YOffset=0mm|HoleType=Round|Shape=RoundedRectangle|*
%AMROUNDEDRECTD108*
21,1,0.52000,0.52000,0,0,180.0*
21,1,0.12000,0.92000,0,0,180.0*
1,1,0.40000,-0.06000,0.26000*
1,1,0.40000,0.06000,0.26000*
1,1,0.40000,0.06000,-0.26000*
1,1,0.40000,-0.06000,-0.26000*
%
%ADD108ROUNDEDRECTD108*%
G04:AMPARAMS|DCode=109|XSize=0.28mm|YSize=1.38mm|CornerRadius=0.14mm|HoleSize=0mm|Usage=FLASHONLY|Rotation=180.000|XOffset=0mm|YOffset=0mm|HoleType=Round|Shape=RoundedRectangle|*
%AMROUNDEDRECTD109*
21,1,0.28000,1.10000,0,0,180.0*
21,1,0.00000,1.38000,0,0,180.0*
1,1,0.28000,0.00000,0.55000*
1,1,0.28000,0.00000,0.55000*
1,1,0.28000,0.00000,-0.55000*
1,1,0.28000,0.00000,-0.55000*
%
%ADD109ROUNDEDRECTD109*%
G04:AMPARAMS|DCode=110|XSize=0.28mm|YSize=1.38mm|CornerRadius=0.14mm|HoleSize=0mm|Usage=FLASHONLY|Rotation=270.000|XOffset=0mm|YOffset=0mm|HoleType=Round|Shape=RoundedRectangle|*
%AMROUNDEDRECTD110*
21,1,0.28000,1.10000,0,0,270.0*
21,1,0.00000,1.38000,0,0,270.0*
1,1,0.28000,-0.55000,0.00000*
1,1,0.28000,-0.55000,0.00000*
1,1,0.28000,0.55000,0.00000*
1,1,0.28000,0.55000,0.00000*
%
%ADD110ROUNDEDRECTD110*%
G04:AMPARAMS|DCode=111|XSize=2.3mm|YSize=3.8mm|CornerRadius=0.55mm|HoleSize=0mm|Usage=FLASHONLY|Rotation=0.000|XOffset=0mm|YOffset=0mm|HoleType=Round|Shape=RoundedRectangle|*
%AMROUNDEDRECTD111*
21,1,2.30000,2.70000,0,0,0.0*
21,1,1.20000,3.80000,0,0,0.0*
1,1,1.10000,0.60000,-1.35000*
1,1,1.10000,-0.60000,-1.35000*
1,1,1.10000,-0.60000,1.35000*
1,1,1.10000,0.60000,1.35000*
%
%ADD111ROUNDEDRECTD111*%
G04:AMPARAMS|DCode=112|XSize=2.3mm|YSize=3.7mm|CornerRadius=1.15mm|HoleSize=0mm|Usage=FLASHONLY|Rotation=0.000|XOffset=0mm|YOffset=0mm|HoleType=Round|Shape=RoundedRectangle|*
%AMROUNDEDRECTD112*
21,1,2.30000,1.40000,0,0,0.0*
21,1,0.00000,3.70000,0,0,0.0*
1,1,2.30000,0.00000,-0.70000*
1,1,2.30000,0.00000,-0.70000*
1,1,2.30000,0.00000,0.70000*
1,1,2.30000,0.00000,0.70000*
%
%ADD112ROUNDEDRECTD112*%
%TA.AperFunction,ConnectorPad*%
G04:AMPARAMS|DCode=113|XSize=2.3mm|YSize=3.9mm|CornerRadius=0.55mm|HoleSize=0mm|Usage=FLASHONLY|Rotation=0.000|XOffset=0mm|YOffset=0mm|HoleType=Round|Shape=RoundedRectangle|*
%AMROUNDEDRECTD113*
21,1,2.30000,2.80000,0,0,0.0*
21,1,1.20000,3.90000,0,0,0.0*
1,1,1.10000,0.60000,-1.40000*
1,1,1.10000,-0.60000,-1.40000*
1,1,1.10000,-0.60000,1.40000*
1,1,1.10000,0.60000,1.40000*
%
%ADD113ROUNDEDRECTD113*%
G04:AMPARAMS|DCode=114|XSize=1.9mm|YSize=3.9mm|CornerRadius=0.65mm|HoleSize=0mm|Usage=FLASHONLY|Rotation=0.000|XOffset=0mm|YOffset=0mm|HoleType=Round|Shape=RoundedRectangle|*
%AMROUNDEDRECTD114*
21,1,1.90000,2.60000,0,0,0.0*
21,1,0.60000,3.90000,0,0,0.0*
1,1,1.30000,0.30000,-1.30000*
1,1,1.30000,-0.30000,-1.30000*
1,1,1.30000,-0.30000,1.30000*
1,1,1.30000,0.30000,1.30000*
%
%ADD114ROUNDEDRECTD114*%
%TA.AperFunction,SMDPad,CuDef*%
G04:AMPARAMS|DCode=115|XSize=2.3mm|YSize=4.1mm|CornerRadius=0.55mm|HoleSize=0mm|Usage=FLASHONLY|Rotation=195.887|XOffset=0mm|YOffset=0mm|HoleType=Round|Shape=RoundedRectangle|*
%AMROUNDEDRECTD115*
21,1,2.30000,3.00000,0,0,195.9*
21,1,1.20000,4.10000,0,0,195.9*
1,1,1.10000,-0.98769,1.27846*
1,1,1.10000,0.16647,1.60695*
1,1,1.10000,0.98769,-1.27846*
1,1,1.10000,-0.16647,-1.60695*
%
%ADD115ROUNDEDRECTD115*%
G04:AMPARAMS|DCode=116|XSize=2.3mm|YSize=4.1mm|CornerRadius=0.79mm|HoleSize=0mm|Usage=FLASHONLY|Rotation=98.887|XOffset=0mm|YOffset=0mm|HoleType=Round|Shape=RoundedRectangle|*
%AMROUNDEDRECTD116*
21,1,2.30000,2.52000,0,0,98.9*
21,1,0.72000,4.10000,0,0,98.9*
1,1,1.58000,1.18926,0.55033*
1,1,1.58000,1.30049,-0.16103*
1,1,1.58000,-1.18926,-0.55033*
1,1,1.58000,-1.30049,0.16103*
%
%ADD116ROUNDEDRECTD116*%
G04:AMPARAMS|DCode=117|XSize=2.3mm|YSize=4.1mm|CornerRadius=0.55mm|HoleSize=0mm|Usage=FLASHONLY|Rotation=98.887|XOffset=0mm|YOffset=0mm|HoleType=Round|Shape=RoundedRectangle|*
%AMROUNDEDRECTD117*
21,1,2.30000,3.00000,0,0,98.9*
21,1,1.20000,4.10000,0,0,98.9*
1,1,1.10000,1.38930,0.82453*
1,1,1.10000,1.57469,-0.36107*
1,1,1.10000,-1.38930,-0.82453*
1,1,1.10000,-1.57469,0.36107*
%
%ADD117ROUNDEDRECTD117*%
G04:AMPARAMS|DCode=118|XSize=2.3mm|YSize=4.1mm|CornerRadius=0.79mm|HoleSize=0mm|Usage=FLASHONLY|Rotation=15.887|XOffset=0mm|YOffset=0mm|HoleType=Round|Shape=RoundedRectangle|*
%AMROUNDEDRECTD118*
21,1,2.30000,2.52000,0,0,15.9*
21,1,0.72000,4.10000,0,0,15.9*
1,1,1.58000,0.69116,-1.11333*
1,1,1.58000,-0.00134,-1.31042*
1,1,1.58000,-0.69116,1.11333*
1,1,1.58000,0.00134,1.31042*
%
%ADD118ROUNDEDRECTD118*%
G04:AMPARAMS|DCode=119|XSize=2.3mm|YSize=4.1mm|CornerRadius=0.55mm|HoleSize=0mm|Usage=FLASHONLY|Rotation=188.887|XOffset=0mm|YOffset=0mm|HoleType=Round|Shape=RoundedRectangle|*
%AMROUNDEDRECTD119*
21,1,2.30000,3.00000,0,0,188.9*
21,1,1.20000,4.10000,0,0,188.9*
1,1,1.10000,-0.82453,1.38930*
1,1,1.10000,0.36107,1.57469*
1,1,1.10000,0.82453,-1.38930*
1,1,1.10000,-0.36107,-1.57469*
%
%ADD119ROUNDEDRECTD119*%
G04:AMPARAMS|DCode=120|XSize=2.3mm|YSize=4.1mm|CornerRadius=0.55mm|HoleSize=0mm|Usage=FLASHONLY|Rotation=0.000|XOffset=0mm|YOffset=0mm|HoleType=Round|Shape=RoundedRectangle|*
%AMROUNDEDRECTD120*
21,1,2.30000,3.00000,0,0,0.0*
21,1,1.20000,4.10000,0,0,0.0*
1,1,1.10000,0.60000,-1.50000*
1,1,1.10000,-0.60000,-1.50000*
1,1,1.10000,-0.60000,1.50000*
1,1,1.10000,0.60000,1.50000*
%
%ADD120ROUNDEDRECTD120*%
G04:AMPARAMS|DCode=121|XSize=1.5mm|YSize=1.3mm|CornerRadius=0.23mm|HoleSize=0mm|Usage=FLASHONLY|Rotation=0.000|XOffset=0mm|YOffset=0mm|HoleType=Round|Shape=RoundedRectangle|*
%AMROUNDEDRECTD121*
21,1,1.50000,0.84000,0,0,0.0*
21,1,1.04000,1.30000,0,0,0.0*
1,1,0.46000,0.52000,-0.42000*
1,1,0.46000,-0.52000,-0.42000*
1,1,0.46000,-0.52000,0.42000*
1,1,0.46000,0.52000,0.42000*
%
%ADD121ROUNDEDRECTD121*%
D21*
X9900000Y2729760D02*
D03*
Y2930240D02*
D03*
X9960000Y5419760D02*
D03*
Y5620240D02*
D03*
X9760000Y5439760D02*
D03*
Y5640240D02*
D03*
X9920000Y1960240D02*
D03*
Y1759760D02*
D03*
X9720000Y1960240D02*
D03*
Y1759760D02*
D03*
X1210000Y1149759D02*
D03*
Y1350239D02*
D03*
X1419999Y1189759D02*
D03*
Y1390239D02*
D03*
X1095013Y1514742D02*
D03*
Y1715222D02*
D03*
X545013Y1574742D02*
D03*
Y1775222D02*
D03*
X335013Y1574742D02*
D03*
Y1775222D02*
D03*
X2000000Y3059759D02*
D03*
Y3260239D02*
D03*
X1829999Y3479759D02*
D03*
Y3680239D02*
D03*
X2039999Y3680240D02*
D03*
Y3479760D02*
D03*
X2380000Y2459760D02*
D03*
Y2660240D02*
D03*
X1870000Y910240D02*
D03*
Y709761D02*
D03*
X900000Y4599760D02*
D03*
Y4800240D02*
D03*
X960000Y709761D02*
D03*
Y910240D02*
D03*
X340000Y2859760D02*
D03*
Y3060240D02*
D03*
D22*
X10280240Y2750000D02*
D03*
X10079760D02*
D03*
X10310240Y2950000D02*
D03*
X10109760D02*
D03*
X10330240Y3150000D02*
D03*
X10129760D02*
D03*
X9040240Y1900000D02*
D03*
X8839760D02*
D03*
X9040240Y1700000D02*
D03*
X8839760D02*
D03*
X9400240Y1900000D02*
D03*
X9199760D02*
D03*
X9400240Y1700000D02*
D03*
X9199760D02*
D03*
X825253Y1254982D02*
D03*
X624773D02*
D03*
X419760Y2040000D02*
D03*
X620240D02*
D03*
X1579759Y1609999D02*
D03*
X1780239D02*
D03*
X1429759Y3709999D02*
D03*
X1630239D02*
D03*
X1429759Y3489999D02*
D03*
X1630239D02*
D03*
X1569759Y1819999D02*
D03*
X1770239D02*
D03*
X1810239Y1399999D02*
D03*
X1609759D02*
D03*
X770240Y5032500D02*
D03*
X569760D02*
D03*
D23*
X5354135Y5028041D02*
D03*
X5161313Y4973161D02*
D03*
X5414135Y4828041D02*
D03*
X5221313Y4773161D02*
D03*
X5694375Y5128041D02*
D03*
X5501553Y5073161D02*
D03*
X5754136Y4928040D02*
D03*
X5561313Y4873161D02*
D03*
X5073589Y6162560D02*
D03*
X5266411Y6217440D02*
D03*
D28*
X8564514Y2159037D02*
D03*
X8595486Y1960964D02*
D03*
X3184514Y3709037D02*
D03*
X3215486Y3510964D02*
D03*
X3384514Y3739037D02*
D03*
X3415486Y3540964D02*
D03*
X4502238Y2049637D02*
D03*
X4533209Y1851564D02*
D03*
X4333210Y1821564D02*
D03*
X4302239Y2019637D02*
D03*
X4194514Y3869037D02*
D03*
X4225486Y3670964D02*
D03*
X3994514Y3839037D02*
D03*
X4025485Y3640964D02*
D03*
D29*
X7789037Y2025486D02*
D03*
X7590964Y1994514D02*
D03*
X2880963Y3904515D02*
D03*
X3079036Y3935486D02*
D03*
D30*
X5672560Y1596411D02*
D03*
X5727440Y1403589D02*
D03*
D87*
X10095757Y4152847D02*
X10234076Y4174475D01*
X10075986Y4246923D02*
X10214305Y4268551D01*
X10209461Y3393295D02*
X10347780Y3414923D01*
X10229232Y3299220D02*
X10367551Y3320847D01*
D92*
X9698078Y4187832D02*
X9836397Y4209460D01*
X9851323Y3240129D02*
X9989643Y3261757D01*
D93*
X10047254Y5138946D02*
D03*
X9770616Y5095690D02*
D03*
D94*
X8841901Y4950474D02*
D03*
D95*
X9690000Y4380000D02*
D03*
D96*
X10160000Y3930000D02*
D03*
D97*
X9758920Y4025280D02*
D03*
X9770507Y3951181D02*
D03*
X9843115Y3486823D02*
D03*
X9854701Y3412723D02*
D03*
D98*
X9779776Y3891901D02*
D03*
X9787500Y3842501D02*
D03*
X9795224Y3793101D02*
D03*
X9802949Y3743701D02*
D03*
X9810673Y3694302D02*
D03*
X9818397Y3644901D02*
D03*
X9826121Y3595502D02*
D03*
X9833845Y3546103D02*
D03*
D99*
X10230000Y3640000D02*
D03*
D100*
X7625696Y2516301D02*
D03*
X7289303Y2463702D02*
D03*
X8104304Y2591201D02*
D03*
X8440696Y2643800D02*
D03*
D101*
X7363075Y4327843D02*
D03*
X7006924Y4272154D02*
D03*
X7821923Y4399659D02*
D03*
X8178075Y4455348D02*
D03*
D102*
X650000Y4830000D02*
D03*
X330000D02*
D03*
Y4350000D02*
D03*
X650000D02*
D03*
D103*
X5323181Y6029652D02*
D03*
X5015404Y5942055D02*
D03*
X5146800Y5480388D02*
D03*
X5454576Y5567985D02*
D03*
D104*
X5529610Y1326799D02*
D03*
X5442013Y1634576D02*
D03*
X4980347Y1503181D02*
D03*
X5067944Y1195404D02*
D03*
D105*
X1175023Y885010D02*
D03*
Y565010D02*
D03*
X1655023D02*
D03*
Y885010D02*
D03*
D106*
X9312281Y3970648D02*
D03*
X9406141Y3985324D02*
D03*
X9500000Y4000000D02*
D03*
X9544801Y3713482D02*
D03*
X9450941Y3698806D02*
D03*
X9357082Y3684130D02*
D03*
D107*
X3024715Y3471297D02*
D03*
X2836996Y3441945D02*
D03*
X2795285Y3708704D02*
D03*
X2889145Y3723379D02*
D03*
X2983004Y3738056D02*
D03*
D108*
X725000Y1435000D02*
D03*
X820000D02*
D03*
X914999D02*
D03*
Y1705000D02*
D03*
X725000D02*
D03*
D109*
X1620000Y2034999D02*
D03*
X1540000D02*
D03*
X1460000D02*
D03*
X1380000D02*
D03*
X1300000D02*
D03*
X1220000D02*
D03*
X1140000D02*
D03*
X1060000D02*
D03*
X980000D02*
D03*
X900000D02*
D03*
X820000D02*
D03*
Y3184999D02*
D03*
X900000D02*
D03*
X980000D02*
D03*
X1060000D02*
D03*
X1140000D02*
D03*
X1220000D02*
D03*
X1300000D02*
D03*
X1380000D02*
D03*
X1460000D02*
D03*
X1540000D02*
D03*
X1620000D02*
D03*
D110*
X645000Y2209999D02*
D03*
Y2289999D02*
D03*
Y2370000D02*
D03*
Y2449999D02*
D03*
Y2530000D02*
D03*
Y2610000D02*
D03*
Y2689999D02*
D03*
Y2770000D02*
D03*
Y2849999D02*
D03*
Y2929999D02*
D03*
Y3010000D02*
D03*
X1795000D02*
D03*
Y2929999D02*
D03*
Y2849999D02*
D03*
Y2770000D02*
D03*
Y2689999D02*
D03*
Y2610000D02*
D03*
Y2530000D02*
D03*
Y2449999D02*
D03*
Y2370000D02*
D03*
Y2289999D02*
D03*
Y2209999D02*
D03*
D111*
X8778894Y1259701D02*
D03*
D112*
X9838893D02*
D03*
D113*
X9337499Y6285000D02*
D03*
D114*
X8277500D02*
D03*
D115*
X7702256Y5602583D02*
D03*
X6682745Y5312418D02*
D03*
X3252744Y4252417D02*
D03*
D116*
X5473124Y3578637D02*
D03*
D117*
X5636877Y2531363D02*
D03*
D118*
X4272255Y4542582D02*
D03*
D119*
X7106362Y4753124D02*
D03*
X8153636Y4916878D02*
D03*
D120*
X8477500Y5555000D02*
D03*
X9537499D02*
D03*
X10137499Y2340000D02*
D03*
X9077500D02*
D03*
D121*
X1250000Y3690000D02*
D03*
X829999D02*
D03*
Y3970000D02*
D03*
X1250000D02*
D03*
%TF.MD5,983ecc1cba53df8b8aa660819bae8e06*%
M02*
