%TF.GenerationSoftware,KiCad,Pcbnew,(6.0.10)*%
%TF.CreationDate,2023-01-19T12:39:29+01:00*%
%TF.ProjectId,QMKMouse,514d4b4d-6f75-4736-952e-6b696361645f,2.001*%
%TF.SameCoordinates,PX5c0b167PY839143b*%
%TF.FileFunction,Drillmap*%
%TF.FilePolarity,Positive*%
%FSLAX45Y45*%
G04 Gerber Fmt 4.5, Leading zero omitted, Abs format (unit mm)*
G04 Created by KiCad (PCBNEW (6.0.10)) date 2023-01-19 12:39:29*
%MOMM*%
%LPD*%
G01*
G04 APERTURE LIST*
%ADD10C,0.050000*%
%ADD11C,0.200000*%
%ADD12C,0.060000*%
%ADD13C,0.170000*%
%ADD14C,0.359200*%
G04 APERTURE END LIST*
D10*
X8961246Y3029454D02*
X6688857Y2674139D01*
X6518924Y3760933D02*
X8791313Y4116249D01*
X400012Y5319703D02*
G75*
G03*
X12Y4919701I7J-400007D01*
G01*
X7990090Y6315012D02*
X7510090Y6315012D01*
X6346112Y2924192D02*
G75*
G03*
X6688857Y2674139I296397J46344D01*
G01*
X10073537Y1221194D02*
G75*
G03*
X10461271Y3445588I-6611896J2298509D01*
G01*
X8961246Y3029454D02*
G75*
G03*
X9211299Y3372198I-46337J296392D01*
G01*
X9568893Y6575012D02*
X8230090Y6575012D01*
X6090000Y1020005D02*
G75*
G03*
X6190000Y1120000I9J99991D01*
G01*
X8130090Y6475012D02*
X8130090Y6455012D01*
X286957Y874821D02*
X69312Y1194674D01*
X5102321Y6381321D02*
X1670205Y5397177D01*
X10461271Y3445588D02*
G75*
G03*
X10449322Y3610660I-1000001J10588D01*
G01*
X9134062Y3866196D02*
G75*
G03*
X8791313Y4116249I-296402J-46350D01*
G01*
X8680000Y1020000D02*
X9790170Y1019701D01*
X1118930Y5319701D02*
G75*
G03*
X1670205Y5397177I-11J2000085D01*
G01*
X9842352Y6398384D02*
G75*
G03*
X9568893Y6575012I-273462J-123379D01*
G01*
X6480508Y6575012D02*
G75*
G03*
X5102321Y6381321I2J-5000006D01*
G01*
X7370096Y6455012D02*
G75*
G03*
X7510090Y6315012I139994J-6D01*
G01*
X10461271Y3445588D02*
X10461271Y3445588D01*
X7990090Y6315015D02*
G75*
G03*
X8130090Y6455012I9J139991D01*
G01*
X10104548Y5726979D02*
G75*
G03*
X9842352Y6398384I-6642679J-2207193D01*
G01*
X6518924Y3760930D02*
G75*
G03*
X6268870Y3418190I46325J-296384D01*
G01*
X10449322Y3610660D02*
X10143560Y5566139D01*
X9790170Y1019703D02*
G75*
G03*
X10073537Y1221194I-1J300003D01*
G01*
X12Y1419701D02*
X12Y1427100D01*
X286956Y874820D02*
G75*
G03*
X2491733Y77436I1653503J1125145D01*
G01*
X6058885Y1019701D02*
G75*
G03*
X5507610Y942224I14J-2000105D01*
G01*
X1073400Y5319701D02*
X400012Y5319701D01*
X8579993Y1120000D02*
G75*
G03*
X8680000Y1020000I100006J6D01*
G01*
X7370096Y6475012D02*
G75*
G03*
X7270090Y6575012I-100006J-7D01*
G01*
X6346113Y2924192D02*
X6268870Y3418190D01*
X12Y4919701D02*
X12Y1427100D01*
X6058885Y1019701D02*
X6090000Y1020000D01*
X6290000Y1219995D02*
G75*
G03*
X6190000Y1120000I-11J-99989D01*
G01*
X2491733Y77436D02*
X5507610Y942224D01*
X7270090Y6575012D02*
X6480508Y6575012D01*
X13Y1419701D02*
G75*
G03*
X69312Y1194674I399987J-5D01*
G01*
X8230090Y6575015D02*
G75*
G03*
X8130090Y6475012I9J-100009D01*
G01*
X1073400Y5319701D02*
X1118930Y5319701D01*
X7370090Y6475012D02*
X7370090Y6455012D01*
X6290000Y1220000D02*
X8480000Y1220000D01*
X10143560Y5566138D02*
G75*
G03*
X10104549Y5726979I-988040J-154493D01*
G01*
X8579993Y1120000D02*
G75*
G03*
X8480000Y1220000I-99994J6D01*
G01*
X9134057Y3866195D02*
X9211299Y3372198D01*
D11*
D12*
X9839145Y4062393D02*
X9899145Y4002393D01*
X9899145Y4062393D02*
X9839145Y4002393D01*
D11*
X9900715Y4024678D02*
X9896853Y4049378D01*
X9841436Y4015409D02*
X9837574Y4040108D01*
X9896853Y4049378D02*
G75*
G03*
X9837574Y4040108I-29640J-4635D01*
G01*
X9841436Y4015409D02*
G75*
G03*
X9900715Y4024678I29640J4635D01*
G01*
D12*
X9931836Y3469597D02*
X9991836Y3409597D01*
X9991836Y3469597D02*
X9931836Y3409597D01*
D13*
X9112500Y4604999D02*
G75*
G03*
X9112500Y4604999I-85000J0D01*
G01*
X9804097Y4713139D02*
G75*
G03*
X9804097Y4713139I-85000J0D01*
G01*
D14*
X2613200Y5035800D02*
X2613200Y4676600D01*
X2433600Y4856200D02*
X2792800Y4856200D01*
X6700388Y1873756D02*
X6700388Y1514556D01*
X6520788Y1694156D02*
X6879988Y1694156D01*
D11*
X255131Y-313017D02*
X255131Y-113017D01*
X302750Y-113017D01*
X331322Y-122540D01*
X350369Y-141588D01*
X359893Y-160636D01*
X369417Y-198731D01*
X369417Y-227302D01*
X359893Y-265398D01*
X350369Y-284445D01*
X331322Y-303493D01*
X302750Y-313017D01*
X255131Y-313017D01*
X455131Y-313017D02*
X455131Y-179683D01*
X455131Y-217778D02*
X464655Y-198731D01*
X474179Y-189207D01*
X493226Y-179683D01*
X512274Y-179683D01*
X578941Y-313017D02*
X578941Y-179683D01*
X578941Y-113017D02*
X569417Y-122540D01*
X578941Y-132064D01*
X588464Y-122540D01*
X578941Y-113017D01*
X578941Y-132064D01*
X702750Y-313017D02*
X683702Y-303493D01*
X674179Y-284445D01*
X674179Y-113017D01*
X807512Y-313017D02*
X788464Y-303493D01*
X778940Y-284445D01*
X778940Y-113017D01*
X1036083Y-313017D02*
X1036083Y-113017D01*
X1102750Y-255874D01*
X1169417Y-113017D01*
X1169417Y-313017D01*
X1350369Y-313017D02*
X1350369Y-208255D01*
X1340845Y-189207D01*
X1321798Y-179683D01*
X1283702Y-179683D01*
X1264655Y-189207D01*
X1350369Y-303493D02*
X1331322Y-313017D01*
X1283702Y-313017D01*
X1264655Y-303493D01*
X1255131Y-284445D01*
X1255131Y-265398D01*
X1264655Y-246350D01*
X1283702Y-236826D01*
X1331322Y-236826D01*
X1350369Y-227302D01*
X1445607Y-179683D02*
X1445607Y-379683D01*
X1445607Y-189207D02*
X1464655Y-179683D01*
X1502750Y-179683D01*
X1521798Y-189207D01*
X1531321Y-198731D01*
X1540845Y-217778D01*
X1540845Y-274921D01*
X1531321Y-293969D01*
X1521798Y-303493D01*
X1502750Y-313017D01*
X1464655Y-313017D01*
X1445607Y-303493D01*
X1626560Y-293969D02*
X1636083Y-303493D01*
X1626560Y-313017D01*
X1617036Y-303493D01*
X1626560Y-293969D01*
X1626560Y-313017D01*
X1626560Y-189207D02*
X1636083Y-198731D01*
X1626560Y-208255D01*
X1617036Y-198731D01*
X1626560Y-189207D01*
X1626560Y-208255D01*
D12*
X-62488Y-612541D02*
X-2488Y-672541D01*
X-2488Y-612541D02*
X-62488Y-672541D01*
D11*
X293226Y-533017D02*
X312274Y-533017D01*
X331322Y-542541D01*
X340845Y-552064D01*
X350369Y-571112D01*
X359893Y-609207D01*
X359893Y-656826D01*
X350369Y-694921D01*
X340845Y-713969D01*
X331322Y-723493D01*
X312274Y-733017D01*
X293226Y-733017D01*
X274179Y-723493D01*
X264655Y-713969D01*
X255131Y-694921D01*
X245607Y-656826D01*
X245607Y-609207D01*
X255131Y-571112D01*
X264655Y-552064D01*
X274179Y-542541D01*
X293226Y-533017D01*
X445607Y-713969D02*
X455131Y-723493D01*
X445607Y-733017D01*
X436083Y-723493D01*
X445607Y-713969D01*
X445607Y-733017D01*
X626560Y-533017D02*
X588464Y-533017D01*
X569417Y-542541D01*
X559893Y-552064D01*
X540845Y-580636D01*
X531322Y-618731D01*
X531322Y-694921D01*
X540845Y-713969D01*
X550369Y-723493D01*
X569417Y-733017D01*
X607512Y-733017D01*
X626560Y-723493D01*
X636083Y-713969D01*
X645607Y-694921D01*
X645607Y-647302D01*
X636083Y-628255D01*
X626560Y-618731D01*
X607512Y-609207D01*
X569417Y-609207D01*
X550369Y-618731D01*
X540845Y-628255D01*
X531322Y-647302D01*
X769417Y-533017D02*
X788464Y-533017D01*
X807512Y-542541D01*
X817036Y-552064D01*
X826560Y-571112D01*
X836083Y-609207D01*
X836083Y-656826D01*
X826560Y-694921D01*
X817036Y-713969D01*
X807512Y-723493D01*
X788464Y-733017D01*
X769417Y-733017D01*
X750369Y-723493D01*
X740845Y-713969D01*
X731321Y-694921D01*
X721798Y-656826D01*
X721798Y-609207D01*
X731321Y-571112D01*
X740845Y-552064D01*
X750369Y-542541D01*
X769417Y-533017D01*
X959893Y-533017D02*
X978940Y-533017D01*
X997988Y-542541D01*
X1007512Y-552064D01*
X1017036Y-571112D01*
X1026560Y-609207D01*
X1026560Y-656826D01*
X1017036Y-694921D01*
X1007512Y-713969D01*
X997988Y-723493D01*
X978940Y-733017D01*
X959893Y-733017D01*
X940845Y-723493D01*
X931321Y-713969D01*
X921798Y-694921D01*
X912274Y-656826D01*
X912274Y-609207D01*
X921798Y-571112D01*
X931321Y-552064D01*
X940845Y-542541D01*
X959893Y-533017D01*
X1112274Y-733017D02*
X1112274Y-599683D01*
X1112274Y-618731D02*
X1121798Y-609207D01*
X1140845Y-599683D01*
X1169417Y-599683D01*
X1188464Y-609207D01*
X1197988Y-628255D01*
X1197988Y-733017D01*
X1197988Y-628255D02*
X1207512Y-609207D01*
X1226560Y-599683D01*
X1255131Y-599683D01*
X1274179Y-609207D01*
X1283702Y-628255D01*
X1283702Y-733017D01*
X1378941Y-733017D02*
X1378941Y-599683D01*
X1378941Y-618731D02*
X1388464Y-609207D01*
X1407512Y-599683D01*
X1436083Y-599683D01*
X1455131Y-609207D01*
X1464655Y-628255D01*
X1464655Y-733017D01*
X1464655Y-628255D02*
X1474179Y-609207D01*
X1493226Y-599683D01*
X1521798Y-599683D01*
X1540845Y-609207D01*
X1550369Y-628255D01*
X1550369Y-733017D01*
X1940845Y-523493D02*
X1769417Y-780636D01*
X2197988Y-533017D02*
X2217036Y-533017D01*
X2236083Y-542541D01*
X2245607Y-552064D01*
X2255131Y-571112D01*
X2264655Y-609207D01*
X2264655Y-656826D01*
X2255131Y-694921D01*
X2245607Y-713969D01*
X2236083Y-723493D01*
X2217036Y-733017D01*
X2197988Y-733017D01*
X2178941Y-723493D01*
X2169417Y-713969D01*
X2159893Y-694921D01*
X2150369Y-656826D01*
X2150369Y-609207D01*
X2159893Y-571112D01*
X2169417Y-552064D01*
X2178941Y-542541D01*
X2197988Y-533017D01*
X2350369Y-713969D02*
X2359893Y-723493D01*
X2350369Y-733017D01*
X2340845Y-723493D01*
X2350369Y-713969D01*
X2350369Y-733017D01*
X2483702Y-533017D02*
X2502750Y-533017D01*
X2521798Y-542541D01*
X2531322Y-552064D01*
X2540845Y-571112D01*
X2550369Y-609207D01*
X2550369Y-656826D01*
X2540845Y-694921D01*
X2531322Y-713969D01*
X2521798Y-723493D01*
X2502750Y-733017D01*
X2483702Y-733017D01*
X2464655Y-723493D01*
X2455131Y-713969D01*
X2445607Y-694921D01*
X2436083Y-656826D01*
X2436083Y-609207D01*
X2445607Y-571112D01*
X2455131Y-552064D01*
X2464655Y-542541D01*
X2483702Y-533017D01*
X2626560Y-552064D02*
X2636083Y-542541D01*
X2655131Y-533017D01*
X2702750Y-533017D01*
X2721798Y-542541D01*
X2731322Y-552064D01*
X2740845Y-571112D01*
X2740845Y-590160D01*
X2731322Y-618731D01*
X2617036Y-733017D01*
X2740845Y-733017D01*
X2807512Y-533017D02*
X2931321Y-533017D01*
X2864655Y-609207D01*
X2893226Y-609207D01*
X2912274Y-618731D01*
X2921798Y-628255D01*
X2931321Y-647302D01*
X2931321Y-694921D01*
X2921798Y-713969D01*
X2912274Y-723493D01*
X2893226Y-733017D01*
X2836083Y-733017D01*
X2817036Y-723493D01*
X2807512Y-713969D01*
X3102750Y-533017D02*
X3064655Y-533017D01*
X3045607Y-542541D01*
X3036083Y-552064D01*
X3017036Y-580636D01*
X3007512Y-618731D01*
X3007512Y-694921D01*
X3017036Y-713969D01*
X3026560Y-723493D01*
X3045607Y-733017D01*
X3083702Y-733017D01*
X3102750Y-723493D01*
X3112274Y-713969D01*
X3121798Y-694921D01*
X3121798Y-647302D01*
X3112274Y-628255D01*
X3102750Y-618731D01*
X3083702Y-609207D01*
X3045607Y-609207D01*
X3026560Y-618731D01*
X3017036Y-628255D01*
X3007512Y-647302D01*
X3197988Y-533017D02*
X3197988Y-571112D01*
X3274179Y-533017D02*
X3274179Y-571112D01*
X3569417Y-809207D02*
X3559893Y-799683D01*
X3540845Y-771112D01*
X3531321Y-752064D01*
X3521798Y-723493D01*
X3512274Y-675874D01*
X3512274Y-637779D01*
X3521798Y-590160D01*
X3531321Y-561588D01*
X3540845Y-542541D01*
X3559893Y-513969D01*
X3569417Y-504445D01*
X3750369Y-733017D02*
X3636083Y-733017D01*
X3693226Y-733017D02*
X3693226Y-533017D01*
X3674179Y-561588D01*
X3655131Y-580636D01*
X3636083Y-590160D01*
X3988464Y-733017D02*
X3988464Y-533017D01*
X4074179Y-733017D02*
X4074179Y-628255D01*
X4064655Y-609207D01*
X4045607Y-599683D01*
X4017036Y-599683D01*
X3997988Y-609207D01*
X3988464Y-618731D01*
X4197988Y-733017D02*
X4178940Y-723493D01*
X4169417Y-713969D01*
X4159893Y-694921D01*
X4159893Y-637779D01*
X4169417Y-618731D01*
X4178940Y-609207D01*
X4197988Y-599683D01*
X4226560Y-599683D01*
X4245607Y-609207D01*
X4255131Y-618731D01*
X4264655Y-637779D01*
X4264655Y-694921D01*
X4255131Y-713969D01*
X4245607Y-723493D01*
X4226560Y-733017D01*
X4197988Y-733017D01*
X4378941Y-733017D02*
X4359893Y-723493D01*
X4350369Y-704445D01*
X4350369Y-533017D01*
X4531322Y-723493D02*
X4512274Y-733017D01*
X4474179Y-733017D01*
X4455131Y-723493D01*
X4445607Y-704445D01*
X4445607Y-628255D01*
X4455131Y-609207D01*
X4474179Y-599683D01*
X4512274Y-599683D01*
X4531322Y-609207D01*
X4540845Y-628255D01*
X4540845Y-647302D01*
X4445607Y-666350D01*
X4617036Y-723493D02*
X4636083Y-733017D01*
X4674179Y-733017D01*
X4693226Y-723493D01*
X4702750Y-704445D01*
X4702750Y-694921D01*
X4693226Y-675874D01*
X4674179Y-666350D01*
X4645607Y-666350D01*
X4626560Y-656826D01*
X4617036Y-637779D01*
X4617036Y-628255D01*
X4626560Y-609207D01*
X4645607Y-599683D01*
X4674179Y-599683D01*
X4693226Y-609207D01*
X4940845Y-656826D02*
X5093226Y-656826D01*
X5017036Y-733017D02*
X5017036Y-580636D01*
X5445607Y-733017D02*
X5331322Y-733017D01*
X5388464Y-733017D02*
X5388464Y-533017D01*
X5369417Y-561588D01*
X5350369Y-580636D01*
X5331322Y-590160D01*
X5674179Y-723493D02*
X5693226Y-733017D01*
X5731321Y-733017D01*
X5750369Y-723493D01*
X5759893Y-704445D01*
X5759893Y-694921D01*
X5750369Y-675874D01*
X5731321Y-666350D01*
X5702750Y-666350D01*
X5683702Y-656826D01*
X5674179Y-637779D01*
X5674179Y-628255D01*
X5683702Y-609207D01*
X5702750Y-599683D01*
X5731321Y-599683D01*
X5750369Y-609207D01*
X5874179Y-733017D02*
X5855131Y-723493D01*
X5845607Y-704445D01*
X5845607Y-533017D01*
X5978940Y-733017D02*
X5959893Y-723493D01*
X5950369Y-713969D01*
X5940845Y-694921D01*
X5940845Y-637779D01*
X5950369Y-618731D01*
X5959893Y-609207D01*
X5978940Y-599683D01*
X6007512Y-599683D01*
X6026560Y-609207D01*
X6036083Y-618731D01*
X6045607Y-637779D01*
X6045607Y-694921D01*
X6036083Y-713969D01*
X6026560Y-723493D01*
X6007512Y-733017D01*
X5978940Y-733017D01*
X6102750Y-599683D02*
X6178940Y-599683D01*
X6131321Y-533017D02*
X6131321Y-704445D01*
X6140845Y-723493D01*
X6159893Y-733017D01*
X6178940Y-733017D01*
X6226560Y-809207D02*
X6236083Y-799683D01*
X6255131Y-771112D01*
X6264655Y-752064D01*
X6274179Y-723493D01*
X6283702Y-675874D01*
X6283702Y-637779D01*
X6274179Y-590160D01*
X6264655Y-561588D01*
X6255131Y-542541D01*
X6236083Y-513969D01*
X6226560Y-504445D01*
X6588464Y-809207D02*
X6578940Y-799683D01*
X6559893Y-771112D01*
X6550369Y-752064D01*
X6540845Y-723493D01*
X6531321Y-675874D01*
X6531321Y-637779D01*
X6540845Y-590160D01*
X6550369Y-561588D01*
X6559893Y-542541D01*
X6578940Y-513969D01*
X6588464Y-504445D01*
X6664655Y-599683D02*
X6664655Y-733017D01*
X6664655Y-618731D02*
X6674179Y-609207D01*
X6693226Y-599683D01*
X6721798Y-599683D01*
X6740845Y-609207D01*
X6750369Y-628255D01*
X6750369Y-733017D01*
X6874179Y-733017D02*
X6855131Y-723493D01*
X6845607Y-713969D01*
X6836083Y-694921D01*
X6836083Y-637779D01*
X6845607Y-618731D01*
X6855131Y-609207D01*
X6874179Y-599683D01*
X6902750Y-599683D01*
X6921798Y-609207D01*
X6931321Y-618731D01*
X6940845Y-637779D01*
X6940845Y-694921D01*
X6931321Y-713969D01*
X6921798Y-723493D01*
X6902750Y-733017D01*
X6874179Y-733017D01*
X6997988Y-599683D02*
X7074179Y-599683D01*
X7026560Y-533017D02*
X7026560Y-704445D01*
X7036083Y-723493D01*
X7055131Y-733017D01*
X7074179Y-733017D01*
X7293226Y-599683D02*
X7293226Y-799683D01*
X7293226Y-609207D02*
X7312274Y-599683D01*
X7350369Y-599683D01*
X7369417Y-609207D01*
X7378940Y-618731D01*
X7388464Y-637779D01*
X7388464Y-694921D01*
X7378940Y-713969D01*
X7369417Y-723493D01*
X7350369Y-733017D01*
X7312274Y-733017D01*
X7293226Y-723493D01*
X7502750Y-733017D02*
X7483702Y-723493D01*
X7474179Y-704445D01*
X7474179Y-533017D01*
X7664655Y-733017D02*
X7664655Y-628255D01*
X7655131Y-609207D01*
X7636083Y-599683D01*
X7597988Y-599683D01*
X7578940Y-609207D01*
X7664655Y-723493D02*
X7645607Y-733017D01*
X7597988Y-733017D01*
X7578940Y-723493D01*
X7569417Y-704445D01*
X7569417Y-685398D01*
X7578940Y-666350D01*
X7597988Y-656826D01*
X7645607Y-656826D01*
X7664655Y-647302D01*
X7731321Y-599683D02*
X7807512Y-599683D01*
X7759893Y-533017D02*
X7759893Y-704445D01*
X7769417Y-723493D01*
X7788464Y-733017D01*
X7807512Y-733017D01*
X7950369Y-723493D02*
X7931321Y-733017D01*
X7893226Y-733017D01*
X7874179Y-723493D01*
X7864655Y-704445D01*
X7864655Y-628255D01*
X7874179Y-609207D01*
X7893226Y-599683D01*
X7931321Y-599683D01*
X7950369Y-609207D01*
X7959893Y-628255D01*
X7959893Y-647302D01*
X7864655Y-666350D01*
X8131321Y-733017D02*
X8131321Y-533017D01*
X8131321Y-723493D02*
X8112274Y-733017D01*
X8074179Y-733017D01*
X8055131Y-723493D01*
X8045607Y-713969D01*
X8036083Y-694921D01*
X8036083Y-637779D01*
X8045607Y-618731D01*
X8055131Y-609207D01*
X8074179Y-599683D01*
X8112274Y-599683D01*
X8131321Y-609207D01*
X8207512Y-809207D02*
X8217036Y-799683D01*
X8236083Y-771112D01*
X8245607Y-752064D01*
X8255131Y-723493D01*
X8264655Y-675874D01*
X8264655Y-637779D01*
X8255131Y-590160D01*
X8245607Y-561588D01*
X8236083Y-542541D01*
X8217036Y-513969D01*
X8207512Y-504445D01*
D13*
X-2488Y-906540D02*
G75*
G03*
X-2488Y-906540I-85000J0D01*
G01*
D11*
X359893Y-997017D02*
X245607Y-997017D01*
X302750Y-997017D02*
X302750Y-797017D01*
X283702Y-825588D01*
X264655Y-844636D01*
X245607Y-854159D01*
X445607Y-977969D02*
X455131Y-987493D01*
X445607Y-997017D01*
X436083Y-987493D01*
X445607Y-977969D01*
X445607Y-997017D01*
X521798Y-797017D02*
X655131Y-797017D01*
X569417Y-997017D01*
X769417Y-797017D02*
X788464Y-797017D01*
X807512Y-806540D01*
X817036Y-816064D01*
X826560Y-835112D01*
X836083Y-873207D01*
X836083Y-920826D01*
X826560Y-958921D01*
X817036Y-977969D01*
X807512Y-987493D01*
X788464Y-997017D01*
X769417Y-997017D01*
X750369Y-987493D01*
X740845Y-977969D01*
X731321Y-958921D01*
X721798Y-920826D01*
X721798Y-873207D01*
X731321Y-835112D01*
X740845Y-816064D01*
X750369Y-806540D01*
X769417Y-797017D01*
X959893Y-797017D02*
X978940Y-797017D01*
X997988Y-806540D01*
X1007512Y-816064D01*
X1017036Y-835112D01*
X1026560Y-873207D01*
X1026560Y-920826D01*
X1017036Y-958921D01*
X1007512Y-977969D01*
X997988Y-987493D01*
X978940Y-997017D01*
X959893Y-997017D01*
X940845Y-987493D01*
X931321Y-977969D01*
X921798Y-958921D01*
X912274Y-920826D01*
X912274Y-873207D01*
X921798Y-835112D01*
X931321Y-816064D01*
X940845Y-806540D01*
X959893Y-797017D01*
X1112274Y-997017D02*
X1112274Y-863683D01*
X1112274Y-882731D02*
X1121798Y-873207D01*
X1140845Y-863683D01*
X1169417Y-863683D01*
X1188464Y-873207D01*
X1197988Y-892255D01*
X1197988Y-997017D01*
X1197988Y-892255D02*
X1207512Y-873207D01*
X1226560Y-863683D01*
X1255131Y-863683D01*
X1274179Y-873207D01*
X1283702Y-892255D01*
X1283702Y-997017D01*
X1378941Y-997017D02*
X1378941Y-863683D01*
X1378941Y-882731D02*
X1388464Y-873207D01*
X1407512Y-863683D01*
X1436083Y-863683D01*
X1455131Y-873207D01*
X1464655Y-892255D01*
X1464655Y-997017D01*
X1464655Y-892255D02*
X1474179Y-873207D01*
X1493226Y-863683D01*
X1521798Y-863683D01*
X1540845Y-873207D01*
X1550369Y-892255D01*
X1550369Y-997017D01*
X1940845Y-787493D02*
X1769417Y-1044636D01*
X2197988Y-797017D02*
X2217036Y-797017D01*
X2236083Y-806540D01*
X2245607Y-816064D01*
X2255131Y-835112D01*
X2264655Y-873207D01*
X2264655Y-920826D01*
X2255131Y-958921D01*
X2245607Y-977969D01*
X2236083Y-987493D01*
X2217036Y-997017D01*
X2197988Y-997017D01*
X2178941Y-987493D01*
X2169417Y-977969D01*
X2159893Y-958921D01*
X2150369Y-920826D01*
X2150369Y-873207D01*
X2159893Y-835112D01*
X2169417Y-816064D01*
X2178941Y-806540D01*
X2197988Y-797017D01*
X2350369Y-977969D02*
X2359893Y-987493D01*
X2350369Y-997017D01*
X2340845Y-987493D01*
X2350369Y-977969D01*
X2350369Y-997017D01*
X2483702Y-797017D02*
X2502750Y-797017D01*
X2521798Y-806540D01*
X2531322Y-816064D01*
X2540845Y-835112D01*
X2550369Y-873207D01*
X2550369Y-920826D01*
X2540845Y-958921D01*
X2531322Y-977969D01*
X2521798Y-987493D01*
X2502750Y-997017D01*
X2483702Y-997017D01*
X2464655Y-987493D01*
X2455131Y-977969D01*
X2445607Y-958921D01*
X2436083Y-920826D01*
X2436083Y-873207D01*
X2445607Y-835112D01*
X2455131Y-816064D01*
X2464655Y-806540D01*
X2483702Y-797017D01*
X2721798Y-797017D02*
X2683702Y-797017D01*
X2664655Y-806540D01*
X2655131Y-816064D01*
X2636083Y-844636D01*
X2626560Y-882731D01*
X2626560Y-958921D01*
X2636083Y-977969D01*
X2645607Y-987493D01*
X2664655Y-997017D01*
X2702750Y-997017D01*
X2721798Y-987493D01*
X2731322Y-977969D01*
X2740845Y-958921D01*
X2740845Y-911302D01*
X2731322Y-892255D01*
X2721798Y-882731D01*
X2702750Y-873207D01*
X2664655Y-873207D01*
X2645607Y-882731D01*
X2636083Y-892255D01*
X2626560Y-911302D01*
X2912274Y-797017D02*
X2874179Y-797017D01*
X2855131Y-806540D01*
X2845607Y-816064D01*
X2826560Y-844636D01*
X2817036Y-882731D01*
X2817036Y-958921D01*
X2826560Y-977969D01*
X2836083Y-987493D01*
X2855131Y-997017D01*
X2893226Y-997017D01*
X2912274Y-987493D01*
X2921798Y-977969D01*
X2931321Y-958921D01*
X2931321Y-911302D01*
X2921798Y-892255D01*
X2912274Y-882731D01*
X2893226Y-873207D01*
X2855131Y-873207D01*
X2836083Y-882731D01*
X2826560Y-892255D01*
X2817036Y-911302D01*
X3026560Y-997017D02*
X3064655Y-997017D01*
X3083702Y-987493D01*
X3093226Y-977969D01*
X3112274Y-949398D01*
X3121798Y-911302D01*
X3121798Y-835112D01*
X3112274Y-816064D01*
X3102750Y-806540D01*
X3083702Y-797017D01*
X3045607Y-797017D01*
X3026560Y-806540D01*
X3017036Y-816064D01*
X3007512Y-835112D01*
X3007512Y-882731D01*
X3017036Y-901778D01*
X3026560Y-911302D01*
X3045607Y-920826D01*
X3083702Y-920826D01*
X3102750Y-911302D01*
X3112274Y-901778D01*
X3121798Y-882731D01*
X3197988Y-797017D02*
X3197988Y-835112D01*
X3274179Y-797017D02*
X3274179Y-835112D01*
X3569417Y-1073207D02*
X3559893Y-1063683D01*
X3540845Y-1035112D01*
X3531321Y-1016064D01*
X3521798Y-987493D01*
X3512274Y-939874D01*
X3512274Y-901778D01*
X3521798Y-854159D01*
X3531321Y-825588D01*
X3540845Y-806540D01*
X3559893Y-777969D01*
X3569417Y-768445D01*
X3636083Y-816064D02*
X3645607Y-806540D01*
X3664655Y-797017D01*
X3712274Y-797017D01*
X3731321Y-806540D01*
X3740845Y-816064D01*
X3750369Y-835112D01*
X3750369Y-854159D01*
X3740845Y-882731D01*
X3626560Y-997017D01*
X3750369Y-997017D01*
X3988464Y-997017D02*
X3988464Y-797017D01*
X4074179Y-997017D02*
X4074179Y-892255D01*
X4064655Y-873207D01*
X4045607Y-863683D01*
X4017036Y-863683D01*
X3997988Y-873207D01*
X3988464Y-882731D01*
X4197988Y-997017D02*
X4178940Y-987493D01*
X4169417Y-977969D01*
X4159893Y-958921D01*
X4159893Y-901778D01*
X4169417Y-882731D01*
X4178940Y-873207D01*
X4197988Y-863683D01*
X4226560Y-863683D01*
X4245607Y-873207D01*
X4255131Y-882731D01*
X4264655Y-901778D01*
X4264655Y-958921D01*
X4255131Y-977969D01*
X4245607Y-987493D01*
X4226560Y-997017D01*
X4197988Y-997017D01*
X4378941Y-997017D02*
X4359893Y-987493D01*
X4350369Y-968445D01*
X4350369Y-797017D01*
X4531322Y-987493D02*
X4512274Y-997017D01*
X4474179Y-997017D01*
X4455131Y-987493D01*
X4445607Y-968445D01*
X4445607Y-892255D01*
X4455131Y-873207D01*
X4474179Y-863683D01*
X4512274Y-863683D01*
X4531322Y-873207D01*
X4540845Y-892255D01*
X4540845Y-911302D01*
X4445607Y-930350D01*
X4617036Y-987493D02*
X4636083Y-997017D01*
X4674179Y-997017D01*
X4693226Y-987493D01*
X4702750Y-968445D01*
X4702750Y-958921D01*
X4693226Y-939874D01*
X4674179Y-930350D01*
X4645607Y-930350D01*
X4626560Y-920826D01*
X4617036Y-901778D01*
X4617036Y-892255D01*
X4626560Y-873207D01*
X4645607Y-863683D01*
X4674179Y-863683D01*
X4693226Y-873207D01*
X4769417Y-1073207D02*
X4778941Y-1063683D01*
X4797988Y-1035112D01*
X4807512Y-1016064D01*
X4817036Y-987493D01*
X4826560Y-939874D01*
X4826560Y-901778D01*
X4817036Y-854159D01*
X4807512Y-825588D01*
X4797988Y-806540D01*
X4778941Y-777969D01*
X4769417Y-768445D01*
X5131322Y-1073207D02*
X5121798Y-1063683D01*
X5102750Y-1035112D01*
X5093226Y-1016064D01*
X5083702Y-987493D01*
X5074179Y-939874D01*
X5074179Y-901778D01*
X5083702Y-854159D01*
X5093226Y-825588D01*
X5102750Y-806540D01*
X5121798Y-777969D01*
X5131322Y-768445D01*
X5207512Y-863683D02*
X5207512Y-997017D01*
X5207512Y-882731D02*
X5217036Y-873207D01*
X5236083Y-863683D01*
X5264655Y-863683D01*
X5283702Y-873207D01*
X5293226Y-892255D01*
X5293226Y-997017D01*
X5417036Y-997017D02*
X5397988Y-987493D01*
X5388464Y-977969D01*
X5378941Y-958921D01*
X5378941Y-901778D01*
X5388464Y-882731D01*
X5397988Y-873207D01*
X5417036Y-863683D01*
X5445607Y-863683D01*
X5464655Y-873207D01*
X5474179Y-882731D01*
X5483702Y-901778D01*
X5483702Y-958921D01*
X5474179Y-977969D01*
X5464655Y-987493D01*
X5445607Y-997017D01*
X5417036Y-997017D01*
X5540845Y-863683D02*
X5617036Y-863683D01*
X5569417Y-797017D02*
X5569417Y-968445D01*
X5578941Y-987493D01*
X5597988Y-997017D01*
X5617036Y-997017D01*
X5836083Y-863683D02*
X5836083Y-1063683D01*
X5836083Y-873207D02*
X5855131Y-863683D01*
X5893226Y-863683D01*
X5912274Y-873207D01*
X5921798Y-882731D01*
X5931321Y-901778D01*
X5931321Y-958921D01*
X5921798Y-977969D01*
X5912274Y-987493D01*
X5893226Y-997017D01*
X5855131Y-997017D01*
X5836083Y-987493D01*
X6045607Y-997017D02*
X6026560Y-987493D01*
X6017036Y-968445D01*
X6017036Y-797017D01*
X6207512Y-997017D02*
X6207512Y-892255D01*
X6197988Y-873207D01*
X6178940Y-863683D01*
X6140845Y-863683D01*
X6121798Y-873207D01*
X6207512Y-987493D02*
X6188464Y-997017D01*
X6140845Y-997017D01*
X6121798Y-987493D01*
X6112274Y-968445D01*
X6112274Y-949398D01*
X6121798Y-930350D01*
X6140845Y-920826D01*
X6188464Y-920826D01*
X6207512Y-911302D01*
X6274179Y-863683D02*
X6350369Y-863683D01*
X6302750Y-797017D02*
X6302750Y-968445D01*
X6312274Y-987493D01*
X6331321Y-997017D01*
X6350369Y-997017D01*
X6493226Y-987493D02*
X6474179Y-997017D01*
X6436083Y-997017D01*
X6417036Y-987493D01*
X6407512Y-968445D01*
X6407512Y-892255D01*
X6417036Y-873207D01*
X6436083Y-863683D01*
X6474179Y-863683D01*
X6493226Y-873207D01*
X6502750Y-892255D01*
X6502750Y-911302D01*
X6407512Y-930350D01*
X6674179Y-997017D02*
X6674179Y-797017D01*
X6674179Y-987493D02*
X6655131Y-997017D01*
X6617036Y-997017D01*
X6597988Y-987493D01*
X6588464Y-977969D01*
X6578940Y-958921D01*
X6578940Y-901778D01*
X6588464Y-882731D01*
X6597988Y-873207D01*
X6617036Y-863683D01*
X6655131Y-863683D01*
X6674179Y-873207D01*
X6750369Y-1073207D02*
X6759893Y-1063683D01*
X6778940Y-1035112D01*
X6788464Y-1016064D01*
X6797988Y-987493D01*
X6807512Y-939874D01*
X6807512Y-901778D01*
X6797988Y-854159D01*
X6788464Y-825588D01*
X6778940Y-806540D01*
X6759893Y-777969D01*
X6750369Y-768445D01*
X-102488Y-1096541D02*
X-102488Y-1296541D01*
X-202488Y-1196541D02*
X-2488Y-1196541D01*
X236083Y-1087017D02*
X359893Y-1087017D01*
X293226Y-1163207D01*
X321798Y-1163207D01*
X340845Y-1172731D01*
X350369Y-1182255D01*
X359893Y-1201302D01*
X359893Y-1248921D01*
X350369Y-1267969D01*
X340845Y-1277493D01*
X321798Y-1287017D01*
X264655Y-1287017D01*
X245607Y-1277493D01*
X236083Y-1267969D01*
X445607Y-1267969D02*
X455131Y-1277493D01*
X445607Y-1287017D01*
X436083Y-1277493D01*
X445607Y-1267969D01*
X445607Y-1287017D01*
X636083Y-1087017D02*
X540845Y-1087017D01*
X531322Y-1182255D01*
X540845Y-1172731D01*
X559893Y-1163207D01*
X607512Y-1163207D01*
X626560Y-1172731D01*
X636083Y-1182255D01*
X645607Y-1201302D01*
X645607Y-1248921D01*
X636083Y-1267969D01*
X626560Y-1277493D01*
X607512Y-1287017D01*
X559893Y-1287017D01*
X540845Y-1277493D01*
X531322Y-1267969D01*
X740845Y-1287017D02*
X778940Y-1287017D01*
X797988Y-1277493D01*
X807512Y-1267969D01*
X826560Y-1239398D01*
X836083Y-1201302D01*
X836083Y-1125112D01*
X826560Y-1106064D01*
X817036Y-1096541D01*
X797988Y-1087017D01*
X759893Y-1087017D01*
X740845Y-1096541D01*
X731321Y-1106064D01*
X721798Y-1125112D01*
X721798Y-1172731D01*
X731321Y-1191779D01*
X740845Y-1201302D01*
X759893Y-1210826D01*
X797988Y-1210826D01*
X817036Y-1201302D01*
X826560Y-1191779D01*
X836083Y-1172731D01*
X912274Y-1106064D02*
X921798Y-1096541D01*
X940845Y-1087017D01*
X988464Y-1087017D01*
X1007512Y-1096541D01*
X1017036Y-1106064D01*
X1026560Y-1125112D01*
X1026560Y-1144160D01*
X1017036Y-1172731D01*
X902750Y-1287017D01*
X1026560Y-1287017D01*
X1112274Y-1287017D02*
X1112274Y-1153683D01*
X1112274Y-1172731D02*
X1121798Y-1163207D01*
X1140845Y-1153683D01*
X1169417Y-1153683D01*
X1188464Y-1163207D01*
X1197988Y-1182255D01*
X1197988Y-1287017D01*
X1197988Y-1182255D02*
X1207512Y-1163207D01*
X1226560Y-1153683D01*
X1255131Y-1153683D01*
X1274179Y-1163207D01*
X1283702Y-1182255D01*
X1283702Y-1287017D01*
X1378941Y-1287017D02*
X1378941Y-1153683D01*
X1378941Y-1172731D02*
X1388464Y-1163207D01*
X1407512Y-1153683D01*
X1436083Y-1153683D01*
X1455131Y-1163207D01*
X1464655Y-1182255D01*
X1464655Y-1287017D01*
X1464655Y-1182255D02*
X1474179Y-1163207D01*
X1493226Y-1153683D01*
X1521798Y-1153683D01*
X1540845Y-1163207D01*
X1550369Y-1182255D01*
X1550369Y-1287017D01*
X1940845Y-1077493D02*
X1769417Y-1334636D01*
X2197988Y-1087017D02*
X2217036Y-1087017D01*
X2236083Y-1096541D01*
X2245607Y-1106064D01*
X2255131Y-1125112D01*
X2264655Y-1163207D01*
X2264655Y-1210826D01*
X2255131Y-1248921D01*
X2245607Y-1267969D01*
X2236083Y-1277493D01*
X2217036Y-1287017D01*
X2197988Y-1287017D01*
X2178941Y-1277493D01*
X2169417Y-1267969D01*
X2159893Y-1248921D01*
X2150369Y-1210826D01*
X2150369Y-1163207D01*
X2159893Y-1125112D01*
X2169417Y-1106064D01*
X2178941Y-1096541D01*
X2197988Y-1087017D01*
X2350369Y-1267969D02*
X2359893Y-1277493D01*
X2350369Y-1287017D01*
X2340845Y-1277493D01*
X2350369Y-1267969D01*
X2350369Y-1287017D01*
X2550369Y-1287017D02*
X2436083Y-1287017D01*
X2493226Y-1287017D02*
X2493226Y-1087017D01*
X2474179Y-1115588D01*
X2455131Y-1134636D01*
X2436083Y-1144160D01*
X2721798Y-1153683D02*
X2721798Y-1287017D01*
X2674179Y-1077493D02*
X2626560Y-1220350D01*
X2750369Y-1220350D01*
X2931321Y-1287017D02*
X2817036Y-1287017D01*
X2874179Y-1287017D02*
X2874179Y-1087017D01*
X2855131Y-1115588D01*
X2836083Y-1134636D01*
X2817036Y-1144160D01*
X3102750Y-1153683D02*
X3102750Y-1287017D01*
X3055131Y-1077493D02*
X3007512Y-1220350D01*
X3131321Y-1220350D01*
X3197988Y-1087017D02*
X3197988Y-1125112D01*
X3274179Y-1087017D02*
X3274179Y-1125112D01*
X3569417Y-1363207D02*
X3559893Y-1353683D01*
X3540845Y-1325112D01*
X3531321Y-1306064D01*
X3521798Y-1277493D01*
X3512274Y-1229874D01*
X3512274Y-1191779D01*
X3521798Y-1144160D01*
X3531321Y-1115588D01*
X3540845Y-1096541D01*
X3559893Y-1067969D01*
X3569417Y-1058445D01*
X3636083Y-1106064D02*
X3645607Y-1096541D01*
X3664655Y-1087017D01*
X3712274Y-1087017D01*
X3731321Y-1096541D01*
X3740845Y-1106064D01*
X3750369Y-1125112D01*
X3750369Y-1144160D01*
X3740845Y-1172731D01*
X3626560Y-1287017D01*
X3750369Y-1287017D01*
X3988464Y-1287017D02*
X3988464Y-1087017D01*
X4074179Y-1287017D02*
X4074179Y-1182255D01*
X4064655Y-1163207D01*
X4045607Y-1153683D01*
X4017036Y-1153683D01*
X3997988Y-1163207D01*
X3988464Y-1172731D01*
X4197988Y-1287017D02*
X4178940Y-1277493D01*
X4169417Y-1267969D01*
X4159893Y-1248921D01*
X4159893Y-1191779D01*
X4169417Y-1172731D01*
X4178940Y-1163207D01*
X4197988Y-1153683D01*
X4226560Y-1153683D01*
X4245607Y-1163207D01*
X4255131Y-1172731D01*
X4264655Y-1191779D01*
X4264655Y-1248921D01*
X4255131Y-1267969D01*
X4245607Y-1277493D01*
X4226560Y-1287017D01*
X4197988Y-1287017D01*
X4378941Y-1287017D02*
X4359893Y-1277493D01*
X4350369Y-1258445D01*
X4350369Y-1087017D01*
X4531322Y-1277493D02*
X4512274Y-1287017D01*
X4474179Y-1287017D01*
X4455131Y-1277493D01*
X4445607Y-1258445D01*
X4445607Y-1182255D01*
X4455131Y-1163207D01*
X4474179Y-1153683D01*
X4512274Y-1153683D01*
X4531322Y-1163207D01*
X4540845Y-1182255D01*
X4540845Y-1201302D01*
X4445607Y-1220350D01*
X4617036Y-1277493D02*
X4636083Y-1287017D01*
X4674179Y-1287017D01*
X4693226Y-1277493D01*
X4702750Y-1258445D01*
X4702750Y-1248921D01*
X4693226Y-1229874D01*
X4674179Y-1220350D01*
X4645607Y-1220350D01*
X4626560Y-1210826D01*
X4617036Y-1191779D01*
X4617036Y-1182255D01*
X4626560Y-1163207D01*
X4645607Y-1153683D01*
X4674179Y-1153683D01*
X4693226Y-1163207D01*
X4769417Y-1363207D02*
X4778941Y-1353683D01*
X4797988Y-1325112D01*
X4807512Y-1306064D01*
X4817036Y-1277493D01*
X4826560Y-1229874D01*
X4826560Y-1191779D01*
X4817036Y-1144160D01*
X4807512Y-1115588D01*
X4797988Y-1096541D01*
X4778941Y-1067969D01*
X4769417Y-1058445D01*
X5131322Y-1363207D02*
X5121798Y-1353683D01*
X5102750Y-1325112D01*
X5093226Y-1306064D01*
X5083702Y-1277493D01*
X5074179Y-1229874D01*
X5074179Y-1191779D01*
X5083702Y-1144160D01*
X5093226Y-1115588D01*
X5102750Y-1096541D01*
X5121798Y-1067969D01*
X5131322Y-1058445D01*
X5207512Y-1153683D02*
X5207512Y-1287017D01*
X5207512Y-1172731D02*
X5217036Y-1163207D01*
X5236083Y-1153683D01*
X5264655Y-1153683D01*
X5283702Y-1163207D01*
X5293226Y-1182255D01*
X5293226Y-1287017D01*
X5417036Y-1287017D02*
X5397988Y-1277493D01*
X5388464Y-1267969D01*
X5378941Y-1248921D01*
X5378941Y-1191779D01*
X5388464Y-1172731D01*
X5397988Y-1163207D01*
X5417036Y-1153683D01*
X5445607Y-1153683D01*
X5464655Y-1163207D01*
X5474179Y-1172731D01*
X5483702Y-1191779D01*
X5483702Y-1248921D01*
X5474179Y-1267969D01*
X5464655Y-1277493D01*
X5445607Y-1287017D01*
X5417036Y-1287017D01*
X5540845Y-1153683D02*
X5617036Y-1153683D01*
X5569417Y-1087017D02*
X5569417Y-1258445D01*
X5578941Y-1277493D01*
X5597988Y-1287017D01*
X5617036Y-1287017D01*
X5836083Y-1153683D02*
X5836083Y-1353683D01*
X5836083Y-1163207D02*
X5855131Y-1153683D01*
X5893226Y-1153683D01*
X5912274Y-1163207D01*
X5921798Y-1172731D01*
X5931321Y-1191779D01*
X5931321Y-1248921D01*
X5921798Y-1267969D01*
X5912274Y-1277493D01*
X5893226Y-1287017D01*
X5855131Y-1287017D01*
X5836083Y-1277493D01*
X6045607Y-1287017D02*
X6026560Y-1277493D01*
X6017036Y-1258445D01*
X6017036Y-1087017D01*
X6207512Y-1287017D02*
X6207512Y-1182255D01*
X6197988Y-1163207D01*
X6178940Y-1153683D01*
X6140845Y-1153683D01*
X6121798Y-1163207D01*
X6207512Y-1277493D02*
X6188464Y-1287017D01*
X6140845Y-1287017D01*
X6121798Y-1277493D01*
X6112274Y-1258445D01*
X6112274Y-1239398D01*
X6121798Y-1220350D01*
X6140845Y-1210826D01*
X6188464Y-1210826D01*
X6207512Y-1201302D01*
X6274179Y-1153683D02*
X6350369Y-1153683D01*
X6302750Y-1087017D02*
X6302750Y-1258445D01*
X6312274Y-1277493D01*
X6331321Y-1287017D01*
X6350369Y-1287017D01*
X6493226Y-1277493D02*
X6474179Y-1287017D01*
X6436083Y-1287017D01*
X6417036Y-1277493D01*
X6407512Y-1258445D01*
X6407512Y-1182255D01*
X6417036Y-1163207D01*
X6436083Y-1153683D01*
X6474179Y-1153683D01*
X6493226Y-1163207D01*
X6502750Y-1182255D01*
X6502750Y-1201302D01*
X6407512Y-1220350D01*
X6674179Y-1287017D02*
X6674179Y-1087017D01*
X6674179Y-1277493D02*
X6655131Y-1287017D01*
X6617036Y-1287017D01*
X6597988Y-1277493D01*
X6588464Y-1267969D01*
X6578940Y-1248921D01*
X6578940Y-1191779D01*
X6588464Y-1172731D01*
X6597988Y-1163207D01*
X6617036Y-1153683D01*
X6655131Y-1153683D01*
X6674179Y-1163207D01*
X6750369Y-1363207D02*
X6759893Y-1353683D01*
X6778940Y-1325112D01*
X6788464Y-1306064D01*
X6797988Y-1277493D01*
X6807512Y-1229874D01*
X6807512Y-1191779D01*
X6797988Y-1144160D01*
X6788464Y-1115588D01*
X6778940Y-1096541D01*
X6759893Y-1067969D01*
X6750369Y-1058445D01*
M02*
