%TF.GenerationSoftware,Altium Limited,Altium Designer,22.6.1 (34)*%
G04 Layer_Color=128*
%FSLAX45Y45*%
%MOMM*%
%TF.SameCoordinates,EFAF5BE3-474D-4A98-89D0-AE48FBC3E593*%
%TF.FilePolarity,Positive*%
%TF.FileFunction,Drillmap*%
%TF.Part,Single*%
G01*
G75*
%TA.AperFunction,NonConductor*%
%ADD181C,0.12700*%
D181*
X9634097Y4713139D02*
X9804096D01*
X9719096Y4628139D02*
Y4798138D01*
X8942500Y4604999D02*
X9112500D01*
X9027500Y4520000D02*
Y4689999D01*
X9880598Y3297981D02*
X9940598D01*
X9910598Y3267981D02*
Y3327981D01*
X9839145Y4032394D02*
X9899145D01*
X9869145Y4002394D02*
Y4062393D01*
X9931836Y3439597D02*
X9991835D01*
X9961836Y3409597D02*
Y3469597D01*
X9747123Y4151609D02*
X9807123D01*
X9777123Y4121609D02*
Y4181609D01*
X10258506Y3357072D02*
X10318506D01*
X10288506Y3327072D02*
Y3387071D01*
X10125031Y4210699D02*
X10185031D01*
X10155031Y4180699D02*
Y4240699D01*
X399200Y3480000D02*
X500800D01*
X450000Y3429200D02*
Y3530800D01*
X399200Y3734000D02*
X500800D01*
X450000Y3683200D02*
Y3784800D01*
X9048894Y1259701D02*
X9168893D01*
X9108893Y1199701D02*
Y1319701D01*
X9448894Y1259701D02*
X9568893D01*
X9508894Y1199701D02*
Y1319701D01*
X8947500Y6285000D02*
X9067500D01*
X9007500Y6225001D02*
Y6345000D01*
X8547500Y6285000D02*
X8667500D01*
X8607500Y6225001D02*
Y6345000D01*
X7324861Y5512248D02*
X7444861D01*
X7384861Y5452248D02*
Y5572248D01*
X6940139Y5402752D02*
X7060139D01*
X7000139Y5342752D02*
Y5462752D01*
X5464103Y3252599D02*
X5584103D01*
X5524103Y3192599D02*
Y3312599D01*
X5525898Y2857401D02*
X5645897D01*
X5585897Y2797401D02*
Y2917401D01*
X3510139Y4342752D02*
X3630139D01*
X3570139Y4282752D02*
Y4402752D01*
X3894861Y4452248D02*
X4014861D01*
X3954861Y4392248D02*
Y4512248D01*
X7372400Y4804103D02*
X7492400D01*
X7432400Y4744104D02*
Y4864103D01*
X7767598Y4865898D02*
X7887598D01*
X7827598Y4805898D02*
Y4925897D01*
X8747500Y5555000D02*
X8867500D01*
X8807500Y5495000D02*
Y5615000D01*
X9147500Y5555000D02*
X9267500D01*
X9207500Y5495000D02*
Y5615000D01*
X9747500Y2340000D02*
X9867500D01*
X9807500Y2280000D02*
Y2400000D01*
X9347500Y2340000D02*
X9467499D01*
X9407500Y2280000D02*
Y2400000D01*
X2315200Y2849999D02*
X2416800D01*
X2366000Y2799199D02*
Y2900799D01*
X2569200Y2849999D02*
X2670800D01*
X2620000Y2799199D02*
Y2900799D01*
X2569200Y3103999D02*
X2670800D01*
X2620000Y3053199D02*
Y3154799D01*
X2315200Y3103999D02*
X2416800D01*
X2366000Y3053199D02*
Y3154799D01*
X2569200Y3357999D02*
X2670800D01*
X2620000Y3307199D02*
Y3408799D01*
X2315200Y3357999D02*
X2416800D01*
X2366000Y3307199D02*
Y3408799D01*
X4331869Y3405921D02*
X4401869D01*
X4366869Y3370921D02*
Y3440921D01*
X3277876Y3241117D02*
X3347876D01*
X3312876Y3206117D02*
Y3276117D01*
X3453541Y3268584D02*
X3523541D01*
X3488541Y3233584D02*
Y3303584D01*
X3629207Y3296051D02*
X3699207D01*
X3664207Y3261051D02*
Y3331051D01*
X3804873Y3323519D02*
X3874873D01*
X3839873Y3288519D02*
Y3358519D01*
X3980538Y3350986D02*
X4050538D01*
X4015538Y3315986D02*
Y3385986D01*
X4156204Y3378453D02*
X4226203D01*
X4191203Y3343454D02*
Y3413453D01*
X4507535Y3433388D02*
X4577534D01*
X4542534Y3398388D02*
Y3468388D01*
X3355342Y2170228D02*
X3425342D01*
X3390342Y2135228D02*
Y2205228D01*
X3531007Y2197696D02*
X3601007D01*
X3566007Y2162696D02*
Y2232696D01*
X3706673Y2225163D02*
X3776673D01*
X3741673Y2190163D02*
Y2260163D01*
X3882338Y2252630D02*
X3952338D01*
X3917338Y2217630D02*
Y2287630D01*
X4058004Y2280098D02*
X4128004D01*
X4093004Y2245098D02*
Y2315098D01*
X4233669Y2307565D02*
X4303669D01*
X4268669Y2272565D02*
Y2342565D01*
X4409335Y2335033D02*
X4479335D01*
X4444335Y2300033D02*
Y2370033D01*
X4585000Y2362500D02*
X4655000D01*
X4620000Y2327500D02*
Y2397500D01*
X3622146Y2815210D02*
X4482146D01*
X4052146Y2385210D02*
Y3245210D01*
X6525388Y1694156D02*
X6875388D01*
X6700388Y1519156D02*
Y1869156D01*
X2438200Y4856200D02*
X2788200D01*
X2613200Y4681200D02*
Y5031200D01*
X10015000Y3760000D02*
X10045000D01*
X10030000Y3745000D02*
Y3775000D01*
X10315000Y3810000D02*
X10345000D01*
X10330000Y3795000D02*
Y3825000D01*
X6485000Y1850000D02*
X6515000D01*
X6500000Y1835000D02*
Y1865000D01*
X6445000Y1540000D02*
X6475000D01*
X6460000Y1525000D02*
Y1555000D01*
X6925000Y1560000D02*
X6955000D01*
X6940000Y1545000D02*
Y1575000D01*
X9635000Y1120000D02*
X9665000D01*
X9650000Y1105000D02*
Y1135000D01*
X8545000Y4530000D02*
X8575000D01*
X8560000Y4515000D02*
Y4545000D01*
X8495000Y4940000D02*
X8525000D01*
X8510000Y4925000D02*
Y4955000D01*
X10205000Y4570000D02*
X10235000D01*
X10220000Y4555000D02*
Y4585000D01*
X10135000Y4900000D02*
X10165000D01*
X10150000Y4885000D02*
Y4915000D01*
X9395000Y4530000D02*
X9425000D01*
X9410000Y4515000D02*
Y4545000D01*
X9075000Y5020000D02*
X9105000D01*
X9090000Y5005000D02*
Y5035000D01*
X8915000Y5210000D02*
X8945000D01*
X8930000Y5195000D02*
Y5225000D01*
X9955000Y5750000D02*
X9985000D01*
X9970000Y5735000D02*
Y5765000D01*
X9285000Y5360000D02*
X9315000D01*
X9300000Y5345000D02*
Y5375000D01*
X8975000Y5980000D02*
X9005000D01*
X8990000Y5965000D02*
Y5995000D01*
X8065000Y5600000D02*
X8095000D01*
X8080000Y5585000D02*
Y5615000D01*
X9095000Y6440000D02*
X9125000D01*
X9110000Y6425000D02*
Y6455000D01*
X5325000Y3090000D02*
X5355000D01*
X5340000Y3075000D02*
Y3105000D01*
X4725000Y4160000D02*
X4755000D01*
X4740000Y4145000D02*
Y4175000D01*
X3605000Y4730000D02*
X3635000D01*
X3620000Y4715000D02*
Y4745000D01*
X6255000Y4360000D02*
X6285000D01*
X6270000Y4345000D02*
Y4375000D01*
X6955000Y4490000D02*
X6985000D01*
X6970000Y4475000D02*
Y4505000D01*
X6335000Y4650000D02*
X6365000D01*
X6350000Y4635000D02*
Y4665000D01*
X5405000Y4340000D02*
X5435000D01*
X5420000Y4325000D02*
Y4355000D01*
X5085000Y4390000D02*
X5115000D01*
X5100000Y4375000D02*
Y4405000D01*
X5705000Y4470000D02*
X5735000D01*
X5720000Y4455000D02*
Y4485000D01*
X6885000Y4860000D02*
X6915000D01*
X6900000Y4845000D02*
Y4875000D01*
X5895000Y4650000D02*
X5925000D01*
X5910000Y4635000D02*
Y4665000D01*
X5985000Y5090000D02*
X6015000D01*
X6000000Y5075000D02*
Y5105000D01*
X5855000Y5390000D02*
X5885000D01*
X5870000Y5375000D02*
Y5405000D01*
X6265000Y5400000D02*
X6295000D01*
X6280000Y5385000D02*
Y5415000D01*
X5895000Y5790000D02*
X5925000D01*
X5910000Y5775000D02*
Y5805000D01*
X6585000Y5810000D02*
X6615000D01*
X6600000Y5795000D02*
Y5825000D01*
X6885000Y5240000D02*
X6915000D01*
X6900000Y5225000D02*
Y5255000D01*
X7055000Y5800000D02*
X7085000D01*
X7070000Y5785000D02*
Y5815000D01*
X7245000Y6170000D02*
X7275000D01*
X7260000Y6155000D02*
Y6185000D01*
X6795000Y6360000D02*
X6825000D01*
X6810000Y6345000D02*
Y6375000D01*
X6585000Y6110000D02*
X6615000D01*
X6600000Y6095000D02*
Y6125000D01*
X5915000Y6360000D02*
X5945000D01*
X5930000Y6345000D02*
Y6375000D01*
X5705000Y4780000D02*
X5735000D01*
X5720000Y4765000D02*
Y4795000D01*
X5545000Y5230000D02*
X5575000D01*
X5560000Y5215000D02*
Y5245000D01*
X5255000Y5150000D02*
X5285000D01*
X5270000Y5135000D02*
Y5165000D01*
X5065000Y4830000D02*
X5095000D01*
X5080000Y4815000D02*
Y4845000D01*
X4635000Y4410000D02*
X4665000D01*
X4650000Y4395000D02*
Y4425000D01*
X4685000Y3910000D02*
X4715000D01*
X4700000Y3895000D02*
Y3925000D01*
X4425000Y4680000D02*
X4455000D01*
X4440000Y4665000D02*
Y4695000D01*
X4095000Y4320000D02*
X4125000D01*
X4110000Y4305000D02*
Y4335000D01*
X4725000Y4800000D02*
X4755000D01*
X4740000Y4785000D02*
Y4815000D01*
X4485000Y5030000D02*
X4515000D01*
X4500000Y5015000D02*
Y5045000D01*
X5255000Y5630000D02*
X5285000D01*
X5270000Y5615000D02*
Y5645000D01*
X3965000Y5560000D02*
X3995000D01*
X3980000Y5545000D02*
Y5575000D01*
X4505000Y5420000D02*
X4535000D01*
X4520000Y5405000D02*
Y5435000D01*
X3905000Y5200000D02*
X3935000D01*
X3920000Y5185000D02*
Y5215000D01*
X4255000Y5920000D02*
X4285000D01*
X4270000Y5905000D02*
Y5935000D01*
X3515000Y5680000D02*
X3545000D01*
X3530000Y5665000D02*
Y5695000D01*
X1675000Y4330000D02*
X1705000D01*
X1690000Y4315000D02*
Y4345000D01*
X2005000Y4330000D02*
X2035000D01*
X2020000Y4315000D02*
Y4345000D01*
X2375000Y4330000D02*
X2405000D01*
X2390000Y4315000D02*
Y4345000D01*
X2975000Y4920000D02*
X3005000D01*
X2990000Y4905000D02*
Y4935000D01*
X2745000Y4650000D02*
X2775000D01*
X2760000Y4635000D02*
Y4665000D01*
X2335000Y4680000D02*
X2365000D01*
X2350000Y4665000D02*
Y4695000D01*
X2705000Y5110000D02*
X2735000D01*
X2720000Y5095000D02*
Y5125000D01*
X3215000Y5150000D02*
X3245000D01*
X3230000Y5135000D02*
Y5165000D01*
X2735000Y5430000D02*
X2765000D01*
X2750000Y5415000D02*
Y5445000D01*
X1065000Y4880000D02*
X1095000D01*
X1080000Y4865000D02*
Y4895000D01*
X485000Y5170000D02*
X515000D01*
X500000Y5155000D02*
Y5185000D01*
X135000Y3680000D02*
X165000D01*
X150000Y3665000D02*
Y3695000D01*
X5695000Y3970000D02*
X5725000D01*
X5710000Y3955000D02*
Y3985000D01*
X5415000Y3770000D02*
X5445000D01*
X5430000Y3755000D02*
Y3785000D01*
X5175000Y3400000D02*
X5205000D01*
X5190000Y3385000D02*
Y3415000D01*
X4825000Y3700000D02*
X4855000D01*
X4840000Y3685000D02*
Y3715000D01*
X5695000Y3400000D02*
X5725000D01*
X5710000Y3385000D02*
Y3415000D01*
X195000Y2390000D02*
X225000D01*
X210000Y2375000D02*
Y2405000D01*
X1915000Y1730000D02*
X1945000D01*
X1930000Y1715000D02*
Y1745000D01*
X2255000Y1520000D02*
X2285000D01*
X2270000Y1505000D02*
Y1535000D01*
X2215000Y850000D02*
X2245000D01*
X2230000Y835000D02*
Y865000D01*
X2595000Y1190000D02*
X2625000D01*
X2610000Y1175000D02*
Y1205000D01*
X3215000Y1200000D02*
X3245000D01*
X3230000Y1185000D02*
Y1215000D01*
X3765000Y940000D02*
X3795000D01*
X3780000Y925000D02*
Y955000D01*
X3085000Y710000D02*
X3115000D01*
X3100000Y695000D02*
Y725000D01*
X2435000Y600000D02*
X2465000D01*
X2450000Y585000D02*
Y615000D01*
X2625000Y3650000D02*
X2655000D01*
X2640000Y3635000D02*
Y3665000D01*
X2545000Y3590000D02*
X2575000D01*
X2560000Y3575000D02*
Y3605000D01*
X2445000Y3565000D02*
X2475000D01*
X2460000Y3550000D02*
Y3580000D01*
X8755000Y2430000D02*
X8785000D01*
X8770000Y2415000D02*
Y2445000D01*
X9455000Y3170000D02*
X9485000D01*
X9470000Y3155000D02*
Y3185000D01*
X9455000Y2700000D02*
X9485000D01*
X9470000Y2685000D02*
Y2715000D01*
X7945000Y2130000D02*
X7975000D01*
X7960000Y2115000D02*
Y2145000D01*
X7175000Y1690000D02*
X7205000D01*
X7190000Y1675000D02*
Y1705000D01*
X8145000Y1910000D02*
X8175000D01*
X8160000Y1895000D02*
Y1925000D01*
X8425000Y1910000D02*
X8455000D01*
X8440000Y1895000D02*
Y1925000D01*
X8225000Y1620000D02*
X8255000D01*
X8240000Y1605000D02*
Y1635000D01*
X7845000Y1620000D02*
X7875000D01*
X7860000Y1605000D02*
Y1635000D01*
X7465000Y1640000D02*
X7495000D01*
X7480000Y1625000D02*
Y1655000D01*
X7085000Y2220000D02*
X7115000D01*
X7100000Y2205000D02*
Y2235000D01*
X9905000Y1660000D02*
X9935000D01*
X9920000Y1645000D02*
Y1675000D01*
X6115000Y2040000D02*
X6145000D01*
X6130000Y2025000D02*
Y2055000D01*
X6335000Y2290000D02*
X6365000D01*
X6350000Y2275000D02*
Y2305000D01*
X5795000Y2040000D02*
X5825000D01*
X5810000Y2025000D02*
Y2055000D01*
X5965000Y2290000D02*
X5995000D01*
X5980000Y2275000D02*
Y2305000D01*
X5625000Y2290000D02*
X5655000D01*
X5640000Y2275000D02*
Y2305000D01*
X5275000Y2270000D02*
X5305000D01*
X5290000Y2255000D02*
Y2285000D01*
X4965000Y2140000D02*
X4995000D01*
X4980000Y2125000D02*
Y2155000D01*
X5495000Y2040000D02*
X5525000D01*
X5510000Y2025000D02*
Y2055000D01*
X4995000Y1830000D02*
X5025000D01*
X5010000Y1815000D02*
Y1845000D01*
X4705000Y1630000D02*
X4735000D01*
X4720000Y1615000D02*
Y1645000D01*
X4675000Y1920000D02*
X4705000D01*
X4690000Y1905000D02*
Y1935000D01*
X4375000Y1530000D02*
X4405000D01*
X4390000Y1515000D02*
Y1545000D01*
X4015000Y1510000D02*
X4045000D01*
X4030000Y1495000D02*
Y1525000D01*
X3695000Y1510000D02*
X3725000D01*
X3710000Y1495000D02*
Y1525000D01*
X3365000Y1510000D02*
X3395000D01*
X3380000Y1495000D02*
Y1525000D01*
X2955000Y1530000D02*
X2985000D01*
X2970000Y1515000D02*
Y1545000D01*
X3535000Y1770000D02*
X3565000D01*
X3550000Y1755000D02*
Y1785000D01*
X4175000Y1770000D02*
X4205000D01*
X4190000Y1755000D02*
Y1785000D01*
X3845000Y1770000D02*
X3875000D01*
X3860000Y1755000D02*
Y1785000D01*
X3205000Y1770000D02*
X3235000D01*
X3220000Y1755000D02*
Y1785000D01*
X2875000Y1840000D02*
X2905000D01*
X2890000Y1825000D02*
Y1855000D01*
X2205000Y2440000D02*
X2235000D01*
X2220000Y2425000D02*
Y2455000D01*
X2565000Y1690000D02*
X2595000D01*
X2580000Y1675000D02*
Y1705000D01*
X2205000Y2030000D02*
X2235000D01*
X2220000Y2015000D02*
Y2045000D01*
X5215000Y2000000D02*
X5245000D01*
X5230000Y1985000D02*
Y2015000D01*
X6235000Y1620000D02*
X6265000D01*
X6250000Y1605000D02*
Y1635000D01*
X5265000Y1260000D02*
X5315000D01*
X5290000Y1235000D02*
Y1285000D01*
X6040210Y1370000D02*
X6090210D01*
X6065210Y1345000D02*
Y1395000D01*
X5265000Y1590000D02*
X5295000D01*
X5280000Y1575000D02*
Y1605000D01*
X4035000Y2090000D02*
X4065000D01*
X4050000Y2075000D02*
Y2105000D01*
X3385000Y4910000D02*
X3415000D01*
X3400000Y4895000D02*
Y4925000D01*
X3405000Y5010000D02*
X3435000D01*
X3420000Y4995000D02*
Y5025000D01*
X2135000Y4090000D02*
X2165000D01*
X2150000Y4075000D02*
Y4105000D01*
X3445000Y5100000D02*
X3475000D01*
X3460000Y5085000D02*
Y5115000D01*
X5175000Y4560000D02*
X5205000D01*
X5190000Y4545000D02*
Y4575000D01*
X6025000Y3500000D02*
X6075000D01*
X6050000Y3475000D02*
Y3525000D01*
X2735000Y3590000D02*
X2785000D01*
X2760000Y3565000D02*
Y3615000D01*
X1955000Y2290000D02*
X1985000D01*
X1970000Y2275000D02*
Y2305000D01*
X5465000Y6030000D02*
X5515000D01*
X5490000Y6005000D02*
Y6055000D01*
X5605000Y5620000D02*
X5635000D01*
X5620000Y5605000D02*
Y5635000D01*
X895000Y2690000D02*
X925000D01*
X910000Y2675000D02*
Y2705000D01*
X2245000Y4020000D02*
X2275000D01*
X2260000Y4005000D02*
Y4035000D01*
X1449142Y4460000D02*
X1499142D01*
X1474142Y4435000D02*
Y4485000D01*
X1365000Y2650000D02*
X1395000D01*
X1380000Y2635000D02*
Y2665000D01*
X2135000Y4190000D02*
X2165000D01*
X2150000Y4175000D02*
Y4205000D01*
X1125000Y3040000D02*
X1155000D01*
X1140000Y3025000D02*
Y3055000D01*
X1045000Y2960000D02*
X1075000D01*
X1060000Y2945000D02*
Y2975000D01*
X994998Y2869994D02*
X1024998D01*
X1009998Y2854994D02*
Y2884994D01*
X805000Y2900000D02*
X835000D01*
X820000Y2885000D02*
Y2915000D01*
X1625000Y2410000D02*
X1655000D01*
X1640000Y2395000D02*
Y2425000D01*
X795000Y2290000D02*
X825000D01*
X810000Y2275000D02*
Y2305000D01*
X795000Y2450000D02*
X825000D01*
X810000Y2435000D02*
Y2465000D01*
X1915000Y1500000D02*
X1945000D01*
X1930000Y1485000D02*
Y1515000D01*
X435000Y2370000D02*
X465000D01*
X450000Y2355000D02*
Y2385000D01*
X415000Y2530000D02*
X445000D01*
X430000Y2515000D02*
Y2545000D01*
X2645000Y2500000D02*
X2675000D01*
X2660000Y2485000D02*
Y2515000D01*
X4985000Y3070000D02*
X5015000D01*
X5000000Y3055000D02*
Y3085000D01*
X4715000Y3450000D02*
X4745000D01*
X4730000Y3435000D02*
Y3465000D01*
X9195000Y3020000D02*
X9225000D01*
X9210000Y3005000D02*
Y3035000D01*
X9305000Y3390000D02*
X9335000D01*
X9320000Y3375000D02*
Y3405000D01*
X9205000Y3900000D02*
X9235000D01*
X9220000Y3885000D02*
Y3915000D01*
X8885000Y4220000D02*
X8915000D01*
X8900000Y4205000D02*
Y4235000D01*
X8455000Y4180000D02*
X8485000D01*
X8470000Y4165000D02*
Y4195000D01*
X7995000Y4100000D02*
X8025000D01*
X8010000Y4085000D02*
Y4115000D01*
X7525000Y4040000D02*
X7555000D01*
X7540000Y4025000D02*
Y4055000D01*
X7065000Y3970000D02*
X7095000D01*
X7080000Y3955000D02*
Y3985000D01*
X6565000Y3900000D02*
X6595000D01*
X6580000Y3885000D02*
Y3915000D01*
X8735000Y2870000D02*
X8765000D01*
X8750000Y2855000D02*
Y2885000D01*
X8235000Y2810000D02*
X8265000D01*
X8250000Y2795000D02*
Y2825000D01*
X7755000Y2720000D02*
X7785000D01*
X7770000Y2705000D02*
Y2735000D01*
X6975000Y2600000D02*
X7005000D01*
X6990000Y2585000D02*
Y2615000D01*
X6505000Y2580000D02*
X6535000D01*
X6520000Y2565000D02*
Y2595000D01*
X6165000Y3680000D02*
X6195000D01*
X6180000Y3665000D02*
Y3695000D01*
X6145000Y3230000D02*
X6175000D01*
X6160000Y3215000D02*
Y3245000D01*
X6235000Y2870000D02*
X6265000D01*
X6250000Y2855000D02*
Y2885000D01*
X3015000Y2550000D02*
X3045000D01*
X3030000Y2535000D02*
Y2565000D01*
X2975000Y2880000D02*
X3005000D01*
X2990000Y2865000D02*
Y2895000D01*
X2965000Y3170000D02*
X2995000D01*
X2980000Y3155000D02*
Y3185000D01*
X475000Y2930000D02*
X505000D01*
X490000Y2915000D02*
Y2945000D01*
X1365000Y2210000D02*
X1395000D01*
X1380000Y2195000D02*
Y2225000D01*
X1205000Y2210000D02*
X1235000D01*
X1220000Y2195000D02*
Y2225000D01*
X5495000Y4250000D02*
X5545000D01*
X5520000Y4225000D02*
Y4275000D01*
X2085000Y2430000D02*
X2115000D01*
X2100000Y2415000D02*
Y2445000D01*
X2015000Y2370000D02*
X2045000D01*
X2030000Y2355000D02*
Y2385000D01*
X1705000Y1980000D02*
X1735000D01*
X1720000Y1965000D02*
Y1995000D01*
X335000Y1890000D02*
X365000D01*
X350000Y1875000D02*
Y1905000D01*
X535000Y1890000D02*
X565000D01*
X550000Y1875000D02*
Y1905000D01*
X715000Y1840000D02*
X745000D01*
X730000Y1825000D02*
Y1855000D01*
X825000Y1110000D02*
X855000D01*
X840000Y1095000D02*
Y1125000D01*
X524999Y1460000D02*
X554999D01*
X539999Y1445000D02*
Y1475000D01*
X325000Y1460000D02*
X355000D01*
X340000Y1445000D02*
Y1475000D01*
X805000Y1580000D02*
X835000D01*
X820000Y1565000D02*
Y1595000D01*
X2175000Y2820000D02*
X2205000D01*
X2190000Y2805000D02*
Y2835000D01*
X1794999Y1269999D02*
X1824999D01*
X1809999Y1255000D02*
Y1284999D01*
X1065000Y2210000D02*
X1095000D01*
X1080000Y2195000D02*
Y2225000D01*
X924999Y2209999D02*
X954999D01*
X939999Y2194999D02*
Y2224999D01*
X2495000Y2470000D02*
X2525000D01*
X2510000Y2455000D02*
Y2485000D01*
X1625000Y2570000D02*
X1655000D01*
X1640000Y2555000D02*
Y2585000D01*
X815000Y2610000D02*
X845000D01*
X830000Y2595000D02*
Y2625000D01*
X815000Y2770000D02*
X845000D01*
X830000Y2755000D02*
Y2785000D01*
X1385000Y2950000D02*
X1415000D01*
X1400000Y2935000D02*
Y2965000D01*
X1225000Y3550000D02*
X1255000D01*
X1240000Y3535000D02*
Y3565000D01*
X1414999Y3859999D02*
X1444999D01*
X1429999Y3844999D02*
Y3874999D01*
X2184999Y3709999D02*
X2214999D01*
X2199999Y3694999D02*
Y3724999D01*
X1414999Y4030000D02*
X1444999D01*
X1429999Y4015000D02*
Y4045000D01*
X904999Y3530000D02*
X934999D01*
X919999Y3515000D02*
Y3545000D01*
X634999Y3679999D02*
X664999D01*
X649999Y3665000D02*
Y3694999D01*
X634999Y3839999D02*
X664999D01*
X649999Y3824999D02*
Y3854999D01*
X634999Y4010000D02*
X664999D01*
X649999Y3995000D02*
Y4025000D01*
X894999Y4119999D02*
X924999D01*
X909999Y4104999D02*
Y4134999D01*
X1054999Y4119999D02*
X1084999D01*
X1069999Y4104999D02*
Y4134999D01*
X1215000Y4119999D02*
X1245000D01*
X1230000Y4104999D02*
Y4134999D01*
X1524999Y2209999D02*
X1554999D01*
X1539999Y2194999D02*
Y2224999D01*
X195000Y2210000D02*
X225000D01*
X210000Y2195000D02*
Y2225000D01*
X495000Y3060000D02*
X525000D01*
X510000Y3045000D02*
Y3075000D01*
X1564999Y1260000D02*
X1594999D01*
X1579999Y1245000D02*
Y1274999D01*
X1055000Y1240000D02*
X1085000D01*
X1070000Y1225000D02*
Y1255000D01*
X745000Y3530000D02*
X774999D01*
X759999Y3515000D02*
Y3545000D01*
X715000Y2040000D02*
X745000D01*
X730000Y2025000D02*
Y2055000D01*
X2115000Y3260000D02*
X2145000D01*
X2130000Y3245000D02*
Y3275000D01*
X1715000Y3780000D02*
X1745000D01*
X1730000Y3765000D02*
Y3795000D01*
X1445000Y3020000D02*
X1475000D01*
X1460000Y3005000D02*
Y3035000D01*
X1465000Y890000D02*
X1495000D01*
X1480000Y875000D02*
Y905000D01*
X3015000Y4090000D02*
X3065000D01*
X3040000Y4065000D02*
Y4115000D01*
X1345000Y750000D02*
X1395000D01*
X1370000Y725000D02*
Y775000D01*
X5105000Y4740000D02*
X5135000D01*
X5120000Y4725000D02*
Y4755000D01*
X5045000Y4940000D02*
X5075000D01*
X5060000Y4925000D02*
Y4955000D01*
X305000Y4650000D02*
X335000D01*
X320000Y4635000D02*
Y4665000D01*
X8675000Y1700000D02*
X8705000D01*
X8690000Y1685000D02*
Y1715000D01*
X8675000Y1820000D02*
X8705000D01*
X8690000Y1805000D02*
Y1835000D01*
X4125000Y1960000D02*
X4175000D01*
X4150000Y1935000D02*
Y1985000D01*
X9465000Y4390000D02*
X9495000D01*
X9480000Y4375000D02*
Y4405000D01*
X9175000Y4390000D02*
X9205000D01*
X9190000Y4375000D02*
Y4405000D01*
X5975000Y6110000D02*
X6005000D01*
X5990000Y6095000D02*
Y6125000D01*
X10065000Y2070000D02*
X10095000D01*
X10080000Y2055000D02*
Y2085000D01*
X9669707Y3461795D02*
X9709707D01*
X9689707Y3441795D02*
Y3481795D01*
X9610000Y3930000D02*
X9650000D01*
X9630000Y3910000D02*
Y3950000D01*
X9705000Y2080000D02*
X9735000D01*
X9720000Y2065000D02*
Y2095000D01*
X1405000Y640000D02*
X1435000D01*
X1420000Y625000D02*
Y655000D01*
X2605000Y2030000D02*
X2635000D01*
X2620000Y2015000D02*
Y2045000D01*
X975000Y590000D02*
X1005000D01*
X990000Y575000D02*
Y605000D01*
X2005000Y580000D02*
X2035000D01*
X2020000Y565000D02*
Y595000D01*
X735000Y4700000D02*
X765000D01*
X750000Y4685000D02*
Y4715000D01*
X185000Y4370000D02*
X215000D01*
X200000Y4355000D02*
Y4385000D01*
X285000Y4510000D02*
X315000D01*
X300000Y4495000D02*
Y4525000D01*
X1385000Y4830000D02*
X1415000D01*
X1400000Y4815000D02*
Y4845000D01*
X2335000Y5050000D02*
X2365000D01*
X2350000Y5035000D02*
Y5065000D01*
X1815000Y5080000D02*
X1845000D01*
X1830000Y5065000D02*
Y5095000D01*
X1275000Y4660000D02*
X1305000D01*
X1290000Y4645000D02*
Y4675000D01*
X1025000Y4600000D02*
X1055000D01*
X1040000Y4585000D02*
Y4615000D01*
X5705000Y2750000D02*
X5735000D01*
X5720000Y2735000D02*
Y2765000D01*
X5445000Y2700000D02*
X5475000D01*
X5460000Y2685000D02*
Y2715000D01*
X4315000Y3900000D02*
X4345000D01*
X4330000Y3885000D02*
Y3915000D01*
X3865000Y3740000D02*
X3895000D01*
X3880000Y3725000D02*
Y3755000D01*
X2845000Y4040000D02*
X2875000D01*
X2860000Y4025000D02*
Y4055000D01*
X3525000Y3700000D02*
X3555000D01*
X3540000Y3685000D02*
Y3715000D01*
X2895000Y3610000D02*
X2925000D01*
X2910000Y3595000D02*
Y3625000D01*
X3455000Y4160000D02*
X3485000D01*
X3470000Y4145000D02*
Y4175000D01*
X2995000Y4320000D02*
X3025000D01*
X3010000Y4305000D02*
Y4335000D01*
X4965000Y5300000D02*
X4995000D01*
X4980000Y5285000D02*
Y5315000D01*
X1035000Y1400000D02*
X1065000D01*
X1050000Y1385000D02*
Y1415000D01*
X4945000Y6120000D02*
X4975000D01*
X4960000Y6105000D02*
Y6135000D01*
X6905000Y6100000D02*
X6935000D01*
X6920000Y6085000D02*
Y6115000D01*
X6095000Y6110000D02*
X6125000D01*
X6110000Y6095000D02*
Y6125000D01*
X8465000Y6450000D02*
X8495000D01*
X8480000Y6435000D02*
Y6465000D01*
X7975000Y4720000D02*
X8005000D01*
X7990000Y4705000D02*
Y4735000D01*
X7925000Y5050000D02*
X7955000D01*
X7940000Y5035000D02*
Y5065000D01*
X7445000Y5710000D02*
X7475000D01*
X7460000Y5695000D02*
Y5725000D01*
X7545000Y5380000D02*
X7575000D01*
X7560000Y5365000D02*
Y5395000D01*
X8645000Y5380000D02*
X8675000D01*
X8660000Y5365000D02*
Y5395000D01*
X8645000Y5740000D02*
X8675000D01*
X8660000Y5725000D02*
Y5755000D01*
X8415000Y6100000D02*
X8445000D01*
X8430000Y6085000D02*
Y6115000D01*
X8115000Y6050000D02*
X8145000D01*
X8130000Y6035000D02*
Y6065000D01*
X9605000Y4960000D02*
X9635000D01*
X9620000Y4945000D02*
Y4975000D01*
X9575000Y5170000D02*
X9605000D01*
X9590000Y5155000D02*
Y5185000D01*
X9455000Y3590000D02*
X9485000D01*
X9470000Y3575000D02*
Y3605000D01*
X10165000Y2630000D02*
X10195000D01*
X10180000Y2615000D02*
Y2645000D01*
X9945000Y2600000D02*
X9975000D01*
X9960000Y2585000D02*
Y2615000D01*
X9235000Y2200000D02*
X9265000D01*
X9250000Y2185000D02*
Y2215000D01*
X9235000Y2500000D02*
X9265000D01*
X9250000Y2485000D02*
Y2515000D01*
X8935000Y1400000D02*
X8965000D01*
X8950000Y1385000D02*
Y1415000D01*
X6965000Y1850000D02*
X6995000D01*
X6980000Y1835000D02*
Y1865000D01*
X7865000Y2550000D02*
X7895000D01*
X7880000Y2535000D02*
Y2565000D01*
X7415000Y2600000D02*
X7445000D01*
X7430000Y2585000D02*
Y2615000D01*
X8125000Y2420000D02*
X8155000D01*
X8140000Y2405000D02*
Y2435000D01*
X7415000Y2150000D02*
X7445000D01*
X7430000Y2135000D02*
Y2165000D01*
X5805000Y1650000D02*
X5835000D01*
X5820000Y1635000D02*
Y1665000D01*
X5605000Y1710000D02*
X5635000D01*
X5620000Y1695000D02*
Y1725000D01*
X5125000Y1550000D02*
X5155000D01*
X5140000Y1535000D02*
Y1565000D01*
X4815000Y1460000D02*
X4845000D01*
X4830000Y1445000D02*
Y1475000D01*
X3095000Y2270000D02*
X3125000D01*
X3110000Y2255000D02*
Y2285000D01*
X4825000Y2400000D02*
X4855000D01*
X4840000Y2385000D02*
Y2415000D01*
X10165000Y2010000D02*
X10195000D01*
X10180000Y1995000D02*
Y2025000D01*
X10295000Y2600000D02*
X10325000D01*
X10310000Y2585000D02*
Y2615000D01*
X2345000Y2300000D02*
X2375000D01*
X2360000Y2285000D02*
Y2315000D01*
X9395000Y4130000D02*
X9425000D01*
X9410000Y4115000D02*
Y4145000D01*
X3874600Y5850000D02*
X3925400D01*
X3900000Y5824600D02*
Y5875400D01*
X124600Y5000000D02*
X175400D01*
X150000Y4974600D02*
Y5025400D01*
X1024600Y5150000D02*
X1075400D01*
X1050000Y5124600D02*
Y5175400D01*
X2324600Y5400000D02*
X2375400D01*
X2350000Y5374600D02*
Y5425400D01*
X7514600Y6150000D02*
X7565400D01*
X7540000Y6124600D02*
Y6175400D01*
X3474600Y550000D02*
X3525400D01*
X3500000Y524600D02*
Y575400D01*
X124600Y2050000D02*
X175400D01*
X150000Y2024600D02*
Y2075400D01*
X4174600Y750000D02*
X4225400D01*
X4200000Y724600D02*
Y775400D01*
X6024600Y1170000D02*
X6075400D01*
X6050000Y1144600D02*
Y1195400D01*
X5044600Y960000D02*
X5095400D01*
X5070000Y934600D02*
Y985400D01*
X6374600Y6400000D02*
X6425400D01*
X6400000Y6374600D02*
Y6425400D01*
X7174600Y6400000D02*
X7225400D01*
X7200000Y6374600D02*
Y6425400D01*
X124600Y3350000D02*
X175400D01*
X150000Y3324600D02*
Y3375400D01*
X1424600Y250000D02*
X1475400D01*
X1450000Y224600D02*
Y275400D01*
X774600Y550000D02*
X825400D01*
X800000Y524600D02*
Y575400D01*
X2774600Y350000D02*
X2825400D01*
X2800000Y324600D02*
Y375400D01*
X7384600Y1370000D02*
X7435400D01*
X7410000Y1344600D02*
Y1395400D01*
X8404600Y1350000D02*
X8455400D01*
X8430000Y1324600D02*
Y1375400D01*
X3024600Y5600000D02*
X3075400D01*
X3050000Y5574600D02*
Y5625400D01*
X4574600Y6050000D02*
X4625400D01*
X4600000Y6024600D02*
Y6075400D01*
X9984600Y1540000D02*
X10035400D01*
X10010000Y1514600D02*
Y1565400D01*
X5474600Y6300000D02*
X5525400D01*
X5500000Y6274600D02*
Y6325400D01*
X124600Y2700000D02*
X175400D01*
X150000Y2674600D02*
Y2725400D01*
X124600Y4000000D02*
X175400D01*
X150000Y3974600D02*
Y4025400D01*
X174600Y1250000D02*
X225400D01*
X200000Y1224600D02*
Y1275400D01*
X2124600Y150000D02*
X2175400D01*
X2150000Y124600D02*
Y175400D01*
X7974600Y6150000D02*
X8025400D01*
X8000000Y6124600D02*
Y6175400D01*
X9574600Y6450000D02*
X9625400D01*
X9600000Y6424600D02*
Y6475400D01*
%TF.MD5,6a323153f98628ca72aee057c25d8b60*%
M02*
