%TF.GenerationSoftware,Altium Limited,Altium Designer,22.6.1 (34)*%
G04 Layer_Color=8388736*
%FSLAX45Y45*%
%MOMM*%
%TF.SameCoordinates,EFAF5BE3-474D-4A98-89D0-AE48FBC3E593*%
%TF.FilePolarity,Positive*%
%TF.FileFunction,Other,Board_Outline*%
%TF.Part,Single*%
G01*
G75*
%TA.AperFunction,NonConductor*%
%ADD71C,0.20000*%
%ADD159C,0.10000*%
D71*
X8580000Y1120000D02*
G03*
X8680000Y1020000I100000J0D01*
G01*
X8580000Y1120000D02*
G03*
X8480000Y1220000I-100000J0D01*
G01*
X6290000D02*
G03*
X6190000Y1120000I0J-100000D01*
G01*
X6090000Y1020000D02*
G03*
X6190000Y1120000I0J100000D01*
G01*
X6518923Y3760934D02*
G03*
X6268870Y3418190I46345J-296398D01*
G01*
X286957Y874821D02*
G03*
X2491733Y77435I1653501J1125137D01*
G01*
X6058885Y1019701D02*
G03*
X5507610Y942224I-1J-2000000D01*
G01*
X9790170Y1019701D02*
G03*
X10073537Y1221194I0J300000D01*
G01*
X10073536Y1221193D02*
G03*
X10461271Y3445588I-6611873J2298507D01*
G01*
X10461271Y3445588D02*
G03*
X10449322Y3610661I-999943J10588D01*
G01*
X10143560Y5566138D02*
G03*
X10104548Y5726979I-987994J-154485D01*
G01*
D02*
G03*
X9842351Y6398384I-6642886J-2207277D01*
G01*
D02*
G03*
X9568893Y6575013I-273458J-123372D01*
G01*
X8230090Y6575012D02*
G03*
X8130090Y6475012I-0J-100000D01*
G01*
X7990090Y6315013D02*
G03*
X8130090Y6455012I0J140000D01*
G01*
X7370090Y6455012D02*
G03*
X7510090Y6315012I140000J0D01*
G01*
X7370090Y6475012D02*
G03*
X7270090Y6575012I-100000J0D01*
G01*
X6480508D02*
G03*
X5102321Y6381321I0J-5000000D01*
G01*
X1118930Y5319701D02*
G03*
X1670205Y5397177I1J2000000D01*
G01*
X400012Y5319701D02*
G03*
X12Y4919701I0J-400000D01*
G01*
Y1419701D02*
G03*
X69312Y1194674I400000J0D01*
G01*
X9134056Y3866195D02*
G03*
X8791313Y4116249I-296398J-46345D01*
G01*
X8961246Y3029454D02*
G03*
X9211299Y3372198I-46345J296398D01*
G01*
X6346113Y2924192D02*
G03*
X6688857Y2674139I296399J46346D01*
G01*
X8680000Y1020000D02*
X9790170Y1019701D01*
X6290000Y1220000D02*
X8480000D01*
X6058885Y1019701D02*
X6090000Y1020000D01*
X2491733Y77435D02*
X5507610Y942224D01*
X10143560Y5566138D02*
X10449322Y3610661D01*
X8230090Y6575012D02*
X9568893Y6575013D01*
X8130090Y6455012D02*
Y6475012D01*
X7510090Y6315012D02*
X7990090Y6315013D01*
X7370090Y6455012D02*
Y6475012D01*
X6480508Y6575013D02*
X7270090D01*
X1670205Y5397177D02*
X5102321Y6381321D01*
X400012Y5319701D02*
X1118930D01*
X12Y1419701D02*
Y4919701D01*
X69312Y1194674D02*
X286957Y874821D01*
X6268870Y3418190D02*
X6346113Y2924192D01*
X6518924Y3760934D02*
X8791313Y4116249D01*
X9134056Y3866195D02*
X9211299Y3372198D01*
X6688857Y2674139D02*
X8961246Y3029454D01*
D159*
X4860094Y3376767D02*
X4992951Y2527091D01*
X3244199Y2253653D02*
X4992951Y2527091D01*
X3111342Y3103329D02*
X4860094Y3376767D01*
X3111342Y3103329D02*
X3244199Y2253653D01*
%TF.MD5,fe0ddacdd5032b18af5cbbd0ccf64e84*%
M02*
