%TF.GenerationSoftware,KiCad,Pcbnew,(6.0.10)*%
%TF.CreationDate,2023-01-19T11:38:05+01:00*%
%TF.ProjectId,QMKMouse,514d4b4d-6f75-4736-952e-6b696361645f,2.001*%
%TF.SameCoordinates,PX5c0b167PY839143b*%
%TF.FileFunction,Legend,Top*%
%TF.FilePolarity,Positive*%
%FSLAX45Y45*%
G04 Gerber Fmt 4.5, Leading zero omitted, Abs format (unit mm)*
G04 Created by KiCad (PCBNEW (6.0.10)) date 2023-01-19 11:38:05*
%MOMM*%
%LPD*%
G01*
G04 APERTURE LIST*
%ADD10C,0.190500*%
%ADD11C,0.250000*%
%ADD12C,0.158750*%
%ADD13C,0.150000*%
%ADD14C,0.254000*%
%ADD15C,0.500000*%
%ADD16C,0.600000*%
%ADD17C,1.000000*%
%ADD18C,0.200000*%
%ADD19C,0.300000*%
%ADD20C,1.400000*%
G04 APERTURE END LIST*
D10*
X655868Y4064074D02*
X652239Y4053189D01*
X648611Y4049560D01*
X641354Y4045931D01*
X630468Y4045931D01*
X623211Y4049560D01*
X619582Y4053189D01*
X615954Y4060446D01*
X615954Y4089474D01*
X692154Y4089474D01*
X692154Y4064074D01*
X688525Y4056817D01*
X684896Y4053189D01*
X677639Y4049560D01*
X670382Y4049560D01*
X663125Y4053189D01*
X659496Y4056817D01*
X655868Y4064074D01*
X655868Y4089474D01*
X692154Y3998760D02*
X692154Y3984246D01*
X688525Y3976989D01*
X681268Y3969731D01*
X666754Y3966103D01*
X641354Y3966103D01*
X626839Y3969731D01*
X619582Y3976989D01*
X615954Y3984246D01*
X615954Y3998760D01*
X619582Y4006017D01*
X626839Y4013274D01*
X641354Y4016903D01*
X666754Y4016903D01*
X681268Y4013274D01*
X688525Y4006017D01*
X692154Y3998760D01*
X692154Y3918931D02*
X692154Y3904417D01*
X688525Y3897160D01*
X681268Y3889903D01*
X666754Y3886274D01*
X641354Y3886274D01*
X626839Y3889903D01*
X619582Y3897160D01*
X615954Y3904417D01*
X615954Y3918931D01*
X619582Y3926189D01*
X626839Y3933446D01*
X641354Y3937074D01*
X666754Y3937074D01*
X681268Y3933446D01*
X688525Y3926189D01*
X692154Y3918931D01*
X692154Y3864503D02*
X692154Y3820960D01*
X615954Y3842731D02*
X692154Y3842731D01*
X615954Y3759274D02*
X615954Y3795560D01*
X692154Y3795560D01*
X692154Y3719360D02*
X692154Y3704846D01*
X688525Y3697589D01*
X681268Y3690331D01*
X666754Y3686703D01*
X641354Y3686703D01*
X626839Y3690331D01*
X619582Y3697589D01*
X615954Y3704846D01*
X615954Y3719360D01*
X619582Y3726617D01*
X626839Y3733874D01*
X641354Y3737503D01*
X666754Y3737503D01*
X681268Y3733874D01*
X688525Y3726617D01*
X692154Y3719360D01*
X637725Y3657674D02*
X637725Y3621389D01*
X615954Y3664931D02*
X692154Y3639531D01*
X615954Y3614131D01*
X615954Y3588731D02*
X692154Y3588731D01*
X692154Y3570589D01*
X688525Y3559703D01*
X681268Y3552446D01*
X674011Y3548817D01*
X659496Y3545189D01*
X648611Y3545189D01*
X634096Y3548817D01*
X626839Y3552446D01*
X619582Y3559703D01*
X615954Y3570589D01*
X615954Y3588731D01*
X655868Y3512531D02*
X655868Y3487131D01*
X615954Y3476246D02*
X615954Y3512531D01*
X692154Y3512531D01*
X692154Y3476246D01*
X615954Y3400046D02*
X652239Y3425446D01*
X615954Y3443589D02*
X692154Y3443589D01*
X692154Y3414560D01*
X688525Y3407303D01*
X684896Y3403674D01*
X677639Y3400046D01*
X666754Y3400046D01*
X659496Y3403674D01*
X655868Y3407303D01*
X652239Y3414560D01*
X652239Y3443589D01*
D11*
X2569881Y669485D02*
X2559417Y671458D01*
X2547650Y678011D01*
X2530000Y687841D01*
X2519536Y689814D01*
X2510376Y687207D01*
X2521474Y665610D02*
X2511010Y667583D01*
X2499243Y674136D01*
X2489449Y691153D01*
X2480324Y723213D01*
X2479690Y742836D01*
X2486243Y754603D01*
X2494100Y761790D01*
X2512420Y767004D01*
X2522883Y765031D01*
X2534650Y758478D01*
X2544444Y741462D01*
X2553569Y709402D01*
X2554203Y689778D01*
X2547650Y678011D01*
X2539794Y670824D01*
X2521474Y665610D01*
X2603914Y689074D02*
X2576540Y785254D01*
X2628153Y725678D01*
X2640660Y803503D01*
X2668034Y707323D01*
X2713834Y720358D02*
X2686460Y816539D01*
X2768795Y736001D02*
X2711932Y779229D01*
X2741420Y832181D02*
X2702103Y761578D01*
X2810015Y747732D02*
X2782641Y843913D01*
X2834254Y784337D01*
X2846761Y862162D01*
X2874135Y765982D01*
X2933675Y782928D02*
X2923211Y784900D01*
X2917328Y788177D01*
X2910141Y796033D01*
X2902320Y823514D01*
X2904293Y833977D01*
X2907569Y839861D01*
X2915426Y847048D01*
X2929166Y850958D01*
X2939629Y848985D01*
X2945513Y845709D01*
X2952700Y837852D01*
X2960521Y810372D01*
X2958548Y799909D01*
X2955272Y794025D01*
X2947415Y786838D01*
X2933675Y782928D01*
X3029926Y879636D02*
X3048175Y815516D01*
X2988706Y867904D02*
X3003045Y817524D01*
X3010232Y809668D01*
X3020695Y807695D01*
X3034435Y811605D01*
X3042292Y818792D01*
X3045568Y824676D01*
X3088092Y831828D02*
X3098556Y829855D01*
X3116876Y835069D01*
X3124732Y842256D01*
X3126705Y852719D01*
X3125402Y857299D01*
X3118215Y865156D01*
X3107751Y867129D01*
X3094011Y863218D01*
X3083547Y865191D01*
X3076360Y873048D01*
X3075057Y877628D01*
X3077030Y888091D01*
X3084886Y895278D01*
X3098626Y899189D01*
X3109090Y897216D01*
X3207172Y865719D02*
X3199316Y858532D01*
X3180996Y853318D01*
X3170532Y855291D01*
X3163345Y863148D01*
X3152917Y899788D01*
X3154890Y910251D01*
X3162746Y917438D01*
X3181067Y922652D01*
X3191530Y920679D01*
X3198717Y912823D01*
X3201324Y903663D01*
X3158131Y881468D01*
X3382517Y910673D02*
X3337421Y947349D01*
X3327556Y895031D02*
X3300182Y991211D01*
X3336822Y1001640D01*
X3347286Y999667D01*
X3353170Y996390D01*
X3360357Y988534D01*
X3364267Y974794D01*
X3362294Y964330D01*
X3359018Y958446D01*
X3351161Y951259D01*
X3314521Y940831D01*
X3394390Y1008122D02*
X3397666Y1014005D01*
X3405523Y1021192D01*
X3428423Y1027710D01*
X3438886Y1025737D01*
X3444770Y1022461D01*
X3451957Y1014604D01*
X3454564Y1005444D01*
X3453895Y990401D01*
X3414577Y919798D01*
X3474117Y936744D01*
X3512730Y957636D02*
X3518614Y954359D01*
X3515337Y948476D01*
X3509454Y951752D01*
X3512730Y957636D01*
X3515337Y948476D01*
X3552083Y1062906D02*
X3561243Y1065513D01*
X3571707Y1063540D01*
X3577590Y1060263D01*
X3584777Y1052407D01*
X3594572Y1035390D01*
X3601089Y1012490D01*
X3601723Y992866D01*
X3599750Y982403D01*
X3596474Y976519D01*
X3588617Y969332D01*
X3579457Y966725D01*
X3568994Y968698D01*
X3563110Y971975D01*
X3555923Y979831D01*
X3546129Y996848D01*
X3539611Y1019748D01*
X3538977Y1039371D01*
X3540950Y1049835D01*
X3544227Y1055718D01*
X3552083Y1062906D01*
X3643684Y1088976D02*
X3652844Y1091583D01*
X3663307Y1089610D01*
X3669191Y1086334D01*
X3676378Y1078477D01*
X3686172Y1061461D01*
X3692690Y1038560D01*
X3693324Y1018937D01*
X3691351Y1008473D01*
X3688074Y1002590D01*
X3680218Y995403D01*
X3671058Y992796D01*
X3660594Y994769D01*
X3654711Y998045D01*
X3647523Y1005902D01*
X3637729Y1022918D01*
X3631212Y1045818D01*
X3630578Y1065442D01*
X3632551Y1075905D01*
X3635827Y1081789D01*
X3643684Y1088976D01*
X3794718Y1027991D02*
X3739758Y1012349D01*
X3767238Y1020170D02*
X3739864Y1116350D01*
X3734614Y1100003D01*
X3728061Y1088236D01*
X3720205Y1081049D01*
X2547332Y609547D02*
X2566885Y540847D01*
X2566215Y525803D01*
X2559662Y514036D01*
X2547226Y505545D01*
X2538066Y502938D01*
X2661726Y538134D02*
X2647387Y588514D01*
X2640200Y596370D01*
X2629737Y598343D01*
X2611417Y593129D01*
X2603560Y585942D01*
X2660423Y542714D02*
X2652566Y535527D01*
X2629666Y529009D01*
X2619203Y530982D01*
X2612016Y538839D01*
X2609408Y547999D01*
X2611381Y558462D01*
X2619238Y565649D01*
X2642138Y572167D01*
X2649995Y579354D01*
X2689277Y615289D02*
X2707526Y551169D01*
X2691884Y606129D02*
X2695161Y612013D01*
X2703017Y619200D01*
X2716757Y623110D01*
X2727221Y621137D01*
X2734408Y613281D01*
X2748747Y562901D01*
X2817517Y651788D02*
X2835767Y587668D01*
X2776297Y640056D02*
X2790636Y589676D01*
X2797823Y581820D01*
X2808287Y579847D01*
X2822027Y583757D01*
X2829883Y590944D01*
X2833160Y596828D01*
X2922787Y612435D02*
X2908448Y662815D01*
X2901261Y670672D01*
X2890798Y672645D01*
X2872478Y667430D01*
X2864621Y660243D01*
X2921484Y617015D02*
X2913627Y609828D01*
X2890727Y603310D01*
X2880263Y605283D01*
X2873076Y613140D01*
X2870469Y622300D01*
X2872442Y632763D01*
X2880299Y639950D01*
X2903199Y646468D01*
X2911055Y653655D01*
X2968587Y625470D02*
X2950338Y689590D01*
X2955552Y671270D02*
X2957525Y681734D01*
X2960801Y687617D01*
X2968658Y694805D01*
X2977818Y697412D01*
X3000718Y703929D02*
X3041868Y646327D01*
X3046518Y716964D02*
X3041868Y646327D01*
X3039225Y620819D01*
X3035949Y614936D01*
X3028092Y607749D01*
X3145341Y769846D02*
X3148617Y775729D01*
X3156474Y782916D01*
X3179374Y789434D01*
X3189838Y787461D01*
X3195721Y784184D01*
X3202908Y776328D01*
X3205515Y767168D01*
X3204846Y752124D01*
X3165528Y681522D01*
X3225068Y698468D01*
X3257234Y811594D02*
X3266394Y814201D01*
X3276858Y812228D01*
X3282741Y808952D01*
X3289929Y801095D01*
X3299723Y784078D01*
X3306240Y761178D01*
X3306874Y741555D01*
X3304901Y731091D01*
X3301625Y725208D01*
X3293768Y718021D01*
X3284608Y715414D01*
X3274145Y717387D01*
X3268261Y720663D01*
X3261074Y728520D01*
X3251280Y745536D01*
X3244762Y768436D01*
X3244128Y788060D01*
X3246101Y798523D01*
X3249378Y804407D01*
X3257234Y811594D01*
X3328542Y821987D02*
X3331818Y827870D01*
X3339675Y835057D01*
X3362575Y841575D01*
X3373038Y839602D01*
X3378922Y836326D01*
X3386109Y828469D01*
X3388716Y819309D01*
X3388046Y804265D01*
X3348729Y733663D01*
X3408269Y750609D01*
X3412955Y855914D02*
X3472495Y872860D01*
X3450863Y827095D01*
X3464603Y831005D01*
X3475067Y829033D01*
X3480950Y825756D01*
X3488137Y817900D01*
X3494655Y794999D01*
X3492682Y784536D01*
X3489406Y778652D01*
X3481549Y771465D01*
X3454069Y763644D01*
X3443605Y765617D01*
X3437722Y768894D01*
D12*
%TO.C,MCU.J.1*%
X2754904Y3129876D02*
X2818404Y3129876D01*
X2773047Y3108709D01*
X2818404Y3087543D01*
X2754904Y3087543D01*
X2760952Y3021019D02*
X2757928Y3024043D01*
X2754904Y3033114D01*
X2754904Y3039162D01*
X2757928Y3048233D01*
X2763976Y3054281D01*
X2770023Y3057304D01*
X2782119Y3060328D01*
X2791190Y3060328D01*
X2803285Y3057304D01*
X2809333Y3054281D01*
X2815380Y3048233D01*
X2818404Y3039162D01*
X2818404Y3033114D01*
X2815380Y3024043D01*
X2812357Y3021019D01*
X2818404Y2993804D02*
X2767000Y2993804D01*
X2760952Y2990781D01*
X2757928Y2987757D01*
X2754904Y2981709D01*
X2754904Y2969614D01*
X2757928Y2963566D01*
X2760952Y2960543D01*
X2767000Y2957519D01*
X2818404Y2957519D01*
X2760952Y2927281D02*
X2757928Y2924257D01*
X2754904Y2927281D01*
X2757928Y2930304D01*
X2760952Y2927281D01*
X2754904Y2927281D01*
X2818404Y2878900D02*
X2773047Y2878900D01*
X2763976Y2881924D01*
X2757928Y2887971D01*
X2754904Y2897043D01*
X2754904Y2903090D01*
X2760952Y2848662D02*
X2757928Y2845638D01*
X2754904Y2848662D01*
X2757928Y2851685D01*
X2760952Y2848662D01*
X2754904Y2848662D01*
X2754904Y2785162D02*
X2754904Y2821447D01*
X2754904Y2803304D02*
X2818404Y2803304D01*
X2809333Y2809352D01*
X2803285Y2815400D01*
X2800261Y2821447D01*
D13*
%TO.C,HOLE.1*%
D12*
%TO.C,USB.J.3*%
X9905371Y4388404D02*
X9905371Y4336999D01*
X9908395Y4330952D01*
X9911419Y4327928D01*
X9917466Y4324904D01*
X9929562Y4324904D01*
X9935609Y4327928D01*
X9938633Y4330952D01*
X9941657Y4336999D01*
X9941657Y4388404D01*
X9968871Y4327928D02*
X9977943Y4324904D01*
X9993062Y4324904D01*
X9999109Y4327928D01*
X10002133Y4330952D01*
X10005157Y4336999D01*
X10005157Y4343047D01*
X10002133Y4349095D01*
X9999109Y4352118D01*
X9993062Y4355142D01*
X9980966Y4358166D01*
X9974919Y4361190D01*
X9971895Y4364214D01*
X9968871Y4370261D01*
X9968871Y4376309D01*
X9971895Y4382356D01*
X9974919Y4385380D01*
X9980966Y4388404D01*
X9996085Y4388404D01*
X10005157Y4385380D01*
X10053538Y4358166D02*
X10062609Y4355142D01*
X10065633Y4352118D01*
X10068657Y4346071D01*
X10068657Y4336999D01*
X10065633Y4330952D01*
X10062609Y4327928D01*
X10056562Y4324904D01*
X10032371Y4324904D01*
X10032371Y4388404D01*
X10053538Y4388404D01*
X10059585Y4385380D01*
X10062609Y4382357D01*
X10065633Y4376309D01*
X10065633Y4370261D01*
X10062609Y4364214D01*
X10059585Y4361190D01*
X10053538Y4358166D01*
X10032371Y4358166D01*
X10095871Y4330952D02*
X10098895Y4327928D01*
X10095871Y4324904D01*
X10092847Y4327928D01*
X10095871Y4330952D01*
X10095871Y4324904D01*
X10144252Y4388404D02*
X10144252Y4343047D01*
X10141228Y4333976D01*
X10135181Y4327928D01*
X10126109Y4324904D01*
X10120062Y4324904D01*
X10174490Y4330952D02*
X10177514Y4327928D01*
X10174490Y4324904D01*
X10171466Y4327928D01*
X10174490Y4330952D01*
X10174490Y4324904D01*
X10198681Y4388404D02*
X10237990Y4388404D01*
X10216823Y4364214D01*
X10225895Y4364214D01*
X10231942Y4361190D01*
X10234966Y4358166D01*
X10237990Y4352119D01*
X10237990Y4337000D01*
X10234966Y4330952D01*
X10231943Y4327928D01*
X10225895Y4324904D01*
X10207752Y4324904D01*
X10201704Y4327928D01*
X10198681Y4330952D01*
D14*
%TO.C,MCH.LOGO.2*%
X2267939Y2012857D02*
X2267939Y1955714D01*
X2227939Y2075714D02*
X2267939Y2012857D01*
X2307939Y2075714D01*
X2473653Y1825714D02*
X2553653Y1705714D01*
X2553653Y1825714D02*
X2473653Y1705714D01*
D12*
%TO.C,LBS.SW.2*%
X9000527Y2614904D02*
X8970289Y2614904D01*
X8970289Y2678404D01*
X9042861Y2648166D02*
X9051932Y2645143D01*
X9054956Y2642119D01*
X9057980Y2636071D01*
X9057980Y2627000D01*
X9054956Y2620952D01*
X9051932Y2617928D01*
X9045885Y2614904D01*
X9021694Y2614904D01*
X9021694Y2678404D01*
X9042861Y2678404D01*
X9048908Y2675381D01*
X9051932Y2672357D01*
X9054956Y2666309D01*
X9054956Y2660262D01*
X9051932Y2654214D01*
X9048908Y2651190D01*
X9042861Y2648166D01*
X9021694Y2648166D01*
X9082170Y2617928D02*
X9091242Y2614904D01*
X9106361Y2614904D01*
X9112408Y2617928D01*
X9115432Y2620952D01*
X9118456Y2627000D01*
X9118456Y2633047D01*
X9115432Y2639095D01*
X9112408Y2642119D01*
X9106361Y2645143D01*
X9094266Y2648166D01*
X9088218Y2651190D01*
X9085194Y2654214D01*
X9082170Y2660262D01*
X9082170Y2666309D01*
X9085194Y2672357D01*
X9088218Y2675381D01*
X9094266Y2678404D01*
X9109385Y2678404D01*
X9118456Y2675381D01*
X9145670Y2620952D02*
X9148694Y2617928D01*
X9145670Y2614904D01*
X9142647Y2617928D01*
X9145670Y2620952D01*
X9145670Y2614904D01*
X9172885Y2617928D02*
X9181956Y2614904D01*
X9197075Y2614904D01*
X9203123Y2617928D01*
X9206147Y2620952D01*
X9209170Y2627000D01*
X9209170Y2633047D01*
X9206147Y2639095D01*
X9203123Y2642119D01*
X9197075Y2645143D01*
X9184980Y2648166D01*
X9178932Y2651190D01*
X9175908Y2654214D01*
X9172885Y2660262D01*
X9172885Y2666309D01*
X9175908Y2672357D01*
X9178932Y2675381D01*
X9184980Y2678404D01*
X9200099Y2678404D01*
X9209170Y2675381D01*
X9230337Y2678404D02*
X9245456Y2614904D01*
X9257551Y2660262D01*
X9269647Y2614904D01*
X9284766Y2678404D01*
X9308956Y2620952D02*
X9311980Y2617928D01*
X9308956Y2614904D01*
X9305932Y2617928D01*
X9308956Y2620952D01*
X9308956Y2614904D01*
X9336170Y2672357D02*
X9339194Y2675381D01*
X9345242Y2678404D01*
X9360361Y2678404D01*
X9366408Y2675381D01*
X9369432Y2672357D01*
X9372456Y2666309D01*
X9372456Y2660262D01*
X9369432Y2651190D01*
X9333147Y2614904D01*
X9372456Y2614904D01*
%TO.C,BTN.SW.6*%
X5265018Y3808166D02*
X5274090Y3805142D01*
X5277114Y3802118D01*
X5280137Y3796071D01*
X5280137Y3786999D01*
X5277114Y3780952D01*
X5274090Y3777928D01*
X5268042Y3774904D01*
X5243852Y3774904D01*
X5243852Y3838404D01*
X5265018Y3838404D01*
X5271066Y3835380D01*
X5274090Y3832357D01*
X5277114Y3826309D01*
X5277114Y3820261D01*
X5274090Y3814214D01*
X5271066Y3811190D01*
X5265018Y3808166D01*
X5243852Y3808166D01*
X5298280Y3838404D02*
X5334566Y3838404D01*
X5316423Y3774904D02*
X5316423Y3838404D01*
X5355733Y3774904D02*
X5355733Y3838404D01*
X5392018Y3774904D01*
X5392018Y3838404D01*
X5422256Y3780952D02*
X5425280Y3777928D01*
X5422256Y3774904D01*
X5419233Y3777928D01*
X5422256Y3780952D01*
X5422256Y3774904D01*
X5449471Y3777928D02*
X5458542Y3774904D01*
X5473661Y3774904D01*
X5479709Y3777928D01*
X5482733Y3780952D01*
X5485756Y3786999D01*
X5485756Y3793047D01*
X5482733Y3799095D01*
X5479709Y3802118D01*
X5473661Y3805142D01*
X5461566Y3808166D01*
X5455518Y3811190D01*
X5452494Y3814214D01*
X5449471Y3820261D01*
X5449471Y3826309D01*
X5452494Y3832357D01*
X5455518Y3835380D01*
X5461566Y3838404D01*
X5476685Y3838404D01*
X5485756Y3835380D01*
X5506923Y3838404D02*
X5522042Y3774904D01*
X5534137Y3820261D01*
X5546233Y3774904D01*
X5561352Y3838404D01*
X5585542Y3780952D02*
X5588566Y3777928D01*
X5585542Y3774904D01*
X5582518Y3777928D01*
X5585542Y3780952D01*
X5585542Y3774904D01*
X5642994Y3838404D02*
X5630899Y3838404D01*
X5624851Y3835380D01*
X5621828Y3832357D01*
X5615780Y3823285D01*
X5612756Y3811190D01*
X5612756Y3786999D01*
X5615780Y3780952D01*
X5618804Y3777928D01*
X5624851Y3774904D01*
X5636947Y3774904D01*
X5642994Y3777928D01*
X5646018Y3780952D01*
X5649042Y3786999D01*
X5649042Y3802118D01*
X5646018Y3808166D01*
X5642994Y3811190D01*
X5636947Y3814214D01*
X5624851Y3814214D01*
X5618804Y3811190D01*
X5615780Y3808166D01*
X5612756Y3802118D01*
%TO.C,MCU.J.4*%
X305095Y3481487D02*
X241595Y3481487D01*
X286953Y3502653D01*
X241595Y3523820D01*
X305095Y3523820D01*
X299048Y3590344D02*
X302072Y3587320D01*
X305095Y3578249D01*
X305095Y3572201D01*
X302072Y3563130D01*
X296024Y3557082D01*
X289976Y3554058D01*
X277881Y3551034D01*
X268810Y3551034D01*
X256714Y3554058D01*
X250667Y3557082D01*
X244619Y3563130D01*
X241595Y3572201D01*
X241595Y3578249D01*
X244619Y3587320D01*
X247643Y3590344D01*
X241595Y3617558D02*
X293000Y3617558D01*
X299048Y3620582D01*
X302072Y3623606D01*
X305095Y3629653D01*
X305095Y3641749D01*
X302072Y3647796D01*
X299048Y3650820D01*
X293000Y3653844D01*
X241595Y3653844D01*
X299048Y3684082D02*
X302072Y3687106D01*
X305095Y3684082D01*
X302072Y3681058D01*
X299048Y3684082D01*
X305095Y3684082D01*
X241595Y3732463D02*
X286953Y3732463D01*
X296024Y3729439D01*
X302072Y3723392D01*
X305095Y3714320D01*
X305095Y3708273D01*
X299048Y3762701D02*
X302072Y3765725D01*
X305095Y3762701D01*
X302072Y3759677D01*
X299048Y3762701D01*
X305095Y3762701D01*
X262762Y3820153D02*
X305095Y3820153D01*
X238572Y3805034D02*
X283929Y3789915D01*
X283929Y3829225D01*
%TO.C,USB.J.2*%
X9205019Y4878404D02*
X9205019Y4826999D01*
X9208043Y4820952D01*
X9211067Y4817928D01*
X9217115Y4814904D01*
X9229210Y4814904D01*
X9235257Y4817928D01*
X9238281Y4820952D01*
X9241305Y4826999D01*
X9241305Y4878404D01*
X9268519Y4817928D02*
X9277591Y4814904D01*
X9292710Y4814904D01*
X9298757Y4817928D01*
X9301781Y4820952D01*
X9304805Y4826999D01*
X9304805Y4833047D01*
X9301781Y4839095D01*
X9298757Y4842118D01*
X9292710Y4845142D01*
X9280614Y4848166D01*
X9274567Y4851190D01*
X9271543Y4854214D01*
X9268519Y4860261D01*
X9268519Y4866309D01*
X9271543Y4872357D01*
X9274567Y4875380D01*
X9280614Y4878404D01*
X9295733Y4878404D01*
X9304805Y4875380D01*
X9353186Y4848166D02*
X9362257Y4845142D01*
X9365281Y4842119D01*
X9368305Y4836071D01*
X9368305Y4827000D01*
X9365281Y4820952D01*
X9362257Y4817928D01*
X9356210Y4814904D01*
X9332019Y4814904D01*
X9332019Y4878404D01*
X9353186Y4878404D01*
X9359233Y4875380D01*
X9362257Y4872357D01*
X9365281Y4866309D01*
X9365281Y4860261D01*
X9362257Y4854214D01*
X9359234Y4851190D01*
X9353186Y4848166D01*
X9332019Y4848166D01*
X9395519Y4820952D02*
X9398543Y4817928D01*
X9395519Y4814904D01*
X9392495Y4817928D01*
X9395519Y4820952D01*
X9395519Y4814904D01*
X9443900Y4878404D02*
X9443900Y4833047D01*
X9440876Y4823976D01*
X9434829Y4817928D01*
X9425757Y4814904D01*
X9419710Y4814904D01*
X9474138Y4820952D02*
X9477162Y4817928D01*
X9474138Y4814904D01*
X9471115Y4817928D01*
X9474138Y4820952D01*
X9474138Y4814904D01*
X9501353Y4872357D02*
X9504376Y4875381D01*
X9510424Y4878404D01*
X9525543Y4878405D01*
X9531591Y4875381D01*
X9534614Y4872357D01*
X9537638Y4866309D01*
X9537638Y4860262D01*
X9534614Y4851190D01*
X9498329Y4814904D01*
X9537638Y4814905D01*
%TO.C,BTN.SW.8*%
X7698208Y5158155D02*
X7707638Y5156569D01*
X7711093Y5154049D01*
X7715014Y5148541D01*
X7716416Y5139578D01*
X7714363Y5133136D01*
X7711842Y5129681D01*
X7706334Y5125760D01*
X7682434Y5122023D01*
X7672625Y5184760D01*
X7693537Y5188030D01*
X7699979Y5185977D01*
X7703434Y5183457D01*
X7707356Y5177949D01*
X7708290Y5171974D01*
X7706237Y5165532D01*
X7703716Y5162077D01*
X7698208Y5158155D01*
X7677296Y5154885D01*
X7726400Y5193169D02*
X7762250Y5198774D01*
X7754135Y5133234D02*
X7744325Y5195972D01*
X7792972Y5139307D02*
X7783162Y5202044D01*
X7828822Y5144912D01*
X7819012Y5207650D01*
X7857763Y5155558D02*
X7861218Y5153038D01*
X7858697Y5149583D01*
X7855243Y5152104D01*
X7857763Y5155558D01*
X7858697Y5149583D01*
X7885118Y5156775D02*
X7894547Y5155189D01*
X7909485Y5157525D01*
X7914993Y5161447D01*
X7917513Y5164901D01*
X7919566Y5171343D01*
X7918632Y5177318D01*
X7914710Y5182826D01*
X7911256Y5185347D01*
X7904814Y5187400D01*
X7892396Y5188519D01*
X7885954Y5190572D01*
X7882500Y5193092D01*
X7878578Y5198600D01*
X7877644Y5204575D01*
X7879697Y5211017D01*
X7882217Y5214472D01*
X7887725Y5218394D01*
X7902663Y5220730D01*
X7912092Y5219143D01*
X7932538Y5225401D02*
X7957285Y5164999D01*
X7962228Y5211680D01*
X7981185Y5168736D01*
X7986313Y5233809D01*
X8019089Y5180784D02*
X8022543Y5178263D01*
X8020023Y5174809D01*
X8016568Y5177329D01*
X8019089Y5180784D01*
X8020023Y5174809D01*
X8053255Y5216731D02*
X8046813Y5218785D01*
X8043358Y5221305D01*
X8039436Y5226813D01*
X8038969Y5229800D01*
X8041022Y5236243D01*
X8043543Y5239697D01*
X8049051Y5243619D01*
X8061001Y5245488D01*
X8067443Y5243434D01*
X8070897Y5240914D01*
X8074819Y5235406D01*
X8075286Y5232419D01*
X8073233Y5225976D01*
X8070713Y5222522D01*
X8065205Y5218600D01*
X8053255Y5216731D01*
X8047747Y5212810D01*
X8045227Y5209355D01*
X8043173Y5202913D01*
X8045042Y5190963D01*
X8048964Y5185455D01*
X8052418Y5182935D01*
X8058860Y5180881D01*
X8070810Y5182750D01*
X8076318Y5186672D01*
X8078839Y5190126D01*
X8080892Y5196568D01*
X8079023Y5208518D01*
X8075102Y5214026D01*
X8071647Y5216547D01*
X8065205Y5218600D01*
%TO.C,BTN.SW.7*%
X3184791Y4575380D02*
X3194343Y4574955D01*
X3198079Y4572875D01*
X3202643Y4567886D01*
X3205126Y4559161D01*
X3203874Y4552517D01*
X3201793Y4548780D01*
X3196804Y4544217D01*
X3173538Y4537595D01*
X3156155Y4598669D01*
X3176513Y4604463D01*
X3183158Y4603211D01*
X3186894Y4601130D01*
X3191457Y4596141D01*
X3193113Y4590325D01*
X3191860Y4583680D01*
X3189780Y4579944D01*
X3184791Y4575380D01*
X3164432Y4569586D01*
X3208505Y4613569D02*
X3243404Y4623502D01*
X3243337Y4557461D02*
X3225955Y4618535D01*
X3281145Y4568221D02*
X3263763Y4629296D01*
X3316045Y4578154D01*
X3298662Y4639229D01*
X3343472Y4592248D02*
X3347209Y4590168D01*
X3345128Y4586431D01*
X3341392Y4588512D01*
X3343472Y4592248D01*
X3345128Y4586431D01*
X3370475Y4596789D02*
X3380028Y4596364D01*
X3394569Y4600503D01*
X3399558Y4605067D01*
X3401639Y4608803D01*
X3402891Y4615447D01*
X3401236Y4621264D01*
X3396672Y4626253D01*
X3392936Y4628333D01*
X3386292Y4629586D01*
X3373831Y4629184D01*
X3367186Y4630436D01*
X3363450Y4632517D01*
X3358887Y4637506D01*
X3357231Y4643322D01*
X3358484Y4649967D01*
X3360565Y4653703D01*
X3365553Y4658267D01*
X3380095Y4662405D01*
X3389648Y4661980D01*
X3409178Y4670683D02*
X3441102Y4613747D01*
X3440319Y4660683D01*
X3464369Y4620369D01*
X3461528Y4685582D01*
X3500521Y4636946D02*
X3504257Y4634866D01*
X3502177Y4631129D01*
X3498441Y4633210D01*
X3500521Y4636946D01*
X3502177Y4631129D01*
X3508061Y4698826D02*
X3548777Y4710414D01*
X3539985Y4641890D01*
%TO.C,BTN.SW.3*%
X8775856Y1558166D02*
X8784927Y1555142D01*
X8787951Y1552118D01*
X8790975Y1546071D01*
X8790975Y1536999D01*
X8787951Y1530952D01*
X8784927Y1527928D01*
X8778880Y1524904D01*
X8754689Y1524904D01*
X8754689Y1588404D01*
X8775856Y1588404D01*
X8781903Y1585380D01*
X8784927Y1582357D01*
X8787951Y1576309D01*
X8787951Y1570261D01*
X8784927Y1564214D01*
X8781903Y1561190D01*
X8775856Y1558166D01*
X8754689Y1558166D01*
X8809118Y1588404D02*
X8845403Y1588404D01*
X8827261Y1524904D02*
X8827261Y1588404D01*
X8866570Y1524904D02*
X8866570Y1588404D01*
X8902856Y1524904D01*
X8902856Y1588404D01*
X8933094Y1530952D02*
X8936118Y1527928D01*
X8933094Y1524904D01*
X8930070Y1527928D01*
X8933094Y1530952D01*
X8933094Y1524904D01*
X8960308Y1527928D02*
X8969380Y1524904D01*
X8984499Y1524904D01*
X8990546Y1527928D01*
X8993570Y1530952D01*
X8996594Y1536999D01*
X8996594Y1543047D01*
X8993570Y1549095D01*
X8990546Y1552118D01*
X8984499Y1555142D01*
X8972403Y1558166D01*
X8966356Y1561190D01*
X8963332Y1564214D01*
X8960308Y1570261D01*
X8960308Y1576309D01*
X8963332Y1582357D01*
X8966356Y1585380D01*
X8972403Y1588404D01*
X8987522Y1588404D01*
X8996594Y1585380D01*
X9017761Y1588404D02*
X9032880Y1524904D01*
X9044975Y1570261D01*
X9057070Y1524904D01*
X9072189Y1588404D01*
X9096380Y1530952D02*
X9099403Y1527928D01*
X9096380Y1524904D01*
X9093356Y1527928D01*
X9096380Y1530952D01*
X9096380Y1524904D01*
X9120570Y1588404D02*
X9159880Y1588404D01*
X9138713Y1564214D01*
X9147784Y1564214D01*
X9153832Y1561190D01*
X9156856Y1558166D01*
X9159880Y1552118D01*
X9159880Y1536999D01*
X9156856Y1530952D01*
X9153832Y1527928D01*
X9147784Y1524904D01*
X9129641Y1524904D01*
X9123594Y1527928D01*
X9120570Y1530952D01*
%TO.C,SCW.D.12*%
X8105192Y2353951D02*
X8114621Y2352365D01*
X8129559Y2354700D01*
X8135067Y2358622D01*
X8137587Y2362077D01*
X8139640Y2368519D01*
X8138706Y2374494D01*
X8134784Y2380002D01*
X8131330Y2382522D01*
X8124888Y2384575D01*
X8112470Y2385694D01*
X8106028Y2387748D01*
X8102574Y2390268D01*
X8098652Y2395776D01*
X8097718Y2401751D01*
X8099771Y2408193D01*
X8102291Y2411648D01*
X8107799Y2415569D01*
X8122737Y2417905D01*
X8132166Y2416319D01*
X8203312Y2372354D02*
X8200792Y2368899D01*
X8192297Y2364510D01*
X8186322Y2363576D01*
X8176892Y2365162D01*
X8169983Y2370203D01*
X8166061Y2375710D01*
X8161205Y2387193D01*
X8159803Y2396156D01*
X8160922Y2408573D01*
X8162976Y2415015D01*
X8168016Y2421924D01*
X8176512Y2426313D01*
X8182487Y2427248D01*
X8191916Y2425662D01*
X8195371Y2423141D01*
X8215349Y2432386D02*
X8240097Y2371984D01*
X8245040Y2418665D01*
X8263997Y2375721D01*
X8269125Y2440795D01*
X8301900Y2387769D02*
X8305355Y2385249D01*
X8302834Y2381794D01*
X8299380Y2384314D01*
X8301900Y2387769D01*
X8302834Y2381794D01*
X8332709Y2386465D02*
X8322900Y2449203D01*
X8337837Y2451539D01*
X8347267Y2449952D01*
X8354176Y2444912D01*
X8358098Y2439404D01*
X8362954Y2427921D01*
X8364355Y2418958D01*
X8363236Y2406541D01*
X8361183Y2400099D01*
X8356142Y2393190D01*
X8347647Y2388801D01*
X8332709Y2386465D01*
X8394513Y2402250D02*
X8397968Y2399730D01*
X8395447Y2396275D01*
X8391993Y2398795D01*
X8394513Y2402250D01*
X8395447Y2396275D01*
X8458185Y2406085D02*
X8422335Y2400479D01*
X8440260Y2403282D02*
X8430450Y2466020D01*
X8425877Y2456123D01*
X8420836Y2449214D01*
X8415328Y2445292D01*
X8473210Y2466585D02*
X8475730Y2470039D01*
X8481238Y2473961D01*
X8496175Y2476297D01*
X8502617Y2474243D01*
X8506072Y2471723D01*
X8509994Y2466215D01*
X8510928Y2460240D01*
X8509342Y2450810D01*
X8479098Y2409355D01*
X8517935Y2415427D01*
%TO.C,LED.D.7*%
X224787Y4515871D02*
X224787Y4485633D01*
X161287Y4485633D01*
X191525Y4537037D02*
X191525Y4558204D01*
X224787Y4567276D02*
X224787Y4537037D01*
X161287Y4537037D01*
X161287Y4567276D01*
X224787Y4594490D02*
X161287Y4594490D01*
X161287Y4609609D01*
X164311Y4618680D01*
X170359Y4624728D01*
X176406Y4627752D01*
X188501Y4630776D01*
X197573Y4630776D01*
X209668Y4627752D01*
X215716Y4624728D01*
X221763Y4618680D01*
X224787Y4609609D01*
X224787Y4594490D01*
X218739Y4657990D02*
X221763Y4661014D01*
X224787Y4657990D01*
X221763Y4654966D01*
X218739Y4657990D01*
X224787Y4657990D01*
X224787Y4688228D02*
X161287Y4688228D01*
X161287Y4703347D01*
X164311Y4712418D01*
X170359Y4718466D01*
X176406Y4721490D01*
X188501Y4724514D01*
X197573Y4724514D01*
X209668Y4721490D01*
X215716Y4718466D01*
X221763Y4712418D01*
X224787Y4703347D01*
X224787Y4688228D01*
X218739Y4751728D02*
X221763Y4754752D01*
X224787Y4751728D01*
X221763Y4748704D01*
X218739Y4751728D01*
X224787Y4751728D01*
X161287Y4775918D02*
X161287Y4818252D01*
X224787Y4791037D01*
D13*
%TO.C,HOLE.2*%
D12*
%TO.C,LED.D.5*%
X4564857Y5765565D02*
X4534619Y5765565D01*
X4534619Y5829065D01*
X4586024Y5798827D02*
X4607191Y5798827D01*
X4616262Y5765565D02*
X4586024Y5765565D01*
X4586024Y5829065D01*
X4616262Y5829065D01*
X4643476Y5765565D02*
X4643476Y5829065D01*
X4658595Y5829065D01*
X4667667Y5826041D01*
X4673714Y5819994D01*
X4676738Y5813946D01*
X4679762Y5801851D01*
X4679762Y5792779D01*
X4676738Y5780684D01*
X4673714Y5774637D01*
X4667667Y5768589D01*
X4658595Y5765565D01*
X4643476Y5765565D01*
X4706976Y5771613D02*
X4710000Y5768589D01*
X4706976Y5765565D01*
X4703952Y5768589D01*
X4706976Y5771613D01*
X4706976Y5765565D01*
X4737214Y5765565D02*
X4737214Y5829065D01*
X4752333Y5829065D01*
X4761405Y5826041D01*
X4767452Y5819994D01*
X4770476Y5813946D01*
X4773500Y5801851D01*
X4773500Y5792779D01*
X4770476Y5780684D01*
X4767452Y5774637D01*
X4761405Y5768589D01*
X4752333Y5765565D01*
X4737214Y5765565D01*
X4800714Y5771613D02*
X4803738Y5768589D01*
X4800714Y5765565D01*
X4797691Y5768589D01*
X4800714Y5771613D01*
X4800714Y5765565D01*
X4861191Y5829065D02*
X4830952Y5829065D01*
X4827929Y5798827D01*
X4830952Y5801851D01*
X4837000Y5804875D01*
X4852119Y5804875D01*
X4858167Y5801851D01*
X4861191Y5798827D01*
X4864214Y5792779D01*
X4864214Y5777660D01*
X4861191Y5771613D01*
X4858167Y5768589D01*
X4852119Y5765565D01*
X4837000Y5765565D01*
X4830952Y5768589D01*
X4827929Y5771613D01*
%TO.C,SCW.Qt.2*%
X7841157Y4074883D02*
X7850586Y4073297D01*
X7865524Y4075633D01*
X7871032Y4079555D01*
X7873552Y4083009D01*
X7875605Y4089452D01*
X7874671Y4095427D01*
X7870749Y4100934D01*
X7867295Y4103455D01*
X7860853Y4105508D01*
X7848435Y4106627D01*
X7841993Y4108680D01*
X7838539Y4111201D01*
X7834617Y4116709D01*
X7833683Y4122684D01*
X7835736Y4129126D01*
X7838256Y4132580D01*
X7843764Y4136502D01*
X7858702Y4138838D01*
X7868131Y4137252D01*
X7939277Y4093286D02*
X7936757Y4089832D01*
X7928262Y4085443D01*
X7922287Y4084509D01*
X7912857Y4086095D01*
X7905948Y4091135D01*
X7902026Y4096643D01*
X7897170Y4108126D01*
X7895768Y4117089D01*
X7896887Y4129506D01*
X7898941Y4135948D01*
X7903981Y4142857D01*
X7912477Y4147246D01*
X7918452Y4148180D01*
X7927881Y4146594D01*
X7931336Y4144074D01*
X7951314Y4153319D02*
X7976062Y4092917D01*
X7981005Y4139598D01*
X7999962Y4096654D01*
X8005090Y4161727D01*
X8037865Y4108702D02*
X8041320Y4106181D01*
X8038799Y4102727D01*
X8035345Y4105247D01*
X8037865Y4108702D01*
X8038799Y4102727D01*
X8111434Y4107963D02*
X8104992Y4110016D01*
X8098082Y4115057D01*
X8087719Y4122618D01*
X8081276Y4124671D01*
X8075301Y4123737D01*
X8080625Y4109267D02*
X8074182Y4111320D01*
X8067273Y4116361D01*
X8062417Y4127843D01*
X8059147Y4148756D01*
X8060266Y4161173D01*
X8065307Y4168082D01*
X8070815Y4172004D01*
X8082765Y4173873D01*
X8089207Y4171820D01*
X8096116Y4166779D01*
X8100972Y4155296D01*
X8104242Y4134383D01*
X8103123Y4121966D01*
X8098082Y4115057D01*
X8092575Y4111135D01*
X8080625Y4109267D01*
X8118897Y4158099D02*
X8142797Y4161836D01*
X8124590Y4180413D02*
X8132998Y4126637D01*
X8136920Y4121130D01*
X8143362Y4119076D01*
X8149337Y4120011D01*
X8169316Y4129256D02*
X8172770Y4126735D01*
X8170250Y4123281D01*
X8166795Y4125801D01*
X8169316Y4129256D01*
X8170250Y4123281D01*
X8188262Y4184247D02*
X8190782Y4187702D01*
X8196290Y4191624D01*
X8211228Y4193959D01*
X8217670Y4191906D01*
X8221124Y4189386D01*
X8225046Y4183878D01*
X8225980Y4177903D01*
X8224394Y4168473D01*
X8194150Y4127018D01*
X8232987Y4133090D01*
%TO.C,SCW.D.11*%
X7302942Y2235163D02*
X7312371Y2233576D01*
X7327309Y2235912D01*
X7332817Y2239834D01*
X7335337Y2243289D01*
X7337390Y2249731D01*
X7336456Y2255706D01*
X7332534Y2261214D01*
X7329080Y2263734D01*
X7322637Y2265787D01*
X7310220Y2266906D01*
X7303778Y2268959D01*
X7300323Y2271480D01*
X7296402Y2276988D01*
X7295467Y2282963D01*
X7297521Y2289405D01*
X7300041Y2292859D01*
X7305549Y2296781D01*
X7320486Y2299117D01*
X7329916Y2297531D01*
X7401062Y2253565D02*
X7398542Y2250111D01*
X7390046Y2245722D01*
X7384071Y2244788D01*
X7374642Y2246374D01*
X7367732Y2251414D01*
X7363811Y2256922D01*
X7358955Y2268405D01*
X7357553Y2277368D01*
X7358672Y2289785D01*
X7360725Y2296227D01*
X7365766Y2303136D01*
X7374262Y2307525D01*
X7380237Y2308460D01*
X7389666Y2306873D01*
X7393121Y2304353D01*
X7413099Y2313598D02*
X7437847Y2253196D01*
X7442790Y2299877D01*
X7461747Y2256933D01*
X7466874Y2322006D01*
X7499650Y2268981D02*
X7503105Y2266460D01*
X7500584Y2263006D01*
X7497130Y2265526D01*
X7499650Y2268981D01*
X7500584Y2263006D01*
X7530459Y2267677D02*
X7520650Y2330415D01*
X7535587Y2332750D01*
X7545017Y2331164D01*
X7551926Y2326124D01*
X7555848Y2320616D01*
X7560704Y2309133D01*
X7562105Y2300170D01*
X7560986Y2287753D01*
X7558933Y2281311D01*
X7553892Y2274402D01*
X7545397Y2270013D01*
X7530459Y2267677D01*
X7592263Y2283462D02*
X7595717Y2280942D01*
X7593197Y2277487D01*
X7589742Y2280007D01*
X7592263Y2283462D01*
X7593197Y2277487D01*
X7655935Y2287297D02*
X7620085Y2281691D01*
X7638010Y2284494D02*
X7628200Y2347232D01*
X7623626Y2337335D01*
X7618586Y2330425D01*
X7613078Y2326504D01*
X7715685Y2296639D02*
X7679835Y2291034D01*
X7697760Y2293837D02*
X7687950Y2356574D01*
X7683376Y2346677D01*
X7678336Y2339768D01*
X7672828Y2335846D01*
%TO.C,BTN.SW.4*%
X8304710Y5968166D02*
X8313781Y5965142D01*
X8316805Y5962118D01*
X8319829Y5956071D01*
X8319829Y5946999D01*
X8316805Y5940952D01*
X8313781Y5937928D01*
X8307734Y5934904D01*
X8283543Y5934904D01*
X8283543Y5998404D01*
X8304710Y5998404D01*
X8310757Y5995380D01*
X8313781Y5992357D01*
X8316805Y5986309D01*
X8316805Y5980261D01*
X8313781Y5974214D01*
X8310757Y5971190D01*
X8304710Y5968166D01*
X8283543Y5968166D01*
X8337972Y5998404D02*
X8374257Y5998404D01*
X8356115Y5934904D02*
X8356115Y5998404D01*
X8395424Y5934904D02*
X8395424Y5998404D01*
X8431710Y5934904D01*
X8431710Y5998404D01*
X8461948Y5940952D02*
X8464972Y5937928D01*
X8461948Y5934904D01*
X8458924Y5937928D01*
X8461948Y5940952D01*
X8461948Y5934904D01*
X8489162Y5937928D02*
X8498234Y5934904D01*
X8513353Y5934904D01*
X8519400Y5937928D01*
X8522424Y5940952D01*
X8525448Y5946999D01*
X8525448Y5953047D01*
X8522424Y5959095D01*
X8519400Y5962118D01*
X8513353Y5965142D01*
X8501258Y5968166D01*
X8495210Y5971190D01*
X8492186Y5974214D01*
X8489162Y5980261D01*
X8489162Y5986309D01*
X8492186Y5992357D01*
X8495210Y5995380D01*
X8501258Y5998404D01*
X8516377Y5998404D01*
X8525448Y5995380D01*
X8546615Y5998404D02*
X8561734Y5934904D01*
X8573829Y5980261D01*
X8585924Y5934904D01*
X8601043Y5998404D01*
X8625234Y5940952D02*
X8628258Y5937928D01*
X8625234Y5934904D01*
X8622210Y5937928D01*
X8625234Y5940952D01*
X8625234Y5934904D01*
X8682686Y5977238D02*
X8682686Y5934904D01*
X8667567Y6001428D02*
X8652448Y5956071D01*
X8691758Y5956071D01*
%TO.C,LED.D.3*%
X5184813Y1764904D02*
X5154575Y1764904D01*
X5154575Y1828404D01*
X5205980Y1798166D02*
X5227147Y1798166D01*
X5236218Y1764904D02*
X5205980Y1764904D01*
X5205980Y1828404D01*
X5236218Y1828404D01*
X5263432Y1764904D02*
X5263432Y1828404D01*
X5278551Y1828404D01*
X5287623Y1825380D01*
X5293670Y1819333D01*
X5296694Y1813285D01*
X5299718Y1801190D01*
X5299718Y1792118D01*
X5296694Y1780023D01*
X5293670Y1773976D01*
X5287623Y1767928D01*
X5278551Y1764904D01*
X5263432Y1764904D01*
X5326932Y1770952D02*
X5329956Y1767928D01*
X5326932Y1764904D01*
X5323909Y1767928D01*
X5326932Y1770952D01*
X5326932Y1764904D01*
X5357170Y1764904D02*
X5357170Y1828404D01*
X5372289Y1828404D01*
X5381361Y1825380D01*
X5387409Y1819333D01*
X5390432Y1813285D01*
X5393456Y1801190D01*
X5393456Y1792118D01*
X5390432Y1780023D01*
X5387409Y1773976D01*
X5381361Y1767928D01*
X5372289Y1764904D01*
X5357170Y1764904D01*
X5420670Y1770952D02*
X5423694Y1767928D01*
X5420670Y1764904D01*
X5417647Y1767928D01*
X5420670Y1770952D01*
X5420670Y1764904D01*
X5444861Y1828404D02*
X5484170Y1828404D01*
X5463004Y1804214D01*
X5472075Y1804214D01*
X5478123Y1801190D01*
X5481147Y1798166D01*
X5484170Y1792118D01*
X5484170Y1776999D01*
X5481147Y1770952D01*
X5478123Y1767928D01*
X5472075Y1764904D01*
X5453932Y1764904D01*
X5447885Y1767928D01*
X5444861Y1770952D01*
%TO.C,SCW.Qt.1*%
X7028907Y3946095D02*
X7038336Y3944509D01*
X7053274Y3946845D01*
X7058782Y3950767D01*
X7061302Y3954221D01*
X7063355Y3960663D01*
X7062421Y3966638D01*
X7058499Y3972146D01*
X7055045Y3974667D01*
X7048603Y3976720D01*
X7036185Y3977839D01*
X7029743Y3979892D01*
X7026289Y3982412D01*
X7022367Y3987920D01*
X7021433Y3993895D01*
X7023486Y4000338D01*
X7026006Y4003792D01*
X7031514Y4007714D01*
X7046452Y4010050D01*
X7055881Y4008464D01*
X7127027Y3964498D02*
X7124507Y3961043D01*
X7116012Y3956655D01*
X7110037Y3955720D01*
X7100607Y3957306D01*
X7093698Y3962347D01*
X7089776Y3967855D01*
X7084920Y3979338D01*
X7083518Y3988300D01*
X7084637Y4000718D01*
X7086691Y4007160D01*
X7091731Y4014069D01*
X7100227Y4018458D01*
X7106202Y4019392D01*
X7115632Y4017806D01*
X7119086Y4015286D01*
X7139064Y4024531D02*
X7163812Y3964129D01*
X7168755Y4010810D01*
X7187712Y3967866D01*
X7192840Y4032939D01*
X7225615Y3979913D02*
X7229070Y3977393D01*
X7226549Y3973938D01*
X7223095Y3976459D01*
X7225615Y3979913D01*
X7226549Y3973938D01*
X7299184Y3979175D02*
X7292742Y3981228D01*
X7285833Y3986269D01*
X7275469Y3993830D01*
X7269026Y3995883D01*
X7263051Y3994949D01*
X7268375Y3980478D02*
X7261932Y3982532D01*
X7255023Y3987572D01*
X7250167Y3999055D01*
X7246897Y4019968D01*
X7248016Y4032385D01*
X7253057Y4039294D01*
X7258565Y4043216D01*
X7270515Y4045085D01*
X7276957Y4043031D01*
X7283866Y4037991D01*
X7288722Y4026508D01*
X7291992Y4005595D01*
X7290873Y3993178D01*
X7285833Y3986269D01*
X7280325Y3982347D01*
X7268375Y3980478D01*
X7306647Y4029310D02*
X7330547Y4033048D01*
X7312340Y4051624D02*
X7320748Y3997849D01*
X7324670Y3992341D01*
X7331112Y3990288D01*
X7337087Y3991222D01*
X7357066Y4000467D02*
X7360520Y3997947D01*
X7358000Y3994492D01*
X7354545Y3997013D01*
X7357066Y4000467D01*
X7358000Y3994492D01*
X7420738Y4004302D02*
X7384887Y3998697D01*
X7402813Y4001499D02*
X7393003Y4064237D01*
X7388429Y4054340D01*
X7383388Y4047431D01*
X7377880Y4043509D01*
D14*
%TO.C,MOS.U.2*%
X5107795Y3177161D02*
X4994882Y3159506D01*
X5051338Y3168333D02*
X5020441Y3365932D01*
X5006036Y3334761D01*
X4990160Y3313000D01*
X4972812Y3300648D01*
D11*
X3182256Y2264509D02*
X3184754Y2279359D01*
X3181076Y2302883D01*
X3174900Y2311557D01*
X3169459Y2315526D01*
X3159314Y2318759D01*
X3149905Y2317288D01*
X3141231Y2311112D01*
X3137262Y2305671D01*
X3134028Y2295526D01*
X3132266Y2275972D01*
X3129033Y2265827D01*
X3125064Y2260386D01*
X3116390Y2254210D01*
X3106980Y2252739D01*
X3096835Y2255972D01*
X3091395Y2259941D01*
X3085219Y2268615D01*
X3081541Y2292139D01*
X3084038Y2306989D01*
X3160922Y2400947D02*
X3167098Y2392273D01*
X3170041Y2373454D01*
X3166808Y2363309D01*
X3158134Y2357133D01*
X3120496Y2351248D01*
X3110351Y2354481D01*
X3104175Y2363155D01*
X3101232Y2381974D01*
X3104465Y2392119D01*
X3113139Y2398295D01*
X3122549Y2399766D01*
X3139315Y2354190D01*
X3092404Y2438431D02*
X3158271Y2448730D01*
X3101814Y2439902D02*
X3096373Y2443871D01*
X3090197Y2452545D01*
X3087990Y2466659D01*
X3091224Y2476804D01*
X3099898Y2482980D01*
X3151650Y2491072D01*
X3140324Y2532679D02*
X3143558Y2542824D01*
X3140615Y2561643D01*
X3134439Y2570317D01*
X3124294Y2573551D01*
X3119589Y2572815D01*
X3110915Y2566639D01*
X3107682Y2556494D01*
X3109889Y2542380D01*
X3106655Y2532235D01*
X3097982Y2526058D01*
X3093277Y2525323D01*
X3083132Y2528556D01*
X3076956Y2537230D01*
X3074749Y2551344D01*
X3077982Y2561489D01*
X3129580Y2632214D02*
X3126347Y2622069D01*
X3122378Y2616629D01*
X3113704Y2610453D01*
X3085475Y2606039D01*
X3075330Y2609272D01*
X3069890Y2613242D01*
X3063714Y2621915D01*
X3061507Y2636030D01*
X3064740Y2646175D01*
X3068710Y2651615D01*
X3077383Y2657791D01*
X3105612Y2662205D01*
X3115757Y2658972D01*
X3121197Y2655003D01*
X3127373Y2646329D01*
X3129580Y2632214D01*
X3117810Y2707490D02*
X3051944Y2697191D01*
X3070763Y2700134D02*
X3060617Y2703367D01*
X3055177Y2707336D01*
X3049001Y2716010D01*
X3047530Y2725420D01*
X3092507Y2838487D02*
X3095005Y2853337D01*
X3091327Y2876861D01*
X3085151Y2885535D01*
X3079710Y2889504D01*
X3069565Y2892737D01*
X3060156Y2891266D01*
X3051482Y2885090D01*
X3047513Y2879649D01*
X3044279Y2869504D01*
X3042517Y2849950D01*
X3039284Y2839805D01*
X3035314Y2834364D01*
X3026641Y2828188D01*
X3017231Y2826717D01*
X3007086Y2829950D01*
X3001646Y2833919D01*
X2995470Y2842593D01*
X2991791Y2866117D01*
X2994289Y2880967D01*
X3081763Y2938022D02*
X3015897Y2927723D01*
X2982964Y2922574D02*
X2988404Y2918605D01*
X2992373Y2924045D01*
X2986933Y2928014D01*
X2982964Y2922574D01*
X2992373Y2924045D01*
X3067786Y3027412D02*
X2968986Y3011964D01*
X3063081Y3026677D02*
X3069257Y3018003D01*
X3072200Y2999184D01*
X3068966Y2989039D01*
X3064997Y2983598D01*
X3056323Y2977422D01*
X3028095Y2973008D01*
X3017950Y2976242D01*
X3012509Y2980211D01*
X3006333Y2988885D01*
X3003391Y3007704D01*
X3006624Y3017849D01*
X3049839Y3111362D02*
X3056015Y3102688D01*
X3058958Y3083869D01*
X3055725Y3073724D01*
X3047051Y3067548D01*
X3009413Y3061663D01*
X2999268Y3064896D01*
X2993092Y3073570D01*
X2990149Y3092389D01*
X2993383Y3102534D01*
X3002056Y3108710D01*
X3011466Y3110182D01*
X3028232Y3064605D01*
D12*
%TO.C,LED.D.1*%
X1512305Y995213D02*
X1482067Y995213D01*
X1482067Y1058713D01*
X1533472Y1028475D02*
X1554638Y1028475D01*
X1563710Y995213D02*
X1533472Y995213D01*
X1533472Y1058713D01*
X1563710Y1058713D01*
X1590924Y995213D02*
X1590924Y1058713D01*
X1606043Y1058713D01*
X1615114Y1055689D01*
X1621162Y1049641D01*
X1624186Y1043594D01*
X1627210Y1031498D01*
X1627210Y1022427D01*
X1624186Y1010332D01*
X1621162Y1004284D01*
X1615114Y998236D01*
X1606043Y995213D01*
X1590924Y995213D01*
X1654424Y1001260D02*
X1657448Y998236D01*
X1654424Y995213D01*
X1651400Y998236D01*
X1654424Y1001260D01*
X1654424Y995213D01*
X1684662Y995213D02*
X1684662Y1058713D01*
X1699781Y1058713D01*
X1708853Y1055689D01*
X1714900Y1049641D01*
X1717924Y1043594D01*
X1720948Y1031498D01*
X1720948Y1022427D01*
X1717924Y1010332D01*
X1714900Y1004284D01*
X1708853Y998236D01*
X1699781Y995213D01*
X1684662Y995213D01*
X1748162Y1001260D02*
X1751186Y998236D01*
X1748162Y995213D01*
X1745138Y998236D01*
X1748162Y1001260D01*
X1748162Y995213D01*
X1811662Y995213D02*
X1775376Y995213D01*
X1793519Y995213D02*
X1793519Y1058713D01*
X1787472Y1049641D01*
X1781424Y1043594D01*
X1775376Y1040570D01*
%TO.C,BTN.SW.5*%
X7233815Y5785103D02*
X7243368Y5784678D01*
X7247104Y5782597D01*
X7251668Y5777608D01*
X7254151Y5768884D01*
X7252898Y5762239D01*
X7250817Y5758503D01*
X7245829Y5753939D01*
X7222562Y5747317D01*
X7205180Y5808392D01*
X7225538Y5814186D01*
X7232182Y5812933D01*
X7235918Y5810853D01*
X7240482Y5805864D01*
X7242137Y5800047D01*
X7240885Y5793403D01*
X7238804Y5789667D01*
X7233815Y5785103D01*
X7213457Y5779309D01*
X7257529Y5823291D02*
X7292429Y5833224D01*
X7292362Y5767183D02*
X7274979Y5828258D01*
X7330170Y5777944D02*
X7312787Y5839018D01*
X7365069Y5787877D01*
X7347687Y5848951D01*
X7392497Y5801971D02*
X7396233Y5799890D01*
X7394152Y5796154D01*
X7390416Y5798235D01*
X7392497Y5801971D01*
X7394152Y5796154D01*
X7419499Y5806512D02*
X7429052Y5806087D01*
X7443594Y5810226D01*
X7448583Y5814789D01*
X7450663Y5818526D01*
X7451916Y5825170D01*
X7450261Y5830986D01*
X7445697Y5835975D01*
X7441961Y5838056D01*
X7435316Y5839309D01*
X7422855Y5838906D01*
X7416211Y5840159D01*
X7412475Y5842240D01*
X7407911Y5847228D01*
X7406256Y5853045D01*
X7407508Y5859689D01*
X7409589Y5863425D01*
X7414578Y5867989D01*
X7429119Y5872128D01*
X7438672Y5871703D01*
X7458203Y5880405D02*
X7490127Y5823470D01*
X7489344Y5870405D01*
X7513393Y5830091D01*
X7510552Y5895305D01*
X7549546Y5846669D02*
X7553282Y5844588D01*
X7551201Y5840852D01*
X7547465Y5842933D01*
X7549546Y5846669D01*
X7551201Y5840852D01*
X7591985Y5918481D02*
X7562902Y5910204D01*
X7568271Y5880293D01*
X7570351Y5884029D01*
X7575340Y5888593D01*
X7589882Y5892732D01*
X7596526Y5891479D01*
X7600262Y5889398D01*
X7604826Y5884409D01*
X7608965Y5869868D01*
X7607712Y5863224D01*
X7605631Y5859487D01*
X7600642Y5854924D01*
X7586101Y5850785D01*
X7579457Y5852038D01*
X7575721Y5854118D01*
%TO.C,LBS.SW.1*%
X8478372Y5214904D02*
X8448134Y5214904D01*
X8448134Y5278404D01*
X8520705Y5248166D02*
X8529777Y5245142D01*
X8532800Y5242118D01*
X8535824Y5236071D01*
X8535824Y5226999D01*
X8532800Y5220952D01*
X8529777Y5217928D01*
X8523729Y5214904D01*
X8499538Y5214904D01*
X8499538Y5278404D01*
X8520705Y5278404D01*
X8526753Y5275380D01*
X8529777Y5272357D01*
X8532800Y5266309D01*
X8532800Y5260261D01*
X8529777Y5254214D01*
X8526753Y5251190D01*
X8520705Y5248166D01*
X8499538Y5248166D01*
X8560015Y5217928D02*
X8569086Y5214904D01*
X8584205Y5214904D01*
X8590253Y5217928D01*
X8593277Y5220952D01*
X8596300Y5226999D01*
X8596300Y5233047D01*
X8593277Y5239095D01*
X8590253Y5242118D01*
X8584205Y5245142D01*
X8572110Y5248166D01*
X8566062Y5251190D01*
X8563038Y5254214D01*
X8560015Y5260261D01*
X8560015Y5266309D01*
X8563038Y5272357D01*
X8566062Y5275380D01*
X8572110Y5278404D01*
X8587229Y5278404D01*
X8596300Y5275380D01*
X8623515Y5220952D02*
X8626538Y5217928D01*
X8623515Y5214904D01*
X8620491Y5217928D01*
X8623515Y5220952D01*
X8623515Y5214904D01*
X8650729Y5217928D02*
X8659800Y5214904D01*
X8674919Y5214904D01*
X8680967Y5217928D01*
X8683991Y5220952D01*
X8687015Y5226999D01*
X8687015Y5233047D01*
X8683991Y5239095D01*
X8680967Y5242118D01*
X8674919Y5245142D01*
X8662824Y5248166D01*
X8656777Y5251190D01*
X8653753Y5254214D01*
X8650729Y5260261D01*
X8650729Y5266309D01*
X8653753Y5272357D01*
X8656777Y5275380D01*
X8662824Y5278404D01*
X8677943Y5278404D01*
X8687015Y5275380D01*
X8708181Y5278404D02*
X8723300Y5214904D01*
X8735396Y5260261D01*
X8747491Y5214904D01*
X8762610Y5278404D01*
X8786800Y5220952D02*
X8789824Y5217928D01*
X8786800Y5214904D01*
X8783777Y5217928D01*
X8786800Y5220952D01*
X8786800Y5214904D01*
X8850300Y5214904D02*
X8814015Y5214904D01*
X8832158Y5214904D02*
X8832158Y5278404D01*
X8826110Y5269333D01*
X8820062Y5263285D01*
X8814015Y5260261D01*
%TO.C,MCU.R.20*%
X215096Y2804689D02*
X151596Y2804689D01*
X196953Y2825856D01*
X151596Y2847022D01*
X215096Y2847022D01*
X209048Y2913546D02*
X212072Y2910522D01*
X215096Y2901451D01*
X215096Y2895403D01*
X212072Y2886332D01*
X206024Y2880284D01*
X199977Y2877260D01*
X187881Y2874237D01*
X178810Y2874237D01*
X166715Y2877260D01*
X160667Y2880284D01*
X154620Y2886332D01*
X151596Y2895403D01*
X151596Y2901451D01*
X154620Y2910522D01*
X157643Y2913546D01*
X151596Y2940760D02*
X203000Y2940760D01*
X209048Y2943784D01*
X212072Y2946808D01*
X215096Y2952856D01*
X215096Y2964951D01*
X212072Y2970999D01*
X209048Y2974022D01*
X203000Y2977046D01*
X151596Y2977046D01*
X209048Y3007284D02*
X212072Y3010308D01*
X215096Y3007284D01*
X212072Y3004260D01*
X209048Y3007284D01*
X215096Y3007284D01*
X215096Y3073808D02*
X184857Y3052641D01*
X215096Y3037522D02*
X151596Y3037522D01*
X151596Y3061713D01*
X154620Y3067760D01*
X157643Y3070784D01*
X163691Y3073808D01*
X172762Y3073808D01*
X178810Y3070784D01*
X181834Y3067760D01*
X184857Y3061713D01*
X184857Y3037522D01*
X209048Y3101022D02*
X212072Y3104046D01*
X215096Y3101022D01*
X212072Y3097999D01*
X209048Y3101022D01*
X215096Y3101022D01*
X157643Y3128237D02*
X154620Y3131260D01*
X151596Y3137308D01*
X151596Y3152427D01*
X154620Y3158475D01*
X157643Y3161499D01*
X163691Y3164522D01*
X169739Y3164522D01*
X178810Y3161499D01*
X215096Y3125213D01*
X215096Y3164522D01*
X151596Y3203832D02*
X151596Y3209879D01*
X154620Y3215927D01*
X157643Y3218951D01*
X163691Y3221975D01*
X175786Y3224999D01*
X190905Y3224999D01*
X203000Y3221975D01*
X209048Y3218951D01*
X212072Y3215927D01*
X215096Y3209879D01*
X215096Y3203832D01*
X212072Y3197784D01*
X209048Y3194760D01*
X203000Y3191737D01*
X190905Y3188713D01*
X175786Y3188713D01*
X163691Y3191737D01*
X157643Y3194760D01*
X154620Y3197784D01*
X151596Y3203832D01*
D15*
%TO.C,MCH.LOGO.2*%
X2140000Y1640000D02*
X2590000Y1640000D01*
X2140000Y1640000D02*
X2140000Y2090000D01*
D16*
%TO.C,LBS.SW.2*%
X10057500Y1860000D02*
X10057500Y1950000D01*
D17*
X9877500Y2630000D02*
X10127500Y2630000D01*
D16*
X9867500Y2500000D02*
X9957500Y2410000D01*
D18*
X9057500Y2100000D02*
X10157500Y2100000D01*
D16*
X9957500Y2270000D02*
X9957500Y2410000D01*
X9787500Y2170000D02*
X9857500Y2170000D01*
X9787500Y2500000D02*
X9867500Y2500000D01*
D18*
X9057500Y2580000D02*
X10157500Y2580000D01*
D16*
X10057500Y1860000D02*
X10147500Y1950000D01*
X9857500Y2170000D02*
X9957500Y2270000D01*
X9837500Y1950000D02*
X10147500Y1950000D01*
D17*
X9877500Y2060000D02*
X10127500Y2060000D01*
D16*
%TO.C,BTN.SW.6*%
X5856897Y3648767D02*
X5904787Y3342488D01*
X5684338Y3328261D02*
X5695152Y3259102D01*
X5356755Y3287162D02*
X5431771Y3389984D01*
D17*
X5188150Y3523957D02*
X5226771Y3276958D01*
D16*
X5356755Y3287162D02*
X5369114Y3208122D01*
D18*
X5232915Y3561321D02*
X5402848Y2474527D01*
D16*
X5570091Y3411612D02*
X5684338Y3328261D01*
X5870800Y3559847D02*
X5959720Y3573751D01*
D17*
X5751307Y3612013D02*
X5789928Y3365015D01*
D16*
X5856897Y3648767D02*
X5959720Y3573751D01*
D18*
X5707153Y3635474D02*
X5877086Y2548679D01*
D16*
X5431771Y3389984D02*
X5570091Y3411612D01*
D18*
%TO.C,MCU.Y.1*%
X939999Y3649999D02*
X1140000Y3649999D01*
X939999Y4009999D02*
X1140000Y4009999D01*
D15*
%TO.C,USB.Z.1*%
X9276495Y3664514D02*
G75*
G03*
X9276495Y3664514I-12500J0D01*
G01*
D18*
%TO.C,MCU.U.1*%
X760000Y3069999D02*
X1680000Y3069999D01*
X1680000Y2150000D02*
X1680000Y3069999D01*
X760000Y2150000D02*
X1680000Y2150000D01*
X760000Y2150000D02*
X760000Y3069999D01*
D16*
X1610000Y2250000D02*
G75*
G03*
X1610000Y2250000I-30000J0D01*
G01*
D11*
X1807500Y2127499D02*
G75*
G03*
X1807500Y2127499I-12500J0D01*
G01*
D16*
%TO.C,BTN.SW.8*%
X7397838Y4636756D02*
X7476878Y4649114D01*
X7273387Y4850091D02*
X7295015Y4711771D01*
X7356738Y4964338D02*
X7425898Y4975152D01*
X7273387Y4850091D02*
X7356738Y4964338D01*
D17*
X7161042Y4468150D02*
X7408041Y4506771D01*
D18*
X7049526Y4987153D02*
X8136320Y5157086D01*
X7123678Y4512915D02*
X8210473Y4682848D01*
D16*
X7036233Y5136897D02*
X7342511Y5184787D01*
D17*
X7072986Y5031307D02*
X7319985Y5069928D01*
D16*
X7111249Y5239720D02*
X7125152Y5150801D01*
X7036233Y5136897D02*
X7111249Y5239720D01*
X7295015Y4711771D02*
X7397838Y4636756D01*
%TO.C,BTN.SW.7*%
X4090474Y4085357D02*
X4388633Y4170217D01*
X4326707Y4059018D02*
X4388633Y4170217D01*
X4049487Y4302429D02*
X4118293Y4425983D01*
D17*
X4098834Y4202105D02*
X4339285Y4270540D01*
D18*
X3299206Y4016110D02*
X4357190Y4317225D01*
D16*
X3982160Y4283267D02*
X4049487Y4302429D01*
X4079969Y4560635D02*
X4118293Y4425983D01*
D18*
X3167810Y4477775D02*
X4225794Y4778890D01*
D16*
X3968770Y4622561D02*
X4079969Y4560635D01*
X4302071Y4145580D02*
X4326707Y4059018D01*
X3891826Y4600662D02*
X3968770Y4622561D01*
D17*
X3942802Y4750333D02*
X4183253Y4818768D01*
D18*
%TO.C,REG.U.3*%
X670000Y1525000D02*
X670000Y1615000D01*
X670000Y1525000D02*
X970000Y1525000D01*
X970000Y1525000D02*
X970000Y1615000D01*
X670000Y1615000D02*
X970000Y1615000D01*
D11*
X652500Y1435000D02*
G75*
G03*
X652500Y1435000I-12500J0D01*
G01*
D18*
%TO.C,BTN.SW.3*%
X8758894Y1019701D02*
X9858894Y1019701D01*
D16*
X9758894Y779701D02*
X9758894Y869701D01*
X9488894Y1089701D02*
X9558894Y1089701D01*
X9568894Y1419700D02*
X9658893Y1329701D01*
D18*
X8758894Y1499701D02*
X9858894Y1499701D01*
D17*
X9578894Y979701D02*
X9828894Y979701D01*
D16*
X9488894Y1419700D02*
X9568894Y1419700D01*
D17*
X9578894Y1549701D02*
X9828894Y1549701D01*
D16*
X9558894Y1089701D02*
X9658893Y1189701D01*
X9758894Y779701D02*
X9848894Y869701D01*
X9538894Y869701D02*
X9848894Y869701D01*
X9658893Y1189701D02*
X9658893Y1329701D01*
D19*
%TO.C,SCW.D.12*%
X8044040Y2460320D02*
X8182359Y2481948D01*
D18*
%TO.C,LED.D.7*%
X162500Y4300000D02*
X220000Y4300000D01*
X162500Y4357500D02*
X220000Y4300000D01*
X162500Y4300000D02*
X162500Y4357500D01*
%TO.C,LED.D.5*%
X4983645Y5441751D02*
X5054689Y5402187D01*
X4983645Y5441751D02*
X4999385Y5386447D01*
X4999385Y5386447D02*
X5054689Y5402187D01*
D19*
%TO.C,SCW.Qt.2*%
X8090141Y4563056D02*
X8228460Y4584684D01*
D18*
%TO.C,REG.U.4*%
X2754849Y3611287D02*
X2768753Y3522368D01*
X3051247Y3657632D02*
X3065151Y3568713D01*
X2754849Y3611287D02*
X3051247Y3657632D01*
X2768753Y3522368D02*
X3065151Y3568713D01*
D11*
X3079484Y3751187D02*
G75*
G03*
X3079484Y3751187I-12500J0D01*
G01*
D19*
%TO.C,SCW.D.11*%
X7229039Y2332822D02*
X7367358Y2354449D01*
D16*
%TO.C,BTN.SW.4*%
X8987500Y6115000D02*
X9057500Y6115000D01*
X9067500Y6445000D02*
X9157500Y6355000D01*
X9037500Y5895000D02*
X9347500Y5895000D01*
D18*
X8257500Y6525000D02*
X9357500Y6525000D01*
D17*
X9077500Y6005000D02*
X9327500Y6005000D01*
X9077500Y6575000D02*
X9327500Y6575000D01*
D16*
X8987500Y6445000D02*
X9067500Y6445000D01*
X9157500Y6215000D02*
X9157500Y6355000D01*
X9257500Y5805001D02*
X9347500Y5895000D01*
X9257500Y5805001D02*
X9257500Y5895000D01*
X9057500Y6115000D02*
X9157500Y6215000D01*
D18*
X8257500Y6045000D02*
X9357500Y6045000D01*
%TO.C,LED.D.3*%
X4886406Y1650596D02*
X4941710Y1666336D01*
X4902146Y1595292D02*
X4941710Y1666336D01*
X4886406Y1650596D02*
X4902146Y1595292D01*
D19*
%TO.C,SCW.Qt.1*%
X7275141Y4435551D02*
X7413460Y4457179D01*
D20*
%TO.C,MOS.U.2*%
X4732724Y3463127D02*
X4927852Y3493638D01*
D18*
%TO.C,LED.D.1*%
X1647523Y397510D02*
X1705023Y455010D01*
X1705023Y397510D02*
X1705023Y455010D01*
X1647523Y397510D02*
X1705023Y397510D01*
D16*
%TO.C,BTN.SW.5*%
X6836707Y5429017D02*
X6875031Y5294365D01*
X6566367Y5684783D02*
X6628293Y5795982D01*
X6986230Y5232439D02*
X7063174Y5254338D01*
D18*
X6597810Y5537775D02*
X7655794Y5838890D01*
D16*
X6905513Y5552571D02*
X6972840Y5571733D01*
D17*
X6771747Y5036232D02*
X7012198Y5104667D01*
X6615715Y5584460D02*
X6856166Y5652895D01*
D16*
X6875031Y5294365D02*
X6986230Y5232439D01*
X6566367Y5684783D02*
X6864526Y5769643D01*
X6836707Y5429017D02*
X6905513Y5552571D01*
D18*
X6729206Y5076110D02*
X7787190Y5377224D01*
D16*
X6628293Y5795982D02*
X6652929Y5709420D01*
D17*
%TO.C,LBS.SW.1*%
X9277500Y5275000D02*
X9527500Y5275000D01*
D16*
X9257500Y5385000D02*
X9357500Y5485000D01*
X9187500Y5715000D02*
X9267500Y5715000D01*
D18*
X8457500Y5795000D02*
X9557500Y5795000D01*
D16*
X9357500Y5485000D02*
X9357500Y5625000D01*
X9267500Y5715000D02*
X9357500Y5625000D01*
X9237500Y5165000D02*
X9547500Y5165000D01*
D18*
X8457500Y5315000D02*
X9557500Y5315000D01*
D16*
X9457500Y5075000D02*
X9457500Y5165000D01*
X9187500Y5385000D02*
X9257500Y5385000D01*
X9457500Y5075000D02*
X9547500Y5165000D01*
D17*
X9277500Y5845000D02*
X9527500Y5845000D01*
%TD*%
M02*
