%TF.GenerationSoftware,Altium Limited,Altium Designer,22.6.1 (34)*%
G04 Layer_Color=0*
%FSLAX45Y45*%
%MOMM*%
%TF.SameCoordinates,EFAF5BE3-474D-4A98-89D0-AE48FBC3E593*%
%TF.FilePolarity,Positive*%
%TF.FileFunction,NonPlated,1,4,NPTH,Drill*%
%TF.Part,Single*%
G01*
G75*
%TA.AperFunction,ComponentDrill*%
G04:AMPARAMS|DCode=162|XSize=17.7mm|YSize=8.6mm|CornerRadius=0mm|HoleSize=0mm|Usage=FLASHONLY|Rotation=8.887|XOffset=0mm|YOffset=0mm|HoleType=Round|Shape=Rectangle|*
%AMROTATEDRECTD162*
4,1,4,-8.07947,-5.61557,-9.40804,2.88119,8.07947,5.61557,9.40804,-2.88119,-8.07947,-5.61557,0.0*
%
%ADD162ROTATEDRECTD162*%

G36*
X6346113Y2924192D02*
X6268870Y3418190D01*
X6265833Y3437617D01*
X6264881Y3476931D01*
X6269069Y3516034D01*
X6278325Y3554255D01*
X6292490Y3590941D01*
X6311323Y3625464D01*
X6334501Y3657234D01*
X6361628Y3685707D01*
X6392239Y3710395D01*
X6425810Y3730877D01*
X6461768Y3746801D01*
X6499496Y3757896D01*
X6518923Y3760934D01*
X6518923D01*
X6518924D01*
X8791312Y4116249D01*
X8810739Y4119286D01*
X8850054Y4120238D01*
X8889156Y4116050D01*
X8927378Y4106794D01*
X8964064Y4092629D01*
X8998587Y4073796D01*
X9030357Y4050618D01*
X9058829Y4023491D01*
X9083518Y3992880D01*
X9104000Y3959309D01*
X9119924Y3923351D01*
X9131019Y3885622D01*
X9134056Y3866195D01*
D01*
X9211299Y3372198D01*
X9214336Y3352771D01*
X9215288Y3313456D01*
X9211100Y3274354D01*
X9201844Y3236133D01*
X9187679Y3199446D01*
X9168846Y3164923D01*
X9145668Y3133153D01*
X9118541Y3104681D01*
X9087930Y3079993D01*
X9054359Y3059511D01*
X9018401Y3043586D01*
X8980673Y3032492D01*
X8961246Y3029454D01*
Y3029454D01*
X6688857Y2674139D01*
X6669430Y2671101D01*
X6630115Y2670150D01*
X6591013Y2674338D01*
X6552792Y2683593D01*
X6516105Y2697759D01*
X6481582Y2716592D01*
X6449812Y2739770D01*
X6421339Y2766896D01*
X6396651Y2797507D01*
X6376170Y2831079D01*
X6360245Y2867037D01*
X6349150Y2904765D01*
X6346113Y2924192D01*
Y2924192D01*
D02*
G37*
D162*
X4052146Y2815210D02*
D03*
%TF.MD5,817ea41ea96bfe75a925724ea4153568*%
M02*
